<?xml version="1.0" encoding="UTF-8"?>
<!DOCTYPE svg PUBLIC "-//W3C//DTD SVG 1.1//EN" "http://www.w3.org/Graphics/SVG/1.1/DTD/svg11.dtd">
<!-- Creator: CorelDRAW 2019 (64-Bit) -->
<svg xmlns="http://www.w3.org/2000/svg" xml:space="preserve" width="404px" height="256px" version="1.1" style="shape-rendering:geometricPrecision; text-rendering:geometricPrecision; image-rendering:optimizeQuality; fill-rule:evenodd; clip-rule:evenodd"
viewBox="0 0 61.73 39.12"
 xmlns:xlink="http://www.w3.org/1999/xlink">
 <defs>
  <style type="text/css">
   <![CDATA[
    .fil0 {fill:none}
    .fil7 {fill:#005889}
    .fil4 {fill:#359ED8}
    .fil1 {fill:#5AAAE0}
    .fil2 {fill:#7DC7FF}
    .fil3 {fill:#F73445}
    .fil5 {fill:#F7F769}
    .fil6 {fill:#FFC943}
   ]]>
  </style>
 </defs>
 <g id="Layer_x0020_1">
  <metadata id="CorelCorpID_0Corel-Layer"/>
  <rect class="fil0" width="61.73" height="39.12"/>
  <g id="experience.svg">
   <polygon class="fil1" points="12.73,12.08 22.95,12.08 22.95,37.59 12.73,37.59 "/>
   <polygon class="fil1" points="38.7,12.08 49,12.08 49,37.59 38.7,37.59 "/>
   <polygon class="fil2" points="22.95,1.53 38.7,1.53 38.7,37.59 22.95,37.59 "/>
   <path class="fil3" d="M32.12 29.52c0.7,-0.43 1.13,-1.19 1.14,-2.01 -0.02,-1.32 -1.09,-2.38 -2.41,-2.38 -1.31,0 -2.38,1.06 -2.4,2.38 0,0.82 0.43,1.58 1.14,2.01 -1.4,0.51 -2.34,1.84 -2.34,3.33l0 4.74 7.21 0 0 -4.74c-0.01,-1.49 -0.94,-2.82 -2.34,-3.33l0 0z"/>
   <g>
    <polygon class="fil4" points="25.37,14.46 26.58,14.46 26.58,15.64 25.37,15.64 "/>
    <polygon class="fil4" points="25.37,16.83 26.58,16.83 26.58,18.02 25.37,18.02 "/>
    <polygon class="fil4" points="25.37,19.2 26.58,19.2 26.58,20.39 25.37,20.39 "/>
    <polygon class="fil4" points="25.37,21.57 26.58,21.57 26.58,22.76 25.37,22.76 "/>
    <polygon class="fil4" points="27.79,14.46 29.01,14.46 29.01,15.64 27.79,15.64 "/>
    <polygon class="fil4" points="27.79,16.83 29.01,16.83 29.01,18.02 27.79,18.02 "/>
    <polygon class="fil4" points="27.79,19.2 29.01,19.2 29.01,20.39 27.79,20.39 "/>
    <polygon class="fil4" points="27.79,21.57 29.01,21.57 29.01,22.76 27.79,22.76 "/>
    <polygon class="fil4" points="30.22,14.46 31.43,14.46 31.43,15.64 30.22,15.64 "/>
    <polygon class="fil4" points="30.22,16.83 31.43,16.83 31.43,18.02 30.22,18.02 "/>
    <polygon class="fil4" points="30.22,19.2 31.43,19.2 31.43,20.39 30.22,20.39 "/>
    <polygon class="fil4" points="30.22,21.57 31.43,21.57 31.43,22.76 30.22,22.76 "/>
    <polygon class="fil4" points="32.64,14.46 33.85,14.46 33.85,15.64 32.64,15.64 "/>
    <polygon class="fil4" points="27.79,12.08 29.01,12.08 29.01,13.27 27.79,13.27 "/>
    <polygon class="fil4" points="30.22,12.08 31.43,12.08 31.43,13.27 30.22,13.27 "/>
    <polygon class="fil4" points="32.64,12.08 33.85,12.08 33.85,13.27 32.64,13.27 "/>
    <polygon class="fil4" points="32.64,16.83 33.85,16.83 33.85,18.02 32.64,18.02 "/>
    <polygon class="fil4" points="32.64,19.2 33.85,19.2 33.85,20.39 32.64,20.39 "/>
    <polygon class="fil4" points="32.64,21.57 33.85,21.57 33.85,22.76 32.64,22.76 "/>
    <polygon class="fil4" points="35.07,14.46 36.28,14.46 36.28,15.64 35.07,15.64 "/>
    <polygon class="fil4" points="35.07,16.83 36.28,16.83 36.28,18.02 35.07,18.02 "/>
    <polygon class="fil4" points="35.07,19.2 36.28,19.2 36.28,20.39 35.07,20.39 "/>
    <polygon class="fil4" points="35.07,21.57 36.28,21.57 36.28,22.76 35.07,22.76 "/>
   </g>
   <path class="fil5" d="M19.83 31.87c0.44,-0.33 0.7,-0.85 0.7,-1.4 -0.01,-0.98 -0.81,-1.78 -1.8,-1.78 -0.99,0 -1.79,0.8 -1.8,1.78 0,0.55 0.26,1.07 0.7,1.4 -1.15,0.44 -1.9,1.53 -1.91,2.76l0 2.96 6.01 0 0 -2.96c0,-1.23 -0.76,-2.32 -1.9,-2.76l0 0z"/>
   <path class="fil6" d="M25.29 30.09c0.43,-0.33 0.69,-0.85 0.7,-1.4 -0.02,-0.98 -0.82,-1.78 -1.81,-1.78 -0.98,0 -1.79,0.8 -1.8,1.78 0,0.55 0.26,1.07 0.7,1.4 -1.14,0.44 -1.9,1.53 -1.9,2.76l0 4.74 6.01 0 0 -4.74c-0.01,-1.23 -0.76,-2.32 -1.9,-2.76l0 0z"/>
   <path class="fil5" d="M44.07 31.87c0.44,-0.33 0.7,-0.85 0.7,-1.4 -0.01,-0.98 -0.82,-1.78 -1.8,-1.78 -0.99,0 -1.79,0.8 -1.81,1.78 0.01,0.55 0.27,1.07 0.7,1.4 -1.14,0.44 -1.89,1.53 -1.9,2.76l0 2.96 6.01 0 0 -2.96c0,-1.23 -0.76,-2.32 -1.9,-2.76l0 0z"/>
   <path class="fil6" d="M38.62 30.09c0.44,-0.33 0.7,-0.85 0.7,-1.4 -0.02,-0.98 -0.82,-1.78 -1.81,-1.78 -0.98,0 -1.79,0.8 -1.8,1.78 0,0.55 0.26,1.07 0.7,1.4 -1.14,0.44 -1.9,1.53 -1.9,2.76l0 4.74 6.01 0 0 -4.74c-0.01,-1.23 -0.76,-2.32 -1.9,-2.76l0 0z"/>
   <polygon class="fil7" points="41.73,16.24 42.94,16.24 42.94,25.73 41.73,25.73 "/>
   <polygon class="fil7" points="45.37,16.24 46.58,16.24 46.58,25.73 45.37,25.73 "/>
   <polygon class="fil7" points="15.07,16.24 16.28,16.24 16.28,25.73 15.07,25.73 "/>
   <polygon class="fil7" points="18.7,16.24 19.92,16.24 19.92,25.73 18.7,25.73 "/>
   <polygon class="fil4" points="25.98,3.18 35.67,3.18 35.67,9.12 25.98,9.12 "/>
  </g>
 </g>
</svg>
