<?xml version="1.0" encoding="UTF-8"?>
<!DOCTYPE svg PUBLIC "-//W3C//DTD SVG 1.1//EN" "http://www.w3.org/Graphics/SVG/1.1/DTD/svg11.dtd">
<!-- Creator: CorelDRAW 2019 (64-Bit) -->
<svg xmlns="http://www.w3.org/2000/svg" xml:space="preserve" width="400px" height="250px" version="1.1" style="shape-rendering:geometricPrecision; text-rendering:geometricPrecision; image-rendering:optimizeQuality; fill-rule:evenodd; clip-rule:evenodd"
viewBox="0 0 27.33 17.08"
 xmlns:xlink="http://www.w3.org/1999/xlink">
 <defs>
  <style type="text/css">
   <![CDATA[
    .fil0 {fill:none}
    .fil10 {fill:#00325A}
    .fil8 {fill:#00648C}
    .fil6 {fill:#0082AA}
    .fil7 {fill:#00A0C8}
    .fil9 {fill:#0A5078}
    .fil4 {fill:#C80A50}
    .fil5 {fill:#D2AA82}
    .fil2 {fill:#DC9600}
    .fil3 {fill:#F0C8A0}
    .fil1 {fill:#FAB400}
   ]]>
  </style>
 </defs>
 <g id="Layer_x0020_1">
  <metadata id="CorelCorpID_0Corel-Layer"/>
  <rect class="fil0" width="27.33" height="17.08"/>
  <g id="affordable-pricing.svg">
   <g id="Captions">
    <g>
     <g>
      <path class="fil1" d="M20.11 11.15c-0.25,0 -0.48,0.1 -0.65,0.27l-2.49 2.49 -1.15 0c0.5,0 0.92,-0.41 0.92,-0.92 0,-0.51 -0.42,-0.92 -0.92,-0.92l-1.54 0 -0.51 -0.51c-0.46,-0.46 -1.08,-0.72 -1.73,-0.72l-0.43 0c-0.65,0 -1.27,0.26 -1.73,0.72l-0.51 0.51 -1.23 0 0 3.69 9.21 0c0.25,0 0.49,-0.11 0.65,-0.27l2.76 -2.77c0.17,-0.16 0.27,-0.39 0.27,-0.65 0,-0.51 -0.41,-0.92 -0.92,-0.92l0 0z"/>
     </g>
     <g>
      <path class="fil2" d="M13.21 13.91c-0.09,0 -0.16,0.07 -0.16,0.16 0,0.08 0.07,0.15 0.16,0.15l2.61 0c0.3,0 0.58,-0.12 0.8,-0.31l-3.41 0z"/>
     </g>
     <g>
      <polygon class="fil3" points="5.69,12.07 7.53,12.07 7.53,15.76 5.69,15.76 "/>
     </g>
     <g>
      <path class="fil4" d="M7.83 16.06c0.17,0 0.31,-0.14 0.31,-0.3l0 -3.69c0,-0.17 -0.14,-0.31 -0.31,-0.31 -0.17,0 -0.3,0.14 -0.3,0.31l0 3.69c0,0.16 0.13,0.3 0.3,0.3z"/>
     </g>
     <g>
      <polygon class="fil5" points="7.22,12.07 7.53,12.07 7.53,15.76 7.22,15.76 "/>
     </g>
     <g>
      <circle class="fil6" cx="13.05" cy="5.32" r="4.3"/>
     </g>
     <g>
      <circle class="fil7" cx="13.05" cy="5.32" r="3.68"/>
     </g>
     <g>
      <path class="fil6" d="M15.2 5.32c0,1.05 0.53,1.97 1.33,2.53 0.52,-0.71 0.82,-1.59 0.82,-2.53 0,-0.95 -0.3,-1.82 -0.82,-2.53 -0.8,0.55 -1.33,1.48 -1.33,2.53z"/>
     </g>
     <path class="fil8" d="M14.08 5.49l-1.78 -0.89c-0.1,-0.05 -0.17,-0.16 -0.17,-0.28l0 -0.23c0,-0.17 0.14,-0.31 0.31,-0.31l1.23 0c0.17,0 0.3,0.14 0.3,0.31 0,0.17 0.14,0.31 0.31,0.31 0.17,0 0.31,-0.14 0.31,-0.31 0,-0.51 -0.42,-0.92 -0.92,-0.92l-0.31 0 0 -0.31c0,-0.17 -0.14,-0.3 -0.31,-0.3 -0.17,0 -0.3,0.13 -0.3,0.3l0 0.31 -0.31 0c-0.51,0 -0.92,0.41 -0.92,0.92l0 0.23c0,0.36 0.19,0.67 0.51,0.83l1.77 0.89c0.11,0.05 0.17,0.15 0.17,0.27l0 0.24c0,0.17 -0.13,0.3 -0.3,0.3l-1.23 0c-0.17,0 -0.31,-0.13 -0.31,-0.3 0,-0.17 -0.14,-0.31 -0.31,-0.31 -0.16,0 -0.3,0.14 -0.3,0.31 0,0.5 0.41,0.92 0.92,0.92l0.31 0 0 0.3c0,0.17 0.13,0.31 0.3,0.31 0.17,0 0.31,-0.14 0.31,-0.31l0 -0.3 0.31 0c0.5,0 0.92,-0.42 0.92,-0.92l0 -0.24c0,-0.35 -0.2,-0.67 -0.51,-0.82l0 0z"/>
     <g>
      <circle class="fil9" cx="18.58" cy="5.32" r="3.07"/>
     </g>
     <g>
      <path class="fil10" d="M19.9 6.15l-1.1 1.1c-0.12,0.12 -0.32,0.12 -0.44,0l-1.1 -1.1c-0.19,-0.19 -0.06,-0.52 0.22,-0.52l0.48 0 0 -1.54c0,-0.17 0.14,-0.31 0.31,-0.31l0.62 0c0.16,0 0.3,0.14 0.3,0.31l0 1.54 0.49 0c0.27,0 0.41,0.33 0.22,0.52l0 0z"/>
     </g>
     <g>
      <path class="fil1" d="M19.9 5.84l-1.1 1.1c-0.12,0.12 -0.32,0.12 -0.44,0l-1.1 -1.1c-0.19,-0.19 -0.06,-0.52 0.22,-0.52l0.48 0 0 -1.54c0,-0.17 0.14,-0.3 0.31,-0.3l0.62 0c0.16,0 0.3,0.13 0.3,0.3l0 1.54 0.49 0c0.27,0 0.41,0.33 0.22,0.52z"/>
     </g>
    </g>
   </g>
  </g>
 </g>
</svg>
