<?xml version="1.0" encoding="UTF-8"?>
<!DOCTYPE svg PUBLIC "-//W3C//DTD SVG 1.1//EN" "http://www.w3.org/Graphics/SVG/1.1/DTD/svg11.dtd">
<!-- Creator: CorelDRAW 2019 (64-Bit) -->
<svg xmlns="http://www.w3.org/2000/svg" xml:space="preserve" width="404px" height="256px" version="1.1" style="shape-rendering:geometricPrecision; text-rendering:geometricPrecision; image-rendering:optimizeQuality; fill-rule:evenodd; clip-rule:evenodd"
viewBox="0 0 370.94 235.06"
 xmlns:xlink="http://www.w3.org/1999/xlink">
 <defs>
  <style type="text/css">
   <![CDATA[
    .fil0 {fill:none}
    .fil10 {fill:#00325A}
    .fil8 {fill:#00648C}
    .fil6 {fill:#0082AA}
    .fil7 {fill:#00A0C8}
    .fil9 {fill:#0A5078}
    .fil4 {fill:#C80A50}
    .fil5 {fill:#D2AA82}
    .fil2 {fill:#DC9600}
    .fil3 {fill:#F0C8A0}
    .fil1 {fill:#FAB400}
   ]]>
  </style>
 </defs>
 <g id="Layer_x0020_1">
  <metadata id="CorelCorpID_0Corel-Layer"/>
  <rect class="fil0" width="370.94" height="235.06"/>
  <g id="affordable.svg">
   <g id="Captions">
    <g>
     <g>
      <path class="fil1" d="M280.7 156.07c-3.75,0 -7.16,1.53 -9.62,3.99l-36.83 36.82 -17.04 0c7.52,0 13.61,-6.09 13.61,-13.6 0,-7.51 -6.09,-13.6 -13.61,-13.6l-22.67 0 -7.51 -7.52c-6.8,-6.8 -16.03,-10.62 -25.66,-10.62l-6.22 0c-9.62,0 -18.85,3.82 -25.65,10.62l-7.51 7.52 -18.14 0 0 54.41 136.04 0c3.76,0 7.16,-1.52 9.62,-3.98l40.81 -40.81c2.46,-2.46 3.98,-5.86 3.98,-9.62 0,-7.52 -6.09,-13.61 -13.6,-13.61l0 0z"/>
     </g>
     <g>
      <path class="fil2" d="M178.67 196.88c-1.25,0 -2.27,1.02 -2.27,2.27 0,1.25 1.02,2.27 2.27,2.27l38.54 0c4.56,0 8.68,-1.75 11.88,-4.54l-50.42 0z"/>
     </g>
     <g>
      <polygon class="fil3" points="67.57,169.68 94.78,169.68 94.78,224.09 67.57,224.09 "/>
     </g>
     <g>
      <path class="fil4" d="M99.31 228.63c2.51,0 4.54,-2.03 4.54,-4.54l0 -54.41c0,-2.51 -2.03,-4.54 -4.54,-4.54 -2.5,0 -4.53,2.03 -4.53,4.54l0 54.41c0,2.51 2.03,4.54 4.53,4.54z"/>
     </g>
     <g>
      <polygon class="fil5" points="90.24,169.68 94.78,169.68 94.78,224.09 90.24,224.09 "/>
     </g>
     <g>
      <circle class="fil6" cx="176.4" cy="69.91" r="63.49"/>
     </g>
     <g>
      <circle class="fil7" cx="176.4" cy="69.91" r="54.42"/>
     </g>
     <g>
      <path class="fil6" d="M208.15 69.91c0,15.49 7.76,29.16 19.6,37.34 7.64,-10.48 12.14,-23.38 12.14,-37.34 0,-13.95 -4.5,-26.86 -12.14,-37.33 -11.84,8.18 -19.6,21.85 -19.6,37.33z"/>
     </g>
     <path class="fil8" d="M191.56 72.42l-26.25 -13.13c-1.55,-0.77 -2.51,-2.32 -2.51,-4.05l0 -3.47c0,-2.49 2.03,-4.53 4.53,-4.53l18.14 0c2.5,0 4.54,2.04 4.54,4.53 0,2.51 2.02,4.54 4.53,4.54 2.51,0 4.54,-2.03 4.54,-4.54 0,-7.5 -6.11,-13.6 -13.61,-13.6l-4.53 0 0 -4.53c0,-2.51 -2.03,-4.54 -4.54,-4.54 -2.5,0 -4.53,2.03 -4.53,4.54l0 4.53 -4.54 0c-7.5,0 -13.6,6.1 -13.6,13.6l0 3.47c0,5.19 2.88,9.84 7.52,12.17l26.25 13.12c1.54,0.77 2.51,2.33 2.51,4.06l0 3.46c0,2.5 -2.04,4.54 -4.54,4.54l-18.14 0c-2.5,0 -4.53,-2.04 -4.53,-4.54 0,-2.5 -2.03,-4.53 -4.54,-4.53 -2.5,0 -4.53,2.03 -4.53,4.53 0,7.5 6.1,13.61 13.6,13.61l4.54 0 0 4.53c0,2.5 2.03,4.54 4.53,4.54 2.51,0 4.54,-2.04 4.54,-4.54l0 -4.53 4.53 0c7.5,0 13.61,-6.11 13.61,-13.61l0 -3.46c0,-5.19 -2.89,-9.85 -7.52,-12.17l0 0z"/>
     <g>
      <circle class="fil9" cx="258.03" cy="69.91" r="45.35"/>
     </g>
     <g>
      <path class="fil10" d="M277.49 82.19l-16.26 16.26c-1.77,1.77 -4.64,1.77 -6.41,0l-16.26 -16.26c-2.86,-2.86 -0.84,-7.74 3.21,-7.74l7.19 0 0 -22.68c0,-2.5 2.03,-4.53 4.53,-4.53l9.07 0c2.5,0 4.54,2.03 4.54,4.53l0 22.68 7.19 0c4.04,0 6.06,4.88 3.2,7.74l0 0z"/>
     </g>
     <g>
      <path class="fil1" d="M277.49 77.65l-16.26 16.27c-1.77,1.77 -4.64,1.77 -6.41,0l-16.26 -16.27c-2.86,-2.85 -0.84,-7.74 3.21,-7.74l7.19 0 0 -22.67c0,-2.5 2.03,-4.53 4.53,-4.53l9.07 0c2.5,0 4.54,2.03 4.54,4.53l0 22.67 7.19 0c4.04,0 6.06,4.89 3.2,7.74z"/>
     </g>
    </g>
   </g>
  </g>
 </g>
</svg>
