<?xml version="1.0" encoding="UTF-8"?>
<!DOCTYPE svg PUBLIC "-//W3C//DTD SVG 1.1//EN" "http://www.w3.org/Graphics/SVG/1.1/DTD/svg11.dtd">
<!-- Creator: CorelDRAW 2019 (64-Bit) -->
<svg xmlns="http://www.w3.org/2000/svg" xml:space="preserve" width="300px" height="180px" version="1.1" style="shape-rendering:geometricPrecision; text-rendering:geometricPrecision; image-rendering:optimizeQuality; fill-rule:evenodd; clip-rule:evenodd"
viewBox="0 0 13.06 7.84"
 xmlns:xlink="http://www.w3.org/1999/xlink"
 enable-background="new 0 0 64 64">
 <defs>
  <style type="text/css">
   <![CDATA[
    .fil0 {fill:none}
    .fil5 {fill:black}
    .fil2 {fill:#B4DD7F}
    .fil1 {fill:#CCD1D9}
    .fil3 {fill:#FCD770}
    .fil4 {fill:#FF826E}
   ]]>
  </style>
 </defs>
 <g id="Layer_x0020_1">
  <metadata id="CorelCorpID_0Corel-Layer"/>
  <rect class="fil0" width="13.06" height="7.84"/>
  <g id="battery.svg">
   <g>
    <polygon class="fil1" points="3.4,1.91 3.4,4.37 3.4,6.82 9.66,6.82 9.66,4.37 9.66,1.91 "/>
    <path class="fil1" d="M4.74 0.79l0 0.22 -0.89 0 0 -0.22c0,-0.12 0.1,-0.22 0.22,-0.22l0.45 0c0.12,0 0.22,0.1 0.22,0.22z"/>
    <path class="fil1" d="M9.21 0.79l0 0.22 -0.89 0 0 -0.22c0,-0.12 0.1,-0.22 0.22,-0.22l0.45 0c0.12,0 0.22,0.1 0.22,0.22z"/>
   </g>
   <path class="fil2" d="M4.97 1.24l0 0.22 -1.35 0 0 -0.22c0,-0.13 0.11,-0.23 0.23,-0.23l0.89 0c0.13,0 0.23,0.1 0.23,0.23l0 0z"/>
   <path class="fil2" d="M9.44 1.24l0 0.22 -1.34 0 0 -0.22c0,-0.13 0.1,-0.23 0.22,-0.23l0.89 0c0.13,0 0.23,0.1 0.23,0.23z"/>
   <path class="fil3" d="M9.88 6.94l0 0.22c0,0.06 -0.05,0.11 -0.11,0.11l-6.48 0c-0.06,0 -0.11,-0.05 -0.11,-0.11l0 -0.22c0,-0.06 0.05,-0.12 0.11,-0.12l0.11 0 5.81 0 -6.14 0c0.06,0 0.11,0.06 0.11,0.12l6.7 0z"/>
   <path class="fil3" d="M7.87 4.37l0 1.34c0,0.12 -0.1,0.22 -0.22,0.22l-2.24 0c-0.12,0 -0.22,-0.1 -0.22,-0.22l0 -1.34 0 -1.35c0,-0.12 0.1,-0.22 0.22,-0.22l2.24 0c0.12,0 0.22,0.1 0.22,0.22l0 1.35z"/>
   <polygon class="fil4" points="7.09,4.03 6.42,5.48 6.31,5.48 6.53,4.48 5.97,4.48 6.31,3.25 6.87,3.25 6.64,4.03 "/>
   <path class="fil5" d="M6.17 5.6l0.32 0 0.77 -1.68 -0.47 0 0.22 -0.78 -0.79 0 -0.39 1.45 0.56 0 -0.22 1.01zm-0.05 -1.23l0.27 -1.01 0.33 0 -0.23 0.78 0.43 0 -0.38 0.82 0.13 -0.59 -0.55 0z"/>
   <path class="fil5" d="M10 1.79l0 -0.22c0,-0.12 -0.1,-0.22 -0.23,-0.22l-0.22 0 0 -0.11c0,-0.15 -0.09,-0.27 -0.22,-0.32l0 -0.13c0,-0.19 -0.15,-0.34 -0.34,-0.34l-0.45 0c-0.18,0 -0.33,0.15 -0.33,0.34l0 0.13c-0.13,0.05 -0.23,0.17 -0.23,0.32l0 0.11 -2.9 0 0 -0.11c0,-0.15 -0.1,-0.27 -0.23,-0.32l0 -0.13c0,-0.19 -0.15,-0.34 -0.33,-0.34l-0.45 0c-0.18,0 -0.33,0.15 -0.33,0.34l0 0.13c-0.13,0.05 -0.23,0.17 -0.23,0.32l0 0.11 -0.22 0c-0.12,0 -0.22,0.1 -0.22,0.22l0 0.22c0,0.13 0.1,0.23 0.22,0.23l0 4.69c-0.12,0 -0.22,0.1 -0.22,0.23l0 0.22c0,0.12 0.1,0.22 0.22,0.22l6.48 0c0.13,0 0.23,-0.1 0.23,-0.22l0 -0.22c0,-0.13 -0.1,-0.23 -0.23,-0.23l0 -4.69c0.13,0 0.23,-0.1 0.23,-0.23l0 0zm-1.46 -1.11l0.45 0c0.06,0 0.11,0.05 0.11,0.11l0 0.11 -0.67 0 0 -0.11c0,-0.06 0.05,-0.11 0.11,-0.11l0 0zm-0.33 0.56c0,-0.07 0.05,-0.12 0.11,-0.12l0.89 0c0.07,0 0.12,0.05 0.12,0.12l0 0.11 -1.12 0 0 -0.11zm-4.14 -0.56l0.45 0c0.06,0 0.11,0.05 0.11,0.11l0 0.11 -0.67 0 0 -0.11c0,-0.06 0.05,-0.11 0.11,-0.11l0 0zm-0.33 0.56c0,-0.07 0.05,-0.12 0.11,-0.12l0.89 0c0.06,0 0.11,0.05 0.11,0.12l0 0.11 -1.11 0 0 -0.11zm-0.45 0.33l6.48 0 0 0.22 -6.48 0 0 -0.22zm6.48 5.59l-6.48 0 0 -0.22 6.48 0 0 0.22zm-0.22 -0.45l-6.04 0 0 -4.69 6.04 0 0 4.69z"/>
   <polygon class="fil5" points="8.21,4.25 9.33,4.25 9.33,4.48 8.21,4.48 "/>
   <polygon class="fil5" points="4.18,4.92 4.41,4.92 4.41,4.48 4.85,4.48 4.85,4.25 4.41,4.25 4.41,3.81 4.18,3.81 4.18,4.25 3.74,4.25 3.74,4.48 4.18,4.48 "/>
   <path class="fil5" d="M5.41 6.04l2.24 0c0.18,0 0.33,-0.15 0.33,-0.33l0 -2.69c0,-0.18 -0.15,-0.33 -0.33,-0.33l-2.24 0c-0.18,0 -0.33,0.15 -0.33,0.33l0 2.69c0,0.18 0.15,0.33 0.33,0.33zm-0.11 -3.02c0,-0.06 0.05,-0.11 0.11,-0.11l2.24 0c0.06,0 0.11,0.05 0.11,0.11l0 2.69c0,0.06 -0.05,0.11 -0.11,0.11l-2.24 0c-0.06,0 -0.11,-0.05 -0.11,-0.11l0 -2.69z"/>
   <polygon class="fil5" points="3.74,6.27 3.96,6.27 3.96,6.49 3.74,6.49 "/>
   <polygon class="fil5" points="4.18,6.27 4.41,6.27 4.41,6.49 4.18,6.49 "/>
   <polygon class="fil5" points="4.63,6.27 4.85,6.27 4.85,6.49 4.63,6.49 "/>
   <polygon class="fil5" points="9.1,2.24 9.33,2.24 9.33,2.47 9.1,2.47 "/>
   <polygon class="fil5" points="8.65,2.24 8.88,2.24 8.88,2.47 8.65,2.47 "/>
   <polygon class="fil5" points="8.21,2.24 8.43,2.24 8.43,2.47 8.21,2.47 "/>
  </g>
 </g>
</svg>
