<?xml version="1.0" encoding="UTF-8"?>
<!DOCTYPE svg PUBLIC "-//W3C//DTD SVG 1.1//EN" "http://www.w3.org/Graphics/SVG/1.1/DTD/svg11.dtd">
<!-- Creator: CorelDRAW 2019 (64-Bit) -->
<svg xmlns="http://www.w3.org/2000/svg" xml:space="preserve" width="404px" height="256px" version="1.1" style="shape-rendering:geometricPrecision; text-rendering:geometricPrecision; image-rendering:optimizeQuality; fill-rule:evenodd; clip-rule:evenodd"
viewBox="0 0 123.84 78.47"
 xmlns:xlink="http://www.w3.org/1999/xlink">
 <defs>
  <style type="text/css">
   <![CDATA[
    .fil0 {fill:none}
    .fil1 {fill:#348ED8}
    .fil4 {fill:#91563A}
    .fil9 {fill:#C7483C}
    .fil6 {fill:#CECECC}
    .fil5 {fill:#D65246}
    .fil7 {fill:#DFDFDD}
    .fil8 {fill:#F1F1F1}
    .fil2 {fill:#FCB079}
    .fil3 {fill:#FDC8A2}
   ]]>
  </style>
 </defs>
 <g id="Layer_x0020_1">
  <metadata id="CorelCorpID_0Corel-Layer"/>
  <rect class="fil0" width="123.84" height="78.47"/>
  <g id="relax_x0020_and_x0020_enjoy.svg">
   <g id="Flat">
    <path class="fil1" d="M86.65 70.95l-25.37 0 5.6 -21.27c0.44,-1.67 1.95,-2.83 3.68,-2.83l17.5 0c0,0 0,0 0,0 2.1,0 3.8,1.7 3.8,3.8 0,0.33 -0.04,0.65 -0.12,0.97l-5.09 19.33z"/>
    <path class="fil2" d="M82.85 34.16l3.8 -2.53 -10.12 -9.88 5.05 -6.61 10.52 7.89c2.96,2.22 4.7,5.7 4.7,9.39 0,0 0,0 0,0 0,4.22 -2.26,8.11 -5.92,10.2l-2.96 1.69 -5.07 -10.15z"/>
    <path class="fil2" d="M43.53 30.36l10.14 -3.81 -2.53 -6.34 16.49 -2.54 1.26 -7.61 -19.24 0c0,0 0,0 0,0 -3.71,0 -7.07,2.22 -8.54,5.63 -0.49,1.16 -0.75,2.41 -0.75,3.66 0,1 0.16,2 0.48,2.94l2.69 8.07z"/>
    <path class="fil3" d="M66.52 10.68l-7.45 6.22 2.67 1.11 -2.86 6.58c-0.15,0.35 -0.23,0.73 -0.23,1.12 0,1.15 0.69,2.19 1.76,2.62l2.67 1.11 -4.01 9.2 10.7 4.46 11.46 -26.3 -14.71 -6.12z"/>
    <path class="fil4" d="M82.37 14.18l-5.15 11.83 -0.96 -5.06 -4.64 8.71c-0.66,1.24 -1.95,2.01 -3.35,2.01 -0.57,0 -1.13,-0.13 -1.64,-0.37l-6.22 -2.97c-1.07,-0.43 -1.76,-1.47 -1.76,-2.62 0,-0.39 0.08,-0.77 0.23,-1.12l0.91 -2.08 1.14 -2.63 0.82 -1.87 6.68 2.79 6.23 -4.37c0.38,-0.27 0.6,-0.7 0.6,-1.17 0,-0.51 -0.27,-0.99 -0.72,-1.24l-8.02 -3.34c-1.6,-0.65 -2.64,-2.2 -2.65,-3.93 0,-0.58 0.12,-1.15 0.36,-1.68 0.71,-1.59 2.28,-2.62 4.03,-2.62 0.58,0 1.16,0.12 1.7,0.34l9.36 3.9c2.13,0.86 3.52,2.94 3.52,5.23 0,0.78 -0.16,1.55 -0.47,2.26l0 0z"/>
    <polygon class="fil4" points="65.76,16.54 66.91,13.91 69.24,14.93 68.09,17.56 "/>
    <polygon class="fil5" points="43.53,30.36 53.67,26.55 57.48,34.16 73.97,39.24 82.85,34.16 87.92,44.31 77.77,51.92 71.43,70.95 39.72,70.95 47.33,41.77 "/>
    <path class="fil3" d="M65.74 23.36c-0.6,0.43 -1.33,0.66 -2.07,0.66 -0.03,0 -0.07,0 -0.1,0 -0.66,-0.01 -1.31,-0.13 -1.92,-0.36 -0.69,-0.25 -1.33,-0.65 -1.86,-1.15l1.14 -2.63c0.13,0.33 0.47,0.94 1.61,1.4 0.86,0.35 1.51,0.18 1.66,0.06l1.54 2.02z"/>
    <polygon class="fil4" points="24.5,70.95 98.07,70.95 98.07,76.02 24.5,76.02 "/>
    <polygon class="fil6" points="29.57,65.87 67.63,65.87 67.63,70.95 29.57,70.95 "/>
    <path class="fil7" d="M53.01 70.95l-21.49 0c-1.15,0 -2.15,-0.78 -2.45,-1.89l-4.49 -16.86c-0.05,-0.18 -0.08,-0.38 -0.08,-0.57 0,-1.24 1.01,-2.25 2.24,-2.25l22.39 0c1.17,0 2.2,0.81 2.47,1.96l3.88 16.49c0.04,0.19 0.06,0.38 0.06,0.58 0,1.4 -1.13,2.53 -2.53,2.54l0 0z"/>
    <ellipse class="fil8" transform="matrix(0.114372 -0.119669 0.119669 0.114372 39.7346 60.7675)" rx="14.67" ry="16.02"/>
    <polygon class="fil5" points="81.58,54.46 92.99,54.46 92.99,70.95 81.58,70.95 "/>
    <path class="fil9" d="M96.22 56.99l-3.23 0 0 2.54 3.23 0c0.32,0 0.58,0.26 0.58,0.58l0 5.19c0,0.31 -0.26,0.57 -0.58,0.57l-3.23 0 0 2.54 3.23 0c1.72,0 3.11,-1.4 3.12,-3.11l0 -5.19c-0.01,-1.72 -1.4,-3.12 -3.12,-3.12l0 0z"/>
   </g>
  </g>
 </g>
</svg>
