<?xml version="1.0" encoding="UTF-8"?>
<!DOCTYPE svg PUBLIC "-//W3C//DTD SVG 1.1//EN" "http://www.w3.org/Graphics/SVG/1.1/DTD/svg11.dtd">
<!-- Creator: CorelDRAW 2019 (64-Bit) -->
<svg xmlns="http://www.w3.org/2000/svg" xml:space="preserve" width="404px" height="256px" version="1.1" style="shape-rendering:geometricPrecision; text-rendering:geometricPrecision; image-rendering:optimizeQuality; fill-rule:evenodd; clip-rule:evenodd"
viewBox="0 0 103.56 65.62"
 xmlns:xlink="http://www.w3.org/1999/xlink">
 <defs>
  <style type="text/css">
   <![CDATA[
    .fil0 {fill:none}
    .fil1 {fill:#5A4146}
    .fil12 {fill:#5B5D6E}
    .fil2 {fill:#694B4B}
    .fil11 {fill:#707487}
    .fil9 {fill:#959CB5}
    .fil6 {fill:#AFB9D2}
    .fil8 {fill:#C7CFE2}
    .fil13 {fill:#D23C69}
    .fil4 {fill:#D29B6E}
    .fil5 {fill:#D5DCED}
    .fil3 {fill:#E6AF78}
    .fil7 {fill:#F0C087}
    .fil10 {fill:#FF507D}
   ]]>
  </style>
 </defs>
 <g id="Layer_x0020_1">
  <metadata id="CorelCorpID_0Corel-Layer"/>
  <rect class="fil0" width="103.56" height="65.62"/>
  <g id="best-team.svg">
   <path class="fil1" d="M69.69 28.34l0 0.89c0,1.1 0.18,2.2 0.52,3.24l2.04 6.1 3.83 0 0 -14.07 -2.55 0c-2.12,0 -3.84,1.72 -3.84,3.84z"/>
   <path class="fil2" d="M87.2 30.99l-2.16 7.58 -10.23 -8.96c-1.42,0 -2.56,-1.14 -2.56,-2.55l0 0c0,-2.12 1.72,-3.84 3.83,-3.84l8.96 0c1.41,0 2.56,1.14 2.56,2.56l0 2.4c0,0.95 -0.14,1.9 -0.4,2.81z"/>
   <rect class="fil3" x="74.8" y="42.41" width="7.67" height="5.66"/>
   <path class="fil4" d="M74.81 44.76c1.18,0.48 2.48,0.75 3.83,0.75 1.36,0 2.65,-0.27 3.84,-0.75l0 -2.35 -7.67 0 0 2.35 0 0z"/>
   <path class="fil5" d="M88.65 47.27l-6.17 -1.76 -3.84 2.55 -3.83 -2.55 -6.18 1.76c-1.64,0.47 -2.78,1.98 -2.78,3.69l0 9.35c0,0.71 0.57,1.28 1.28,1.28l23.02 0c0.71,0 1.28,-0.57 1.28,-1.28l0 -9.35c0,-1.71 -1.13,-3.22 -2.78,-3.69z"/>
   <polygon class="fil6" points="79.92,61.59 77.36,61.59 78,48.07 79.28,48.07 "/>
   <path class="fil7" d="M78.64 43.68l0 0c-4.24,0 -7.67,-3.43 -7.67,-7.67l0 -1.5c0,-0.68 0.27,-1.33 0.75,-1.81l2.32 -2.32c0.49,-0.49 1.16,-0.77 1.85,-0.75 4.09,0.13 7.71,1.01 9.69,2.94 0.48,0.47 0.74,1.13 0.74,1.81l0 1.63c0,4.24 -3.44,7.67 -7.68,7.67z"/>
   <path class="fil3" d="M74.81 34.83c0,-1.48 1.23,-2.65 2.71,-2.56 2.58,0.17 6.41,0.6 8.76,1.73 -0.07,-0.54 -0.31,-1.05 -0.7,-1.43 -1.98,-1.93 -5.6,-2.81 -9.69,-2.94l0 0 0 0c-0.69,-0.02 -1.36,0.26 -1.85,0.75l-2.32 2.32c-0.48,0.48 -0.75,1.13 -0.75,1.81l0 1.5c0,3.5 2.34,6.45 5.55,7.37 -1.07,-1.32 -1.71,-2.99 -1.71,-4.81l0 -3.74 0 0z"/>
   <path class="fil8" d="M86.32 54.77c0,-1.01 0.4,-1.99 1.12,-2.71l3.29 -3.29c0.44,0.63 0.7,1.38 0.7,2.19l0 9.35c0,0.71 -0.57,1.28 -1.28,1.28l-3.83 0 0 -6.82 0 0z"/>
   <path class="fil9" d="M79.28 50.62l-1.28 0c-0.35,0 -0.64,-0.28 -0.64,-0.63l0 -1.92 2.56 0 0 1.92c0,0.35 -0.28,0.63 -0.64,0.63z"/>
   <g>
    <path class="fil8" d="M78.64 48.06l-2.17 1.65c-0.37,0.29 -0.91,0.17 -1.13,-0.24l-1.95 -3.55 0.78 -1.2c0.18,-0.26 0.55,-0.31 0.78,-0.09l3.69 3.43z"/>
    <path class="fil8" d="M78.64 48.06l2.17 1.65c0.37,0.29 0.91,0.17 1.14,-0.24l1.94 -3.55 -0.78 -1.2c-0.17,-0.26 -0.54,-0.31 -0.77,-0.09l-3.7 3.43z"/>
   </g>
   <path class="fil1" d="M35.03 43.15c-1.1,-2.9 -1.96,-7.87 -2.15,-10.47 -0.36,-4.93 -4.08,-8.95 -9.1,-8.95 -5.03,0 -8.74,4.02 -9.1,8.95 -0.19,2.6 -1.05,7.57 -2.15,10.47 -0.24,0.64 0.04,1.34 0.67,1.63 1.17,0.53 3.67,1.57 6.68,1.97l7.8 0c3,-0.4 5.51,-1.44 6.68,-1.97 0.63,-0.29 0.91,-0.99 0.67,-1.63z"/>
   <path class="fil2" d="M34.36 44.78c0.63,-0.29 0.91,-0.99 0.67,-1.63 -1.1,-2.9 -1.96,-7.87 -2.15,-10.47 -0.36,-4.93 -4.08,-8.95 -9.1,-8.95 -0.01,0 -0.03,0 -0.04,0 -3.85,0.02 -5.22,5.27 -1.9,7.24 0.2,0.11 0.33,0.17 0.33,0.17l2.91 15.61 2.6 0c3,-0.4 5.51,-1.44 6.68,-1.97z"/>
   <path class="fil3" d="M33.03 49.32l-4.14 -2.07c-0.86,-0.43 -1.41,-1.32 -1.41,-2.29l0 -3.83 -7.68 0 0 3.83c0,0.97 -0.54,1.86 -1.41,2.29l-4.14 2.07c-1.3,0.65 -2.12,1.98 -2.12,3.43l0 7.56c0,0.71 0.57,1.28 1.28,1.28l20.46 0c0.71,0 1.28,-0.57 1.28,-1.28l0 -7.56c0,-1.45 -0.82,-2.78 -2.12,-3.43z"/>
   <path class="fil4" d="M23.64 46.24c1.38,0 2.7,-0.28 3.91,-0.79 -0.03,-0.16 -0.07,-0.32 -0.07,-0.49l0 -3.83 -7.68 0 0 3.83c0,0.17 -0.03,0.33 -0.07,0.5 1.21,0.5 2.53,0.78 3.91,0.78z"/>
   <path class="fil5" d="M33.03 49.32l-2.95 -1.47c-1.36,2.11 -3.74,3.51 -6.44,3.51 -2.7,0 -5.07,-1.4 -6.44,-3.51l-2.95 1.47c-1.3,0.65 -2.12,1.98 -2.12,3.43l0 7.56c0,0.71 0.57,1.28 1.28,1.28l20.46 0c0.71,0 1.28,-0.57 1.28,-1.28l0 -7.56c0,-1.45 -0.82,-2.78 -2.12,-3.43z"/>
   <path class="fil7" d="M23.64 43.68l0 0c-3.9,0 -7.12,-2.91 -7.61,-6.68 -0.07,-0.54 0.19,-1.08 0.68,-1.33 0.59,-0.29 1.45,-0.79 2.27,-1.53 0.91,-0.81 1.45,-1.67 1.75,-2.3 0.26,-0.54 0.86,-0.85 1.44,-0.7 4.5,1.15 7.57,3.49 8.68,4.45 0.3,0.26 0.47,0.63 0.44,1.03 -0.31,3.95 -3.61,7.06 -7.65,7.06z"/>
   <path class="fil3" d="M30.85 35.59c-1.11,-0.96 -4.18,-3.3 -8.68,-4.45 -0.58,-0.15 -1.18,0.16 -1.44,0.7 -0.23,0.48 -0.61,1.09 -1.17,1.71 0,0 0,0 0,0 -0.18,0.2 -0.36,0.4 -0.58,0.59 -0.82,0.74 -1.68,1.24 -2.27,1.53 -0.49,0.25 -0.75,0.79 -0.68,1.33 0.44,3.39 3.09,6.08 6.45,6.6 -1.53,-1.04 -2.68,-2.48 -2.68,-5.03l0 -1.83c0.29,-0.21 0.59,-0.42 0.88,-0.69 0.71,-0.63 1.33,-1.36 1.83,-2.15 3.45,1.07 5.78,2.86 6.67,3.62 0.24,0.22 0.84,0.77 1.54,1.43 0.31,-0.73 0.51,-1.51 0.57,-2.33 0.03,-0.4 -0.14,-0.77 -0.44,-1.03z"/>
   <path class="fil8" d="M12.91 50.45c-0.49,0.65 -0.78,1.45 -0.78,2.3l0 7.56c0,0.71 0.57,1.28 1.28,1.28l3.84 0 0 -6.44c0,-0.78 -0.36,-1.51 -0.96,-2l-3.38 -2.7z"/>
   <path class="fil10" d="M70.16 47.58l-10.7 -3.9 -7.68 2.56 -7.67 -2.56 -10.71 3.9c-2.02,0.73 -3.36,2.65 -3.36,4.8l0 7.93c0,0.71 0.57,1.28 1.28,1.28l40.93 0c0.7,0 1.28,-0.57 1.28,-1.28l0 -7.93c0,-2.15 -1.35,-4.07 -3.37,-4.8z"/>
   <polygon class="fil11" points="50.44,48.8 49.22,61.59 54.34,61.59 53.12,48.8 "/>
   <path class="fil12" d="M53.12 50.56l-2.68 0c-0.5,0 -0.9,-0.4 -0.9,-0.9l0 -3.42 4.48 0 0 3.42c0,0.5 -0.4,0.9 -0.9,0.9z"/>
   <path class="fil13" d="M72.15 48.9c0.86,0.93 1.38,2.16 1.38,3.48l0 7.93c0,0.71 -0.58,1.28 -1.28,1.28l-6.4 0 0 -4.27c0,-1.36 0.54,-2.66 1.5,-3.62l4.8 -4.8z"/>
   <path class="fil1" d="M65.85 17.31l0 -10.72c0,-1.41 -1.14,-2.56 -2.56,-2.56l-15.35 0c-5.65,0 -10.23,4.58 -10.23,10.24l0 3.04c0,1.37 0.22,2.74 0.66,4.04l0.42 1.28c0.13,0.39 0.2,0.8 0.2,1.21l0 0.66 25.58 0 0 -0.66c0,-0.41 0.07,-0.82 0.2,-1.21l0.43 -1.28c0.43,-1.3 0.65,-2.67 0.65,-4.04z"/>
   <path class="fil2" d="M44.11 9.23c0,2.87 2.32,5.19 5.19,5.19l0.72 0 0.35 10.08 14.2 0 0 -0.66c0,-0.41 0.07,-0.82 0.2,-1.21l0.43 -1.28c0.43,-1.3 0.65,-2.67 0.65,-4.04l0 -10.72c0,-1.41 -1.14,-2.56 -2.56,-2.56l-13.99 0c-2.87,0 -5.19,2.33 -5.19,5.2z"/>
   <rect class="fil3" x="44.11" y="34.73" width="15.35" height="11.51"/>
   <path class="fil4" d="M44.11 39.06c2.26,1.3 4.87,2.07 7.67,2.07 2.8,0 5.42,-0.76 7.68,-2.07l0 -4.33 -15.35 0 0 4.33 0 0z"/>
   <g>
    <path class="fil13" d="M51.78 46.24l-4.08 4.08c-0.55,0.55 -1.45,0.49 -1.92,-0.13l-4.23 -5.57 1.11 -2.33c0.32,-0.69 1.17,-0.94 1.82,-0.54l7.3 4.49z"/>
    <path class="fil13" d="M51.78 46.24l4.08 4.08c0.55,0.55 1.46,0.49 1.92,-0.13l4.23 -5.57 -1.1 -2.33c-0.33,-0.69 -1.18,-0.94 -1.83,-0.54l-7.3 4.49z"/>
   </g>
   <path class="fil7" d="M51.78 38.57l0 0c-7.06,0 -12.79,-5.73 -12.79,-12.79l0 -1.5c0,-0.68 0.27,-1.33 0.75,-1.81l1.06 -1.06c0.48,-0.48 0.75,-1.13 0.75,-1.81l0 -3.07c0,-0.59 0.4,-1.1 0.97,-1.24 3.03,-0.71 12.44,-2.41 18.85,2.31 0.41,0.3 0.64,0.81 0.64,1.32l0 0.68c0,0.68 0.27,1.33 0.75,1.81l1.06 1.06c0.48,0.48 0.75,1.13 0.75,1.81l0 1.5c0,7.06 -5.72,12.79 -12.79,12.79z"/>
   <path class="fil3" d="M61.37 17.6c-4.51,-3.32 -10.49,-3.46 -14.7,-3.01 -1.78,0.19 -3.25,0.49 -4.15,0.7 -0.57,0.14 -0.97,0.65 -0.97,1.24l0 3.07c0,0.68 -0.27,1.33 -0.75,1.81l-1.06 1.06c-0.48,0.48 -0.75,1.13 -0.75,1.81l0 1.5c0,6.54 4.91,11.92 11.25,12.69 -2.21,-2.3 -3.57,-5.42 -3.57,-8.86l0 -9.34c0,-1.3 0.96,-2.38 2.24,-2.55 3.07,-0.38 8.7,-0.61 13.1,1.88l0 -0.68c0,-0.51 -0.23,-1.02 -0.64,-1.32z"/>
   <path class="fil13" d="M31.41 48.9c-0.86,0.93 -1.37,2.16 -1.37,3.48l0 7.93c0,0.71 0.57,1.28 1.28,1.28l6.39 0 0 -4.27c0,-1.36 -0.54,-2.66 -1.5,-3.62l-4.8 -4.8z"/>
   <g>
   </g>
   <g>
   </g>
   <g>
   </g>
   <g>
   </g>
   <g>
   </g>
   <g>
   </g>
   <g>
   </g>
   <g>
   </g>
   <g>
   </g>
   <g>
   </g>
   <g>
   </g>
   <g>
   </g>
   <g>
   </g>
   <g>
   </g>
   <g>
   </g>
  </g>
 </g>
</svg>
