<?xml version="1.0" encoding="UTF-8"?>
<!DOCTYPE svg PUBLIC "-//W3C//DTD SVG 1.1//EN" "http://www.w3.org/Graphics/SVG/1.1/DTD/svg11.dtd">
<!-- Creator: CorelDRAW 2019 (64-Bit) -->
<svg xmlns="http://www.w3.org/2000/svg" xml:space="preserve" width="404px" height="256px" version="1.1" style="shape-rendering:geometricPrecision; text-rendering:geometricPrecision; image-rendering:optimizeQuality; fill-rule:evenodd; clip-rule:evenodd"
viewBox="0 0 59.96 38"
 xmlns:xlink="http://www.w3.org/1999/xlink"
 enable-background="new 0 0 512 512">
 <defs>
  <style type="text/css">
   <![CDATA[
    .fil0 {fill:none}
    .fil1 {fill:#8AC9FE}
    .fil4 {fill:#A79BA7}
    .fil3 {fill:#FECE85}
    .fil2 {fill:#FEDBA6}
    .fil6 {fill:#FFE5C2}
    .fil5 {fill:#FFF3DE}
   ]]>
  </style>
 </defs>
 <g id="Layer_x0020_1">
  <metadata id="CorelCorpID_0Corel-Layer"/>
  <rect class="fil0" width="59.96" height="38"/>
  <g id="best-price.svg">
   <g>
    <path class="fil1" d="M10.67 36.1l4.78 0c0.3,0 0.55,-0.25 0.55,-0.56l0 -1.64 0.41 -0.58 0 -11.76 -0.41 -0.46 0 -1.74c0,-0.31 -0.25,-0.56 -0.55,-0.56l-4.78 0c-0.31,0 -0.56,0.25 -0.56,0.56l0 16.18c0,0.31 0.25,0.56 0.56,0.56z"/>
    <path class="fil2" d="M48.98 5.12l-7.24 -3.02c-0.65,-0.27 -1.38,-0.27 -2.03,0l-7.25 3.02c-0.93,0.39 -1.53,1.27 -1.53,2.25l0 12.98 0 13.19 0 0c0.05,1.31 1.17,2.35 2.55,2.35l14.49 0c1.41,0 2.55,-1.09 2.55,-2.45l0 -26.07c0,-0.98 -0.61,-1.86 -1.54,-2.25l0 0zm-8.38 4.23c-0.95,0 -1.71,-0.77 -1.71,-1.71 0,-0.95 0.76,-1.72 1.71,-1.72 0.95,0 1.71,0.77 1.71,1.72 0,0.94 -0.76,1.71 -1.71,1.71z"/>
    <path class="fil3" d="M36.65 33.54l0 0 -0.01 -1.56c0.47,-0.71 0.74,-1.55 0.74,-2.46 0,-0.47 -0.07,-0.93 -0.21,-1.36 0.55,-0.74 0.88,-1.67 0.88,-2.66 0,-0.47 -0.07,-0.93 -0.21,-1.36 0.56,-0.74 0.89,-1.67 0.89,-2.67 0,-1.59 -0.83,-2.99 -2.09,-3.78l0 -10.32c0,-0.98 0.61,-1.86 1.54,-2.25l5.4 -2.25 -1.84 -0.77c-0.65,-0.27 -1.38,-0.27 -2.03,0l-7.25 3.02c-0.93,0.39 -1.53,1.27 -1.53,2.25l0 9.64 0 3.34 0 0 0 13.19 0 0 0 0c0.05,1.31 1.17,2.35 2.55,2.35l2.42 0c0,0 0,0 0,0l3.29 0c-1.37,0 -2.49,-1.04 -2.54,-2.35l0 0z"/>
    <path class="fil4" d="M42 24.84l-2.75 -0.9c-0.24,-0.08 -0.4,-0.3 -0.4,-0.55l0 -1.21c0,-0.46 0.38,-0.84 0.84,-0.84l1.49 0c0.46,0 0.84,0.38 0.84,0.84 0,0.34 0.28,0.61 0.62,0.61 0.33,0 0.61,-0.27 0.61,-0.61 0,-1.14 -0.93,-2.07 -2.07,-2.07l-0.13 0 0 -1.34c0,-0.34 -0.28,-0.62 -0.62,-0.62 -0.33,0 -0.61,0.28 -0.61,0.62l0 1.34 -0.13 0c-1.14,0 -2.07,0.93 -2.07,2.07l0 1.21c0,0.79 0.5,1.47 1.25,1.72l2.75 0.89c0.24,0.08 0.4,0.3 0.4,0.55l0 0.85c0,0.57 -0.46,1.04 -1.04,1.04l-1.09 0c-0.58,0 -1.04,-0.47 -1.04,-1.04 0,-0.34 -0.28,-0.61 -0.62,-0.61 -0.33,0 -0.61,0.27 -0.61,0.61 0,1.23 0.98,2.23 2.2,2.26l0 1.35c0,0.34 0.28,0.61 0.61,0.61 0.34,0 0.62,-0.27 0.62,-0.61l0 -1.35c1.22,-0.03 2.2,-1.03 2.2,-2.26l0 -0.85c0,-0.78 -0.5,-1.47 -1.25,-1.71l0 0z"/>
    <path class="fil5" d="M31.1 31.54l1.01 0c1.11,0 2.01,0.9 2.01,2.01 0,1.11 -0.9,2.01 -2.01,2.01l-10.8 0c-0.55,0 -1.07,-0.18 -1.5,-0.51 -1.14,-0.87 -2.35,-1.06 -3.81,-1.15l0 -12.8c3.44,-3.93 7.8,-4.3 7.5,-10.18 -0.05,-1.02 0.76,-1.87 1.78,-1.87 0.77,0 1.47,0.51 1.69,1.25 0.93,3.03 1.16,6.03 -0.06,9.16l7.36 0c1.11,0 2.02,0.9 2.02,2.01 0,1.11 -0.91,2.01 -2.02,2.01l-2.5 0 -19.83 0c1.11,0 2.01,0.91 2.01,2.02 0,1.11 -0.9,2.01 -2.01,2.01l-1.83 0 1.16 0c1.11,0 2.01,0.9 2.01,2.01 0,1.12 -0.9,2.02 -2.01,2.02l-1.83 0 21.66 0z"/>
    <path class="fil5" d="M31.1 31.54l1.01 0c1.11,0 2.01,0.9 2.01,2.01 0,1.11 -0.9,2.01 -2.01,2.01l-10.8 0c-0.55,0 -1.07,-0.18 -1.5,-0.51 -1.14,-0.87 -2.35,-1.06 -3.81,-1.15l0 -12.8c3.44,-3.93 7.8,-4.3 7.5,-10.18 -0.05,-1.02 0.76,-1.87 1.78,-1.87 0.77,0 1.47,0.51 1.69,1.25 0.93,3.03 1.16,6.03 -0.06,9.16l7.36 0c1.11,0 2.02,0.9 2.02,2.01 0,1.11 -0.91,2.01 -2.02,2.01l-2.5 0 -19.83 0c1.11,0 2.01,0.91 2.01,2.02 0,1.11 -0.9,2.01 -2.01,2.01l-1.83 0 1.16 0c1.11,0 2.01,0.9 2.01,2.01 0,1.12 -0.9,2.02 -2.01,2.02l-1.83 0 21.66 0z"/>
    <path class="fil6" d="M27.72 15.88c-1.34,1.57 -3.38,2.59 -5.26,4.44 -0.48,0.46 -0.75,1.09 -0.75,1.75l0 9.67c0,1.13 0.77,2.14 1.88,2.4 0.9,0.22 1.71,0.62 2.51,1.42l-4.79 0c-0.55,0 -1.07,-0.18 -1.5,-0.51 -1.14,-0.87 -2.35,-1.06 -3.81,-1.15l0 -12.8c3.44,-3.93 7.81,-4.3 7.5,-10.19 -0.05,-1.01 0.76,-1.86 1.78,-1.86 0.38,0 0.75,0.13 1.05,0.35 0.3,0.22 0.53,0.53 0.64,0.9 0.57,1.86 0.88,3.71 0.75,5.58l0 0z"/>
   </g>
  </g>
 </g>
</svg>
