<?xml version="1.0" encoding="UTF-8"?>
<!DOCTYPE svg PUBLIC "-//W3C//DTD SVG 1.1//EN" "http://www.w3.org/Graphics/SVG/1.1/DTD/svg11.dtd">
<!-- Creator: CorelDRAW 2019 (64-Bit) -->
<svg xmlns="http://www.w3.org/2000/svg" xml:space="preserve" width="404px" height="256px" version="1.1" style="shape-rendering:geometricPrecision; text-rendering:geometricPrecision; image-rendering:optimizeQuality; fill-rule:evenodd; clip-rule:evenodd"
viewBox="0 0 44.69 28.32"
 xmlns:xlink="http://www.w3.org/1999/xlink"
 enable-background="new 0 0 512 512">
 <defs>
  <style type="text/css">
   <![CDATA[
    .fil0 {fill:none}
    .fil5 {fill:#13CFFE}
    .fil6 {fill:#28ABF9}
    .fil12 {fill:#318DEF}
    .fil2 {fill:#340D66}
    .fil1 {fill:#393E9F}
    .fil8 {fill:#E39E8D}
    .fil4 {fill:#FA185E}
    .fil10 {fill:#FC9B28}
    .fil11 {fill:#FCCBC3}
    .fil3 {fill:#FE4945}
    .fil9 {fill:#FFB81F}
    .fil7 {fill:#FFB9AB}
   ]]>
  </style>
 </defs>
 <g id="Layer_x0020_1">
  <metadata id="CorelCorpID_0Corel-Layer"/>
  <rect class="fil0" width="44.69" height="28.32"/>
  <g id="best-support.svg">
   <g>
    <path class="fil1" d="M30.76 8.97l0 0.62 -1.59 0 0 -0.62c0,-3.76 -3.06,-6.82 -6.82,-6.82 -3.76,0 -6.82,3.06 -6.82,6.82l0 0.62 -1.6 0 0 -0.62c0,-4.64 3.78,-8.42 8.42,-8.42 4.64,0 8.41,3.78 8.41,8.42z"/>
    <path class="fil2" d="M30.76 8.97l0 0.62 -1.59 0 0 -0.62c0,-3.76 -3.06,-6.82 -6.82,-6.82l0 -1.6c4.64,0 8.41,3.78 8.41,8.42z"/>
    <path class="fil3" d="M18.06 13.77l-2.93 0c-0.73,0 -1.32,-0.6 -1.32,-1.33l0 -2.33c0,-0.73 0.59,-1.33 1.32,-1.33l2.93 0 0 4.99z"/>
    <path class="fil4" d="M26.53 13.77l3.03 0c0.73,0 1.32,-0.6 1.32,-1.33l0 -2.33c0,-0.73 -0.59,-1.33 -1.32,-1.33l-3.03 0 0 4.99z"/>
    <path class="fil5" d="M35.95 25.51l0 2.26 -5.49 0 -0.79 -0.8 -0.8 0.8 -13.05 0 -0.79 -0.8 -0.8 0.8 -5.49 0 0 -2.26c0,-0.97 0.63,-1.84 1.55,-2.14l8.17 -2.68 7.8 0 0 0.01 8.14 2.67c0.93,0.3 1.55,1.17 1.55,2.14z"/>
    <path class="fil6" d="M35.95 25.51l0 2.26 -5.49 0 -0.79 -0.8 -0.8 0.8 -6.52 0 0 -7.08 3.91 0 0 0.01 8.14 2.67c0.93,0.3 1.55,1.17 1.55,2.14z"/>
    <path class="fil7" d="M26.26 16.84l0 3.85c0,0 -1.97,1.95 -3.91,1.95 -1.95,0 -3.89,-1.95 -3.89,-1.95l0 -3.85 7.8 0z"/>
    <path class="fil8" d="M26.26 16.84l0 3.85c0,0 -1.97,1.95 -3.91,1.95l0 -5.8 3.91 0z"/>
    <path class="fil9" d="M27.38 8.67l0 1.67 -0.52 0.56 -9.03 0 -0.52 -0.56 0 -1.67c0,-1.39 0.56,-2.65 1.48,-3.56 0.91,-0.91 2.17,-1.47 3.56,-1.47 2.78,0 5.03,2.25 5.03,5.03l0 0z"/>
    <path class="fil10" d="M27.38 8.67l0 1.67 -0.52 0.56 -4.51 0 0 -7.26c2.78,0 5.03,2.25 5.03,5.03z"/>
    <path class="fil11" d="M27.38 10.35l0 3.44c0,0.36 -0.03,0.71 -0.09,1.04 -0.05,0.28 -0.76,0.8 -0.76,0.8 0,0 0.34,0.54 0.2,0.8 -0.86,1.63 -2.5,2.72 -4.38,2.72 -1.39,0 -2.65,-0.6 -3.56,-1.57 -0.92,-0.97 -1.48,-2.3 -1.48,-3.79l0 -3.44 2.69 0c0.9,0 1.73,-0.35 2.35,-0.91 0.7,-0.64 1.14,-1.56 1.14,-2.59 0,1.93 1.57,3.5 3.5,3.5l0.39 0z"/>
    <path class="fil7" d="M27.38 10.35l0 3.44c0,0.36 -0.03,0.71 -0.09,1.04 -0.05,0.28 -0.76,0.8 -0.76,0.8 0,0 0.34,0.54 0.2,0.8 -0.86,1.63 -2.5,2.72 -4.38,2.72l0 -9.71c0.7,-0.64 1.14,-1.56 1.14,-2.59 0,1.93 1.57,3.5 3.5,3.5l0.39 0z"/>
    <path class="fil2" d="M27.29 14.83c-0.11,0.57 -0.3,1.11 -0.56,1.6l-3.47 0 0 -1.6 4.03 0z"/>
    <polygon class="fil6" points="14.23,25.32 15.82,25.32 15.82,27.77 14.23,27.77 "/>
    <polygon class="fil12" points="28.87,25.32 30.46,25.32 30.46,27.77 28.87,27.77 "/>
   </g>
  </g>
 </g>
</svg>
