<?xml version="1.0" encoding="UTF-8"?>
<!DOCTYPE svg PUBLIC "-//W3C//DTD SVG 1.1//EN" "http://www.w3.org/Graphics/SVG/1.1/DTD/svg11.dtd">
<!-- Creator: CorelDRAW 2019 (64-Bit) -->
<svg xmlns="http://www.w3.org/2000/svg" xml:space="preserve" width="550px" height="350px" version="1.1" style="shape-rendering:geometricPrecision; text-rendering:geometricPrecision; image-rendering:optimizeQuality; fill-rule:evenodd; clip-rule:evenodd"
viewBox="0 0 764.54 486.52"
 xmlns:xlink="http://www.w3.org/1999/xlink">
 <defs>
  <style type="text/css">
   <![CDATA[
    .fil0 {fill:none}
    .fil8 {fill:#00A4B9}
    .fil7 {fill:#00BCD4}
    .fil4 {fill:#546D79}
    .fil1 {fill:#607D8B}
    .fil5 {fill:#B4BCC0}
    .fil2 {fill:#CFD8DC}
    .fil6 {fill:#DEDEDE}
    .fil3 {fill:white}
   ]]>
  </style>
 </defs>
 <g id="Layer_x0020_1">
  <metadata id="CorelCorpID_0Corel-Layer"/>
  <rect class="fil0" width="764.54" height="486.52"/>
 </g>
 <g id="Layer_x0020_1_0">
  <metadata id="CorelCorpID_1Corel-Layer"/>
  <g id="power.svg">
   <path class="fil1" d="M637.91 136.75l-340.87 0c-23.52,0 -42.61,19.11 -42.61,42.61l0 213.04 426.09 0 0 -213.04c0,-23.5 -19.09,-42.61 -42.61,-42.61l0 0z"/>
   <path class="fil2" d="M701.83 392.4l-468.7 0c-11.78,0 -21.31,9.53 -21.31,21.31 0,11.78 9.53,21.3 21.31,21.3l468.7 0c11.78,0 21.3,-9.52 21.3,-21.3 0,-11.78 -9.52,-21.31 -21.3,-21.31l0 0z"/>
   <polygon class="fil3" points="637.91,392.4 297.04,392.4 297.04,179.36 637.91,179.36 "/>
   <path class="fil4" d="M467.48 136.75l-170.44 0c-23.52,0 -42.61,19.11 -42.61,42.61l0 213.04 213.05 0 -426.09 0 0 -213.04 170.43 0 255.66 -42.61z"/>
   <path class="fil5" d="M467.48 392.4l-213.05 0 -63.91 0c-11.78,0 -21.31,9.53 -21.31,21.31 0,11.78 9.53,21.3 21.31,21.3l234.35 0 42.61 -42.61z"/>
   <polygon class="fil6" points="467.48,179.36 297.04,179.36 297.04,392.4 467.48,392.4 "/>
   <g>
    <path class="fil2" d="M584.65 120.77c-4.07,0 -8.18,-1.55 -11.29,-4.69l-37.28 -37.28c-6.24,-6.24 -6.24,-16.36 0,-22.6 6.24,-6.25 16.36,-6.25 22.6,0l37.28 37.28c6.25,6.24 6.25,16.36 0,22.6 -3.13,3.13 -7.24,4.69 -11.31,4.69z"/>
    <path class="fil2" d="M520.74 184.68c-4.07,0 -8.18,-1.55 -11.29,-4.68l-37.29 -37.29c-6.24,-6.24 -6.24,-16.36 0,-22.6 6.25,-6.24 16.37,-6.24 22.61,0l37.28 37.28c6.24,6.24 6.24,16.36 0,22.61 -3.13,3.13 -7.24,4.68 -11.31,4.68z"/>
    <path class="fil2" d="M707.15 307.18c-4.07,0 -8.18,-1.55 -11.29,-4.68l-64.76 -64.77c-6.25,-6.24 -6.25,-16.36 0,-22.6 6.24,-6.25 16.36,-6.25 22.6,0l64.76 64.76c6.25,6.24 6.25,16.36 0,22.61 -3.13,3.13 -7.24,4.68 -11.31,4.68z"/>
   </g>
   <path class="fil7" d="M662.84 121.62l-36.28 -36.13 6.67 -6.69c6.24,-6.24 6.24,-16.36 0,-22.58 -6.25,-6.24 -16.37,-6.24 -22.61,0l-138.48 138.48c-6.24,6.24 -6.24,16.36 0,22.6 3.11,3.13 7.23,4.69 11.29,4.69 4.07,0 8.19,-1.56 11.3,-4.69l6.6 -6.6 36.49 36.49c10.93,11.21 25.68,17.38 41.51,17.38 15.82,0 30.57,-6.17 41.33,-17.25l42.46 -42.46c11.22,-10.91 17.4,-25.65 17.4,-41.48 0,-15.83 -6.18,-30.57 -17.68,-41.76z"/>
   <path class="fil5" d="M483.46 115.44c-4.09,0 -8.19,1.56 -11.3,4.69 -6.24,6.24 -6.24,16.36 0,22.6l25.99 26 22.59 -22.63 -25.99 -25.99c-3.11,-3.11 -7.2,-4.67 -11.29,-4.67l0 0z"/>
   <path class="fil5" d="M641.96 226.01l-11.29 11.3c0.13,0.15 0.28,0.27 0.4,0.42l64.77 64.77c3.11,3.11 7.22,4.68 11.29,4.68 4.07,0 8.18,-1.55 11.29,-4.68l-76.46 -76.49z"/>
   <path class="fil8" d="M541.4 125.46l-20.66 20.66 -22.61 22.58 -25.99 26c-6.24,6.24 -6.24,16.36 0,22.6 3.11,3.13 7.23,4.69 11.29,4.69 4.07,0 8.19,-1.56 11.3,-4.69l6.6 -6.6 36.49 36.49c10.93,11.21 25.68,17.38 41.51,17.38 15.82,0 30.57,-6.17 41.33,-17.25l10.01 -10.01 11.29 -11.3 -100.56 -100.55z"/>
  </g>
 </g>
</svg>
