<?xml version="1.0" encoding="UTF-8"?>
<!DOCTYPE svg PUBLIC "-//W3C//DTD SVG 1.1//EN" "http://www.w3.org/Graphics/SVG/1.1/DTD/svg11.dtd">
<!-- Creator: CorelDRAW 2019 (64-Bit) -->
<svg xmlns="http://www.w3.org/2000/svg" xml:space="preserve" width="550px" height="350px" version="1.1" style="shape-rendering:geometricPrecision; text-rendering:geometricPrecision; image-rendering:optimizeQuality; fill-rule:evenodd; clip-rule:evenodd"
viewBox="0 0 784.36 499.14"
 xmlns:xlink="http://www.w3.org/1999/xlink">
 <defs>
  <style type="text/css">
   <![CDATA[
    .str0 {stroke:#34BCEC;stroke-width:23.77;stroke-miterlimit:2.61313}
    .fil0 {fill:none}
    .fil2 {fill:#EF7F1A}
    .fil1 {fill:#34BCEC}
   ]]>
  </style>
 </defs>
 <g id="Layer_x0020_1">
  <metadata id="CorelCorpID_0Corel-Layer"/>
  <rect class="fil0" width="784.36" height="499.14"/>
 </g>
 <g id="Layer_x0020_1_0">
  <metadata id="CorelCorpID_1Corel-Layer"/>
  <g id="_2993423102160">
   <path class="fil1" d="M438.12 468.49l-27.29 0c-5.07,0 -9.19,-4.11 -9.19,-9.18 0,-5.08 4.12,-9.19 9.19,-9.19l27.29 0c5.07,0 9.18,4.11 9.18,9.19 0,5.07 -4.11,9.18 -9.18,9.18l0 0z"/>
   <path class="fil2" d="M615.7 468.49l-113.28 0c-5.07,0 -9.18,-4.11 -9.18,-9.18 0,-5.08 4.11,-9.19 9.18,-9.19l113.28 0c40.39,-0.03 74.37,-30.26 79.11,-70.37l-229.62 0 -8.27 26.64c-1.2,3.83 -4.75,6.43 -8.76,6.43 0,0 0,0 0,0l-111.93 0c0,0 0,0 -0.01,0 -4.01,0 -7.56,-2.6 -8.76,-6.43l-8.27 -26.64 -229.67 0c4.75,40.11 38.73,70.34 79.11,70.37l86.92 0c5.07,0 9.18,4.11 9.18,9.19 0,5.07 -4.11,9.18 -9.18,9.18l-86.89 0c-54.07,-0.02 -97.93,-43.85 -98.02,-97.93 0,-5.07 4.12,-9.19 9.19,-9.19l246.11 0.01c0.01,-0.01 0.01,-0.01 0.01,-0.01 4.02,0 7.57,2.61 8.77,6.43l8.27 26.65 98.39 0 8.27 -26.65c1.2,-3.82 4.75,-6.43 8.76,-6.43 0,0 0.01,0 0.01,0l246.11 0.01c5.08,-0.01 9.19,4.11 9.19,9.18 -0.08,54.08 -43.95,97.91 -98.03,97.93l0.01 0z"/>
   <path class="fil1" d="M346.52 468.49l-26.64 0c-5.07,0 -9.19,-4.11 -9.19,-9.18 0,-5.08 4.12,-9.19 9.19,-9.19l26.64 0c5.08,0 9.19,4.11 9.19,9.19 0,5.07 -4.11,9.18 -9.19,9.18l0 0z"/>
   <path class="fil2" d="M644.82 379.75c-5.07,0 -9.19,-4.12 -9.19,-9.19l0 -299.03c-0.04,-12.44 -10.14,-22.51 -22.58,-22.51 0,0 -0.01,0 -0.02,0l-441.7 0c-0.01,0 -0.01,0 -0.02,0 -12.44,0 -22.54,10.07 -22.58,22.51l0 299.03c0,5.07 -4.11,9.19 -9.19,9.19 -5.07,0 -9.18,-4.12 -9.18,-9.19l0 -299.03c0.05,-22.59 18.38,-40.88 40.97,-40.88l441.7 0c22.59,0 40.92,18.29 40.98,40.88l0 299.03c0,5.07 -4.12,9.19 -9.19,9.19l0 0z"/>
   <circle class="fil2 str0" cx="392.19" cy="205.26" r="74.36"/>
   <path class="fil1" d="M377.09 239.59c-2.44,0 -4.78,-0.97 -6.5,-2.69l-20.21 -20.21c-1.65,-1.71 -2.58,-4 -2.58,-6.38 0,-5.07 4.12,-9.19 9.19,-9.19 2.38,0 4.67,0.93 6.38,2.58l13.72 13.72 43.91 -43.92c1.71,-1.65 4,-2.57 6.38,-2.57 5.07,0 9.19,4.11 9.19,9.18 0,2.38 -0.93,4.67 -2.58,6.38l-50.41 50.41c-1.72,1.72 -4.06,2.69 -6.49,2.69l0 0z"/>
  </g>
 </g>
</svg>
