<?xml version="1.0" encoding="UTF-8"?>
<!DOCTYPE svg PUBLIC "-//W3C//DTD SVG 1.1//EN" "http://www.w3.org/Graphics/SVG/1.1/DTD/svg11.dtd">
<!-- Creator: CorelDRAW 2019 (64-Bit) -->
<svg xmlns="http://www.w3.org/2000/svg" xml:space="preserve" width="404px" height="256px" version="1.1" style="shape-rendering:geometricPrecision; text-rendering:geometricPrecision; image-rendering:optimizeQuality; fill-rule:evenodd; clip-rule:evenodd"
viewBox="0 0 55.1 34.92"
 xmlns:xlink="http://www.w3.org/1999/xlink">
 <defs>
  <style type="text/css">
   <![CDATA[
    .fil0 {fill:none}
    .fil2 {fill:#151A6A}
    .fil1 {fill:#C3A1FB}
   ]]>
  </style>
 </defs>
 <g id="Layer_x0020_1">
  <metadata id="CorelCorpID_0Corel-Layer"/>
  <rect class="fil0" width="55.1" height="34.92"/>
  <g id="_1954853949584">
   <path class="fil1" d="M32.39 17.16l0.06 0.18c0.01,0.05 0.01,0.18 0.01,0.24l0 3.69c0.26,0 0.42,-0.04 0.6,0.05 0.3,0.15 0.7,0.91 -0.6,0.91 0,0.41 0,0.81 0,1.21 0,0.43 -0.1,0.78 -0.49,0.78 -0.73,0 -0.42,-1.33 -0.42,-1.99l-1.57 0c0,0.55 0.18,1.69 -0.25,1.93 -0.46,0.25 -1.02,-0.53 -1.23,-0.75 -0.36,-0.35 -1.87,-1.94 -2.15,-2.09 -0.1,0.17 -0.24,0.32 -0.37,0.48l-1.14 1.46c0.73,0 1.45,0 2.18,0 0.84,0 1.32,0.11 0.78,0.91 -0.67,0 -3.74,0.23 -4.16,-0.13 -0.51,-0.43 0.36,-1.24 0.92,-1.91 0.4,-0.49 0.73,-1 1.13,-1.47 -0.12,-0.25 -0.76,-0.81 -1,-1.06 -0.28,-0.29 -0.29,-0.21 -0.81,-0.21 -1.35,0.01 -3.95,0.08 -5.02,-0.04 0,2.68 0.01,4.83 1.33,7.11 0.27,0.45 0.52,0.86 0.82,1.3 0.1,0.14 0.12,0.14 0.22,0.26l0.76 0.88c0.56,0.68 1.59,1.43 2.32,1.9 0.79,0.51 1.98,0.99 2.91,1.25 2.09,0.59 5.42,0.55 7.52,-0.16 1.71,-0.57 3.28,-1.54 4.53,-2.78 0.2,-0.21 0.31,-0.37 0.51,-0.58 0.59,-0.61 1.31,-1.8 1.68,-2.55 1.53,-3.1 1.48,-6.96 -0.24,-10.27 -0.4,-0.77 -0.77,-1.23 -1.27,-1.88 -1.15,-1.48 -3.21,-2.88 -4.98,-3.48 -0.28,-0.1 -0.59,-0.16 -0.85,-0.26 0.12,0.94 0.21,1.54 0.21,2.54 0.72,0 1.29,-0.1 1.83,0.28 0.42,0.28 0.59,0.75 0.59,1.47 -0.01,1.14 0.1,3.01 -0.08,4.05 2.58,0 2.49,1.89 2.49,4.41 0,0.59 0.12,1.18 -0.34,1.35 -1.22,0.45 -0.2,-3.12 -0.84,-4.28 -0.23,-0.4 -0.54,-0.54 -1.18,-0.52 -0.53,0.01 -0.92,0.29 -1.14,0.61 -0.51,0.71 -0.37,1.99 -0.36,3.08 0,0.2 0.12,1.22 -0.54,1.14 -0.53,-0.07 -0.43,-0.72 -0.43,-1.32 0,-1.17 0,-2.34 0,-3.51 -1.18,0 -0.97,-0.22 -0.97,-1.75 0,-1.01 0.19,-7.2 -0.36,-7.79 -0.31,-0.01 -0.74,-0.12 -1.06,-0.12 0.24,0.55 0.44,0.68 0.45,1.5 0.02,0.66 0,1.34 0,2 0,1.31 0,2.62 0,3.93z"/>
   <path class="fil1" d="M28.05 13.59c0.32,0 1,-0.07 1.23,0.1 0.29,0.19 0.25,0.67 -0.08,0.82 -0.26,0.11 -4.6,0.05 -5.26,0.05 -0.45,0 -3.63,0.09 -3.9,-0.1 -0.33,-0.23 -0.26,-0.64 0.11,-0.82 0.22,-0.1 6.73,-0.05 7.9,-0.05zm0 -2.41c0.32,0 1,-0.07 1.23,0.09 0.29,0.2 0.25,0.68 -0.08,0.82 -0.26,0.12 -4.6,0.05 -5.26,0.05 -0.45,0 -3.63,0.09 -3.9,-0.09 -0.33,-0.23 -0.26,-0.65 0.11,-0.82 0.22,-0.11 6.73,-0.05 7.9,-0.05zm-9.01 -1.39c-0.3,0.44 -0.18,1.13 -0.18,1.99 0,1.68 -0.09,5.25 0.01,6.53 0.33,0.26 3.65,0.12 4.34,0.12 0.03,-0.33 0.15,-0.56 0.28,-0.81 0.19,-0.33 0.34,-0.4 0.51,-0.64 -0.77,0 -1.53,0 -2.3,0 -0.58,0 -1.79,0.21 -1.86,-0.44 -0.08,-0.74 1.17,-0.53 1.74,-0.53l6.89 0c0.37,0 0.76,-0.04 0.93,0.22 0.2,0.29 0.02,0.62 -0.24,0.71 -0.22,0.08 -1.9,0.04 -2.26,0.04 0.2,0.29 0.37,0.31 0.56,0.7 0.13,0.24 0.28,0.67 0.27,0.98 -0.01,0.5 -0.48,1.6 -0.77,1.82 0.1,0.2 0.94,1.04 1.15,1.15 0.06,-0.26 0.29,-0.62 0.42,-0.84 0.08,-0.13 0.13,-0.23 0.22,-0.39l0.26 -0.4c0,-1.1 -0.26,-1.57 0.91,-1.57 0.19,-0.37 0.39,-0.72 0.63,-1.07 0.21,-0.32 0.41,-0.77 0.88,-0.81 0,-1.59 0,-3.18 0,-4.77 0,-2.14 -0.81,-2.05 -2.78,-2.05 -1.27,0 -9.04,-0.09 -9.61,0.06z"/>
   <path class="fil2" d="M35.3 18.42l-0.97 0.01 0 -2.06 0 -2.78c1.8,0 1.45,-0.3 1.45,3.63 0,0.59 0.13,1.1 -0.48,1.2zm-21.76 -0.54l0 -3.74c0,-0.69 0.86,-0.55 1.45,-0.55l0 4.84c-0.59,0 -1.45,0.14 -1.45,-0.55zm19.46 -8.03c0.55,0.59 0.36,6.78 0.36,7.79 0,1.53 -0.21,1.75 0.97,1.75 0.51,0 1.15,0.07 1.53,-0.1 0.43,-0.18 0.65,-0.46 0.81,-0.86 0.18,-1.04 0.07,-2.91 0.08,-4.05 0,-0.72 -0.17,-1.19 -0.59,-1.47 -0.54,-0.38 -1.11,-0.28 -1.83,-0.28 0,-1 -0.09,-1.6 -0.21,-2.54 -0.5,-2.24 -1.75,-4.27 -3.55,-5.61 -3.19,-2.38 -6.99,-2.69 -10.62,-0.8 -0.79,0.41 -2.04,1.4 -2.57,2.08 -1.14,1.47 -1.9,2.64 -2.25,4.65 -0.13,0.76 -0.14,1.33 -0.14,2.22 -0.89,0 -1.84,-0.2 -2.31,0.88 -0.23,0.51 -0.1,2.42 -0.1,3.16 0,1.08 -0.23,2 0.72,2.54 0.45,0.25 0.79,0.18 1.45,0.18 1.6,0 1.21,0.17 1.21,-3.62 0,-3.55 -0.32,-6.55 2.1,-9.26 2.05,-2.3 4.92,-3.53 8.19,-2.9 0.99,0.19 1.6,0.43 2.38,0.82 1.54,0.77 2.48,1.74 3.4,3.12 0.25,0.37 0.96,1.76 0.97,2.3z"/>
   <path class="fil2" d="M19.04 9.79c0.57,-0.15 8.34,-0.06 9.61,-0.06 1.97,0 2.78,-0.09 2.78,2.05 0,1.59 0,3.18 0,4.77 0,0.62 -0.08,1 -0.35,1.34 -0.23,0.29 -0.67,0.52 -1.16,0.54 -1.17,0 -0.91,0.47 -0.91,1.57l0 2.23 -0.02 0.33 -0.29 -0.33 -0.59 -0.6c-0.21,-0.11 -1.05,-0.95 -1.15,-1.15l-0.67 -0.66c-0.25,-0.14 -0.67,-0.62 -0.9,-0.85 -0.41,-0.42 -0.37,-0.54 -1.21,-0.54l-0.97 0c-0.69,0 -4.01,0.14 -4.34,-0.12 -0.69,-0.15 -0.98,-0.83 -0.98,-1.7l0 -5.32c0.02,-0.84 0.45,-1.34 1.15,-1.5zm-0.18 9.56c1.07,0.12 3.67,0.05 5.02,0.04 0.52,0 0.53,-0.08 0.81,0.21 0.24,0.25 0.88,0.81 1,1.06l0.66 0.66c0.28,0.15 1.79,1.74 2.15,2.09 0.21,0.22 0.77,1 1.23,0.75 0.43,-0.24 0.25,-1.38 0.25,-1.93l0 -0.96 0 -1.15 0 -0.73 0.42 -0.01c0.17,-0.07 0.43,-0.13 0.62,-0.22 0.21,-0.1 0.34,-0.23 0.53,-0.32 0.2,-0.27 0.36,-0.34 0.56,-0.7 0.15,-0.26 0.29,-0.6 0.28,-0.98 0,-1.31 0,-2.62 0,-3.93 0,-0.66 0.02,-1.34 0,-2 -0.01,-0.82 -0.21,-0.95 -0.45,-1.5 -0.95,-1 -1.25,-0.97 -2.63,-0.97 -1.39,0 -10,-0.1 -10.62,0.07 -0.81,0.23 -1.54,0.94 -1.73,1.84 -0.13,0.61 -0.03,2.74 -0.03,3.53 0,0.88 -0.12,2.8 0.08,3.48 0.24,0.81 0.97,1.53 1.85,1.67z"/>
   <path class="fil2" d="M20.15 11.23c-0.37,0.17 -0.44,0.59 -0.11,0.82 0.27,0.18 3.45,0.09 3.9,0.09 0.66,0 5,0.07 5.26,-0.05 0.33,-0.14 0.37,-0.62 0.08,-0.82 -0.23,-0.16 -0.91,-0.09 -1.23,-0.09 -1.17,0 -7.68,-0.06 -7.9,0.05z"/>
   <path class="fil2" d="M20.15 13.64c-0.37,0.18 -0.44,0.59 -0.11,0.82 0.27,0.19 3.45,0.1 3.9,0.1 0.66,0 5,0.06 5.26,-0.05 0.33,-0.15 0.37,-0.63 0.08,-0.82 -0.23,-0.17 -0.91,-0.1 -1.23,-0.1 -1.17,0 -7.68,-0.05 -7.9,0.05z"/>
   <path class="fil2" d="M24 16.98l2.9 0c0.36,0 2.04,0.04 2.26,-0.04 0.26,-0.09 0.44,-0.42 0.24,-0.71 -0.17,-0.26 -0.56,-0.22 -0.93,-0.22l-6.89 0c-0.57,0 -1.82,-0.21 -1.74,0.53 0.07,0.65 1.28,0.44 1.86,0.44 0.77,0 1.53,0 2.3,0z"/>
   <path class="fil1" d="M34.33 16.37c0.14,-0.15 0.26,-0.38 0.53,-0.35 0.68,0.08 0.44,1.48 0.44,2.4 0.61,-0.1 0.48,-0.61 0.48,-1.2 0,-3.93 0.35,-3.63 -1.45,-3.63l0 2.78z"/>
   <path class="fil1" d="M24.18 18.43c0.84,0 0.8,0.12 1.21,0.54 0.23,0.23 0.65,0.71 0.9,0.85 0.49,-0.75 0.81,-1.53 -0.07,-2.17 -0.3,-0.21 -0.87,-0.28 -1.3,-0.11 -0.32,0.13 -0.71,0.5 -0.74,0.89z"/>
   <path class="fil1" d="M30.4 19.38c-0.06,0.13 -0.11,0.25 -0.18,0.37l-0.14 0.23c-0.01,0.01 -0.02,0.02 -0.02,0.03 -0.09,0.13 -0.02,0.04 -0.08,0.11l0 1.15 1.57 0 0 -2.43c-0.19,0.09 -0.32,0.22 -0.53,0.32 -0.19,0.09 -0.45,0.15 -0.62,0.22z"/>
   <polygon class="fil1" points="29.01,22.23 28.7,22.23 28.99,22.56 "/>
  </g>
 </g>
</svg>
