<?xml version="1.0" encoding="UTF-8"?>
<!DOCTYPE svg PUBLIC "-//W3C//DTD SVG 1.1//EN" "http://www.w3.org/Graphics/SVG/1.1/DTD/svg11.dtd">
<!-- Creator: CorelDRAW 2019 (64-Bit) -->
<svg xmlns="http://www.w3.org/2000/svg" xml:space="preserve" width="550px" height="350px" version="1.1" style="shape-rendering:geometricPrecision; text-rendering:geometricPrecision; image-rendering:optimizeQuality; fill-rule:evenodd; clip-rule:evenodd"
viewBox="0 0 79.03 50.29"
 xmlns:xlink="http://www.w3.org/1999/xlink"
 data-name="Layer 1">
 <defs>
  <style type="text/css">
   <![CDATA[
    .fil0 {fill:none}
    .fil7 {fill:#53D8D8}
    .fil11 {fill:#5DA1C6}
    .fil4 {fill:#6D7486}
    .fil8 {fill:#72BCEF}
    .fil3 {fill:#7A7489}
    .fil1 {fill:#7D8595}
    .fil2 {fill:#978CAC}
    .fil6 {fill:#B0B5CA}
    .fil10 {fill:#BC5E72}
    .fil9 {fill:#E87187}
    .fil5 {fill:#F4F8FC}
   ]]>
  </style>
 </defs>
 <g id="Layer_x0020_1">
  <metadata id="CorelCorpID_0Corel-Layer"/>
  <rect class="fil0" width="79.03" height="50.29"/>
 </g>
 <g id="Layer_x0020_1_0">
  <metadata id="CorelCorpID_1Corel-Layer"/>
  <g id="data.svg">
   <path class="fil1" d="M52.61 24.65l-26.19 0c-1.58,0.01 -2.87,1.29 -2.87,2.88l0 15.26 31.94 0 0 -15.26c-0.01,-1.59 -1.29,-2.87 -2.88,-2.88l0 0z"/>
   <polygon class="fil2" points="25.91,27.28 25.91,42.79 33.78,42.79 35.75,44.34 43.28,44.34 45.25,42.79 53.13,42.79 53.13,27.28 "/>
   <polygon class="fil3" points="25.91,27.28 28.63,27.28 28.63,42.79 25.91,42.79 "/>
   <path class="fil4" d="M45.25 42.61l-1.97 1.55 -7.53 0 -1.97 -1.55 -11.59 0 0 1.87c0,1.57 1.29,2.85 2.87,2.85 0,0 0,0 0,0l28.92 0c0,0 0,0 0,0 1.58,0 2.86,-1.28 2.87,-2.85l0 -1.87 -11.6 0z"/>
   <path class="fil5" d="M27.91 30.26c-0.3,0 -0.54,-0.25 -0.54,-0.55l0 -0.39c0,-0.3 0.24,-0.54 0.54,-0.54 0.3,0 0.54,0.24 0.54,0.54l0 0.39c0,0.3 -0.24,0.55 -0.54,0.55l0 0z"/>
   <path class="fil5" d="M27.91 38.06c-0.3,0 -0.54,-0.24 -0.54,-0.54l0 -5.9c0,-0.3 0.24,-0.55 0.54,-0.55 0.3,0 0.54,0.25 0.54,0.55l0 5.9c0,0.3 -0.24,0.54 -0.54,0.54l0 0z"/>
   <g>
    <path class="fil6" d="M36.36 35.67l-1.09 0 0 -6.52c0,0 0,0 0,0 0,-0.94 0.51,-1.8 1.33,-2.24 0.47,-0.25 0.77,-0.74 0.77,-1.28 0,0 0,0 0,0l-0.02 -4.41 1.09 -0.01 0.02 4.42c0,0 0,0 0,0 0,0.94 -0.52,1.8 -1.34,2.24 -0.47,0.25 -0.76,0.74 -0.76,1.28 0,0 0,0 0,0l0 6.52z"/>
    <path class="fil6" d="M30.96 31.23l-1.09 0 0 -3.28c0.01,-1.25 0.83,-2.35 2.03,-2.71 0.74,-0.22 1.25,-0.9 1.25,-1.67l0 -2.33 1.09 0 0 2.33c-0.01,1.26 -0.83,2.36 -2.03,2.72 -0.74,0.22 -1.25,0.89 -1.25,1.66l0 3.28z"/>
    <path class="fil6" d="M49.16 33.75l-1.09 0 0 -5.74c0,-0.41 -0.28,-0.76 -0.68,-0.85 -0.89,-0.2 -1.53,-0.99 -1.53,-1.91l0 -4.01 1.08 0 0 4.01c0.01,0.41 0.29,0.76 0.68,0.85 0.9,0.2 1.54,0.99 1.54,1.91l0 5.74z"/>
    <path class="fil6" d="M44.26 30.35l-1.09 0 0 -3.94c0,0 0,0 0,0 0,-0.54 -0.32,-1.03 -0.82,-1.23 -0.9,-0.38 -1.49,-1.26 -1.49,-2.24 0,0 0,0 0,0l0 -1.7 1.09 0 0 1.7c0,0 0,0 0,0 0,0.54 0.32,1.03 0.82,1.23 0.9,0.38 1.49,1.26 1.49,2.24 0,0 0,0 0,0l0 3.94z"/>
   </g>
   <circle class="fil7" cx="35.79" cy="36.93" r="1.8"/>
   <circle class="fil7" cx="30.42" cy="32.51" r="1.8"/>
   <circle class="fil7" cx="48.62" cy="34.97" r="1.8"/>
   <circle class="fil7" cx="43.72" cy="31.59" r="1.8"/>
   <path class="fil8" d="M49.31 10.7c-0.11,-2.92 -2.52,-5.23 -5.44,-5.23 -0.53,0 -1.05,0.08 -1.56,0.23 -1.44,-1.74 -3.59,-2.74 -5.85,-2.74 -4.21,0 -7.62,3.42 -7.62,7.63 0,0 0,0 0,0 0,0.12 0,0.24 0.01,0.36 -2.1,0.81 -3.49,2.83 -3.49,5.08 0,3.01 2.43,5.44 5.44,5.44 0,0 0,0 0,0l17.43 0c0,0 0,0 0.01,0 3,0 5.44,-2.43 5.44,-5.44 0,-2.59 -1.83,-4.82 -4.37,-5.33l0 0z"/>
   <path class="fil9" d="M45.44 14.84l-0.63 1.63 -0.98 -0.02c-0.31,0.46 -0.7,0.87 -1.15,1.2l0.07 0.98 -1.61 0.71 -0.67 -0.71c-0.33,0.06 -0.65,0.09 -0.98,0.09 -0.23,0 -0.46,-0.02 -0.69,-0.05l-0.63 0.74 -1.64 -0.63 0.02 -0.98c-0.46,-0.31 -0.87,-0.7 -1.2,-1.15l-0.98 0.07 -0.71 -1.61 0.71 -0.68c-0.06,-0.32 -0.09,-0.64 -0.09,-0.97 0,-0.23 0.02,-0.46 0.05,-0.69l-0.74 -0.64 0.63 -1.64 0.98 0.03c0.31,-0.46 0.7,-0.87 1.15,-1.21l-0.07 -0.97 1.61 -0.71 0.68 0.71c0.32,-0.06 0.64,-0.09 0.97,-0.09 0.23,0 0.46,0.01 0.7,0.04l0.63 -0.73 1.64 0.63 -0.03 0.98c0.46,0.31 0.87,0.7 1.21,1.15l0.97 -0.07 0.71 1.61 -0.71 0.68c0.06,0.32 0.09,0.64 0.09,0.97 0,0.23 -0.01,0.46 -0.04,0.69l0.73 0.64z"/>
   <path class="fil10" d="M39.52 10.16c0,0 0,0 0,0 1.83,0 3.32,1.49 3.32,3.32 0,1.84 -1.49,3.33 -3.32,3.33 -1.84,0 -3.33,-1.49 -3.33,-3.33 0,0 0,0 0,0 0,0 0,0 0,0 0,-1.83 1.49,-3.32 3.33,-3.32 0,0 0,0 0,0l0 0z"/>
   <path class="fil11" d="M28.08 16.03c0,-2.25 1.39,-4.27 3.49,-5.08 0,-0.12 -0.01,-0.24 -0.01,-0.36 0,0 0,0 0,0 0,-3.69 2.64,-6.85 6.27,-7.5 -0.45,-0.09 -0.91,-0.13 -1.37,-0.13 -4.21,0 -7.62,3.42 -7.62,7.62 0,0.01 0,0.01 0,0.01 0,0.12 0,0.24 0.01,0.36 -2.1,0.81 -3.49,2.83 -3.49,5.08 0,3.01 2.43,5.44 5.44,5.44 0,0 0,0 0,0l2.72 0c0,0 0,0 0,0 -3.01,0 -5.44,-2.43 -5.44,-5.44 0,0 0,0 0,0l0 0z"/>
  </g>
 </g>
</svg>
