<?xml version="1.0" encoding="UTF-8"?>
<!DOCTYPE svg PUBLIC "-//W3C//DTD SVG 1.1//EN" "http://www.w3.org/Graphics/SVG/1.1/DTD/svg11.dtd">
<!-- Creator: CorelDRAW 2019 (64-Bit) -->
<svg xmlns="http://www.w3.org/2000/svg" xml:space="preserve" width="404px" height="256px" version="1.1" style="shape-rendering:geometricPrecision; text-rendering:geometricPrecision; image-rendering:optimizeQuality; fill-rule:evenodd; clip-rule:evenodd"
viewBox="0 0 107.66 68.22"
 xmlns:xlink="http://www.w3.org/1999/xlink">
 <defs>
  <style type="text/css">
   <![CDATA[
    .fil0 {fill:none}
    .fil5 {fill:#239172}
    .fil6 {fill:#2AB793}
    .fil2 {fill:#565A6B}
    .fil4 {fill:#676B7F}
    .fil1 {fill:#747989}
    .fil3 {fill:#878B9B}
   ]]>
  </style>
 </defs>
 <g id="Layer_x0020_1">
  <metadata id="CorelCorpID_0Corel-Layer"/>
  <rect class="fil0" width="107.66" height="68.22"/>
  <g id="data-security.svg">
   <path class="fil1" d="M51.7 31.98l0 11.71c0,2.35 6.71,4.26 14.91,4.26 8.2,0 14.9,-1.91 14.9,-4.26l0 -11.71 -29.81 0zm0 0z"/>
   <path class="fil2" d="M51.7 19.2l0 12.78c0,2.34 6.71,4.26 14.91,4.26 8.2,0 14.9,-1.92 14.9,-4.26l0 -12.78 -29.81 0zm0 0z"/>
   <path class="fil1" d="M51.7 7.49l0 11.71c0,2.35 6.71,4.26 14.91,4.26 8.2,0 14.9,-1.91 14.9,-4.26l0 -11.71 -29.81 0zm0 0z"/>
   <path class="fil3" d="M24.02 45.82l0 14.91c0,2.34 8.09,4.26 18.1,4.26 10.01,0 18.1,-1.92 18.1,-4.26l0 -14.91 -36.2 0zm0 0z"/>
   <path class="fil4" d="M24.02 31.98l0 14.91c0,2.34 8.09,4.26 18.1,4.26 10.01,0 18.1,-1.92 18.1,-4.26l0 -14.91 -36.2 0zm0 0z"/>
   <path class="fil3" d="M24.02 18.14l0 13.84c0,2.34 8.09,4.26 18.1,4.26 10.01,0 18.1,-1.92 18.1,-4.26l0 -13.84 -36.2 0zm0 0z"/>
   <path class="fil5" d="M70.87 33.05l12.77 4.26 0 7.98c0,7.56 -4.04,14.59 -10.54,18.42l-2.23 1.28 -2.24 -1.28c-6.49,-3.83 -10.54,-10.86 -10.54,-18.42l0 -7.98 12.78 -4.26zm0 0z"/>
   <path class="fil4" d="M81.51 7.49c0,-2.35 -6.67,-4.26 -14.9,-4.26 -8.23,0 -14.91,1.91 -14.91,4.26 0,2.36 6.68,4.26 14.91,4.26 8.23,0 14.9,-1.9 14.9,-4.26zm0 0z"/>
   <path class="fil6" d="M70.33 61.69l-1.06 -1.81c5.96,-3.52 9.05,-8.95 9.05,-16.4l0 -1.92 2.13 0 0 1.81c0,8.31 -3.41,14.38 -10.12,18.32l0 0zm0 0z"/>
   <path class="fil4" d="M60.22 18.14c0,-2.35 -8.1,-4.26 -18.1,-4.26 -10,0 -18.1,1.91 -18.1,4.26 0,2.35 8.1,4.26 18.1,4.26 10,0 18.1,-1.91 18.1,-4.26zm0 0z"/>
  </g>
 </g>
</svg>
