<?xml version="1.0" encoding="UTF-8"?>
<!DOCTYPE svg PUBLIC "-//W3C//DTD SVG 1.1//EN" "http://www.w3.org/Graphics/SVG/1.1/DTD/svg11.dtd">
<!-- Creator: CorelDRAW 2019 (64-Bit) -->
<svg xmlns="http://www.w3.org/2000/svg" xml:space="preserve" width="300px" height="180px" version="1.1" style="shape-rendering:geometricPrecision; text-rendering:geometricPrecision; image-rendering:optimizeQuality; fill-rule:evenodd; clip-rule:evenodd"
viewBox="0 0 14.73 8.84"
 xmlns:xlink="http://www.w3.org/1999/xlink"
 enable-background="new 0 0 64 64">
 <defs>
  <style type="text/css">
   <![CDATA[
    .fil0 {fill:none}
    .fil4 {fill:black}
    .fil2 {fill:#E6E9ED}
    .fil3 {fill:#FCD770}
    .fil1 {fill:#FF826E}
   ]]>
  </style>
 </defs>
 <g id="Layer_x0020_1">
  <metadata id="CorelCorpID_0Corel-Layer"/>
  <rect class="fil0" width="14.73" height="8.84"/>
  <g id="data-recovery.svg">
   <g>
    <g>
     <g>
      <path class="fil1" d="M10.2 4.16l0.9 1.29 -0.42 0c-0.25,1.61 -1.64,2.84 -3.31,2.84 -1.19,0 -2.23,-0.62 -2.83,-1.55l0.77 -0.26c0.47,0.63 1.21,1.03 2.06,1.03 1.24,0 2.28,-0.88 2.52,-2.06l-0.59 0 0.9 -1.29z"/>
     </g>
     <g>
      <path class="fil1" d="M6.18 1.15l0.16 0.28c-0.03,0.06 -0.06,0.13 -0.08,0.2l-0.31 0.08 0 0.3c-0.56,0.37 -0.97,0.96 -1.11,1.64l0.59 0 -0.9 1.29 -0.9 -1.29 0.43 0c0.19,-1.27 1.11,-2.31 2.31,-2.68l0 0 -0.19 0.18z"/>
     </g>
     <g>
      <path class="fil1" d="M8.55 1.15l-0.19 -0.18 0 -0.01c0.77,0.24 1.41,0.74 1.83,1.4l-0.76 0.26c-0.18,-0.24 -0.4,-0.45 -0.65,-0.61l0 -0.3 -0.3 -0.08c-0.03,-0.07 -0.05,-0.14 -0.09,-0.2l0.16 -0.28z"/>
     </g>
     <g>
      <path class="fil2" d="M8.21 3.13l-0.02 0.03 -0.28 -0.16c-0.06,0.03 -0.13,0.06 -0.2,0.08l-0.08 0.31 -0.52 0 -0.09 -0.31c-0.06,-0.02 -0.13,-0.05 -0.19,-0.08l-0.28 0.16 -0.03 -0.03 -0.44 0 0 3.35 2.58 0 0 -3.35 -0.45 0z"/>
     </g>
     <g>
      <path class="fil3" d="M8.21 3.13l-0.02 0.03 -0.28 -0.16c-0.06,0.03 -0.13,0.06 -0.2,0.08l-0.08 0.31 -0.52 0 -0.09 -0.31c-0.06,-0.02 -0.13,-0.05 -0.19,-0.08l-0.28 0.16 -0.03 -0.03 -0.34 -0.34 0.16 -0.28c-0.03,-0.06 -0.06,-0.13 -0.08,-0.19l-0.31 -0.09 0 -0.22 0 -0.3 0.31 -0.08c0.02,-0.07 0.05,-0.14 0.08,-0.2l-0.16 -0.28 0.19 -0.18 0.18 -0.18 0.28 0.16c0.06,-0.04 0.13,-0.06 0.19,-0.09l0.09 -0.3 0.52 0 0.08 0.3c0.07,0.03 0.14,0.05 0.2,0.09l0.28 -0.16 0.17 0.18 0.19 0.18 -0.16 0.28c0.04,0.06 0.06,0.13 0.09,0.2l0.3 0.08 0 0.3 0 0.22 -0.3 0.09c-0.03,0.06 -0.05,0.13 -0.09,0.19l0.16 0.28 -0.34 0.34zm-0.2 -1.16c0,-0.35 -0.29,-0.64 -0.64,-0.64 -0.36,0 -0.65,0.29 -0.65,0.64 0,0.36 0.29,0.65 0.65,0.65 0.35,0 0.64,-0.29 0.64,-0.65z"/>
     </g>
    </g>
    <g>
     <path class="fil4" d="M7.37 2.75c0.42,0 0.77,-0.35 0.77,-0.78 0,-0.42 -0.35,-0.77 -0.77,-0.77 -0.43,0 -0.78,0.35 -0.78,0.77 0,0.43 0.35,0.78 0.78,0.78zm0 -1.29c0.28,0 0.51,0.23 0.51,0.51 0,0.29 -0.23,0.52 -0.51,0.52 -0.29,0 -0.52,-0.23 -0.52,-0.52 0,-0.28 0.23,-0.51 0.52,-0.51z"/>
     <path class="fil4" d="M10.2 3.94l-1.15 1.64 0.68 0c-0.29,1.05 -1.26,1.8 -2.36,1.8 -0.78,0 -1.49,-0.35 -1.96,-0.98l-0.06 -0.07 -1.01 0.34 0.09 0.14c0.65,1 1.74,1.6 2.94,1.6 1.66,0 3.11,-1.21 3.42,-2.83l0.56 0 -1.15 -1.64zm0.37 1.38l-0.02 0.11c-0.24,1.56 -1.61,2.73 -3.18,2.73 -1.05,0 -2.02,-0.51 -2.63,-1.35l0.52 -0.18c0.52,0.65 1.28,1.01 2.11,1.01 1.28,0 2.39,-0.91 2.65,-2.16l0.03 -0.16 -0.5 0 0.65 -0.93 0.66 0.93 -0.29 0z"/>
     <path class="fil4" d="M5.68 3.52l-0.67 0c0.13,-0.49 0.42,-0.93 0.81,-1.25l0 0.06 0.34 0.09c0.01,0.03 0.02,0.06 0.04,0.09l-0.18 0.3 0.19 0.19 -0.26 0 0 3.61 2.83 0 0 -3.61 -0.26 0 0.19 -0.19 -0.17 -0.3c0.01,-0.03 0.02,-0.06 0.04,-0.09l0.33 -0.09 0 -0.06c0.16,0.12 0.3,0.26 0.42,0.42l0.05 0.08 1.01 -0.34 -0.09 -0.14c-0.43,-0.68 -1.1,-1.19 -1.86,-1.44l-0.23 -0.22 -0.31 0.17c-0.02,-0.01 -0.05,-0.02 -0.08,-0.04l-0.1 -0.33 -0.71 0 -0.09 0.33c-0.03,0.02 -0.06,0.03 -0.09,0.04l-0.3 -0.17 -0.23 0.23c-1.21,0.39 -2.12,1.42 -2.35,2.66l-0.57 0 1.15 1.64 1.15 -1.64zm2.85 -0.26l0 3.09 -2.32 0 0 -3.09 0.26 0 0.06 0.06 0.3 -0.18c0.03,0.02 0.06,0.03 0.09,0.04l0.09 0.34 0.71 0 0.1 -0.34c0.03,-0.01 0.06,-0.02 0.08,-0.04l0.31 0.18 0.06 -0.06 0.26 0zm1.46 -0.97l-0.52 0.18c-0.16,-0.2 -0.35,-0.38 -0.56,-0.53l0 -0.32 -0.33 -0.1c-0.02,-0.03 -0.03,-0.06 -0.04,-0.08l0.12 -0.22c0.53,0.23 0.99,0.6 1.33,1.07l0 0zm-3.42 -1.34l0.25 0.14 0.07 -0.03c0.05,-0.03 0.11,-0.05 0.17,-0.07l0.07 -0.02 0.08 -0.29 0.32 0 0.07 0.29 0.07 0.02c0.06,0.02 0.12,0.04 0.18,0.07l0.06 0.03 0.26 -0.14 0.22 0.22 -0.14 0.26 0.03 0.06c0.03,0.06 0.05,0.12 0.07,0.18l0.02 0.07 0.29 0.07 0 0.32 -0.29 0.08 -0.02 0.07c-0.02,0.06 -0.04,0.12 -0.07,0.17l-0.03 0.07 0.14 0.25 -0.22 0.23 -0.26 -0.15 -0.06 0.03c-0.06,0.03 -0.12,0.06 -0.18,0.08l-0.07 0.02 -0.07 0.28 -0.32 0 -0.08 -0.28 -0.07 -0.02c-0.06,-0.02 -0.12,-0.05 -0.17,-0.08l-0.07 -0.03 -0.25 0.15 -0.23 -0.23 0.15 -0.25 -0.03 -0.07c-0.03,-0.05 -0.06,-0.11 -0.08,-0.17l-0.02 -0.07 -0.28 -0.08 0 -0.32 0.28 -0.07 0.02 -0.07c0.02,-0.06 0.05,-0.12 0.08,-0.18l0.03 -0.06 -0.15 -0.26 0.23 -0.22zm-2.4 2.83l0.01 -0.11c0.17,-1.09 0.9,-2.01 1.89,-2.45l0.13 0.22c-0.02,0.02 -0.03,0.05 -0.04,0.08l-0.34 0.1 0 0.33c-0.57,0.39 -0.97,1 -1.1,1.67l-0.04 0.16 0.51 0 -0.66 0.93 -0.65 -0.93 0.29 0z"/>
     <polygon class="fil4" points="8.01,5.84 7.75,5.84 7.75,5.06 7.5,5.06 7.5,5.84 7.24,5.84 7.24,5.32 6.98,5.32 6.98,5.84 6.47,5.84 6.47,6.1 8.27,6.1 8.27,4.81 8.01,4.81 "/>
     <polygon class="fil4" points="6.47,3.78 6.72,3.78 6.72,4.03 6.47,4.03 "/>
     <polygon class="fil4" points="6.98,3.78 8.27,3.78 8.27,4.03 6.98,4.03 "/>
     <polygon class="fil4" points="6.47,4.29 8.27,4.29 8.27,4.55 6.47,4.55 "/>
    </g>
   </g>
  </g>
 </g>
</svg>
