<?xml version="1.0" encoding="UTF-8"?>
<!DOCTYPE svg PUBLIC "-//W3C//DTD SVG 1.1//EN" "http://www.w3.org/Graphics/SVG/1.1/DTD/svg11.dtd">
<!-- Creator: CorelDRAW 2019 (64-Bit) -->
<svg xmlns="http://www.w3.org/2000/svg" xml:space="preserve" width="300px" height="180px" version="1.1" style="shape-rendering:geometricPrecision; text-rendering:geometricPrecision; image-rendering:optimizeQuality; fill-rule:evenodd; clip-rule:evenodd"
viewBox="0 0 32.72 19.63"
 xmlns:xlink="http://www.w3.org/1999/xlink">
 <defs>
  <style type="text/css">
   <![CDATA[
    .fil1 {fill:none}
    .fil0 {fill:#E5ECFE}
   ]]>
  </style>
   <clipPath id="id0">
    <path d="M0 0l32.72 0 0 19.63 -32.72 0 0 -19.63z"/>
   </clipPath>
    <clipPath id="id1">
     <path d="M0 0.09l0.41 0 0.02 -0.09 32.29 0 0 17.66c-0.74,0.5 -0.98,1.29 -1.4,1.97l-31.32 0 0 -19.54z"/>
    </clipPath>
    <clipPath id="id2">
     <path d="M0 0l32.72 0 0 19.63 -32.72 0 0 -19.63z"/>
    </clipPath>
 </defs>
 <g id="Layer_x0020_1">
  <metadata id="CorelCorpID_0Corel-Layer"/>
  <polygon class="fil0" points="0,0 32.72,0 32.72,19.63 0,19.63 "/>
  <g style="clip-path:url(#id0)">
   <g id="_2013835173472">
   </g>
   <g style="clip-path:url(#id1)">
    <image x="-4.79" y="-11.72" width="42.17" height="39.2" xlink:href="data-backup_Images\data-backup_ImgID1.jpg"/>
   </g>
   <g style="clip-path:url(#id2)">
   </g>
  </g>
  <polygon class="fil1" points="0,0 32.72,0 32.72,19.63 0,19.63 "/>
 </g>
</svg>
