<?xml version="1.0" encoding="UTF-8"?>
<!DOCTYPE svg PUBLIC "-//W3C//DTD SVG 1.1//EN" "http://www.w3.org/Graphics/SVG/1.1/DTD/svg11.dtd">
<!-- Creator: CorelDRAW 2019 (64-Bit) -->
<svg xmlns="http://www.w3.org/2000/svg" xml:space="preserve" width="404px" height="256px" version="1.1" style="shape-rendering:geometricPrecision; text-rendering:geometricPrecision; image-rendering:optimizeQuality; fill-rule:evenodd; clip-rule:evenodd"
viewBox="0 0 101.88 64.56"
 xmlns:xlink="http://www.w3.org/1999/xlink">
 <defs>
  <style type="text/css">
   <![CDATA[
    .fil0 {fill:none}
    .fil1 {fill:#FE9923}
    .fil2 {fill:#FEDB41}
    .fil3 {fill:#FFCC33}
   ]]>
  </style>
 </defs>
 <g id="Layer_x0020_1">
  <metadata id="CorelCorpID_0Corel-Layer"/>
  <rect class="fil0" width="101.88" height="64.56"/>
  <g id="mail.svg">
   <path class="fil1" d="M35.53 41.71l0 17.87c0,1.63 2.09,2.32 3.06,1.02l8.73 -11.64 2.66 -1.36 28.82 -40.74 0.54 -3.17 -4.69 2.58 -39.13 33.97 0.01 1.47z"/>
   <path class="fil2" d="M77.59 3.41c-0.08,0.04 -54.64,27.43 -54.71,27.47 -1.19,0.59 -1.27,2.26 -0.13,2.96l12.78 7.87 43.8 -38.02 0 0c-0.44,-0.38 -1.08,-0.55 -1.74,-0.28z"/>
   <path class="fil3" d="M79.39 3.77c-0.02,-0.02 -0.03,-0.06 -0.05,-0.08l-0.34 0.47 -31.68 44.8 19.61 12.07c1.02,0.63 2.34,0.03 2.56,-1.14l10.42 -54.6c0.12,-0.57 -0.12,-1.13 -0.52,-1.52z"/>
   <g>
   </g>
   <g>
   </g>
   <g>
   </g>
   <g>
   </g>
   <g>
   </g>
   <g>
   </g>
   <g>
   </g>
   <g>
   </g>
   <g>
   </g>
   <g>
   </g>
   <g>
   </g>
   <g>
   </g>
   <g>
   </g>
   <g>
   </g>
   <g>
   </g>
  </g>
 </g>
</svg>
