<?xml version="1.0" encoding="UTF-8"?>
<!DOCTYPE svg PUBLIC "-//W3C//DTD SVG 1.1//EN" "http://www.w3.org/Graphics/SVG/1.1/DTD/svg11.dtd">
<!-- Creator: CorelDRAW 2019 (64-Bit) -->
<svg xmlns="http://www.w3.org/2000/svg" xml:space="preserve" width="404px" height="256px" version="1.1" style="shape-rendering:geometricPrecision; text-rendering:geometricPrecision; image-rendering:optimizeQuality; fill-rule:evenodd; clip-rule:evenodd"
viewBox="0 0 1665.45 1055.34"
 xmlns:xlink="http://www.w3.org/1999/xlink">
 <defs>
  <style type="text/css">
   <![CDATA[
    .fil0 {fill:none}
    .fil4 {fill:#193651}
    .fil3 {fill:#F16051}
    .fil1 {fill:#FDBF5E}
    .fil2 {fill:white}
   ]]>
  </style>
 </defs>
 <g id="Layer_x0020_1">
  <metadata id="CorelCorpID_0Corel-Layer"/>
  <rect class="fil0" x="-0.01" width="1665.45" height="1055.34"/>
  <g id="enginner_x0020_door_x0020_step.svg">
   <path class="fil1" d="M976.77 457.59c4.13,-30.23 4.13,-60.46 -1.37,-90.69l57.71 -37.1 -35.72 -81.08 -65.96 17.86c-17.87,-24.73 -39.85,-46.72 -65.96,-63.21l15.12 -67.33 -82.45 -32.98 -34.36 59.09c-30.23,-4.12 -60.46,-4.12 -90.69,1.38l-37.1 -57.72 -82.45 37.1 17.86 65.96c-24.73,17.86 -46.72,39.85 -63.21,65.96l-67.33 -15.12 -32.98 82.45 59.09 34.35c-4.13,30.24 -4.13,60.47 1.37,90.7l-57.71 37.1 37.1 81.07 65.95 -16.48c17.87,24.73 39.86,46.72 65.96,63.21l-15.11 67.33 82.45 32.98 34.35 -59.09c30.23,4.13 60.47,4.13 90.7,-1.37l37.1 57.71 81.07 -35.73 -16.49 -68.7c24.74,-17.87 46.72,-39.85 63.22,-65.96l67.33 15.12 32.98 -82.46 -60.47 -34.35z"/>
   <g>
    <circle class="fil2" cx="721.18" cy="416.37" r="159.4"/>
    <path class="fil2" d="M825.62 757.16l236.35 -236.36c52.22,16.49 111.31,2.75 153.91,-38.47 41.22,-41.23 53.59,-100.32 38.47,-153.91l-119.55 119.55 -101.69 -101.68 119.56 -119.56c-52.22,-16.49 -111.31,-2.74 -153.91,38.48 -41.22,41.23 -53.59,100.32 -38.48,153.9l-237.72 236.36c-52.22,-16.49 -111.31,-2.75 -153.91,38.47 -41.22,41.23 -53.59,100.32 -38.47,153.91l119.55 -119.55 101.68 101.69 -119.55 119.55c52.22,16.49 111.31,2.74 153.91,-38.48 42.6,-42.6 54.96,-101.69 39.85,-153.9z"/>
    <polygon class="fil2" points="976.77,714.56 1019.37,670.59 802.26,453.47 806.38,414.99 686.83,339.41 644.23,382.01 719.81,502.94 759.66,497.44 "/>
   </g>
   <path class="fil3" d="M1072.97 678.83l0 -21.99c0,-15.11 -17.87,-21.98 -28.86,-12.37l-93.44 93.45c-11,10.99 -2.75,28.85 12.36,28.85l20.61 0c13.75,0 27.49,4.13 38.48,12.37 1.38,1.37 2.75,2.75 4.12,4.13 13.74,13.74 19.24,31.6 17.87,48.09l2.75 2.75 92.07 92.07c24.73,24.73 65.95,24.73 92.06,0 26.11,-26.11 26.11,-65.96 0,-92.07l-92.06 -92.07 -2.75 -2.75c-16.5,1.38 -34.36,-4.12 -48.1,-17.86 -1.37,-1.37 -2.75,-2.75 -4.12,-4.12 -8.25,-11 -10.99,-24.74 -10.99,-38.48z"/>
   <g>
    <path class="fil4" d="M1143.05 725.55l-6.87 0c-13.75,1.38 -27.49,-4.12 -37.11,-13.74 -1.37,-1.37 -2.74,-2.75 -2.74,-4.12 -6.87,-8.25 -9.62,-17.87 -9.62,-30.23l0 -21.99c0,-8.24 -2.75,-16.49 -8.25,-21.99 -10.99,-10.99 -31.6,-12.37 -42.6,0l-16.49 17.86 -34.35 -34.35 81.08 -81.07c13.74,2.75 27.48,5.49 41.22,5.49 45.35,0 86.57,-17.86 118.18,-49.47 43.97,-43.97 59.09,-107.18 41.22,-167.64l-6.87 -21.99 -126.42 126.42 -82.45 -82.45 126.42 -126.42 -21.99 -6.87c-15.11,-4.12 -31.6,-6.87 -48.09,-6.87 -35.73,0 -70.08,10.99 -98.94,32.98l-2.75 -6.87 -68.7 17.87c-16.5,-20.62 -34.36,-38.48 -54.97,-53.6l15.11 -68.7 -104.43 -41.23 -35.73 60.46c-26.11,-2.74 -52.22,-2.74 -76.95,1.38l-39.85 -59.09 -103.06 45.35 17.86 68.7c-20.61,16.49 -38.48,34.36 -53.59,54.97l-68.71 -15.11 -41.22 104.43 60.46 35.72c-2.75,26.12 -2.75,52.22 1.38,76.96l-59.09 38.47 45.35 103.07 68.7 -17.87c16.49,20.62 34.35,38.48 54.97,53.59l-12.37 56.34c-37.1,42.6 -49.47,101.69 -32.98,156.66l6.87 21.98 126.42 -126.42 82.45 82.45 -126.42 126.42 21.98 6.87c15.12,4.13 31.61,6.87 48.1,6.87 45.35,0 86.57,-17.86 118.18,-49.46 41.22,-41.23 57.71,-101.69 43.97,-159.41l82.45 -82.45 34.35 34.36 -15.11 15.12c-8.25,8.24 -10.99,21.98 -6.87,32.97 4.12,11 15.11,19.24 28.85,19.24l21.99 0c10.99,0 21.99,2.75 30.23,9.62 1.38,1.38 2.75,1.38 4.12,2.75 11,9.62 15.12,23.36 13.74,37.1l0 6.87 98.95 98.94c15.11,15.12 34.35,23.36 54.96,23.36 20.61,0 41.22,-8.24 56.34,-23.36 30.23,-30.23 31.61,-81.08 0,-111.31l-100.31 -97.56zm-19.24 -490.57l-111.31 111.31 122.3 122.3 111.31 -111.31c5.49,42.6 -9.62,85.19 -39.85,115.43 -26.11,26.1 -61.84,41.22 -98.94,41.22 -13.74,0 -27.48,-1.37 -41.22,-5.49l-8.25 -2.75 -92.07 92.07 -82.45 -82.45 92.07 -92.07 -2.75 -8.25c-15.11,-49.46 -1.37,-103.06 34.36,-140.16 26.1,-26.11 61.83,-41.23 98.93,-41.23 6.87,0 12.37,0 17.87,1.38zm-599.13 325.68l-5.5 -8.25 -63.21 16.49 -26.11 -60.46 54.97 -35.73 -1.37 -9.62c-5.5,-28.86 -6.88,-57.72 -1.38,-86.58l1.38 -9.61 -56.35 -32.98 23.36 -60.46 64.59 13.74 5.5 -8.25c16.49,-24.73 35.72,-45.35 59.08,-61.84l8.25 -5.49 -16.49 -63.21 60.46 -26.11 35.73 54.97 9.62 -1.38c27.48,-5.49 57.72,-6.87 86.57,-1.38l9.62 1.38 32.98 -56.34 60.46 23.36 -13.74 64.59 8.24 5.49c24.74,16.5 45.35,35.73 61.84,59.09l5.5 8.25 52.22 -13.74c-34.36,41.22 -46.72,94.81 -32.98,147.03l-81.08 81.07 -46.72 -46.72 4.12 -41.22 -137.41 -85.2 -60.46 59.09 86.57 136.04 42.6 -5.49 46.72 45.34 -81.08 81.07c-13.74,-2.74 -27.48,-5.49 -41.22,-5.49 -32.98,0 -64.59,9.62 -92.07,27.48l8.25 -37.1 -8.25 -5.5c-26.11,-12.36 -46.72,-32.98 -63.21,-56.33zm284.45 192.37l2.75 8.25c15.11,49.47 1.37,103.06 -34.36,140.16 -26.11,26.11 -61.84,41.23 -98.94,41.23 -5.49,0 -10.99,0 -16.48,-1.38l111.3 -111.3 -122.3 -122.3 -111.3 111.3c-5.5,-42.59 9.61,-85.19 39.84,-115.43 26.11,-26.1 61.84,-41.22 98.94,-41.22 13.75,0 27.49,1.37 41.23,5.5l8.24 2.75 93.45 -93.45 82.44 82.45 -94.81 93.44zm-43.97 -270.7l-38.48 5.49 -64.58 -103.06 27.48 -27.48 103.06 64.58 -4.13 37.11 211.63 211.61 -23.37 23.36 -211.61 -211.61zm456.21 432.86c-19.23,19.23 -53.59,19.23 -72.83,0l-89.31 -89.33c0,-19.23 -8.25,-38.47 -21.99,-52.22 -1.38,-1.37 -4.13,-4.11 -5.5,-5.49 -12.37,-9.62 -28.86,-15.12 -48.1,-15.12l-20.61 0c-1.37,0 -2.75,0 -2.75,-1.37 0,-1.37 0,-2.75 0,-2.75l15.12 -15.11 0 0 63.21 -63.21 0 0 15.12 -15.12c1.37,-1.37 2.74,-1.37 4.12,0l1.38 1.37 0 21.99c0,17.86 5.49,34.35 16.48,48.1 1.38,1.37 2.75,4.12 5.5,5.49 13.74,13.74 32.98,21.99 52.22,21.99l0 0 89.32 89.32c19.24,19.24 19.24,52.21 -1.38,71.46z"/>
    <rect class="fil4" transform="matrix(-0.0605606 -0.0605606 0.0605606 -0.0605606 800.926 698.305)" width="320.89" height="320.89"/>
    <rect class="fil4" transform="matrix(0.0605606 -0.0605606 0.0605606 0.0605606 965.557 495.569)" width="320.89" height="320.89"/>
   </g>
   <g>
   </g>
   <g>
   </g>
   <g>
   </g>
   <g>
   </g>
   <g>
   </g>
   <g>
   </g>
   <g>
   </g>
   <g>
   </g>
   <g>
   </g>
   <g>
   </g>
   <g>
   </g>
   <g>
   </g>
   <g>
   </g>
   <g>
   </g>
   <g>
   </g>
  </g>
 </g>
</svg>
