<?xml version="1.0" encoding="UTF-8"?>
<!DOCTYPE svg PUBLIC "-//W3C//DTD SVG 1.1//EN" "http://www.w3.org/Graphics/SVG/1.1/DTD/svg11.dtd">
<!-- Creator: CorelDRAW 2019 (64-Bit) -->
<svg xmlns="http://www.w3.org/2000/svg" xml:space="preserve" width="400px" height="250px" version="1.1" style="shape-rendering:geometricPrecision; text-rendering:geometricPrecision; image-rendering:optimizeQuality; fill-rule:evenodd; clip-rule:evenodd"
viewBox="0 0 23.52 14.7"
 xmlns:xlink="http://www.w3.org/1999/xlink">
 <defs>
  <style type="text/css">
   <![CDATA[
    .fil0 {fill:none}
    .fil17 {fill:#2A2F4F}
    .fil2 {fill:#2BA1CF}
    .fil10 {fill:#3D4159}
    .fil3 {fill:#66BAED}
    .fil7 {fill:#A35418}
    .fil16 {fill:#BF8E75}
    .fil12 {fill:#BFD5DE}
    .fil6 {fill:#CC7A3B}
    .fil14 {fill:#D3A489}
    .fil5 {fill:#D8D5D0}
    .fil13 {fill:#DDE8ED}
    .fil8 {fill:#EAB599}
    .fil4 {fill:#F2F0EC}
    .fil9 {fill:#F6CAAE}
    .fil15 {fill:#F74F4F}
    .fil1 {fill:#FFE152}
    .fil11 {fill:white}
   ]]>
  </style>
 </defs>
 <g id="Layer_x0020_1">
  <metadata id="CorelCorpID_0Corel-Layer"/>
  <rect class="fil0" width="23.52" height="14.7"/>
  <g id="expirenced-team.svg">
   <path class="fil1" d="M18.45 7.35c0,0.99 -0.22,1.93 -0.6,2.77 -0.66,1.45 -1.82,2.62 -3.26,3.29 -0.26,0.12 -0.53,0.23 -0.8,0.32 -0.31,0.1 -0.64,0.17 -0.97,0.23 0,0 0,0 0,0 -0.16,0.02 -0.33,0.04 -0.49,0.06 -0.04,0 -0.07,0 -0.11,0 -0.05,0.01 -0.1,0.01 -0.15,0.01 -0.1,0.01 -0.21,0.01 -0.31,0.01 -0.11,0 -0.21,0 -0.32,-0.01 -0.05,0 -0.1,0 -0.14,-0.01 -0.04,0 -0.08,0 -0.11,0 -0.17,-0.02 -0.34,-0.04 -0.5,-0.07 -0.08,-0.01 -0.16,-0.02 -0.24,-0.04 -0.34,-0.07 -0.67,-0.16 -0.99,-0.27 -0.18,-0.07 -0.36,-0.15 -0.54,-0.23 -0.06,-0.03 -0.12,-0.06 -0.18,-0.09 -0.15,-0.07 -0.3,-0.16 -0.44,-0.24 -0.73,-0.45 -1.37,-1.02 -1.88,-1.7 -0.31,-0.4 -0.57,-0.84 -0.78,-1.32 -0.37,-0.83 -0.57,-1.74 -0.57,-2.71 0,-3.7 2.99,-6.69 6.69,-6.69 3.69,0 6.69,2.99 6.69,6.69l0 0zm0 0z"/>
   <path class="fil2" d="M10.45 9.34l0 4.57c-0.34,-0.07 -0.67,-0.16 -0.99,-0.27 -0.18,-0.07 -0.36,-0.15 -0.54,-0.23 -0.06,-0.03 -0.12,-0.06 -0.18,-0.09 -0.15,-0.07 -0.3,-0.16 -0.44,-0.24 -0.73,-0.45 -1.37,-1.02 -1.88,-1.7 -0.31,-0.4 -0.57,-0.84 -0.78,-1.32l0 -0.72c0,-0.84 0.57,-1.54 1.34,-1.75 0.03,-0.01 0.06,-0.02 0.09,-0.02 0.08,-0.02 0.16,-0.03 0.24,-0.04 0.05,0 0.09,0 0.14,0l1.19 0c0.13,0 0.26,0.01 0.38,0.04 0.01,0 0.01,0 0.02,0 0.02,0.01 0.04,0.01 0.06,0.02 0,0 0.01,0 0.01,0 0.2,0.05 0.39,0.14 0.56,0.26 0.47,0.33 0.78,0.87 0.78,1.49l0 0zm0 0z"/>
   <path class="fil3" d="M10.45 9.34l0 4.57c-0.34,-0.07 -0.67,-0.16 -0.99,-0.27 -0.18,-0.07 -0.36,-0.15 -0.54,-0.23 -0.06,-0.03 -0.12,-0.06 -0.18,-0.09 -0.15,-0.07 -0.3,-0.16 -0.44,-0.24 -0.73,-0.45 -1.37,-1.02 -1.88,-1.7l0 -2.04c0,-0.84 0.57,-1.54 1.34,-1.75 0.03,-0.01 0.06,-0.02 0.09,-0.02 0.08,-0.02 0.15,-0.03 0.23,-0.04 0.05,0 0.1,0 0.15,0l0.41 0c0.13,0 0.26,0.01 0.38,0.04 0.01,0 0.01,0 0.02,0 0.02,0.01 0.04,0.01 0.06,0.02 0,0 0.01,0 0.01,0 0.2,0.05 0.39,0.14 0.56,0.26 0.47,0.33 0.78,0.87 0.78,1.49l0 0zm0 0z"/>
   <path class="fil4" d="M9.11 7.57l0 0.02 -0.55 2.52c-0.05,0.24 -0.26,0.42 -0.51,0.42 0,0 0,0 0,0 -0.01,0 -0.01,0 -0.01,0 -0.25,0 -0.46,-0.18 -0.51,-0.42l-0.55 -2.52 0 -0.02 2.13 0zm0 0z"/>
   <g>
    <path class="fil5" d="M8.05 8.27l-0.82 0.45 -0.25 -1.15 0.51 -0.3 0.56 1zm0 0l0 0 0 0z"/>
   </g>
   <g>
    <path class="fil5" d="M8.05 8.27l0.81 0.45 0.25 -1.15 -0.51 -0.3 -0.55 1zm0 0l0 0 0 0z"/>
   </g>
   <g>
    <path class="fil6" d="M5.61 7.09l0 -2.73c0,-0.28 0.04,-0.55 0.14,-0.81 0.34,-0.98 1.26,-1.63 2.3,-1.63 0.12,0 0.25,0.01 0.38,0.03 0.56,0.09 1.08,0.38 1.46,0.81 0.38,0.44 0.59,1.01 0.59,1.6l0 2.73 -4.87 0zm0 0l0 0 0 0z"/>
   </g>
   <path class="fil7" d="M6.61 4.46c0,0.97 0.57,2.09 0.88,2.63l-1.88 0 0 -2.73c0,-0.28 0.04,-0.55 0.14,-0.81 0.34,-0.97 1.25,-1.63 2.28,-1.63 -0.75,0.02 -1.42,1.22 -1.42,2.54l0 0zm0 0z"/>
   <path class="fil8" d="M8.69 6.83l0 0.79c0,0.29 -0.19,0.54 -0.45,0.62 -0.06,0.02 -0.13,0.03 -0.19,0.03 -0.36,0 -0.65,-0.29 -0.65,-0.65l0 -0.79 1.29 0zm0 0z"/>
   <path class="fil9" d="M8.69 7.57l0 0.05c0,0.29 -0.19,0.54 -0.45,0.62 -0.24,-0.07 -0.42,-0.28 -0.45,-0.53 0.04,0 0.08,0 0.13,0 0.12,0 0.24,-0.01 0.36,-0.03 0.14,-0.02 0.28,-0.06 0.41,-0.11zm0 0z"/>
   <path class="fil9" d="M6.27 5.53c0,0.3 -0.22,0.55 -0.5,0.59 -0.04,0.01 -0.07,0.01 -0.1,0.01 -0.33,0 -0.6,-0.27 -0.6,-0.6 0,-0.33 0.27,-0.6 0.6,-0.6 0.03,0 0.06,0 0.1,0 0.28,0.05 0.5,0.3 0.5,0.6l0 0zm0 0z"/>
   <path class="fil8" d="M6.27 5.53c0,0.3 -0.22,0.55 -0.5,0.59 -0.06,-0.19 -0.08,-0.39 -0.08,-0.59 0,-0.21 0.02,-0.41 0.08,-0.6 0.28,0.05 0.5,0.3 0.5,0.6zm0 0z"/>
   <path class="fil8" d="M5.88 5.53c0,0.12 -0.09,0.21 -0.21,0.21 -0.12,0 -0.22,-0.09 -0.22,-0.21 0,-0.12 0.1,-0.22 0.22,-0.22 0.12,0 0.21,0.1 0.21,0.22zm0 0z"/>
   <path class="fil8" d="M9.59 4.76l0 2.07c-0.32,0.3 -0.73,0.51 -1.19,0.59 0,0 0,0 -0.01,0 -0.11,0.02 -0.23,0.03 -0.34,0.03 -1.24,0 -2.24,-1.01 -2.24,-2.24l0 -0.85c0,-0.11 0,-0.22 0.02,-0.33 0.53,0.39 1.3,0.35 1.78,-0.11 0.16,-0.15 0.28,-0.33 0.34,-0.53 0.03,0.34 0.19,0.67 0.46,0.93 0.33,0.3 0.76,0.45 1.18,0.44l0 0zm0 0z"/>
   <path class="fil9" d="M9.59 4.76l0 2.07c-0.32,0.3 -0.73,0.51 -1.19,0.59 0,0 0,0 -0.01,0 -1.07,-0.17 -1.89,-1.09 -1.89,-2.21l0 -0.85c0,-0.03 0,-0.05 0.01,-0.07 0.39,0.04 0.8,-0.08 1.1,-0.37 0.16,-0.15 0.28,-0.33 0.34,-0.53 0.03,0.34 0.19,0.67 0.46,0.93 0.33,0.3 0.76,0.45 1.18,0.44l0 0zm0 0z"/>
   <g>
    <path class="fil8" d="M9.25 5.02c0,-0.21 -0.17,-0.37 -0.37,-0.37 -0.21,0 -0.38,0.16 -0.38,0.37l0.75 0zm0 0l0 0 0 0z"/>
   </g>
   <g>
    <path class="fil8" d="M7.59 5.02c0,-0.21 -0.17,-0.37 -0.37,-0.37 -0.21,0 -0.38,0.16 -0.38,0.37l0.75 0zm0 0l0 0 0 0z"/>
   </g>
   <path class="fil10" d="M7.47 5.18c0,0.14 -0.11,0.25 -0.25,0.25 -0.15,0 -0.26,-0.11 -0.26,-0.25 0,-0.14 0.11,-0.26 0.26,-0.26 0.14,0 0.25,0.12 0.25,0.26zm0 0z"/>
   <path class="fil10" d="M9.13 5.18c0,0.14 -0.11,0.25 -0.25,0.25 -0.14,0 -0.26,-0.11 -0.26,-0.25 0,-0.14 0.12,-0.26 0.26,-0.26 0.14,0 0.25,0.12 0.25,0.26zm0 0z"/>
   <path class="fil8" d="M8.3 5.82l-0.51 0c-0.06,0 -0.11,-0.05 -0.11,-0.11 0,-0.06 0.05,-0.11 0.11,-0.11l0.51 0c0.06,0 0.11,0.05 0.11,0.11 0,0.06 -0.05,0.11 -0.11,0.11zm0 0z"/>
   <path class="fil8" d="M8.05 6.51c-0.19,0 -0.38,-0.05 -0.55,-0.14 -0.05,-0.03 -0.07,-0.09 -0.04,-0.14 0.03,-0.04 0.09,-0.06 0.14,-0.04 0.28,0.16 0.61,0.16 0.9,0 0.04,-0.02 0.1,0 0.13,0.04 0.03,0.05 0.01,0.11 -0.04,0.14 -0.17,0.09 -0.36,0.14 -0.54,0.14l0 0zm0 0z"/>
   <path class="fil11" d="M7.42 5.13c0,0.06 -0.05,0.11 -0.11,0.11 -0.06,0 -0.11,-0.05 -0.11,-0.11 0,-0.06 0.05,-0.11 0.11,-0.11 0.06,0 0.11,0.05 0.11,0.11zm0 0z"/>
   <path class="fil11" d="M9.09 5.13c0,0.06 -0.05,0.11 -0.11,0.11 -0.06,0 -0.11,-0.05 -0.11,-0.11 0,-0.06 0.05,-0.11 0.11,-0.11 0.06,0 0.11,0.05 0.11,0.11zm0 0z"/>
   <path class="fil8" d="M9.57 5.8c0,0.15 -0.13,0.27 -0.28,0.27 -0.15,0 -0.28,-0.12 -0.28,-0.27 0,-0.16 0.13,-0.28 0.28,-0.28 0.15,0 0.28,0.12 0.28,0.28zm0 0z"/>
   <path class="fil8" d="M7.08 5.8c0,0.15 -0.13,0.27 -0.28,0.27 -0.15,0 -0.28,-0.12 -0.28,-0.27 0,-0.16 0.13,-0.28 0.28,-0.28 0.15,0 0.28,0.12 0.28,0.28zm0 0z"/>
   <path class="fil12" d="M17.85 9.29l0 0.83c-0.66,1.45 -1.82,2.62 -3.26,3.29 -0.26,0.12 -0.53,0.23 -0.8,0.32 -0.31,0.1 -0.64,0.17 -0.97,0.23 0,0 0,0 0,0l0 -4.67c0,-1 0.76,-1.82 1.74,-1.89 0.05,-0.01 0.1,-0.01 0.16,-0.01l1.23 0c0.15,0 0.29,0.01 0.43,0.05 0.84,0.19 1.47,0.94 1.47,1.85zm0 0z"/>
   <path class="fil13" d="M17.85 9.29l0 0.83c-0.66,1.45 -1.82,2.62 -3.26,3.29 -0.26,0.12 -0.53,0.23 -0.8,0.32l0 -4.44c0,-1.05 0.85,-1.9 1.89,-1.9l0.27 0c1.05,0 1.9,0.85 1.9,1.9l0 0zm0 0z"/>
   <path class="fil14" d="M13.48 5.3c0,0.31 -0.23,0.57 -0.53,0.62 -0.03,0 -0.07,0.01 -0.1,0.01 -0.35,0 -0.63,-0.29 -0.63,-0.63 0,-0.35 0.28,-0.63 0.63,-0.63 0.03,0 0.07,0 0.1,0 0.3,0.05 0.53,0.31 0.53,0.63zm0 0z"/>
   <g>
    <path class="fil15" d="M15.84 8.07l-0.51 0.82 -0.51 -0.82 1.02 0zm0 0l0 0 0 0z"/>
   </g>
   <path class="fil15" d="M16.02 11.2l-0.69 0.86 -0.68 -0.86 0.68 -2.52 0.69 2.52zm0 0z"/>
   <path class="fil16" d="M13.48 5.3c0,0.31 -0.23,0.57 -0.53,0.62 -0.06,-0.2 -0.09,-0.41 -0.09,-0.62 0,-0.22 0.03,-0.43 0.09,-0.63 0.3,0.05 0.53,0.31 0.53,0.63zm0 0z"/>
   <path class="fil16" d="M13.07 5.3c0,0.12 -0.1,0.22 -0.22,0.22 -0.13,0 -0.23,-0.1 -0.23,-0.22 0,-0.13 0.1,-0.23 0.23,-0.23 0.12,0 0.22,0.1 0.22,0.23zm0 0z"/>
   <g>
    <path class="fil12" d="M15.33 8.17l-0.85 0.47 -0.26 -1.21 0.53 -0.31 0.58 1.05zm0 0l0 0 0 0z"/>
   </g>
   <g>
    <path class="fil12" d="M15.33 8.17l0.86 0.47 0.26 -1.21 -0.53 -0.31 -0.59 1.05zm0 0l0 0 0 0z"/>
   </g>
   <path class="fil14" d="M17.19 5.3c0,0.31 0.23,0.57 0.53,0.62 0.03,0 0.07,0.01 0.1,0.01 0.35,0 0.63,-0.29 0.63,-0.63 0,-0.35 -0.28,-0.63 -0.63,-0.63 -0.03,0 -0.07,0 -0.1,0 -0.3,0.05 -0.53,0.31 -0.53,0.63zm0 0z"/>
   <g>
    <path class="fil16" d="M17.19 5.3c0,0.31 0.23,0.57 0.53,0.62 0.05,-0.2 0.08,-0.41 0.08,-0.62 0,-0.22 -0.03,-0.43 -0.08,-0.63 -0.3,0.05 -0.53,0.31 -0.53,0.63zm0 0z"/>
    <path class="fil16" d="M18.05 5.3c0,0.12 -0.11,0.22 -0.23,0.22 -0.12,0 -0.22,-0.1 -0.22,-0.22 0,-0.13 0.1,-0.23 0.22,-0.23 0.12,0 0.23,0.1 0.23,0.23zm0 0z"/>
    <path class="fil16" d="M17.68 4.96c0,1.17 -0.86,2.13 -1.97,2.31 -0.12,0.02 -0.25,0.03 -0.38,0.03 -1.29,0 -2.34,-1.04 -2.34,-2.34 0,-0.61 0.21,-1.53 0.6,-1.95 0.43,-0.46 1.06,-0.39 1.74,-0.39 0.13,0 0.26,0.01 0.38,0.03 1.11,0.18 1.97,1.15 1.97,2.31l0 0zm0 0z"/>
    <path class="fil16" d="M16.01 6.66l0 0.83c0,0.3 -0.2,0.56 -0.48,0.65 -0.06,0.01 -0.13,0.03 -0.2,0.03 -0.37,0 -0.67,-0.31 -0.67,-0.68l0 -0.83 1.35 0zm0 0z"/>
   </g>
   <path class="fil14" d="M16.01 7.44l0 0.05c0,0.3 -0.2,0.56 -0.48,0.65 -0.25,-0.08 -0.43,-0.3 -0.47,-0.56 0.05,0 0.09,0 0.14,0 0.13,0 0.25,-0.01 0.37,-0.03 0.16,-0.02 0.3,-0.06 0.44,-0.11l0 0zm0 0z"/>
   <path class="fil14" d="M17.68 4.96c0,1.17 -0.86,2.13 -1.97,2.31 -1.12,-0.18 -1.97,-1.14 -1.97,-2.31 0,-0.72 0.33,-1.36 0.83,-1.79 0.32,-0.27 0.71,-0.45 1.14,-0.52 1.04,0.17 1.85,1.02 1.95,2.08 0.01,0.07 0.02,0.15 0.02,0.23l0 0zm0 0z"/>
   <path class="fil16" d="M15.33 6.12c-0.19,0 -0.39,-0.05 -0.57,-0.15 -0.05,-0.03 -0.07,-0.09 -0.04,-0.14 0.03,-0.05 0.09,-0.07 0.14,-0.04 0.3,0.16 0.65,0.16 0.94,0 0.05,-0.03 0.12,-0.01 0.15,0.04 0.02,0.05 0.01,0.11 -0.05,0.14 -0.17,0.1 -0.37,0.15 -0.57,0.15zm0 0z"/>
   <path class="fil10" d="M14.83 4.83c0,0.14 -0.11,0.26 -0.26,0.26 -0.15,0 -0.27,-0.12 -0.27,-0.26 0,-0.15 0.12,-0.27 0.27,-0.27 0.15,0 0.26,0.12 0.26,0.27zm0 0z"/>
   <path class="fil10" d="M16.36 4.83c0,0.14 -0.12,0.26 -0.26,0.26 -0.15,0 -0.27,-0.12 -0.27,-0.26 0,-0.15 0.12,-0.27 0.27,-0.27 0.14,0 0.26,0.12 0.26,0.27zm0 0z"/>
   <path class="fil11" d="M14.78 4.78c0,0.06 -0.05,0.11 -0.11,0.11 -0.07,0 -0.12,-0.05 -0.12,-0.11 0,-0.06 0.05,-0.12 0.12,-0.12 0.06,0 0.11,0.06 0.11,0.12zm0 0z"/>
   <path class="fil11" d="M16.32 4.78c0,0.06 -0.05,0.11 -0.11,0.11 -0.06,0 -0.12,-0.05 -0.12,-0.11 0,-0.06 0.06,-0.12 0.12,-0.12 0.06,0 0.11,0.06 0.11,0.12zm0 0z"/>
   <path class="fil16" d="M15.6 5.49l-0.53 0c-0.07,0 -0.12,-0.05 -0.12,-0.11 0,-0.06 0.05,-0.11 0.12,-0.11l0.53 0c0.06,0 0.11,0.05 0.11,0.11 0,0.06 -0.05,0.11 -0.11,0.11zm0 0z"/>
   <path class="fil12" d="M16.1 9.22l1.03 0 0 0.32 -1.03 0 0 -0.32zm0 0z"/>
   <path class="fil17" d="M15.2 1.95c0.71,0.05 1.28,0.62 1.31,1.35l0.01 0.13 0.41 0 0.22 1.46 0.53 -0.16 -0.07 -1.43c-0.04,-0.76 -0.67,-1.36 -1.43,-1.35l-0.98 0zm0 0z"/>
   <path class="fil10" d="M17.56 1.38c0.57,0.57 0.57,1.49 0,2.05 -0.56,0.57 -1.48,0.57 -2.04,0l2.04 -2.05zm0 0z"/>
   <g>
    <path class="fil10" d="M15.52 3.43l-1.78 0 -0.22 1.46 -0.53 -0.16 0.07 -1.43c0.04,-0.76 0.66,-1.36 1.42,-1.35l2.57 0.01 0.34 0.61 -1.87 0.86zm0 0l0 0 0 0z"/>
   </g>
   <path class="fil17" d="M15.47 1.95c-0.71,0.05 -1.28,0.62 -1.31,1.35l-0.01 0.13 -0.41 0 -0.22 1.46 -0.53 -0.16 0.07 -1.43c0.04,-0.76 0.66,-1.36 1.42,-1.35l0.99 0zm0 0z"/>
   <path class="fil10" d="M14.59 12.91l0 0.5c-0.86,0.4 -1.82,0.63 -2.83,0.63 -1.02,0 -1.98,-0.23 -2.84,-0.63l0 -0.5c0,-0.99 0.67,-1.82 1.59,-2.07 0.03,-0.01 0.06,-0.01 0.1,-0.02 0.09,-0.02 0.18,-0.04 0.28,-0.04 0.05,-0.01 0.11,-0.01 0.17,-0.01l1.39 0c0.16,0 0.31,0.02 0.46,0.05 0.01,0 0.02,0 0.02,0 0.03,0.01 0.05,0.02 0.08,0.02 0,0 0,0 0,0 0.24,0.07 0.46,0.17 0.66,0.31 0.56,0.39 0.92,1.03 0.92,1.76l0 0zm0 0z"/>
   <path class="fil3" d="M13.01 10.82l0 0.02 -0.68 3.18c-0.04,0 -0.07,0 -0.11,0 -0.05,0.01 -0.1,0.01 -0.15,0.01 -0.1,0.01 -0.21,0.01 -0.31,0.01 -0.11,0 -0.21,0 -0.32,-0.01 -0.05,0 -0.1,0 -0.14,-0.01 -0.04,0 -0.08,0 -0.11,0l-0.68 -3.18 -0.01 -0.02 2.51 0zm0 0z"/>
   <g>
    <path class="fil10" d="M12.33 11.54l-0.57 0.92 -0.58 -0.92 1.15 0zm0 0l0 0 0 0z"/>
   </g>
   <path class="fil10" d="M12.22 14.02c-0.05,0.01 -0.1,0.01 -0.15,0.01 -0.1,0.01 -0.21,0.01 -0.31,0.01 -0.11,0 -0.21,0 -0.32,-0.01 -0.05,0 -0.1,0 -0.14,-0.01l0.46 -1.8 0.46 1.8zm0 0z"/>
   <g>
    <path class="fil2" d="M11.76 11.65l-0.97 0.53 -0.29 -1.36 0.6 -0.35 0.66 1.18zm0 0l0 0 0 0z"/>
   </g>
   <g>
    <path class="fil2" d="M11.76 11.65l0.96 0.53 0.29 -1.36 -0.59 -0.35 -0.66 1.18zm0 0l0 0 0 0z"/>
   </g>
   <path class="fil17" d="M13.05 12.66l0.31 0 -0.54 1.3c-0.24,0.04 -0.5,0.06 -0.75,0.07l0.94 -3.19 0 -0.02 0.66 0.21 -0.62 1.63zm0 0z"/>
   <path class="fil17" d="M11.44 14.03c-0.26,-0.01 -0.51,-0.04 -0.75,-0.08l-0.54 -1.29 0.31 0 -0.62 -1.63 0.65 -0.21 0.01 0.02 0.94 3.19zm0 0z"/>
   <path class="fil8" d="M12.52 9.95l0 0.93c0,0.35 -0.22,0.64 -0.54,0.73 -0.07,0.02 -0.14,0.04 -0.22,0.04 -0.42,0 -0.77,-0.35 -0.77,-0.77l0 -0.93 1.53 0zm0 0z"/>
   <path class="fil9" d="M12.52 10.82l0 0.06c0,0.35 -0.22,0.64 -0.54,0.73 -0.28,-0.08 -0.49,-0.33 -0.53,-0.63 0.05,0.01 0.1,0.01 0.16,0.01 0.14,0 0.28,-0.01 0.42,-0.04 0.17,-0.02 0.33,-0.07 0.49,-0.13l0 0zm0 0z"/>
   <path class="fil9" d="M9.66 8.41c0,0.35 -0.25,0.65 -0.59,0.7 -0.04,0.01 -0.08,0.01 -0.12,0.01 -0.39,0 -0.71,-0.32 -0.71,-0.71 0,-0.39 0.32,-0.71 0.71,-0.71 0.04,0 0.08,0 0.12,0.01 0.34,0.05 0.59,0.35 0.59,0.7zm0 0z"/>
   <path class="fil8" d="M9.66 8.41c0,0.35 -0.25,0.65 -0.59,0.7 -0.06,-0.22 -0.1,-0.46 -0.1,-0.7 0,-0.24 0.04,-0.48 0.1,-0.7 0.34,0.05 0.59,0.35 0.59,0.7zm0 0z"/>
   <path class="fil8" d="M9.21 8.41c0,0.14 -0.12,0.25 -0.26,0.25 -0.14,0 -0.25,-0.11 -0.25,-0.25 0,-0.14 0.11,-0.25 0.25,-0.25 0.14,0 0.26,0.11 0.26,0.25zm0 0z"/>
   <path class="fil9" d="M13.85 8.41c0,0.35 0.26,0.65 0.6,0.7 0.04,0.01 0.07,0.01 0.11,0.01 0.39,0 0.71,-0.32 0.71,-0.71 0,-0.39 -0.32,-0.71 -0.71,-0.71 -0.04,0 -0.07,0 -0.11,0.01 -0.34,0.05 -0.6,0.35 -0.6,0.7zm0 0z"/>
   <path class="fil8" d="M13.85 8.41c0,0.35 0.26,0.65 0.6,0.7 0.06,-0.22 0.09,-0.46 0.09,-0.7 0,-0.24 -0.03,-0.48 -0.09,-0.7 -0.34,0.05 -0.6,0.35 -0.6,0.7zm0 0z"/>
   <path class="fil8" d="M14.4 7.03l0 1c0,1.32 -0.96,2.41 -2.22,2.61 0,0 -0.01,0 -0.01,0 -0.13,0.02 -0.27,0.03 -0.41,0.03 -1.46,0 -2.64,-1.18 -2.64,-2.64l0 -1c0,-0.31 0.05,-0.6 0.15,-0.88 0.36,-1.03 1.34,-1.76 2.49,-1.76l0 0c0.14,0 0.28,0.01 0.41,0.03 1.26,0.2 2.23,1.29 2.23,2.61l0 0zm0 0z"/>
   <path class="fil8" d="M14.82 8.41c0,0.14 -0.12,0.25 -0.26,0.25 -0.14,0 -0.25,-0.11 -0.25,-0.25 0,-0.14 0.11,-0.25 0.25,-0.25 0.14,0 0.26,0.11 0.26,0.25zm0 0z"/>
   <path class="fil9" d="M14.4 7.03l0 1c0,1.32 -0.96,2.41 -2.22,2.61 0,0 -0.01,0 -0.01,0 -1.26,-0.2 -2.23,-1.29 -2.23,-2.61l0 -1c0,-1.32 0.97,-2.41 2.23,-2.61 1.26,0.2 2.23,1.29 2.23,2.61l0 0zm0 0z"/>
   <path class="fil10" d="M11.2 7.88c0,0.16 -0.14,0.3 -0.3,0.3 -0.17,0 -0.3,-0.14 -0.3,-0.3 0,-0.17 0.13,-0.3 0.3,-0.3 0.16,0 0.3,0.13 0.3,0.3zm0 0z"/>
   <path class="fil10" d="M12.92 7.88c0,0.16 -0.13,0.3 -0.3,0.3 -0.17,0 -0.3,-0.14 -0.3,-0.3 0,-0.17 0.13,-0.3 0.3,-0.3 0.17,0 0.3,0.13 0.3,0.3zm0 0z"/>
   <path class="fil11" d="M11.13 7.83c0,0.07 -0.05,0.12 -0.12,0.12 -0.07,0 -0.13,-0.05 -0.13,-0.12 0,-0.07 0.06,-0.13 0.13,-0.13 0.07,0 0.12,0.06 0.12,0.13zm0 0z"/>
   <path class="fil11" d="M12.87 7.83c0,0.07 -0.05,0.12 -0.12,0.12 -0.08,0 -0.13,-0.05 -0.13,-0.12 0,-0.07 0.05,-0.13 0.13,-0.13 0.07,0 0.12,0.06 0.12,0.13zm0 0z"/>
   <path class="fil8" d="M12.06 8.52l-0.6 0c-0.07,0 -0.13,-0.06 -0.13,-0.13 0,-0.07 0.06,-0.13 0.13,-0.13l0.6 0c0.07,0 0.13,0.06 0.13,0.13 0,0.07 -0.06,0.13 -0.13,0.13zm0 0z"/>
   <path class="fil8" d="M11.76 9.33c-0.22,0 -0.44,-0.05 -0.65,-0.16 -0.05,-0.03 -0.07,-0.11 -0.04,-0.16 0.03,-0.06 0.1,-0.08 0.16,-0.05 0.33,0.18 0.73,0.18 1.06,0 0.06,-0.03 0.13,-0.01 0.16,0.05 0.03,0.05 0.01,0.13 -0.05,0.16 -0.2,0.11 -0.42,0.16 -0.64,0.16l0 0zm0 0z"/>
   <path class="fil17" d="M14.4 6.11l0 1.03 -0.49 0 0 -0.8 -3.55 -0.66 -0.75 -0.14 0 1.6 -0.49 0 0 -1.03c0,-1.17 0.95,-2.12 2.12,-2.12l1.03 0c0.03,0 0.06,0 0.09,0 1.13,0.04 2.04,0.98 2.04,2.12l0 0zm0 0z"/>
   <path class="fil10" d="M14.4 6.11l0 1.03 -0.49 0 0 -0.8 -3.55 -0.66c0.19,-0.94 1.01,-1.65 2,-1.69 1.13,0.04 2.04,0.98 2.04,2.12l0 0zm0 0z"/>
  </g>
 </g>
</svg>
