<?xml version="1.0" encoding="UTF-8"?>
<!DOCTYPE svg PUBLIC "-//W3C//DTD SVG 1.1//EN" "http://www.w3.org/Graphics/SVG/1.1/DTD/svg11.dtd">
<!-- Creator: CorelDRAW 2019 (64-Bit) -->
<svg xmlns="http://www.w3.org/2000/svg" xml:space="preserve" width="404px" height="256px" version="1.1" style="shape-rendering:geometricPrecision; text-rendering:geometricPrecision; image-rendering:optimizeQuality; fill-rule:evenodd; clip-rule:evenodd"
viewBox="0 0 313.88 198.89"
 xmlns:xlink="http://www.w3.org/1999/xlink"
 enable-background="new 0 0 512 512">
 <defs>
  <style type="text/css">
   <![CDATA[
    .fil0 {fill:none}
    .fil7 {fill:black}
    .fil3 {fill:#528FD8}
    .fil2 {fill:#82AEE3}
    .fil6 {fill:#F07281}
    .fil1 {fill:#F58A97}
    .fil5 {fill:#FFB09E}
    .fil4 {fill:#FFCEBF}
   ]]>
  </style>
 </defs>
 <g id="Layer_x0020_1">
  <metadata id="CorelCorpID_0Corel-Layer"/>
  <rect class="fil0" width="313.88" height="198.89"/>
  <g id="fast-visiting.svg">
   <g>
    <g>
     <g>
      <path class="fil1" d="M243.21 55.38c0,0.82 -0.35,1.63 -1.05,2.2l-20.02 16.27 0 -33.98c0,-1.19 1.38,-1.84 2.3,-1.09l17.72 14.39c0.7,0.57 1.05,1.39 1.05,2.21l0 0z"/>
      <path class="fil2" d="M229.97 141.51l-35.4 40.49c-3.4,3.88 -9.37,4.09 -13.02,0.44l-9.17 -9.17 0 13.78c0,1.45 -1.18,2.63 -2.64,2.63l-95.55 0c-1.95,0 -3.52,-1.57 -3.52,-3.52l0 -42.5c0,-9.73 6.63,-18.2 16.08,-20.53l21.95 -5.41c3.15,-0.78 5.36,-3.61 5.36,-6.85l0 -21.95 29.61 0 0 21.41c0,3.5 2.53,6.48 5.98,7.04l14.5 2.38c7.66,1.26 14.3,6.01 17.97,12.86l8.53 15.93c0.33,0.62 0.88,1.03 1.48,1.21 0.89,0.27 1.91,0.03 2.6,-0.75l19.96 -22.77 15.28 15.28z"/>
      <g>
       <path class="fil3" d="M236.52 116.93c-3.36,-2.69 -7.86,-3.04 -11.5,-1.24 2.61,2.13 3.96,5.23 3.96,8.34 0,2.52 -0.88,5.04 -2.67,7.09l-7.93 9.07 -35.4 40.49c-0.51,0.58 -1.08,1.08 -1.69,1.5l0.26 0.26c3.65,3.65 9.62,3.45 13.02,-0.44l35.4 -40.49 7.93 -9.07c1.79,-2.04 2.67,-4.57 2.67,-7.08 0,-3.16 -1.38,-6.29 -4.05,-8.43z"/>
      </g>
      <g>
       <path class="fil3" d="M192.13 149.75c-1.21,0.85 -2.43,1.7 -3.64,2.55 -3.57,2.5 -8.52,1.32 -10.59,-2.52l-6.36 -11.89c-3.66,-6.85 -10.31,-11.59 -17.97,-12.85l-14.5 -2.38c-3.45,-0.57 -5.98,-3.54 -5.98,-7.04l0 -21.41 10.58 -5.29 0 21.41c0,3.5 2.53,6.48 5.98,7.04l14.5 2.38c7.66,1.26 14.3,6.01 17.97,12.86l8.53 15.93c0.33,0.62 0.88,1.03 1.48,1.21l0 0z"/>
      </g>
      <path class="fil4" d="M149.64 117.37l2.74 0.45c-4.28,8.67 -13.2,14.63 -23.52,14.63 -10.05,0 -18.78,-5.67 -23.18,-13.99l3.02 -0.74c3.15,-0.78 5.36,-3.61 5.36,-6.85l0 -0.22 0 -21.73 29.61 0 0 21.41c0,3.5 2.53,6.48 5.97,7.04z"/>
      <path class="fil5" d="M133.09 115.62c0,3.49 2.53,6.48 5.98,7.04l8.94 1.47c1.74,-1.87 3.22,-3.99 4.37,-6.31l-2.73 -0.45c0,0 0,0 0,0l-0.01 0c-3.44,-0.56 -5.97,-3.54 -5.97,-7.04l0 -21.41 -10.58 5.29 0 21.41z"/>
      <g>
       <path class="fil4" d="M159.03 52.84l0 26.56c0,16.67 -13.5,30.18 -30.17,30.18 -16.66,0 -30.17,-13.51 -30.17,-30.18l0 -26.56 30.17 -5.28 30.17 5.28z"/>
       <path class="fil5" d="M148.46 52.84l0 26.56c0,3.03 -0.43,9.98 -5.2,16.28 -6.32,8.35 -17.65,12.16 -29.2,10.03 3.04,1.65 7.14,3.3 12.13,3.75 0.92,0.09 1.82,0.12 2.67,0.12 16.67,0 30.17,-13.51 30.17,-30.18 0,-7.85 0,-18.71 0,-26.56l-10.57 0 0 0z"/>
      </g>
      <path class="fil4" d="M240.57 125.36c0,2.51 -0.88,5.04 -2.67,7.08l-7.93 9.07 -15.28 -15.28 7.01 -7.98c0.96,-1.1 2.09,-1.95 3.32,-2.56 3.64,-1.8 8.14,-1.45 11.5,1.24 2.67,2.14 4.05,5.27 4.05,8.43z"/>
      <path class="fil5" d="M240.57 125.36c0,2.51 -0.88,5.04 -2.67,7.08l-7.93 9.07 -6.8 -6.8c5.2,-4.97 9.08,-12.49 1.85,-19.02 3.64,-1.8 8.14,-1.45 11.5,1.24 2.67,2.14 4.05,5.27 4.05,8.42l0 0.01z"/>
      <g>
       <path class="fil5" d="M95.03 75.61l3.66 0 0 -14.07 -3.66 0c-3.88,0 -7.04,3.15 -7.04,7.04 0,3.88 3.16,7.03 7.04,7.03l0 0z"/>
       <path class="fil4" d="M162.7 75.61l-3.67 0 0 -14.07 3.67 0c3.88,0 7.03,3.15 7.03,7.04 0,3.88 -3.15,7.03 -7.03,7.03l0 0z"/>
      </g>
      <g>
       <g>
        <path class="fil1" d="M162.28 55.51l-33.42 -5.38 -33.41 5.38 0 -26.02c0,-9.74 7.9,-17.64 17.64,-17.64l31.55 0c9.74,0 17.64,7.9 17.64,17.64l0 26.02 0 0z"/>
        <g>
         <path class="fil6" d="M144.64 11.85l-10.58 0c9.74,0 17.64,7.9 17.64,17.64l0 24.32 10.58 1.7 0 -26.02c0,-9.74 -7.9,-17.64 -17.64,-17.64z"/>
        </g>
       </g>
       <g>
        <path class="fil2" d="M167.41 59.2c-0.01,0.04 -0.03,0.07 -0.05,0.11 -1.41,2.67 -4.65,3.75 -7.41,2.53 -2.35,-1.04 -4.75,-1.96 -7.17,-2.75 -17.95,-5.9 -37.57,-4.98 -55,2.75 -2.76,1.22 -6,0.14 -7.41,-2.53 -0.02,-0.04 -0.04,-0.07 -0.06,-0.11 -1.55,-2.92 -0.29,-6.56 2.74,-7.9 19.62,-8.71 41.65,-9.92 61.94,-3.64 3.29,1.02 6.52,2.23 9.69,3.64 3.03,1.34 4.29,4.98 2.73,7.9l0 0z"/>
        <g>
         <path class="fil3" d="M167.41 59.2c-1.43,2.71 -4.67,3.88 -7.46,2.64 -2.35,-1.04 -4.75,-1.96 -7.17,-2.75 1.18,-0.63 2.76,-1.78 3.55,-3.73 0.96,-2.4 0.44,-5.32 -1.34,-7.7 3.29,1.02 6.52,2.23 9.69,3.64 3.03,1.34 4.29,4.98 2.73,7.9l0 0z"/>
        </g>
       </g>
      </g>
     </g>
     <path class="fil6" d="M243.21 55.38c0,0.82 -0.35,1.63 -1.05,2.2l-11.25 9.14 0 -22.68 11.25 9.13c0.7,0.57 1.05,1.39 1.05,2.21z"/>
    </g>
    <path class="fil7" d="M207.21 167.54c-1.1,-0.96 -2.77,-0.84 -3.73,0.25l-10.9 12.47c-1.16,1.32 -2.76,2.08 -4.51,2.14 -1.76,0.06 -3.41,-0.59 -4.65,-1.83l-8.4 -8.4 0 -5.55c0,-1.46 -1.18,-2.64 -2.64,-2.64 -1.46,0 -2.65,1.18 -2.65,2.64l0 6.64 0 0.02 0 13.76c0,1.46 1.19,2.64 2.65,2.64 1.46,0 2.64,-1.18 2.64,-2.64l0 -7.39 4.66 4.66c2.17,2.16 5.13,3.38 8.18,3.38 3.31,0 6.52,-1.45 8.7,-3.95l10.9 -12.46c0.96,-1.1 0.85,-2.77 -0.25,-3.74l0 0zm-109.79 -3.56c-1.47,0 -2.65,1.18 -2.65,2.64l0 20.42c0,1.46 1.18,2.64 2.65,2.64 1.46,0 2.64,-1.18 2.64,-2.64l0 -20.42c0,-1.46 -1.18,-2.64 -2.64,-2.64zm146.41 -112.86l-17.72 -14.4c-1.23,-0.99 -2.88,-1.19 -4.3,-0.51 -1.43,0.68 -2.31,2.08 -2.31,3.66l0 33.98c0,0.01 0,0.01 0,0.01l0 42.88 -26.62 30.36 -8.43 -15.74c-4.03,-7.52 -11.46,-12.84 -19.88,-14.22 -3.47,-0.57 -11.57,-1.89 -14.49,-2.37 -2.19,-0.36 -3.77,-2.23 -3.77,-4.44l0 -3.12c2.06,-1.3 3.99,-2.83 5.76,-4.6 6.19,-6.2 9.61,-14.44 9.61,-23.21l0 -1.14 1.02 0c5.23,0.02 9.68,-4.43 9.68,-9.68 0,-2.79 -1.23,-5.38 -3.21,-7.18 1.53,-2.2 1.97,-5.08 1.09,-7.61 -0.75,-2.18 -2.39,-3.97 -4.51,-4.91 -0.27,-0.12 -0.55,-0.24 -0.83,-0.36l0 -19.03c0,-11.18 -9.1,-20.28 -20.28,-20.28l-31.55 0c-11.18,0 -20.28,9.1 -20.28,20.28l0 19.03c-0.28,0.12 -0.56,0.24 -0.84,0.36 -2.11,0.94 -3.75,2.73 -4.51,4.91 -0.88,2.57 -0.45,5.4 1.1,7.61 -1.99,1.8 -3.21,4.39 -3.21,7.18 0,5.24 4.4,9.7 9.68,9.68l1.02 0 0 1.14c0,11.7 6.15,21.98 15.37,27.79l0 3.68c0,2.03 -1.38,3.79 -3.35,4.28l-21.95 5.41c-10.66,2.63 -18.1,12.13 -18.1,23.1l0 43.38c0,1.46 1.18,2.64 2.65,2.64 1.46,0 2.64,-1.18 2.64,-2.64l0 -43.38c0,-8.53 5.79,-15.92 14.07,-17.96l17.01 -4.2c5.25,8.44 14.45,13.59 24.47,13.59 10.4,0 19.79,-5.45 24.95,-14.35l9.91 1.62c6.8,1.12 12.81,5.41 16.07,11.49l8.53 15.93c0.79,1.49 2.27,2.49 3.94,2.68 1.68,0.2 3.34,-0.45 4.46,-1.71l18.1 -20.65 11.5 11.5c0.01,0.01 0.02,0.02 0.03,0.03l-14.74 16.86c-0.96,1.1 -0.85,2.77 0.25,3.73 1.1,0.96 2.77,0.86 3.73,-0.25l24.3 -27.79c4.98,-5.64 4.1,-14.66 -1.72,-19.31 -3.91,-3.13 -9.03,-3.73 -13.39,-1.97l0 -37.79 19.05 -15.47c1.28,-1.05 2.02,-2.6 2.02,-4.26 0,-1.66 -0.74,-3.21 -2.02,-4.26l0 0zm-76.74 17.46c0,2.38 -2.01,4.4 -4.39,4.39l-1.02 0 0 -8.02c1,0.07 2,-0.04 2.95,-0.32 1.48,0.73 2.46,2.26 2.46,3.95l0 0zm-71.04 4.39l-1.02 0c-2.4,0.01 -4.39,-2.01 -4.39,-4.39 0,-1.69 0.98,-3.22 2.45,-3.94 0.95,0.27 1.96,0.38 2.96,0.31l0 8.02 0 0zm0.66 -13.55c-1.52,0.67 -3.27,0.02 -4.06,-1.45 -0.83,-1.55 -0.13,-3.54 1.47,-4.25 14.53,-6.45 30.54,-8.73 46.3,-6.58 1.44,0.19 2.78,-0.82 2.98,-2.27 0.19,-1.44 -0.82,-2.77 -2.27,-2.97 -14.55,-1.98 -29.29,-0.41 -43.03,4.53l0 -16.94c0,-8.27 6.72,-14.99 14.99,-14.99l31.55 0c8.26,0 14.99,6.72 14.99,14.99l0 16.94c-2.02,-0.73 -4.07,-1.38 -6.13,-1.96 -1.41,-0.4 -2.87,0.42 -3.26,1.82 -0.4,1.41 0.42,2.87 1.83,3.27 3.92,1.1 7.81,2.5 11.54,4.16 1.59,0.7 2.29,2.7 1.47,4.24 -0.77,1.46 -2.51,2.15 -4.06,1.46 -19.73,-8.73 -44.32,-8.86 -64.31,0l0 0zm4.63 19.98l0 -16.19c17.64,-7.05 37.41,-7.05 55.05,0l0 16.19c0,7.36 -2.86,14.27 -8.06,19.48 -5.16,5.16 -12.11,8.06 -19.46,8.06 -15.18,0 -27.53,-12.35 -27.53,-27.54zm27.52 50.4c-7.6,0 -14.62,-3.63 -19.02,-9.66 4.31,-1.34 7.3,-5.66 6.87,-10.25 3.76,1.51 7.86,2.34 12.16,2.34 4.23,0 8.34,-0.81 12.15,-2.33 -0.27,4.56 2.87,8.67 7.15,9.85 -4.37,6.28 -11.49,10.05 -19.31,10.05l0 0zm106.01 -10.81c3.54,2.84 4.06,8.29 1.04,11.71l-6.07 6.94 -11.53 -11.53 5.38 -6.12c2.86,-3.28 7.78,-3.71 11.18,-1l0 0zm5.62 -63.46l-15.71 12.77 0 -25.84 15.71 12.76c0.08,0.05 0.08,0.26 0,0.31zm-97.07 21.87c1.46,0 2.64,-1.18 2.64,-2.64l0 -5.83c0,-1.46 -1.18,-2.64 -2.64,-2.64 -1.46,0 -2.64,1.18 -2.64,2.64l0 5.83c0,1.46 1.18,2.64 2.64,2.64zm-29.11 -11.11c-1.46,0 -2.65,1.18 -2.65,2.64l0 5.83c0,1.46 1.19,2.64 2.65,2.64 1.46,0 2.64,-1.18 2.64,-2.64l0 -5.83c0,-1.46 -1.18,-2.64 -2.64,-2.64zm22.69 24.26c-0.7,-1.28 -2.3,-1.75 -3.59,-1.05 -0.99,0.55 -2.61,1.19 -4.64,1.17 -1.96,-0.02 -3.51,-0.65 -4.46,-1.17 -1.28,-0.7 -2.88,-0.23 -3.59,1.05 -0.7,1.28 -0.23,2.89 1.05,3.59 1.48,0.81 3.89,1.79 6.94,1.82 3.09,0.03 5.72,-0.98 7.25,-1.82 1.28,-0.7 1.75,-2.31 1.04,-3.59z"/>
   </g>
  </g>
 </g>
</svg>
