<?xml version="1.0" encoding="UTF-8"?>
<!DOCTYPE svg PUBLIC "-//W3C//DTD SVG 1.1//EN" "http://www.w3.org/Graphics/SVG/1.1/DTD/svg11.dtd">
<!-- Creator: CorelDRAW 2019 (64-Bit) -->
<svg xmlns="http://www.w3.org/2000/svg" xml:space="preserve" width="2.06667in" height="2.06667in" version="1.1" style="shape-rendering:geometricPrecision; text-rendering:geometricPrecision; image-rendering:optimizeQuality; fill-rule:evenodd; clip-rule:evenodd"
viewBox="0 0 403.99 403.99"
 xmlns:xlink="http://www.w3.org/1999/xlink">
 <defs>
  <style type="text/css">
   <![CDATA[
    .str0 {stroke:#E31E24;stroke-width:1.36;stroke-miterlimit:2.61313}
    .fil8 {fill:#9D9E9E}
    .fil2 {fill:#EF7F1A}
    .fil0 {fill:#EF7F1A}
    .fil1 {fill:#06544F}
    .fil5 {fill:#4BBA3A}
    .fil4 {fill:#93D689}
    .fil7 {fill:#F0EFEE}
    .fil3 {fill:#FF97B7}
    .fil6 {fill:#FFDF78}
   ]]>
  </style>
 </defs>
 <g id="Layer_x0020_1">
  <metadata id="CorelCorpID_0Corel-Layer"/>
  <g id="_2493796878704">
   <g>
    <circle class="fil0" cx="201.99" cy="5.94" r="5.94"/>
    <circle class="fil0" transform="matrix(0.381611 -0.0672701 0.0672701 0.381611 167.948 8.92752)" r="15.33"/>
    <circle class="fil0" transform="matrix(0.364134 -0.132525 0.132525 0.364134 134.941 17.7672)" r="15.33"/>
    <circle class="fil0" transform="matrix(0.335576 -0.19375 0.19375 0.335576 103.965 32.2063)" r="15.33"/>
    <circle class="fil0" transform="matrix(0.296826 -0.249085 0.249085 0.296826 75.9709 51.8053)" r="15.33"/>
    <circle class="fil0" transform="matrix(0.249085 -0.296826 0.296826 0.249085 51.8059 75.977)" r="15.33"/>
    <circle class="fil0" transform="matrix(0.19375 -0.335576 0.335576 0.19375 32.2045 103.968)" r="15.33"/>
    <circle class="fil0" transform="matrix(0.132525 -0.364134 0.364134 0.132525 17.7651 134.937)" r="15.33"/>
    <circle class="fil0" transform="matrix(0.0672701 -0.381611 0.381611 0.0672701 8.9175 167.942)" r="15.33"/>
    <circle class="fil0" cx="5.94" cy="201.99" r="5.94"/>
    <circle class="fil0" transform="matrix(0.381611 -0.0672701 0.0672701 0.381611 8.90803 236.037)" r="15.33"/>
    <circle class="fil0" transform="matrix(0.364134 -0.132525 0.132525 0.364134 17.7591 269.051)" r="15.33"/>
    <circle class="fil0" transform="matrix(0.335576 -0.19375 0.19375 0.335576 32.2063 300.013)" r="15.33"/>
    <circle class="fil0" transform="matrix(0.296826 -0.249085 0.249085 0.296826 51.8103 328)" r="15.33"/>
    <circle class="fil0" transform="matrix(0.249085 -0.296826 0.296826 0.249085 75.9591 352.188)" r="15.33"/>
    <circle class="fil0" transform="matrix(0.19375 -0.335576 0.335576 0.19375 103.958 371.784)" r="15.33"/>
    <circle class="fil0" transform="matrix(0.132525 -0.364134 0.364134 0.132525 134.94 386.216)" r="15.33"/>
    <circle class="fil0" transform="matrix(0.0672701 -0.381611 0.381611 0.0672701 167.939 395.052)" r="15.33"/>
    <circle class="fil0" cx="201.99" cy="398.05" r="5.94"/>
    <circle class="fil0" transform="matrix(0.381611 -0.0672701 0.0672701 0.381611 236.018 395.078)" r="15.33"/>
    <circle class="fil0" transform="matrix(0.364134 -0.132525 0.132525 0.364134 269.043 386.233)" r="15.33"/>
    <circle class="fil0" transform="matrix(0.335576 -0.19375 0.19375 0.335576 300.013 371.772)" r="15.33"/>
    <circle class="fil0" transform="matrix(0.296826 -0.249085 0.249085 0.296826 328.005 352.16)" r="15.33"/>
    <circle class="fil0" transform="matrix(0.249085 -0.296826 0.296826 0.249085 352.17 328.035)" r="15.33"/>
    <circle class="fil0" transform="matrix(0.19375 -0.335576 0.335576 0.19375 371.774 300.031)" r="15.33"/>
    <circle class="fil0" transform="matrix(0.132525 -0.364134 0.364134 0.132525 386.219 269.04)" r="15.33"/>
    <circle class="fil0" transform="matrix(0.0672701 -0.381611 0.381611 0.0672701 395.049 236.03)" r="15.33"/>
    <circle class="fil0" cx="398.05" cy="201.99" r="5.94"/>
    <circle class="fil0" transform="matrix(0.381611 -0.0672701 0.0672701 0.381611 395.058 167.968)" r="15.33"/>
    <circle class="fil0" transform="matrix(0.364134 -0.132525 0.132525 0.364134 386.225 134.949)" r="15.33"/>
    <circle class="fil0" transform="matrix(0.335576 -0.19375 0.19375 0.335576 371.772 103.965)" r="15.33"/>
    <circle class="fil0" transform="matrix(0.296826 -0.249085 0.249085 0.296826 352.165 75.9659)" r="15.33"/>
    <circle class="fil0" transform="matrix(0.249085 -0.296826 0.296826 0.249085 328.017 51.8239)" r="15.33"/>
    <circle class="fil0" transform="matrix(0.19375 -0.335576 0.335576 0.19375 300.02 32.2148)" r="15.33"/>
    <circle class="fil0" transform="matrix(0.132525 -0.364134 0.364134 0.132525 269.043 17.7621)" r="15.33"/>
    <circle class="fil0" transform="matrix(0.0672701 -0.381611 0.381611 0.0672701 236.027 8.92067)" r="15.33"/>
   </g>
   <path class="fil1 str0" d="M375.1 195.98c-5.49,-1.83 -11.05,-7.86 -17.48,-14.83 -9.6,-10.42 -21.05,-22.83 -38.39,-27.72 8.8,-15.72 8.12,-32.59 7.54,-46.75 -0.38,-9.48 -0.72,-17.66 1.87,-22.84 1.22,-2.44 0.74,-5.39 -1.19,-7.32 -1.93,-1.93 -4.87,-2.41 -7.31,-1.19 -5.18,2.59 -13.37,2.26 -22.84,1.87 -14.16,-0.57 -31.02,-1.26 -46.75,7.55 -4.89,-17.34 -17.3,-28.79 -27.72,-38.39 -6.97,-6.43 -13,-11.98 -14.83,-17.48 -0.86,-2.59 -3.28,-4.33 -6.01,-4.33 -2.73,0 -5.15,1.74 -6.01,4.33 -1.83,5.49 -7.86,11.05 -14.83,17.48 -10.42,9.6 -22.83,21.05 -27.72,38.39 -15.72,-8.8 -32.59,-8.12 -46.75,-7.54 -9.48,0.38 -17.66,0.72 -22.84,-1.87 -2.44,-1.22 -5.39,-0.74 -7.31,1.19 -1.93,1.93 -2.41,4.88 -1.19,7.31 2.59,5.18 2.26,13.37 1.87,22.84 -0.57,14.16 -1.26,31.03 7.55,46.75 -17.34,4.89 -28.79,17.3 -38.39,27.72 -6.43,6.97 -11.98,13 -17.48,14.83 -2.59,0.86 -4.33,3.28 -4.33,6.01 0,2.73 1.74,5.15 4.33,6.01 5.49,1.83 11.05,7.86 17.48,14.83 9.6,10.42 21.05,22.83 38.39,27.72 -8.8,15.72 -8.12,32.59 -7.54,46.75 0.38,9.48 0.72,17.66 -1.87,22.84 -1.22,2.44 -0.74,5.39 1.19,7.32 1.93,1.93 4.87,2.41 7.31,1.19 5.18,-2.59 13.37,-2.26 22.84,-1.87 14.16,0.57 31.02,1.26 46.75,-7.55 4.89,17.34 17.3,28.79 27.72,38.39 6.97,6.43 13,11.98 14.83,17.48 0.86,2.59 3.28,4.33 6.01,4.33 2.73,0 5.15,-1.74 6.01,-4.33 1.83,-5.49 7.85,-11.05 14.83,-17.48 10.42,-9.6 22.83,-21.05 27.72,-38.39 15.72,8.8 32.59,8.12 46.75,7.54 9.48,-0.38 17.66,-0.72 22.84,1.87 2.44,1.22 5.39,0.74 7.32,-1.19 1.93,-1.93 2.41,-4.88 1.19,-7.31 -2.59,-5.18 -2.26,-13.37 -1.87,-22.84 0.57,-14.16 1.26,-31.03 -7.54,-46.75 17.34,-4.89 28.79,-17.3 38.39,-27.72 6.43,-6.97 11.98,-13 17.48,-14.83 2.59,-0.86 4.33,-3.28 4.33,-6.01 0,-2.73 -1.75,-5.15 -4.33,-6.01zm-173.11 63.04c-9.44,0 -18.31,1.87 -25.85,5.38 -2.85,-7.82 -7.8,-15.41 -14.47,-22.09 -6.68,-6.68 -14.27,-11.62 -22.09,-14.47 3.51,-7.55 5.38,-16.41 5.38,-25.85 0,-9.44 -1.87,-18.31 -5.38,-25.85 7.82,-2.85 15.41,-7.8 22.09,-14.47 6.68,-6.68 11.62,-14.27 14.47,-22.09 7.55,3.51 16.41,5.38 25.85,5.38 9.44,0 18.31,-1.87 25.85,-5.38 2.85,7.82 7.8,15.41 14.47,22.09 6.68,6.68 14.27,11.62 22.09,14.47 -3.51,7.55 -5.38,16.41 -5.38,25.85 0,9.44 1.87,18.31 5.38,25.85 -7.82,2.85 -15.41,7.8 -22.09,14.47 -6.68,6.68 -11.62,14.27 -14.47,22.09 -7.55,-3.51 -16.41,-5.38 -25.85,-5.38z"/>
   <path class="fil2" d="M296.1 107.89c-9.88,-9.88 -25.96,-9.88 -35.85,0 -9.88,9.88 -9.88,25.96 0,35.85 9.88,9.88 25.96,9.88 35.85,0 9.88,-9.88 9.88,-25.96 0,-35.85z"/>
   <path class="fil2" d="M201.99 68.92c-13.98,0 -25.35,11.37 -25.35,25.35 0,13.98 11.37,25.35 25.35,25.35 13.98,0 25.35,-11.37 25.35,-25.35 0,-13.98 -11.37,-25.35 -25.35,-25.35z"/>
   <path class="fil2" d="M107.89 107.89c-9.88,9.88 -9.88,25.96 0,35.85 9.88,9.88 25.96,9.88 35.85,0 9.88,-9.88 9.88,-25.96 0,-35.85 -9.88,-9.88 -25.96,-9.88 -35.85,0z"/>
   <path class="fil2" d="M68.92 201.99c0,13.98 11.37,25.35 25.35,25.35 13.98,0 25.35,-11.37 25.35,-25.35 0,-13.98 -11.37,-25.35 -25.35,-25.35 -13.98,0 -25.35,11.37 -25.35,25.35z"/>
   <path class="fil2" d="M107.89 296.1c9.88,9.88 25.96,9.88 35.85,0 9.88,-9.88 9.88,-25.96 0,-35.85 -9.88,-9.88 -25.96,-9.88 -35.85,0 -9.88,9.88 -9.88,25.96 0,35.85z"/>
   <path class="fil2" d="M201.99 335.07c13.98,0 25.35,-11.37 25.35,-25.35 0,-13.98 -11.37,-25.35 -25.35,-25.35 -13.98,0 -25.35,11.37 -25.35,25.35 0,13.98 11.37,25.35 25.35,25.35z"/>
   <path class="fil2" d="M296.1 296.1c9.88,-9.88 9.88,-25.96 0,-35.85 -9.88,-9.88 -25.96,-9.88 -35.85,0 -9.88,9.88 -9.88,25.96 0,35.85 9.88,9.88 25.96,9.88 35.85,0z"/>
   <path class="fil3" d="M335.07 201.99c0,-13.98 -11.37,-25.35 -25.35,-25.35 -13.98,0 -25.35,11.37 -25.35,25.35 0,13.98 11.37,25.35 25.35,25.35 13.98,0 25.35,-11.37 25.35,-25.35z"/>
   <circle class="fil4" cx="201.99" cy="201.99" r="107.73"/>
   <path class="fil5" d="M227.34 290.71c-59.5,0 -107.73,-48.23 -107.73,-107.73 0,-29.56 11.91,-56.33 31.18,-75.8 -33.66,18.22 -56.53,53.84 -56.53,94.81 0,59.5 48.23,107.73 107.73,107.73 29.94,0 57.02,-12.22 76.55,-31.93 -15.23,8.24 -32.67,12.92 -51.2,12.92z"/>
   <g>
    <circle class="fil6" cx="265.37" cy="49.9" r="12.67"/>
    <circle class="fil6" transform="matrix(0.274002 -0.274002 0.274002 0.274002 139.259 49.6412)" r="32.71"/>
    <circle class="fil6" cx="49.9" cy="138.62" r="12.67"/>
    <circle class="fil6" transform="matrix(0.274002 -0.274002 0.274002 0.274002 49.6384 264.727)" r="32.71"/>
    <circle class="fil6" cx="138.62" cy="354.08" r="12.67"/>
    <circle class="fil6" transform="matrix(0.274002 -0.274002 0.274002 0.274002 264.724 354.348)" r="32.71"/>
    <circle class="fil6" cx="354.08" cy="265.37" r="12.67"/>
    <circle class="fil6" transform="matrix(0.274002 -0.274002 0.274002 0.274002 354.345 139.262)" r="32.71"/>
   </g>
   <g>
    <circle class="fil7" cx="201.99" cy="119.61" r="5.94"/>
    <circle class="fil7" transform="matrix(0.364134 -0.132525 0.132525 0.364134 173.817 124.585)" r="15.33"/>
    <circle class="fil7" transform="matrix(0.296826 -0.249085 0.249085 0.296826 149.035 138.878)" r="15.33"/>
    <circle class="fil7" transform="matrix(0.19375 -0.335576 0.335576 0.19375 130.645 160.807)" r="15.33"/>
    <circle class="fil7" transform="matrix(0.0672701 -0.381611 0.381611 0.0672701 120.857 187.681)" r="15.33"/>
    <circle class="fil7" transform="matrix(0.381611 -0.0672701 0.0672701 0.381611 120.852 216.304)" r="15.33"/>
    <circle class="fil7" transform="matrix(0.335576 -0.19375 0.19375 0.335576 130.646 243.179)" r="15.33"/>
    <circle class="fil7" transform="matrix(0.249085 -0.296826 0.296826 0.249085 149.03 265.113)" r="15.33"/>
    <circle class="fil7" transform="matrix(0.132525 -0.364134 0.364134 0.132525 173.817 279.401)" r="15.33"/>
    <circle class="fil7" cx="201.99" cy="284.38" r="5.94"/>
    <circle class="fil7" transform="matrix(0.364134 -0.132525 0.132525 0.364134 230.167 279.415)" r="15.33"/>
    <circle class="fil7" transform="matrix(0.296826 -0.249085 0.249085 0.296826 254.941 265.088)" r="15.33"/>
    <circle class="fil7" transform="matrix(0.19375 -0.335576 0.335576 0.19375 273.333 243.192)" r="15.33"/>
    <circle class="fil7" transform="matrix(0.0672701 -0.381611 0.381611 0.0672701 283.109 216.292)" r="15.33"/>
    <circle class="fil7" transform="matrix(0.381611 -0.0672701 0.0672701 0.381611 283.114 187.702)" r="15.33"/>
    <circle class="fil7" transform="matrix(0.335576 -0.19375 0.19375 0.335576 273.333 160.799)" r="15.33"/>
    <circle class="fil7" transform="matrix(0.249085 -0.296826 0.296826 0.249085 254.945 138.899)" r="15.33"/>
    <circle class="fil7" transform="matrix(0.132525 -0.364134 0.364134 0.132525 230.167 124.577)" r="15.33"/>
   </g>
   <path class="fil8" d="M262.29 196.56c-0.43,-0.26 -9.31,-5.56 -21.51,-10.63 5.04,-12.22 7.57,-22.24 7.69,-22.73 0.54,-2.16 -0.09,-4.44 -1.67,-6.02 -1.57,-1.58 -3.86,-2.21 -6.02,-1.67 -0.49,0.12 -10.51,2.65 -22.73,7.69 -5.07,-12.2 -10.37,-21.08 -10.63,-21.51 -1.15,-1.91 -3.21,-3.08 -5.43,-3.08 -2.23,0 -4.29,1.17 -5.43,3.08 -0.26,0.43 -5.56,9.31 -10.63,21.51 -12.22,-5.04 -22.24,-7.57 -22.73,-7.69 -2.16,-0.54 -4.44,0.09 -6.02,1.67 -1.57,1.57 -2.21,3.86 -1.67,6.02 0.12,0.49 2.66,10.51 7.69,22.73 -12.2,5.07 -21.08,10.37 -21.51,10.63 -1.91,1.15 -3.08,3.21 -3.08,5.43 0,2.23 1.17,4.29 3.08,5.43 0.43,0.26 9.31,5.56 21.51,10.63 -5.04,12.22 -7.57,22.24 -7.69,22.73 -0.54,2.16 0.09,4.44 1.67,6.02 1.57,1.57 3.86,2.21 6.02,1.67 0.49,-0.12 10.51,-2.65 22.73,-7.69 5.07,12.2 10.37,21.08 10.63,21.51 1.15,1.91 3.21,3.08 5.43,3.08 2.23,0 4.29,-1.17 5.43,-3.08 0.26,-0.43 5.56,-9.31 10.63,-21.51 12.22,5.04 22.24,7.57 22.73,7.69 2.16,0.54 4.44,-0.09 6.02,-1.67 1.57,-1.57 2.21,-3.86 1.67,-6.02 -0.12,-0.49 -2.66,-10.51 -7.69,-22.73 12.2,-5.07 21.08,-10.37 21.51,-10.63 1.91,-1.15 3.08,-3.21 3.08,-5.43 0,-2.23 -1.17,-4.29 -3.08,-5.44z"/>
   <path class="fil3" d="M201.99 182.98c-10.48,0 -19.01,8.53 -19.01,19.01 0,10.48 8.53,19.01 19.01,19.01 10.48,0 19.01,-8.53 19.01,-19.01 0,-10.48 -8.53,-19.01 -19.01,-19.01z"/>
  </g>
 </g>
</svg>
