<?xml version="1.0" encoding="UTF-8"?>
<!DOCTYPE svg PUBLIC "-//W3C//DTD SVG 1.1//EN" "http://www.w3.org/Graphics/SVG/1.1/DTD/svg11.dtd">
<!-- Creator: CorelDRAW 2019 (64-Bit) -->
<svg xmlns="http://www.w3.org/2000/svg" xml:space="preserve" width="300px" height="180px" version="1.1" style="shape-rendering:geometricPrecision; text-rendering:geometricPrecision; image-rendering:optimizeQuality; fill-rule:evenodd; clip-rule:evenodd"
viewBox="0 0 11.89 7.14"
 xmlns:xlink="http://www.w3.org/1999/xlink">
 <defs>
  <style type="text/css">
   <![CDATA[
    .fil0 {fill:none}
    .fil8 {fill:#39519D}
    .fil6 {fill:#4891D3}
    .fil4 {fill:#57B7EB}
    .fil5 {fill:#84D2F4}
    .fil7 {fill:#A1D51C}
    .fil3 {fill:#C4F236}
    .fil1 {fill:#F9E109}
    .fil2 {fill:#FCBC04}
   ]]>
  </style>
 </defs>
 <g id="Layer_x0020_1">
  <metadata id="CorelCorpID_0Corel-Layer"/>
  <rect class="fil0" width="11.89" height="7.14"/>
  <g id="free-diagnostic.svg">
   <g id="Fill_Outline" data-name="Fill Outline">
    <g id="Color">
     <g>
      <polygon class="fil1" points="6.54,0.28 7.07,0.87 7.83,0.62 8,1.4 8.77,1.57 8.53,2.32 9.12,2.86 8.53,3.39 8.77,4.15 8,4.32 7.83,5.09 7.07,4.85 6.54,5.44 6,4.85 5.25,5.09 5.08,4.32 4.3,4.15 4.54,3.39 3.96,2.86 4.54,2.32 4.3,1.57 5.08,1.4 5.25,0.62 6,0.87 "/>
      <polygon class="fil2" points="6.14,4.36 5.57,4.54 5.44,3.96 4.86,3.83 5.04,3.26 4.6,2.86 5.04,2.46 4.86,1.89 5.44,1.76 5.57,1.18 6.14,1.36 6.54,0.92 6.94,1.36 7.51,1.18 7.63,1.76 8.22,1.89 8.04,2.46 8.48,2.86 8.04,3.26 8.22,3.83 7.63,3.96 7.51,4.54 6.94,4.36 6.54,4.8 "/>
      <g>
       <polygon class="fil3" points="4.67,5.46 3.93,5.89 3.28,4.77 4.03,4.34 "/>
       <polygon class="fil4" points="3.21,5.93 3.93,5.89 3.28,4.77 2.88,5.37 "/>
       <path class="fil4" d="M4.84 6.47c0.09,-0.05 0.15,-0.14 0.15,-0.24 0,-0.08 -0.03,-0.15 -0.08,-0.2l-0.43 -0.47 -0.37 0.22 0.34 0.59c0.05,0.09 0.15,0.14 0.25,0.14 0.05,0 0.1,-0.01 0.14,-0.04l0 0z"/>
       <path class="fil5" d="M5.11 3.22l1.08 1.86c-0.06,-0.01 -0.11,-0.01 -0.17,-0.01 -0.45,0 -0.89,0.12 -1.28,0.34l-0.07 0.05 -0.65 -1.12 0.08 -0.04c0.44,-0.25 0.79,-0.63 1.01,-1.08l0 0z"/>
       <path class="fil4" d="M4.4 4.99l0.27 0.47 0.07 -0.05c0.39,-0.22 0.83,-0.34 1.28,-0.34 0.06,0 0.11,0 0.17,0.01l-0.75 -1.31c-0.2,0.52 -0.56,0.95 -1.04,1.22l0 0z"/>
       <path class="fil6" d="M3.2 5.06l-0.05 -0.09 0.13 -0.2 0.65 1.12 -0.72 0.04 -0.12 -0.2c0.12,-0.1 0.18,-0.24 0.18,-0.4 0,-0.09 -0.02,-0.18 -0.07,-0.27l0 0z"/>
       <path class="fil6" d="M4.11 5.78l0.16 0.28c0.04,-0.01 0.08,-0.02 0.13,-0.02 0.09,0 0.17,0.04 0.23,0.1l0.27 0.29c0.06,-0.05 0.09,-0.13 0.09,-0.2 0,-0.08 -0.03,-0.15 -0.08,-0.2l-0.43 -0.47 -0.37 0.22z"/>
       <path class="fil7" d="M4.4 4.99l0.27 0.47 -0.74 0.43 -0.65 -1.12 0.07 0.07c0.16,0.17 0.39,0.27 0.62,0.27 0.15,0 0.3,-0.04 0.43,-0.12l0 0z"/>
      </g>
      <polygon class="fil1" points="8.9,5.54 8.26,5.54 8.58,5.12 "/>
      <path class="fil2" d="M8.58 5.22l0 -0.1 -0.32 0.42 0.64 0c-0.18,0 -0.32,-0.14 -0.32,-0.32l0 0z"/>
      <polygon class="fil1" points="4.17,0.71 3.53,0.71 3.85,0.28 "/>
      <path class="fil2" d="M3.85 0.39l0 -0.11 -0.32 0.43 0.64 0c-0.18,0 -0.32,-0.15 -0.32,-0.32l0 0z"/>
     </g>
    </g>
    <g id="Outline_copy" data-name="Outline copy">
     <g>
      <path class="fil8" d="M5.05 1.5c0.01,0.01 0.02,0.01 0.03,0.01 0.05,0 0.09,-0.04 0.1,-0.09l0.15 -0.66 0.64 0.21c0.01,0 0.02,0 0.03,0 0.03,0 0.06,-0.01 0.08,-0.03l0.46 -0.5 0.45 0.5c0.02,0.02 0.05,0.03 0.08,0.03 0.01,0 0.02,0 0.03,0l0.65 -0.21 0.14 0.66c0.01,0.04 0.04,0.08 0.08,0.08l0.66 0.15 -0.2 0.64c-0.01,0.01 -0.01,0.02 -0.01,0.03 0,0.03 0.02,0.06 0.04,0.08l0.5 0.46 -0.22 0.2c-0.02,0.02 -0.04,0.05 -0.04,0.08 0,0.06 0.05,0.1 0.11,0.1 0.03,0 0.05,-0.01 0.07,-0.02l0.31 -0.28c0.02,-0.02 0.03,-0.05 0.03,-0.08 0,-0.03 -0.01,-0.06 -0.03,-0.08l-0.54 -0.49 0.22 -0.69c0.01,-0.01 0.01,-0.02 0.01,-0.03 0,-0.05 -0.04,-0.1 -0.09,-0.11l-0.7 -0.15 -0.16 -0.71c-0.01,-0.05 -0.05,-0.08 -0.1,-0.08 -0.01,0 -0.03,0 -0.04,0l-0.69 0.22 -0.48 -0.53c-0.02,-0.02 -0.05,-0.04 -0.08,-0.04 -0.03,0 -0.06,0.02 -0.08,0.04l-0.49 0.53 -0.69 -0.22c-0.01,0 -0.02,0 -0.03,0 -0.05,0 -0.1,0.03 -0.11,0.08l-0.17 0.78c0,0 0,0.01 0,0.02 0,0.05 0.04,0.09 0.08,0.1l0 0z"/>
      <path class="fil8" d="M6.21 1.48l-0.37 -0.22c-0.02,-0.01 -0.04,-0.01 -0.06,-0.01 -0.03,0 -0.07,0.02 -0.09,0.05l-0.43 0.74c-0.01,0.02 -0.01,0.04 -0.01,0.06 0,0.06 0.05,0.11 0.1,0.11 0.04,0 0.08,-0.02 0.1,-0.06l0.16 -0.28 0.19 0.11c0.01,0.01 0.03,0.02 0.05,0.02 0.06,0 0.11,-0.05 0.11,-0.11 0,-0.04 -0.02,-0.08 -0.06,-0.1l-0.18 -0.1 0.1 -0.19 0.28 0.16c0.02,0.01 0.04,0.02 0.06,0.02 0.06,0 0.11,-0.05 0.11,-0.11 0,-0.04 -0.03,-0.08 -0.06,-0.09l0 0z"/>
      <path class="fil8" d="M7.5 2.47c0.02,0.01 0.03,0.01 0.05,0.01 0.06,0 0.11,-0.05 0.11,-0.11 0,-0.03 -0.02,-0.07 -0.05,-0.09l-0.38 -0.21c-0.01,-0.01 -0.03,-0.02 -0.05,-0.02 -0.04,0 -0.07,0.02 -0.09,0.06l-0.43 0.74c-0.01,0.02 -0.02,0.04 -0.02,0.05 0,0.04 0.02,0.08 0.06,0.1l0.37 0.21c0.02,0.01 0.03,0.02 0.05,0.02 0,0 0,0 0,0 0.06,0 0.11,-0.05 0.11,-0.11 0,-0.04 -0.02,-0.07 -0.05,-0.09l-0.28 -0.16 0.1 -0.19 0.19 0.11c0.02,0.01 0.04,0.01 0.06,0.01 0.05,0 0.1,-0.05 0.1,-0.11 0,-0.03 -0.02,-0.07 -0.05,-0.09l-0.19 -0.11 0.11 -0.18 0.28 0.16z"/>
      <path class="fil8" d="M8.24 2.9c0.02,0.01 0.04,0.01 0.06,0.01 0.06,0 0.1,-0.05 0.1,-0.11 0,-0.03 -0.02,-0.07 -0.05,-0.09l-0.37 -0.21c-0.02,-0.01 -0.04,-0.02 -0.05,-0.02 -0.04,0 -0.08,0.02 -0.1,0.06l-0.43 0.74c-0.01,0.02 -0.01,0.04 -0.01,0.05 0,0.04 0.02,0.08 0.05,0.1l0.37 0.21c0.02,0.01 0.04,0.02 0.06,0.02 0.06,0 0.1,-0.05 0.1,-0.11 0,-0.04 -0.02,-0.07 -0.05,-0.09l-0.28 -0.16 0.11 -0.19 0.19 0.11c0.01,0.01 0.03,0.01 0.05,0.01 0,0 0,0 0,0 0.06,0 0.11,-0.05 0.11,-0.11 0,-0.04 -0.02,-0.07 -0.06,-0.09l-0.18 -0.11 0.1 -0.18 0.28 0.16z"/>
      <path class="fil8" d="M6.79 2.18c0.03,-0.04 0.05,-0.1 0.05,-0.16 0,-0.11 -0.06,-0.22 -0.16,-0.28l-0.19 -0.1c-0.02,-0.01 -0.03,-0.02 -0.05,-0.02 -0.04,0 -0.08,0.02 -0.1,0.06l-0.43 0.74c-0.01,0.02 -0.01,0.04 -0.01,0.06 0,0.05 0.05,0.1 0.11,0.1 0.03,0 0.07,-0.02 0.09,-0.05l0.16 -0.28 0.09 0.05c0.04,0.02 0.06,0.06 0.06,0.1 0,0.01 -0.01,0.03 -0.02,0.05l-0.1 0.19c-0.01,0.01 -0.02,0.03 -0.02,0.05 0,0.06 0.05,0.11 0.11,0.11 0.04,0 0.07,-0.02 0.09,-0.06l0.11 -0.18c0.03,-0.05 0.04,-0.11 0.04,-0.16 0,-0.03 0,-0.05 -0.01,-0.07 0.08,-0.02 0.14,-0.08 0.18,-0.15l0 0zm-0.36 0.04c-0.02,0.03 -0.06,0.06 -0.09,0.06 -0.02,0 -0.04,-0.01 -0.06,-0.02l-0.09 -0.05 0.11 -0.19 0.09 0.06c0.03,0.01 0.05,0.05 0.05,0.09 0,0.02 0,0.04 -0.01,0.05l0 0z"/>
      <path class="fil8" d="M6.12 3.99c0,0 0,0 0,0 0.01,0 0.03,-0.01 0.05,-0.02l0.56 -0.32c0.03,-0.02 0.05,-0.06 0.05,-0.09 0,-0.06 -0.05,-0.11 -0.11,-0.11 -0.01,0 -0.03,0 -0.05,0.01l-0.56 0.32c-0.03,0.02 -0.05,0.06 -0.05,0.1 0,0.06 0.05,0.11 0.11,0.11l0 0z"/>
      <path class="fil8" d="M6.38 4.45l0.01 0 0.48 -0.03c0.06,0 0.1,-0.05 0.1,-0.11 0,-0.05 -0.05,-0.1 -0.11,-0.1 0,0 0,0 0,0l-0.48 0.03c-0.06,0 -0.11,0.05 -0.11,0.1 0,0.06 0.05,0.11 0.11,0.11 0,0 0,0 0,0l0 0z"/>
      <path class="fil8" d="M5.79 3.5c0.02,0.01 0.04,0.02 0.06,0.02 0.03,0 0.07,-0.02 0.09,-0.05l0.26 -0.4c0.01,-0.02 0.02,-0.04 0.02,-0.06 0,-0.05 -0.05,-0.1 -0.11,-0.1 -0.04,0 -0.07,0.01 -0.09,0.04l-0.26 0.4c-0.01,0.02 -0.02,0.04 -0.02,0.06 0,0.04 0.02,0.07 0.05,0.09l0 0z"/>
      <path class="fil8" d="M4.65 5.59l0.15 -0.08c0.37,-0.22 0.79,-0.33 1.22,-0.33 0.05,0 0.09,0 0.14,0l0.3 0.33c0.02,0.02 0.05,0.04 0.08,0.04 0.03,0 0.06,-0.02 0.08,-0.04l0.48 -0.54 0.69 0.22c0.01,0.01 0.03,0.01 0.04,0.01 0.05,0 0.09,-0.04 0.1,-0.08l0.16 -0.71 0.7 -0.16c0.05,-0.01 0.09,-0.05 0.09,-0.1 0,-0.01 0,-0.02 -0.01,-0.03l-0.24 -0.76c-0.01,-0.04 -0.05,-0.07 -0.1,-0.07 -0.06,0 -0.11,0.04 -0.11,0.1 0,0.01 0,0.02 0.01,0.04l0.2 0.64 -0.66 0.14c-0.04,0.01 -0.07,0.04 -0.08,0.08l-0.14 0.66 -0.65 -0.2c-0.01,0 -0.02,-0.01 -0.03,-0.01 -0.03,0 -0.06,0.02 -0.08,0.04l-0.45 0.5 -0.3 -0.33 -0.28 -0.48c-0.02,-0.04 -0.06,-0.06 -0.09,-0.06 -0.06,0 -0.11,0.05 -0.11,0.11 0,0.02 0,0.04 0.01,0.05l0.23 0.39c-0.45,0.01 -0.9,0.13 -1.29,0.35l-0.54 -0.93c0.39,-0.23 0.72,-0.55 0.95,-0.94l0.44 0.76c0.02,0.03 0.05,0.05 0.09,0.05 0.06,0 0.11,-0.04 0.11,-0.1 0,-0.02 -0.01,-0.04 -0.02,-0.06l-0.53 -0.93c-0.02,-0.03 -0.06,-0.05 -0.1,-0.05 0,0 0,0 0,0 -0.04,0 -0.08,0.02 -0.09,0.06 -0.13,0.26 -0.3,0.49 -0.51,0.69l0.14 -0.44c0,-0.01 0,-0.02 0,-0.03 0,-0.03 -0.01,-0.06 -0.03,-0.08l-0.5 -0.45 0.5 -0.46c0.02,-0.02 0.03,-0.05 0.03,-0.08 0,-0.01 0,-0.02 0,-0.03l-0.21 -0.64 0.29 -0.06c0.05,-0.01 0.09,-0.06 0.09,-0.11 0,-0.06 -0.05,-0.11 -0.11,-0.11 -0.01,0 -0.02,0 -0.03,0.01l-0.4 0.08c-0.05,0.01 -0.08,0.06 -0.08,0.11 0,0.01 0,0.02 0,0.03l0.22 0.69 -0.53 0.49c-0.03,0.02 -0.04,0.05 -0.04,0.08 0,0.03 0.01,0.06 0.04,0.08l0.53 0.49 -0.21 0.67c-0.06,0.04 -0.11,0.07 -0.16,0.11l-0.45 0.25c-0.03,0.02 -0.05,0.06 -0.05,0.1 0,0.05 0.04,0.1 0.1,0.1 0.02,0 0.04,0 0.06,-0.01l0.28 -0.16 0.53 0.93 -0.56 0.32 -0.1 -0.19 0.18 -0.1c0.04,-0.02 0.06,-0.06 0.06,-0.1 0,-0.06 -0.05,-0.1 -0.11,-0.1 -0.02,0 -0.04,0 -0.05,0.01l-0.19 0.11 -0.11 -0.19 0.19 -0.11c0.03,-0.01 0.05,-0.05 0.05,-0.09 0,-0.06 -0.05,-0.11 -0.1,-0.11 -0.02,0 -0.04,0.01 -0.06,0.02l-0.19 0.11 -0.16 -0.28c-0.02,-0.04 -0.05,-0.06 -0.09,-0.06 0,0 0,0 0,0 -0.03,0 -0.07,0.02 -0.09,0.05l-0.4 0.6c-0.01,0.02 -0.01,0.04 -0.01,0.06 0,0.02 0,0.04 0.01,0.06l0.32 0.55c0.02,0.04 0.06,0.06 0.1,0.06l0 0 0.72 -0.04c0.02,-0.01 0.03,-0.01 0.05,-0.02l0.09 -0.05 0.29 0.49c0.07,0.13 0.2,0.2 0.34,0.2 0.22,0 0.39,-0.18 0.39,-0.39 0,-0.1 -0.03,-0.2 -0.1,-0.27l-0.34 -0.37zm-1.68 1.06l-0.13 -0.22 0.09 -0.05c0.04,-0.02 0.06,-0.06 0.06,-0.1 0,-0.06 -0.05,-0.1 -0.11,-0.1 -0.02,0 -0.04,0 -0.05,0.01l-0.1 0.05 -0.02 -0.03 0.27 -0.4 0.47 0.81 -0.48 0.03zm1.58 0.16c-0.02,0.09 -0.09,0.15 -0.18,0.15 -0.06,0 -0.12,-0.03 -0.16,-0.09l-0.28 -0.49 0.2 -0.12 0.37 0.4c0.03,0.03 0.05,0.08 0.05,0.12 0,0.01 0,0.02 0,0.03l0 0z"/>
      <path class="fil8" d="M3.5 0.82l0.22 0 0 0.7c0,0.14 -0.12,0.26 -0.27,0.26 -0.27,0 -0.48,0.22 -0.48,0.49l0 2.31c0,0.06 0.05,0.11 0.1,0.11 0.06,0 0.11,-0.05 0.11,-0.11l0 -2.31c0,-0.15 0.12,-0.27 0.27,-0.27 0.27,0 0.48,-0.22 0.48,-0.48l0 -0.7 0.22 0c0.06,0 0.11,-0.05 0.11,-0.11 0,-0.02 -0.01,-0.05 -0.02,-0.07l-0.33 -0.42c-0.02,-0.03 -0.05,-0.05 -0.08,-0.05 -0.04,0 -0.07,0.02 -0.09,0.05l-0.32 0.42c-0.02,0.02 -0.02,0.05 -0.02,0.07 0,0.06 0.05,0.11 0.1,0.11l0 0zm0.24 -0.53l0.11 0.14 -0.22 0 0.11 -0.14z"/>
      <path class="fil8" d="M8.64 5.05c-0.02,-0.02 -0.05,-0.04 -0.08,-0.04 -0.04,0 -0.07,0.02 -0.09,0.04l-0.32 0.43c-0.02,0.02 -0.02,0.04 -0.02,0.06 0,0.06 0.04,0.11 0.1,0.11l0.24 0 0 0.43c0,0.18 -0.14,0.32 -0.32,0.32l-2.58 0c-0.06,0 -0.11,0.05 -0.11,0.11 0,0.06 0.05,0.11 0.11,0.11l2.58 0c0.3,0 0.54,-0.24 0.54,-0.54l0 -0.43 0.19 0c0.06,0 0.1,-0.05 0.1,-0.11 0,-0.02 0,-0.04 -0.02,-0.06l-0.32 -0.43zm0.15 0.85l0.11 0.14 -0.22 0 0.11 -0.14z"/>
      <path class="fil8" d="M3.1 1.57c0.18,0 0.32,-0.15 0.32,-0.32 0,-0.18 -0.14,-0.33 -0.32,-0.33 -0.18,0 -0.32,0.15 -0.32,0.33 0,0.17 0.14,0.32 0.32,0.32l0 0zm-0.32 -0.75c0.06,0 0.1,0.04 0.1,0.1 0,0.06 -0.04,0.11 -0.1,0.11 -0.06,0 -0.11,-0.05 -0.11,-0.11 0,-0.06 0.05,-0.1 0.11,-0.1l0 0z"/>
      <path class="fil8" d="M7.4 5.76c0.06,0 0.1,0.05 0.1,0.11 0,0.06 0.05,0.1 0.11,0.1 0.06,0 0.11,-0.04 0.11,-0.1 0,-0.18 -0.15,-0.33 -0.32,-0.33 -0.18,0 -0.33,0.15 -0.33,0.33 0,0.18 0.15,0.32 0.33,0.32 0.06,0 0.1,-0.05 0.1,-0.11 0,-0.06 -0.04,-0.11 -0.1,-0.11 -0.06,0 -0.11,-0.04 -0.11,-0.1 0,-0.06 0.05,-0.11 0.11,-0.11l0 0z"/>
      <path class="fil8" d="M3.91 3.51c-0.02,-0.02 -0.04,-0.03 -0.07,-0.03 -0.03,0 -0.06,0.01 -0.08,0.03l-0.07 0.08 -0.08 -0.08c-0.02,-0.02 -0.05,-0.03 -0.07,-0.03 -0.06,0 -0.11,0.05 -0.11,0.11 0,0.03 0.01,0.05 0.03,0.07l0.07 0.08 -0.07 0.08c-0.02,0.02 -0.04,0.04 -0.04,0.07 0,0.06 0.05,0.11 0.11,0.11 0.03,0 0.06,-0.01 0.08,-0.03l0.08 -0.08 0.07 0.08c0.02,0.02 0.05,0.03 0.08,0.03 0.06,0 0.11,-0.05 0.11,-0.11 0,-0.03 -0.01,-0.05 -0.04,-0.07l-0.07 -0.08 0.07 -0.08c0.02,-0.02 0.04,-0.04 0.04,-0.07 0,-0.03 -0.01,-0.06 -0.04,-0.08l0 0z"/>
      <path class="fil8" d="M9.18 4.37c-0.02,-0.02 -0.05,-0.03 -0.08,-0.03 -0.02,0 -0.05,0.01 -0.07,0.03l-0.08 0.08 -0.07 -0.08c-0.02,-0.02 -0.05,-0.03 -0.08,-0.03 -0.06,0 -0.11,0.05 -0.11,0.11 0,0.03 0.02,0.05 0.03,0.07l0.08 0.08 -0.08 0.08c-0.02,0.02 -0.03,0.04 -0.03,0.07 0,0.06 0.05,0.11 0.11,0.11 0.03,0 0.06,-0.01 0.08,-0.03l0.07 -0.08 0.08 0.08c0.02,0.02 0.05,0.03 0.07,0.03 0.06,0 0.11,-0.05 0.11,-0.11 0,-0.03 -0.01,-0.05 -0.03,-0.07l-0.08 -0.08 0.08 -0.08c0.02,-0.02 0.03,-0.04 0.03,-0.07 0,-0.03 -0.01,-0.06 -0.03,-0.08l0 0z"/>
     </g>
    </g>
   </g>
  </g>
 </g>
</svg>
