<?xml version="1.0" encoding="UTF-8"?>
<!DOCTYPE svg PUBLIC "-//W3C//DTD SVG 1.1//EN" "http://www.w3.org/Graphics/SVG/1.1/DTD/svg11.dtd">
<!-- Creator: CorelDRAW 2019 (64-Bit) -->
<svg xmlns="http://www.w3.org/2000/svg" xml:space="preserve" width="550px" height="350px" version="1.1" style="shape-rendering:geometricPrecision; text-rendering:geometricPrecision; image-rendering:optimizeQuality; fill-rule:evenodd; clip-rule:evenodd"
viewBox="0 0 78.62 50.03"
 xmlns:xlink="http://www.w3.org/1999/xlink">
 <defs>
  <style type="text/css">
   <![CDATA[
    .fil0 {fill:none}
    .fil2 {fill:black}
    .fil4 {fill:#DDDDDD}
    .fil3 {fill:#EC5582}
    .fil1 {fill:#F9AC54}
   ]]>
  </style>
 </defs>
 <g id="Layer_x0020_1">
  <metadata id="CorelCorpID_0Corel-Layer"/>
  <rect class="fil0" width="78.62" height="50.03"/>
 </g>
 <g id="Layer_x0020_1_0">
  <metadata id="CorelCorpID_1Corel-Layer"/>
  <g id="hanging.svg">
   <polygon class="fil1" points="59.64,40.56 49.11,42.95 30.34,42.95 18.98,40.56 18.98,13.46 59.64,13.46 "/>
   <path class="fil2" d="M49.11 43.75l-18.77 0c-0.06,0 -0.11,-0.01 -0.17,-0.02l-11.35 -2.39c-0.37,-0.08 -0.63,-0.4 -0.63,-0.78l0 -27.1c0,-0.44 0.35,-0.8 0.79,-0.8l40.66 0c0.44,0 0.8,0.36 0.8,0.8l0 27.1c0,0.37 -0.26,0.7 -0.63,0.78l-10.52 2.39c-0.06,0.01 -0.12,0.02 -0.18,0.02zm-18.69 -1.6l18.6 0 9.82 -2.23 0 -25.66 -39.06 0 0 25.65 10.64 2.24zm29.22 -1.59l0.01 0 -0.01 0z"/>
   <polygon class="fil2" points="32.34,31.15 28.53,31.15 28.53,24.33 32.34,24.33 32.34,25.03 29.33,25.03 29.33,27.23 32.16,27.23 32.16,27.93 29.33,27.93 29.33,30.44 32.34,30.44 "/>
   <path class="fil2" d="M36.07 25.94c0.23,0 0.43,0.02 0.61,0.06l-0.11 0.72c-0.21,-0.05 -0.39,-0.07 -0.56,-0.07 -0.41,0 -0.76,0.17 -1.06,0.5 -0.29,0.34 -0.44,0.76 -0.44,1.26l0 2.74 -0.77 0 0 -5.11 0.64 0 0.08 0.94 0.04 0c0.19,-0.33 0.42,-0.59 0.69,-0.77 0.27,-0.18 0.56,-0.27 0.88,-0.27z"/>
   <path class="fil2" d="M39.98 25.94c0.22,0 0.43,0.02 0.61,0.06l-0.11 0.72c-0.21,-0.05 -0.4,-0.07 -0.56,-0.07 -0.42,0 -0.77,0.17 -1.06,0.5 -0.3,0.34 -0.44,0.76 -0.44,1.26l0 2.74 -0.78 0 0 -5.11 0.64 0 0.09 0.94 0.04 0c0.19,-0.33 0.42,-0.59 0.68,-0.77 0.27,-0.18 0.56,-0.27 0.89,-0.27z"/>
   <path class="fil2" d="M45.96 28.59c0,0.83 -0.21,1.49 -0.63,1.95 -0.42,0.47 -1,0.71 -1.74,0.71 -0.46,0 -0.86,-0.11 -1.22,-0.32 -0.35,-0.22 -0.63,-0.53 -0.82,-0.93 -0.19,-0.4 -0.29,-0.87 -0.29,-1.41 0,-0.83 0.21,-1.48 0.63,-1.95 0.41,-0.47 0.99,-0.7 1.73,-0.7 0.72,0 1.29,0.24 1.71,0.72 0.42,0.47 0.63,1.12 0.63,1.93zm-3.9 0c0,0.65 0.13,1.15 0.4,1.49 0.26,0.35 0.64,0.52 1.15,0.52 0.51,0 0.89,-0.17 1.15,-0.51 0.27,-0.34 0.4,-0.84 0.4,-1.5 0,-0.65 -0.13,-1.14 -0.4,-1.48 -0.26,-0.34 -0.65,-0.51 -1.16,-0.51 -0.51,0 -0.89,0.17 -1.15,0.5 -0.26,0.33 -0.39,0.83 -0.39,1.49z"/>
   <path class="fil2" d="M49.66 25.94c0.22,0 0.43,0.02 0.61,0.06l-0.11 0.72c-0.21,-0.05 -0.4,-0.07 -0.56,-0.07 -0.41,0 -0.77,0.17 -1.06,0.5 -0.3,0.34 -0.44,0.76 -0.44,1.26l0 2.74 -0.78 0 0 -5.11 0.64 0 0.09 0.94 0.04 0c0.19,-0.33 0.42,-0.59 0.69,-0.77 0.26,-0.18 0.56,-0.27 0.88,-0.27z"/>
   <circle class="fil3" cx="54.06" cy="12.66" r="7.97"/>
   <path class="fil2" d="M54.06 21.43c-4.84,0 -8.77,-3.93 -8.77,-8.77 0,-4.83 3.93,-8.77 8.77,-8.77 4.83,0 8.77,3.94 8.77,8.77 0,4.84 -3.94,8.77 -8.77,8.77zm0 -15.94c-3.96,0 -7.18,3.21 -7.18,7.17 0,3.96 3.22,7.17 7.18,7.17 3.95,0 7.17,-3.21 7.17,-7.17 0,-3.96 -3.22,-7.17 -7.17,-7.17z"/>
   <path class="fil2" d="M54.06 15.05c-0.44,0 -0.8,-0.35 -0.8,-0.8l0 -6.37c0,-0.44 0.36,-0.8 0.8,-0.8 0.44,0 0.8,0.36 0.8,0.8l0 6.37c0,0.45 -0.36,0.8 -0.8,0.8z"/>
   <path class="fil2" d="M54.06 18.24c-0.44,0 -0.8,-0.36 -0.8,-0.8l0 -0.79c0,-0.44 0.36,-0.8 0.8,-0.8 0.44,0 0.8,0.36 0.8,0.8l0 0.79c0,0.44 -0.36,0.8 -0.8,0.8z"/>
   <path class="fil4" d="M46.09 40.56l-0.8 1.59 -11.96 0 -0.79 -1.59 -17.54 0c0,2.64 2.14,4.78 4.78,4.78l39.06 0c2.64,0 4.78,-2.14 4.78,-4.78l-17.53 0z"/>
   <path class="fil2" d="M58.84 46.14l-39.06 0c-3.07,0 -5.58,-2.5 -5.58,-5.58 0,-0.44 0.36,-0.8 0.8,-0.8l17.54 0c0.3,0 0.57,0.17 0.71,0.44l0.58 1.16 10.97 0 0.57 -1.16c0.14,-0.27 0.41,-0.44 0.72,-0.44l17.53 0c0.44,0 0.8,0.36 0.8,0.8 0,3.08 -2.5,5.58 -5.58,5.58zm-42.96 -4.78c0.37,1.81 1.98,3.19 3.9,3.19l39.06 0c1.93,0 3.54,-1.38 3.91,-3.19l-16.17 0 -0.58 1.15c-0.13,0.27 -0.41,0.44 -0.71,0.44l-11.96 0c-0.3,0 -0.57,-0.17 -0.71,-0.44l-0.58 -1.15 -16.16 0z"/>
   <g>
   </g>
   <g>
   </g>
   <g>
   </g>
   <g>
   </g>
   <g>
   </g>
   <g>
   </g>
   <g>
   </g>
   <g>
   </g>
   <g>
   </g>
   <g>
   </g>
   <g>
   </g>
   <g>
   </g>
   <g>
   </g>
   <g>
   </g>
   <g>
   </g>
  </g>
 </g>
</svg>
