<?xml version="1.0" encoding="UTF-8"?>
<!DOCTYPE svg PUBLIC "-//W3C//DTD SVG 1.1//EN" "http://www.w3.org/Graphics/SVG/1.1/DTD/svg11.dtd">
<!-- Creator: CorelDRAW 2019 (64-Bit) -->
<svg xmlns="http://www.w3.org/2000/svg" xml:space="preserve" width="550px" height="350px" version="1.1" style="shape-rendering:geometricPrecision; text-rendering:geometricPrecision; image-rendering:optimizeQuality; fill-rule:evenodd; clip-rule:evenodd"
viewBox="0 0 727.75 463.11"
 xmlns:xlink="http://www.w3.org/1999/xlink">
 <defs>
  <style type="text/css">
   <![CDATA[
    .fil0 {fill:none}
    .fil5 {fill:black}
    .fil3 {fill:#5A6470}
    .fil2 {fill:#AABECE}
    .fil1 {fill:#CFDFE8}
    .fil4 {fill:white}
   ]]>
  </style>
 </defs>
 <g id="Layer_x0020_1">
  <metadata id="CorelCorpID_0Corel-Layer"/>
  <rect class="fil0" width="727.75" height="463.11"/>
 </g>
 <g id="Layer_x0020_1_0">
  <metadata id="CorelCorpID_1Corel-Layer"/>
  <g id="harddisk.svg">
   <path class="fil1" d="M507.44 375.13l-287.14 0 20.52 -341.83 252.95 0 13.67 341.83zm0 0z"/>
   <path class="fil2" d="M439.08 204.21c0,41.53 -33.67,75.2 -75.21,75.2 -41.53,0 -75.2,-33.67 -75.2,-75.2 0,-41.53 33.67,-75.2 75.2,-75.2 41.54,0 75.21,33.67 75.21,75.2zm0 0z"/>
   <path class="fil3" d="M220.3 375.13l287.14 0 0 54.69 -287.14 0 0 -54.69zm0 0z"/>
   <path class="fil4" d="M459.59 395.63l27.34 0 0 13.68 -27.34 0 0 -13.68zm0 0z"/>
   <path class="fil4" d="M432.24 395.63l13.67 0 0 13.68 -13.67 0 0 -13.68zm0 0z"/>
   <path class="fil3" d="M417.05 151.04l-53.18 53.17 53.18 53.17c29.37,-29.36 29.37,-76.98 0,-106.34l0 0zm0 0z"/>
   <path class="fil4" d="M391.22 204.21c0,15.1 -12.24,27.35 -27.35,27.35 -15.1,0 -27.34,-12.25 -27.34,-27.35 0,-15.1 12.24,-27.35 27.34,-27.35 15.11,0 27.35,12.25 27.35,27.35zm0 0z"/>
   <path class="fil4" d="M240.82 395.63l13.67 0 0 13.68 -13.67 0 0 -13.68zm0 0z"/>
   <path class="fil4" d="M268.16 395.63l13.67 0 0 13.68 -13.67 0 0 -13.68zm0 0z"/>
   <g>
    <path class="fil3" d="M261.33 56.18l13.67 0 0 13.68 -13.67 0 0 -13.68zm0 0z"/>
    <path class="fil3" d="M459.59 56.18l13.67 0 0 13.68 -13.67 0 0 -13.68zm0 0z"/>
    <path class="fil3" d="M240.82 340.94l13.67 0 0 13.68 -13.67 0 0 -13.68zm0 0z"/>
    <path class="fil3" d="M473.26 340.94l13.67 0 0 13.68 -13.67 0 0 -13.68zm0 0z"/>
   </g>
   <path class="fil5" d="M220.3 436.66l287.14 0c3.78,0 6.84,-3.07 6.84,-6.84l0 -54.97 -13.67 -341.83c-0.15,-3.67 -3.17,-6.56 -6.84,-6.56l-252.95 0c-3.63,-0.01 -6.62,2.81 -6.84,6.42l-20.51 341.84 0 0.41 0 54.69c0,3.77 3.06,6.84 6.83,6.84l0 0zm26.95 -396.53l239.97 0 13.13 328.16 -272.78 0 19.68 -328.16zm-20.11 341.83l273.47 0 0 41.02 -273.47 0 0 -41.02zm0 0z"/>
   <path class="fil5" d="M459.59 395.63l27.34 0 0 13.68 -27.34 0 0 -13.68zm0 0z"/>
   <path class="fil5" d="M432.24 395.63l13.67 0 0 13.68 -13.67 0 0 -13.68zm0 0z"/>
   <path class="fil5" d="M445.32 194.71c-0.28,-2.35 -0.6,-4.69 -1.08,-7l-0.04 -0.17c-3.21,-15.67 -10.97,-30.05 -22.32,-41.34l-4.83 -4.83 -0.25 0.25c-33.23,-28.16 -82.68,-25.44 -112.62,6.2 -29.95,31.63 -29.95,81.15 0,112.79 29.94,31.63 79.39,34.35 112.62,6.19l0.25 0.25 4.83 -4.83c11.35,-11.29 19.11,-25.67 22.32,-41.34l0.04 -0.17c0.48,-2.31 0.8,-4.65 1.08,-7 0.04,-0.4 0.13,-0.78 0.17,-1.19 0.56,-5.53 0.56,-11.09 0,-16.62 -0.04,-0.4 -0.13,-0.79 -0.17,-1.19l0 0zm-81.45 77.87c-30.11,0.03 -56.69,-19.65 -65.47,-48.45 -8.77,-28.81 2.34,-59.96 27.36,-76.72 25.01,-16.76 58.05,-15.17 81.35,3.9l-24.42 24.41c-14.27,-9.46 -33.34,-6.91 -44.61,5.98 -11.28,12.89 -11.28,32.13 0,45.02 11.27,12.89 30.34,15.44 44.61,5.98l24.42 24.41c-12.18,10.01 -27.47,15.48 -43.24,15.47l0 0zm20.51 -68.37c-0.01,3.05 -0.71,6.05 -2.05,8.79l-8.79 -8.79 8.79 -8.79c1.34,2.74 2.04,5.75 2.05,8.79zm-11.72 18.46c-2.74,1.34 -5.74,2.04 -8.79,2.05 -11.32,0 -20.51,-9.18 -20.51,-20.51 0,-11.33 9.19,-20.51 20.51,-20.51 3.05,0.01 6.05,0.71 8.79,2.05l-18.46 18.46 18.46 18.46zm59.25 -11.9c-0.06,0.6 -0.16,1.2 -0.23,1.8 -0.2,1.59 -0.42,3.17 -0.73,4.72 -0.11,0.6 -0.25,1.19 -0.39,1.79 -0.35,1.59 -0.74,3.15 -1.2,4.69 -0.15,0.48 -0.29,0.96 -0.45,1.43 -0.55,1.71 -1.16,3.42 -1.84,5.04 -0.12,0.29 -0.23,0.58 -0.35,0.86 -2.53,5.89 -5.88,11.39 -9.94,16.35l-24.42 -24.41c7.6,-11.4 7.6,-26.24 0,-37.64l24.42 -24.42c4.06,4.96 7.41,10.47 9.94,16.35 0.12,0.29 0.23,0.58 0.35,0.86 0.68,1.65 1.29,3.34 1.84,5.05 0.16,0.47 0.3,0.95 0.45,1.42 0.46,1.54 0.85,3.11 1.2,4.69 0.14,0.61 0.28,1.19 0.39,1.79 0.31,1.56 0.53,3.14 0.73,4.72 0.07,0.61 0.17,1.2 0.23,1.8 0.21,2.16 0.33,4.34 0.33,6.56 0,2.21 -0.12,4.39 -0.33,6.55l0 0zm0 0z"/>
   <path class="fil5" d="M240.82 395.63l13.67 0 0 13.68 -13.67 0 0 -13.68zm0 0z"/>
   <path class="fil5" d="M268.16 395.63l13.67 0 0 13.68 -13.67 0 0 -13.68zm0 0z"/>
   <path class="fil5" d="M261.33 56.18l13.67 0 0 13.68 -13.67 0 0 -13.68zm0 0z"/>
   <path class="fil5" d="M459.59 56.18l13.67 0 0 13.68 -13.67 0 0 -13.68zm0 0z"/>
   <path class="fil5" d="M240.82 340.94l13.67 0 0 13.68 -13.67 0 0 -13.68zm0 0z"/>
   <path class="fil5" d="M473.26 340.94l13.67 0 0 13.68 -13.67 0 0 -13.68zm0 0z"/>
  </g>
 </g>
</svg>
