<?xml version="1.0" encoding="UTF-8"?>
<!DOCTYPE svg PUBLIC "-//W3C//DTD SVG 1.1//EN" "http://www.w3.org/Graphics/SVG/1.1/DTD/svg11.dtd">
<!-- Creator: CorelDRAW 2019 (64-Bit) -->
<svg xmlns="http://www.w3.org/2000/svg" xml:space="preserve" width="300px" height="180px" version="1.1" style="shape-rendering:geometricPrecision; text-rendering:geometricPrecision; image-rendering:optimizeQuality; fill-rule:evenodd; clip-rule:evenodd"
viewBox="0 0 18.98 11.39"
 xmlns:xlink="http://www.w3.org/1999/xlink">
 <defs>
  <style type="text/css">
   <![CDATA[
    .fil0 {fill:none}
    .fil5 {fill:black}
    .fil3 {fill:#434A54}
    .fil1 {fill:#4FC2E9}
    .fil2 {fill:#E6E9ED}
    .fil4 {fill:#F5F7FA}
   ]]>
  </style>
 </defs>
 <g id="Layer_x0020_1">
  <metadata id="CorelCorpID_0Corel-Layer"/>
  <rect class="fil0" width="18.98" height="11.39"/>
  <g id="hdd.svg">
   <polygon class="fil1" points="13.06,0.53 6.14,0.53 5.43,1.01 5.43,10.26 6.14,10.86 6.65,10.86 13.28,10.72 13.49,9.94 13.49,1.01 "/>
   <path class="fil2" d="M12.62 5.14c0,1.72 -1.4,3.12 -3.13,3.12 -1.72,0 -3.12,-1.4 -3.12,-3.12 0,-1.73 1.4,-3.13 3.12,-3.13 1.73,0 3.13,1.4 3.13,3.13z"/>
   <path class="fil1" d="M10.38 4.94c0,0.46 -0.37,0.84 -0.83,0.84 -0.47,0 -0.84,-0.38 -0.84,-0.84 0,-0.46 0.37,-0.84 0.84,-0.84 0.46,0 0.83,0.38 0.83,0.84z"/>
   <polygon class="fil3" points="8.32,9.36 6.44,8.26 6,7.76 5.52,7.76 5.52,10.49 6.14,10.86 9.21,10.86 9.21,9.46 "/>
   <polygon class="fil4" points="7.13,9.08 6.81,9.53 6.98,9.94 7.54,9.94 9.46,7.54 9.49,7.27 "/>
   <path class="fil5" d="M12.84 0.34l-6.7 0c-0.49,0 -0.89,0.4 -0.89,0.89l0 6.25 0 2.68c0,0.49 0.4,0.89 0.89,0.89l3.35 0 3.35 0c0.49,0 0.89,-0.4 0.89,-0.89l0 -8.93c0,-0.49 -0.4,-0.89 -0.89,-0.89zm-6.7 10.26c-0.24,0 -0.44,-0.2 -0.44,-0.44l0 -2.23 0.1 0c0.31,0.38 0.68,0.72 1.09,1l-0.03 0.02c-0.16,0.12 -0.27,0.32 -0.27,0.54 0,0.37 0.3,0.67 0.67,0.67 0.22,0 0.42,-0.11 0.54,-0.27l0.3 -0.39c0.08,0.03 0.16,0.05 0.25,0.07 0.23,0.06 0.46,0.1 0.69,0.12l0 0.91 -2.9 0zm3.8 -4.01c-0.06,0 -0.11,0.02 -0.15,0.05l-1.37 1.08c-0.02,-0.01 -0.04,-0.01 -0.06,-0.02 -0.34,-0.15 -0.65,-0.36 -0.92,-0.62 -0.27,-0.27 -0.48,-0.58 -0.62,-0.93 -0.15,-0.35 -0.23,-0.73 -0.23,-1.12 0,-0.4 0.08,-0.78 0.23,-1.13 0.14,-0.35 0.35,-0.66 0.62,-0.93 0.27,-0.26 0.58,-0.47 0.92,-0.62 0.36,-0.15 0.74,-0.23 1.13,-0.23 0.39,0 0.77,0.08 1.13,0.23 0.35,0.15 0.66,0.36 0.92,0.62 0.27,0.27 0.48,0.58 0.62,0.93 0.16,0.35 0.23,0.73 0.23,1.13 0,0.39 -0.07,0.77 -0.23,1.12 -0.14,0.35 -0.35,0.66 -0.62,0.93 -0.26,0.26 -0.57,0.47 -0.92,0.62 -0.36,0.15 -0.74,0.23 -1.13,0.23 -0.05,0 -0.1,0 -0.15,-0.01l0.77 -0.97c0.03,-0.03 0.05,-0.08 0.05,-0.14 0,-0.12 -0.1,-0.22 -0.22,-0.22zm-1.41 1.64l-1.08 1.38 -0.01 0.01 0 0c-0.04,0.06 -0.11,0.09 -0.18,0.09 -0.12,0 -0.22,-0.1 -0.22,-0.22 0,-0.07 0.03,-0.14 0.09,-0.18l0 0 0.01 -0.01 1.36 -1.08c0.01,0.01 0.02,0.01 0.03,0.01zm4.76 1.93c0,0.24 -0.21,0.44 -0.45,0.44l-3.35 0 0 -1.33c-0.38,0 -0.74,-0.05 -1.09,-0.15l0.62 -0.78c0.15,0.02 0.31,0.03 0.47,0.03 1.85,0 3.35,-1.5 3.35,-3.34 0,-1.85 -1.5,-3.35 -3.35,-3.35 -1.85,0 -3.35,1.5 -3.35,3.35 0,1.32 0.77,2.46 1.88,3l-0.76 0.61c-0.48,-0.3 -0.9,-0.7 -1.23,-1.16l-0.33 0 0 -6.25c0,-0.25 0.2,-0.45 0.44,-0.45l6.7 0c0.24,0 0.45,0.2 0.45,0.45l0 8.93z"/>
   <path class="fil5" d="M12.84 1.01c-0.12,0 -0.22,0.1 -0.22,0.22 0,0.12 0.1,0.22 0.22,0.22 0.12,0 0.22,-0.1 0.22,-0.22 0,-0.12 -0.1,-0.22 -0.22,-0.22z"/>
   <path class="fil5" d="M12.84 9.94c-0.12,0 -0.22,0.1 -0.22,0.22 0,0.12 0.1,0.22 0.22,0.22 0.12,0 0.22,-0.1 0.22,-0.22 0,-0.12 -0.1,-0.22 -0.22,-0.22z"/>
   <path class="fil5" d="M6.14 1.01c-0.12,0 -0.22,0.1 -0.22,0.22 0,0.12 0.1,0.22 0.22,0.22 0.13,0 0.23,-0.1 0.23,-0.22 0,-0.12 -0.1,-0.22 -0.23,-0.22z"/>
   <path class="fil5" d="M9.49 4.8c-0.12,0 -0.22,0.1 -0.22,0.23 0,0.12 0.1,0.22 0.22,0.22 0.12,0 0.22,-0.1 0.22,-0.22 0,-0.13 -0.1,-0.23 -0.22,-0.23z"/>
   <path class="fil5" d="M9.71 2.79c0,-0.12 -0.1,-0.22 -0.22,-0.22 -1.36,0 -2.45,1.1 -2.45,2.46 0,0.12 0.1,0.22 0.22,0.22 0.12,0 0.22,-0.1 0.22,-0.22 0,-0.54 0.21,-1.05 0.59,-1.43 0.38,-0.37 0.88,-0.58 1.42,-0.58 0.12,0 0.22,-0.1 0.22,-0.23z"/>
   <path class="fil5" d="M10.61 5.03c0,-0.62 -0.5,-1.12 -1.12,-1.12 -0.62,0 -1.12,0.5 -1.12,1.12 0,0.61 0.5,1.11 1.12,1.11 0.62,0 1.12,-0.5 1.12,-1.11zm-1.12 0.66c-0.37,0 -0.67,-0.3 -0.67,-0.66 0,-0.37 0.3,-0.67 0.67,-0.67 0.37,0 0.67,0.3 0.67,0.67 0,0.36 -0.3,0.66 -0.67,0.66z"/>
   <path class="fil5" d="M6.14 9.94c-0.12,0 -0.22,0.1 -0.22,0.22 0,0.12 0.1,0.22 0.22,0.22 0.13,0 0.23,-0.1 0.23,-0.22 0,-0.12 -0.1,-0.22 -0.23,-0.22z"/>
   <path class="fil5" d="M10.54 9.33c-0.09,-0.09 -0.23,-0.09 -0.31,0 -0.05,0.04 -0.07,0.1 -0.07,0.16l0 0.67c0,0.06 0.02,0.11 0.07,0.16 0.08,0.08 0.22,0.08 0.31,0 0.05,-0.05 0.07,-0.1 0.07,-0.16l0 0 0 -0.67 0 0c0,-0.06 -0.02,-0.12 -0.07,-0.16z"/>
   <path class="fil5" d="M11.21 9.33c-0.09,-0.09 -0.23,-0.09 -0.31,0 -0.05,0.04 -0.07,0.1 -0.07,0.16l0 0.67c0,0.06 0.02,0.11 0.07,0.16 0.08,0.08 0.22,0.08 0.31,0 0.04,-0.05 0.07,-0.1 0.07,-0.16l0 0 0 -0.67 0 0c0,-0.06 -0.03,-0.12 -0.07,-0.16z"/>
   <path class="fil5" d="M11.88 9.33c-0.09,-0.09 -0.23,-0.09 -0.32,0 -0.04,0.04 -0.06,0.1 -0.06,0.16l0 0.67c0,0.06 0.02,0.11 0.06,0.16 0.09,0.08 0.23,0.08 0.32,0 0.04,-0.05 0.07,-0.1 0.07,-0.16l0 -0.67c0,-0.06 -0.03,-0.12 -0.07,-0.16z"/>
   <g>
   </g>
   <g>
   </g>
   <g>
   </g>
   <g>
   </g>
   <g>
   </g>
   <g>
   </g>
   <g>
   </g>
   <g>
   </g>
   <g>
   </g>
   <g>
   </g>
   <g>
   </g>
   <g>
   </g>
   <g>
   </g>
   <g>
   </g>
   <g>
   </g>
  </g>
 </g>
</svg>
