<?xml version="1.0" encoding="UTF-8"?>
<!DOCTYPE svg PUBLIC "-//W3C//DTD SVG 1.1//EN" "http://www.w3.org/Graphics/SVG/1.1/DTD/svg11.dtd">
<!-- Creator: CorelDRAW 2019 (64-Bit) -->
<svg xmlns="http://www.w3.org/2000/svg" xml:space="preserve" width="0.9in" height="0.9in" version="1.1" style="shape-rendering:geometricPrecision; text-rendering:geometricPrecision; image-rendering:optimizeQuality; fill-rule:evenodd; clip-rule:evenodd"
viewBox="0 0 479.62 479.62"
 xmlns:xlink="http://www.w3.org/1999/xlink"
 enable-background="new 0 0 496.389 496.389">
 <defs>
  <style type="text/css">
   <![CDATA[
    .fil0 {fill:#334D5C}
    .fil5 {fill:#62DBFB}
    .fil3 {fill:#99E6FC}
    .fil1 {fill:#FD8087}
    .fil2 {fill:#FE646F}
    .fil4 {fill:#FEF48B}
   ]]>
  </style>
 </defs>
 <g id="Layer_x0020_1">
  <metadata id="CorelCorpID_0Corel-Layer"/>
  <circle class="fil0" cx="239.81" cy="239.81" r="239.81"/>
  <g id="vision.svg">
   <g>
    <path class="fil1" d="M184.69 88.33c-58.88,0 -105.3,50.14 -100.76,108.85l2.09 27c0.11,1.44 -0.24,2.88 -1,4.11l-5.56 8.94c-7.58,12.2 -11.6,26.27 -11.6,40.64 0,2.07 1.68,3.76 3.76,3.76l17.09 0 7.75 45.06c1.32,7.69 7.98,13.33 15.79,13.36l45.56 0.18c7.25,0.03 13.12,5.91 13.12,13.17l0 27.62c0,5.77 4.69,10.43 10.46,10.4l31.85 -0.12 6.42 -4.4 44.51 0 2.14 4.21 0.18 0 -0.05 -94.53 21.05 -69.98c20.72,-68.88 -30.85,-138.25 -102.78,-138.25l0 0z"/>
    <path class="fil2" d="M198.84 382.74l0 -31.96c0,-16.35 -13.22,-29.61 -29.56,-29.68l-29.11 -0.12c-7.81,-0.03 -14.46,-5.66 -15.79,-13.36l-5.94 -34.51c-1.05,-6.1 -6.34,-10.55 -12.52,-10.55l-6.38 0c-2.07,0 -3.76,-1.68 -3.76,-3.76 0,-14.36 4.02,-28.44 11.6,-40.64l5.56 -8.94c0.76,-1.23 1.11,-2.66 1,-4.11l-2.09 -27c-2.43,-31.48 9.79,-60.5 30.73,-80.65 -37.19,17.07 -62.03,56.01 -58.66,99.7l2.09 27c0.11,1.44 -0.24,2.88 -1,4.11l-5.56 8.94c-7.58,12.2 -11.6,26.27 -11.6,40.64 0,2.07 1.68,3.76 3.76,3.76l17.09 0 7.75 45.06c1.32,7.69 7.98,13.33 15.79,13.36l45.56 0.18c7.25,0.03 13.12,5.91 13.12,13.17l0 27.62c0,5.77 4.69,10.43 10.46,10.4l21.93 -0.13c-2.69,-1.88 -4.46,-4.99 -4.46,-8.53l0 0z"/>
    <path class="fil3" d="M400.16 237.11l-5.56 -8.94c-0.76,-1.23 -1.11,-2.67 -1,-4.11l2.09 -27c4.54,-58.71 -41.88,-108.84 -100.76,-108.84 -71.93,0 -123.5,69.37 -102.78,138.25l21.05 69.98 0.03 94.77 0.07 0c0.14,-0.14 7.27,-7.37 7.27,-7.37l41.93 0 3.88 7.41 31.87 0.03c5.77,0.03 10.46,-4.63 10.46,-10.4l0 -27.62c0,-7.25 5.86,-13.14 13.12,-13.17l45.56 -0.18c7.81,-0.03 14.47,-5.66 15.79,-13.36l7.75 -45.06 17.09 -0c2.07,0 3.76,-1.68 3.76,-3.76 0,-14.36 -4.02,-28.44 -11.6,-40.64z"/>
    <path class="fil4" d="M266.37 296.89l21.05 -69.98c14.84,-49.32 -7.48,-99.32 -47.71,-123.49 -40.23,24.17 -62.38,74.17 -47.54,123.49l21.05 69.98 0 94.39 26.57 0.09 26.57 -0.13 0 -94.36 0 0z"/>
    <path class="fil5" d="M141.28 272.54l32.12 -26.92c2.23,-1.87 5.62,-0.28 5.62,2.62l0 13.95 48.49 0c1.94,0 3.52,1.58 3.52,3.52l0 18.9c0,1.94 -1.58,3.52 -3.52,3.52l-48.49 0 0 13.95c0,2.91 -3.39,4.49 -5.62,2.62l-32.12 -26.92c-1.63,-1.37 -1.63,-3.88 0,-5.25z"/>
    <path class="fil2" d="M355.83 175.21l-32.12 -26.92c-2.23,-1.87 -5.62,-0.28 -5.62,2.62l0 13.95 -48.49 0c-1.94,0 -3.52,1.58 -3.52,3.52l0 18.9c0,1.94 1.58,3.52 3.52,3.52l48.49 0 0 13.95c0,2.91 3.39,4.49 5.62,2.62l32.12 -26.92c1.63,-1.37 1.63,-3.88 0,-5.25z"/>
   </g>
  </g>
 </g>
</svg>
