<?xml version="1.0" encoding="UTF-8"?>
<!DOCTYPE svg PUBLIC "-//W3C//DTD SVG 1.1//EN" "http://www.w3.org/Graphics/SVG/1.1/DTD/svg11.dtd">
<!-- Creator: CorelDRAW 2019 (64-Bit) -->
<svg xmlns="http://www.w3.org/2000/svg" xml:space="preserve" width="0.9in" height="0.9in" version="1.1" style="shape-rendering:geometricPrecision; text-rendering:geometricPrecision; image-rendering:optimizeQuality; fill-rule:evenodd; clip-rule:evenodd"
viewBox="0 0 479.62 479.62"
 xmlns:xlink="http://www.w3.org/1999/xlink"
 enable-background="new 0 0 497 497">
 <defs>
  <style type="text/css">
   <![CDATA[
    .fil0 {fill:#334D5C}
    .fil5 {fill:#868EAF}
    .fil4 {fill:#91B2FA}
    .fil3 {fill:#A0C8FF}
    .fil11 {fill:#ABC4D6}
    .fil10 {fill:#BDD3DD}
    .fil7 {fill:#F57FB0}
    .fil2 {fill:#F9EAE0}
    .fil1 {fill:#F9F5F3}
    .fil6 {fill:#FA8EBB}
    .fil9 {fill:#FFBD61}
    .fil8 {fill:#FFCE69}
   ]]>
  </style>
 </defs>
 <g id="Layer_x0020_1">
  <metadata id="CorelCorpID_0Corel-Layer"/>
  <circle class="fil0" cx="239.81" cy="239.81" r="239.81"/>
  <g id="plan.svg">
   <g>
    <path class="fil1" d="M145.96 144.33l0 231.05c0,11.52 9.34,20.86 20.86,20.86l198.15 0c11.52,0 20.86,-9.34 20.86,-20.86l0 -231.05 -239.86 0z"/>
    <path class="fil2" d="M371.34 144.33l0 231.05c0,11.52 -9.34,20.86 -20.86,20.86l14.48 0c11.52,0 20.86,-9.34 20.86,-20.86l0 -231.05 -14.48 0z"/>
    <g>
     <path class="fil3" d="M220.56 326.63l-81.4 -81.4 -29.5 29.5 81.4 81.4c0.52,0.52 1.13,0.91 1.8,1.16 0.56,0.21 1.16,-0.29 1.77,-0.29l4.48 0.6 22.92 -22.92 -2.05 -4.1c0,-1.33 1.51,-3.01 0.57,-3.95z"/>
     <path class="fil4" d="M220.56 326.63l-81.4 -81.4 -7.22 7.23 84.23 84.23c0.69,0.69 1.16,1.56 1.36,2.5l4.5 -4.5 -0.75 -4.4c0,-0.61 0.64,-1.3 0.43,-1.86 -0.25,-0.67 -0.64,-1.28 -1.15,-1.79z"/>
     <g>
      <g>
       <path class="fil5" d="M229.4 369.69c-1.21,0 -2.42,-0.46 -3.34,-1.38l-16.85 -16.85c-1.84,-1.84 -1.84,-4.83 0,-6.68 1.84,-1.84 4.83,-1.84 6.68,0l16.85 16.85c1.84,1.84 1.84,4.83 0,6.68 -0.92,0.92 -2.13,1.38 -3.34,1.38l0 0z"/>
      </g>
     </g>
     <polygon class="fil4" points="122.99,265.25 129.66,258.57 210.58,339.49 203.9,346.17 "/>
     <path class="fil2" d="M222.03 352.56l0 -22.37c0,-0.61 -0.12,-1.2 -0.32,-1.76l-28.85 28.85c0.56,0.21 1.15,0.33 1.76,0.33l22.38 0c2.78,0 5.04,-2.26 5.04,-5.04l0 -0z"/>
     <path class="fil6" d="M111.6 232.42l-14.75 14.75c-4.07,4.07 -4.07,10.68 0,14.75l14.75 14.75 29.5 -29.5 -14.75 -14.75c-4.07,-4.07 -10.67,-4.07 -14.75,0z"/>
     <path class="fil7" d="M111.75 232.28c0.05,0.05 0.1,0.09 0.15,0.14l21.97 21.97 7.23 -7.22 -14.75 -14.75c-4.02,-4.03 -10.52,-4.07 -14.6,-0.14z"/>
    </g>
    <g>
     <g>
      <path class="fil5" d="M349.32 192.39l-166.86 0c-2.61,0 -4.72,-2.11 -4.72,-4.72 0,-2.61 2.11,-4.72 4.72,-4.72l166.86 0c2.61,0 4.72,2.11 4.72,4.72 0,2.61 -2.11,4.72 -4.72,4.72z"/>
     </g>
    </g>
    <g>
     <g>
      <path class="fil5" d="M349.32 223.67l-166.86 0c-2.61,0 -4.72,-2.11 -4.72,-4.72 0,-2.61 2.11,-4.72 4.72,-4.72l166.86 0c2.61,0 4.72,2.11 4.72,4.72 0,2.61 -2.11,4.72 -4.72,4.72l0 0z"/>
     </g>
    </g>
    <g>
     <g>
      <path class="fil5" d="M349.32 254.96l-166.86 0c-2.61,0 -4.72,-2.11 -4.72,-4.72 0,-2.61 2.11,-4.72 4.72,-4.72l166.86 0c2.61,0 4.72,2.11 4.72,4.72 0,2.61 -2.11,4.72 -4.72,4.72l0 0z"/>
     </g>
    </g>
    <g>
     <g>
      <path class="fil5" d="M349.32 286.25l-166.86 0c-2.61,0 -4.72,-2.11 -4.72,-4.72 0,-2.61 2.11,-4.72 4.72,-4.72l166.86 0c2.61,0 4.72,2.11 4.72,4.72 0,2.61 -2.11,4.72 -4.72,4.72z"/>
     </g>
    </g>
    <g>
     <g>
      <path class="fil5" d="M349.32 317.53l-109.5 0c-2.61,0 -4.72,-2.11 -4.72,-4.72 0,-2.61 2.11,-4.72 4.72,-4.72l109.5 0c2.61,0 4.72,2.11 4.72,4.72 0,2.61 -2.11,4.72 -4.72,4.72l0 0z"/>
     </g>
    </g>
    <path class="fil8" d="M364.96 104.24l-198.15 0c-11.52,0 -20.86,9.34 -20.86,20.86l0 31.29 239.86 0 0 -31.29c0,-11.52 -9.34,-20.86 -20.86,-20.86z"/>
    <path class="fil9" d="M364.96 104.24l-14.48 0c11.52,0 20.86,9.34 20.86,20.86l0 31.29 14.48 0 0 -31.29c0,-11.52 -9.34,-20.86 -20.86,-20.86z"/>
    <g>
     <path class="fil10" d="M177.24 114.66c0,5.76 4.67,10.43 10.43,10.43 5.76,0 10.43,-4.67 10.43,-10.43l0 -20.86c0,-5.76 -4.67,-10.43 -10.43,-10.43 -5.76,0 -10.43,4.67 -10.43,10.43l0 20.86z"/>
     <path class="fil10" d="M333.67 114.66c0,5.76 4.67,10.43 10.43,10.43 5.76,0 10.43,-4.67 10.43,-10.43l0 -20.86c0,-5.76 -4.67,-10.43 -10.43,-10.43 -5.76,0 -10.43,4.67 -10.43,10.43l0 20.86z"/>
     <path class="fil10" d="M229.39 114.66c0,5.76 4.67,10.43 10.43,10.43 5.76,0 10.43,-4.67 10.43,-10.43l0 -20.86c0,-5.76 -4.67,-10.43 -10.43,-10.43 -5.76,0 -10.43,4.67 -10.43,10.43l0 20.86z"/>
     <path class="fil10" d="M281.53 114.66c0,5.76 4.67,10.43 10.43,10.43 5.76,0 10.43,-4.67 10.43,-10.43l0 -20.86c0,-5.76 -4.67,-10.43 -10.43,-10.43 -5.76,0 -10.43,4.67 -10.43,10.43l0 20.86z"/>
    </g>
    <path class="fil11" d="M344.1 83.38c-2.81,0 -5.36,1.12 -7.24,2.93 1.96,1.9 3.19,4.55 3.19,7.5l0 20.86c0,2.95 -1.23,5.6 -3.19,7.5 1.88,1.81 4.42,2.93 7.24,2.93 5.76,0 10.43,-4.67 10.43,-10.43l0 -20.86c0,-5.76 -4.67,-10.43 -10.43,-10.43l0 0z"/>
    <path class="fil11" d="M291.96 83.38c-2.81,0 -5.36,1.12 -7.24,2.93 1.96,1.9 3.19,4.55 3.19,7.5l0 20.86c0,2.95 -1.23,5.6 -3.19,7.5 1.88,1.81 4.42,2.93 7.24,2.93 5.76,0 10.43,-4.67 10.43,-10.43l0 -20.86c0,-5.76 -4.67,-10.43 -10.43,-10.43l0 0z"/>
    <path class="fil11" d="M239.82 83.38c-2.81,0 -5.36,1.12 -7.24,2.93 1.96,1.9 3.19,4.55 3.19,7.5l0 20.86c0,2.95 -1.23,5.6 -3.19,7.5 1.88,1.81 4.43,2.93 7.24,2.93 5.76,0 10.43,-4.67 10.43,-10.43l0 -20.86c0,-5.76 -4.67,-10.43 -10.43,-10.43l0 0z"/>
    <path class="fil11" d="M187.67 83.38c-2.81,0 -5.36,1.12 -7.24,2.93 1.96,1.9 3.19,4.55 3.19,7.5l0 20.86c0,2.95 -1.23,5.6 -3.19,7.5 1.88,1.81 4.43,2.93 7.24,2.93 5.76,0 10.43,-4.67 10.43,-10.43l0 -20.86c0,-5.76 -4.67,-10.43 -10.43,-10.43l0 0z"/>
   </g>
  </g>
 </g>
</svg>
