<?xml version="1.0" encoding="UTF-8"?>
<!DOCTYPE svg PUBLIC "-//W3C//DTD SVG 1.1//EN" "http://www.w3.org/Graphics/SVG/1.1/DTD/svg11.dtd">
<!-- Creator: CorelDRAW 2019 (64-Bit) -->
<svg xmlns="http://www.w3.org/2000/svg" xml:space="preserve" width="0.9in" height="0.9in" version="1.1" style="shape-rendering:geometricPrecision; text-rendering:geometricPrecision; image-rendering:optimizeQuality; fill-rule:evenodd; clip-rule:evenodd"
viewBox="0 0 479.62 479.62"
 xmlns:xlink="http://www.w3.org/1999/xlink"
 enable-background="new 0 0 36 36">
 <defs>
  <style type="text/css">
   <![CDATA[
    .fil7 {fill:black}
    .fil5 {fill:#00B871}
    .fil4 {fill:#2FDF84}
    .fil0 {fill:#334D5C}
    .fil2 {fill:#A4AFC1}
    .fil6 {fill:#D5DBE1}
    .fil1 {fill:#EFEFEF}
    .fil3 {fill:#F3F3F1}
   ]]>
  </style>
 </defs>
 <g id="Layer_x0020_1">
  <metadata id="CorelCorpID_0Corel-Layer"/>
  <circle class="fil0" cx="239.81" cy="239.81" r="239.81"/>
  <g id="mission.svg">
   <g>
    <path class="fil1" d="M87.17 133.63c0,76.32 -39.54,128.74 -39.54,165.51 0,36.78 21.14,114.02 190.33,114.02 169.19,0 194.02,-103.91 194.02,-144.36 0.01,-189.43 -344.81,-270.34 -344.81,-135.17z"/>
   </g>
   <g>
    <polygon class="fil2" points="147.4,77.05 158.43,77.05 158.43,99.12 147.4,99.12 "/>
   </g>
   <g>
    <polygon class="fil2" points="108.78,110.15 130.84,110.15 130.84,121.19 108.78,121.19 "/>
   </g>
   <g>
    <polygon class="fil2" points="172.22,110.15 194.29,110.15 194.29,121.19 172.22,121.19 "/>
   </g>
   <g>
    <circle class="fil3" cx="239.81" cy="206.71" r="46.9"/>
   </g>
   <g>
    <path class="fil4" d="M352.91 159.81l-113.1 0c25.9,0 46.9,21 46.9,46.9 0,25.9 -21,46.9 -46.9,46.9 -25.9,0 -46.9,-21 -46.9,-46.9 0,-25.9 21,-46.9 46.9,-46.9l-111.72 0c-6.09,0 -11.03,4.94 -11.03,11.03l0 137.93c0,6.09 4.94,11.03 11.03,11.03l224.83 0c6.09,0 11.03,-4.94 11.03,-11.03l0 -137.93c0,-6.09 -4.94,-11.03 -11.03,-11.03z"/>
   </g>
   <g>
    <polygon class="fil3" points="303.26,170.84 275.67,170.84 275.67,143.26 303.26,115.67 303.26,143.26 330.84,143.26 "/>
   </g>
   <g>
    <path class="fil5" d="M141.88 308.77l0 -137.93c0,-6.09 4.94,-11.03 11.03,-11.03l-24.83 0c-6.09,0 -11.03,4.94 -11.03,11.03l0 137.93c0,6.09 4.94,11.03 11.03,11.03l24.83 0c-6.09,0 -11.03,-4.94 -11.03,-11.03z"/>
   </g>
   <g>
    <path class="fil6" d="M216.36 206.71c0,-21.83 14.98,-40.01 35.17,-45.24 -3.76,-0.97 -7.65,-1.66 -11.72,-1.66 -25.9,0 -46.9,21 -46.9,46.9 0,25.9 21,46.9 46.9,46.9 4.07,0 7.96,-0.68 11.72,-1.65 -20.18,-5.23 -35.17,-23.42 -35.17,-45.24l0 0z"/>
   </g>
   <g>
    <polygon class="fil6" points="303.26,139.12 303.26,115.67 275.67,143.26 275.67,170.84 299.12,170.84 299.12,143.26 "/>
   </g>
   <g>
    <path class="fil7" d="M239.81 261.88c-30.42,0 -55.17,-24.75 -55.17,-55.17 0,-30.42 24.75,-55.17 55.17,-55.17l0 16.55c-21.3,0 -38.62,17.32 -38.62,38.62 0,21.3 17.33,38.62 38.62,38.62 21.3,0 38.62,-17.32 38.62,-38.62l16.55 0c0,30.42 -24.75,55.17 -55.17,55.17z"/>
   </g>
   <g>
    <polygon class="fil7" points="233.92,200.86 267.02,167.76 278.72,179.46 245.62,212.56 "/>
   </g>
   <g>
    <path class="fil7" d="M303.26 179.12l-27.59 0c-4.57,0 -8.28,-3.71 -8.28,-8.28l0 -27.59c0,-2.19 0.87,-4.3 2.43,-5.85l27.59 -27.59c2.37,-2.36 5.94,-3.08 9.02,-1.8 3.09,1.28 5.11,4.3 5.11,7.65l0 19.31 19.31 0c3.34,0 6.37,2.02 7.65,5.11 1.28,3.09 0.57,6.65 -1.8,9.02l-27.59 27.59c-1.54,1.56 -3.65,2.43 -5.85,2.43l0 0zm-19.31 -16.55l15.88 0 11.03 -11.03 -7.6 0c-4.57,0 -8.27,-3.71 -8.27,-8.28l0 -7.6 -11.04 11.04 0 15.88z"/>
   </g>
   <g>
    <path class="fil7" d="M352.91 328.09l-226.21 0c-10.65,0 -19.31,-8.66 -19.31,-19.31l0 -137.93c0,-10.65 8.66,-19.31 19.31,-19.31l46.9 0 0 16.55 -46.9 0c-1.52,0 -2.76,1.24 -2.76,2.76l0 137.93c0,1.52 1.24,2.76 2.76,2.76l226.21 0c1.52,0 2.76,-1.24 2.76,-2.76l0 -137.93c0,-1.52 -1.24,-2.76 -2.76,-2.76l-8.28 0 0 -16.55 8.28 0c10.65,0 19.31,8.66 19.31,19.31l0 137.93c0,10.65 -8.66,19.31 -19.31,19.31z"/>
   </g>
   <g>
    <polygon class="fil7" points="184.64,355.67 294.98,355.67 294.98,372.22 184.64,372.22 "/>
   </g>
   <g>
    <polygon class="fil7" points="231.53,319.81 248.08,319.81 248.08,363.95 231.53,363.95 "/>
   </g>
   <g>
    <polygon class="fil7" points="63.26,355.67 416.36,355.67 416.36,372.22 63.26,372.22 "/>
   </g>
  </g>
 </g>
</svg>
