<?xml version="1.0" encoding="UTF-8"?>
<!DOCTYPE svg PUBLIC "-//W3C//DTD SVG 1.1//EN" "http://www.w3.org/Graphics/SVG/1.1/DTD/svg11.dtd">
<!-- Creator: CorelDRAW 2019 (64-Bit) -->
<svg xmlns="http://www.w3.org/2000/svg" xml:space="preserve" width="550px" height="350px" version="1.1" style="shape-rendering:geometricPrecision; text-rendering:geometricPrecision; image-rendering:optimizeQuality; fill-rule:evenodd; clip-rule:evenodd"
viewBox="0 0 303.25 192.98"
 xmlns:xlink="http://www.w3.org/1999/xlink"
 enable-background="new 0 0 510.387 510.387">
 <defs>
  <style type="text/css">
   <![CDATA[
    .fil0 {fill:none}
    .fil5 {fill:#D5CDCA}
    .fil4 {fill:#E1DDDB}
    .fil3 {fill:#F7F4F3}
    .fil2 {fill:#FF7D39}
    .fil1 {fill:#FFB242}
    .fil6 {fill:#FFD930}
   ]]>
  </style>
 </defs>
 <g id="Layer_x0020_1">
  <metadata id="CorelCorpID_0Corel-Layer"/>
  <rect class="fil0" width="303.25" height="192.98"/>
 </g>
 <g id="Layer_x0020_1_0">
  <metadata id="CorelCorpID_1Corel-Layer"/>
  <g id="heating.svg">
   <g id="XMLID_1977_">
    <polygon id="XMLID_2048_" class="fil1" points="198.16,17.27 193.5,17.27 193.5,27.06 195.99,27.52 198.16,26.59 201.27,22.01 "/>
    <polygon id="XMLID_2045_" class="fil2" points="198.16,17.27 198.16,26.59 198.16,26.59 200.62,27.2 202.82,27.06 202.82,17.27 "/>
    <path id="XMLID_2042_" class="fil3" d="M114.29 35.91l0 80.41c-8.46,5.89 -13.99,15.68 -13.99,26.77 0,18.01 14.61,32.62 32.62,32.62l4.66 -69.9 -4.66 -88.54c-10.29,0 -18.63,8.35 -18.63,18.64l0 0z"/>
    <path id="XMLID_2039_" class="fil4" d="M151.56 116.32l0 -80.41c0,-10.29 -8.34,-18.64 -18.64,-18.64l0 0c0,0 0,0 0,0l0 158.44c18.02,0 32.62,-14.61 32.62,-32.62 0,-11.08 -5.53,-20.88 -13.98,-26.77l0 0z"/>
    <path id="XMLID_2036_" class="fil4" d="M128.26 63.87l0 66.04c-5.42,1.92 -9.31,7.1 -9.31,13.18 0,7.71 6.27,13.98 13.97,13.98l3.11 -41.94 -3.11 -51.26 -4.66 0z"/>
    <path id="XMLID_2033_" class="fil5" d="M137.58 129.91l0 -66.04 -4.66 0 0 93.2 0 0c7.71,0 13.98,-6.27 13.98,-13.98 0,-6.08 -3.89,-11.26 -9.32,-13.18z"/>
    <g id="XMLID_2028_">
     <g>
      <polygon id="XMLID_320_" class="fil4" points="72.35,31.25 100.31,31.25 100.31,40.57 72.35,40.57 "/>
     </g>
    </g>
    <g id="XMLID_2023_">
     <g>
      <polygon id="XMLID_316_" class="fil4" points="72.35,50.2 90.99,50.2 90.99,59.52 72.35,59.52 "/>
     </g>
    </g>
    <g id="XMLID_2018_">
     <g>
      <polygon id="XMLID_314_" class="fil4" points="72.35,68.53 100.31,68.53 100.31,77.85 72.35,77.85 "/>
     </g>
    </g>
    <g id="XMLID_2013_">
     <g>
      <polygon id="XMLID_312_" class="fil4" points="72.35,87.17 90.99,87.17 90.99,96.49 72.35,96.49 "/>
     </g>
    </g>
    <g id="XMLID_2008_">
     <g>
      <polygon id="XMLID_281_" class="fil4" points="72.35,105.81 100.31,105.81 100.31,115.13 72.35,115.13 "/>
     </g>
    </g>
    <polygon id="XMLID_2005_" class="fil1" points="178.61,62.53 171.6,69.39 178.13,76.05 185.12,69.19 "/>
    <polygon id="XMLID_2002_" class="fil2" points="218.2,23.73 211.2,30.59 217.72,37.25 224.72,30.39 "/>
    <polygon id="XMLID_1999_" class="fil1" points="165.55,45.23 175.33,45.23 175.33,54.55 165.55,54.55 "/>
    <polygon id="XMLID_1996_" class="fil2" points="230.65,45.23 221.04,45.49 220.93,54.82 230.9,54.55 "/>
    <polygon id="XMLID_1993_" class="fil1" points="179.21,22.94 172.42,29.32 179.14,36.46 185.92,30.08 "/>
    <polygon id="XMLID_1990_" class="fil2" points="217.19,63.32 210.4,69.7 217.12,76.84 223.91,70.46 "/>
    <polygon id="XMLID_1987_" class="fil1" points="193.5,72.72 193.5,82.51 198.16,82.51 201.27,77.62 198.16,73.19 195.44,69.81 "/>
    <polygon id="XMLID_1984_" class="fil2" points="198.16,73.19 198.16,73.19 198.16,82.51 202.82,82.51 202.82,72.72 200.45,69.85 "/>
    <path id="XMLID_1981_" class="fil6" d="M174.86 49.89c0,12.85 10.45,23.3 23.3,23.3l3.11 -24.85 -3.11 -21.75c-12.85,0 -23.3,10.45 -23.3,23.3z"/>
    <path id="XMLID_1978_" class="fil1" d="M198.16 26.59c0,0 0,0 0,0l0 46.6 0 0c12.85,0 23.3,-10.45 23.3,-23.3 0,-12.85 -10.45,-23.3 -23.3,-23.3l0 0z"/>
   </g>
  </g>
 </g>
</svg>
