<?xml version="1.0" encoding="UTF-8"?>
<!DOCTYPE svg PUBLIC "-//W3C//DTD SVG 1.1//EN" "http://www.w3.org/Graphics/SVG/1.1/DTD/svg11.dtd">
<!-- Creator: CorelDRAW 2019 (64-Bit) -->
<svg xmlns="http://www.w3.org/2000/svg" xml:space="preserve" width="404px" height="256px" version="1.1" style="shape-rendering:geometricPrecision; text-rendering:geometricPrecision; image-rendering:optimizeQuality; fill-rule:evenodd; clip-rule:evenodd"
viewBox="0 0 92.11 58.37"
 xmlns:xlink="http://www.w3.org/1999/xlink">
 <defs>
  <style type="text/css">
   <![CDATA[
    .fil0 {fill:none}
    .fil1 {fill:#9D9E9E}
    .fil2 {fill:#00A0E3}
   ]]>
  </style>
 </defs>
 <g id="Layer_x0020_1">
  <metadata id="CorelCorpID_0Corel-Layer"/>
  <rect class="fil0" width="92.11" height="58.37"/>
  <g id="_1954706674432">
   <path class="fil1" d="M63.64 39.93l1.96 0 0 3.91 -1.96 0 0 -3.91zm-14.65 0l1.95 0 0 3.91 -1.95 0 0 -3.91zm-13.68 0l1.95 0 0 3.91 -1.95 0 0 -3.91zm-11.73 0l1.95 0 0 3.91 -1.95 0 0 -3.91zm43.97 -6.84l1.95 0 0 4.89 -1.95 0 0 -4.89zm-3.91 0l1.96 0 0 4.89 -1.96 0 0 -4.89zm-3.91 0l1.96 0 0 4.89 -1.96 0 0 -4.89zm-7.81 0l1.95 0 0 4.89 -1.95 0 0 -4.89zm-5.87 0l1.96 0 0 4.89 -1.96 0 0 -4.89zm-7.81 0l1.95 0 0 4.89 -1.95 0 0 -4.89zm-5.87 0l1.96 0 0 4.89 -1.96 0 0 -4.89zm35.18 -6.84l1.95 0 0 4.89 -1.95 0 0 -4.89zm-3.91 0l1.96 0 0 4.89 -1.96 0 0 -4.89zm-3.91 0l1.96 0 0 4.89 -1.96 0 0 -4.89zm-7.81 0l1.95 0 0 4.89 -1.95 0 0 -4.89zm-5.87 0l1.96 0 0 4.89 -1.96 0 0 -4.89zm21.5 -6.84l1.95 0 0 4.89 -1.95 0 0 -4.89zm-3.91 0l1.96 0 0 4.89 -1.96 0 0 -4.89zm-3.91 0l1.96 0 0 4.89 -1.96 0 0 -4.89zm-7.81 0l1.95 0 0 4.89 -1.95 0 0 -4.89zm15.63 -6.84l1.95 0 0 4.89 -1.95 0 0 -4.89zm-3.91 0l1.96 0 0 4.89 -1.96 0 0 -4.89zm-3.91 0l1.96 0 0 4.89 -1.96 0 0 -4.89zm-1.95 31.27l-1.95 0 0 -27.36c-5.81,0 -3.78,-0.81 -8.16,3.57 -0.47,0.47 -3.57,3.38 -3.57,3.76l0 20.03 -1.95 0 0 -12.09c0,-0.41 -2.52,-2.36 -2.84,-2.66l-1.47 -1.22c-1.86,-1.66 -1.4,-1.48 -2.33,-0.68l-4.41 3.77c-0.26,0.2 -0.68,0.42 -0.68,0.79l0 12.09 -1.95 0 0 -6.11c0,-0.45 -3.56,-2.38 -3.91,-2.56 -0.63,0.42 -1.31,0.79 -1.98,1.2l-1.54 0.9c-0.25,0.16 -0.39,0.1 -0.39,0.46l0 6.11 -3.91 0 0 1.95 7.33 0c0.32,0 0.71,0.6 1.05,1.03 0.87,1.12 2.01,2.22 3.07,3.16 0.2,0.17 0.34,0.27 0.54,0.44 0.39,0.32 0.14,0.26 0.83,0.27l6.36 -0.01c-1.4,-2.09 -1.68,-2.74 -2.81,-4.89l2.2 0c0.27,1.16 2.66,4.36 2.81,4.89l15.87 0c0.13,-0.49 1.15,-1.81 1.46,-2.33 0.34,-0.56 1.22,-1.99 1.35,-2.56l2.2 0c-1.14,2.15 -1.4,2.79 -2.81,4.89l6.24 0.01c0.53,0 0.48,0.06 0.82,-0.16l2.73 -2.52c0.35,-0.44 0.65,-0.71 0.96,-1.12 0.32,-0.41 0.79,-1.1 1.1,-1.1l7.33 0 0 -1.95 -3.91 0 0 -34.2 -13.68 0 0 34.2z"/>
   <path class="fil2" d="M46.42 7.69l0 0.24c0.47,0.13 1.59,0.89 1.59,1.47 0,0.46 -1.1,1.53 -1.63,2.16l-2.43 2.69c-1.26,1.27 -3,3.39 -4.28,4.77 -1.54,1.66 -1.45,1.29 -2.97,0.1l-2.79 -2.34c-0.4,-0.32 -1.11,-1.04 -1.54,-1.15l-10.53 9.74c-0.33,0.29 -0.6,0.59 -0.92,0.91 -0.38,0.39 -0.61,0.51 -0.97,0.86 -1.66,1.52 -1.25,1.02 -1.25,4.36 0.62,-0.16 1.19,-1.06 1.68,-1.49 0.34,-0.3 0.51,-0.39 0.85,-0.73l1.71 -1.59c1.8,-1.78 4.23,-3.87 5.86,-5.5 0.6,-0.6 3.06,-3.02 3.57,-3.02 0.67,0 4.82,3.9 5.75,4.52 0.57,-0.39 3.62,-3.94 4.36,-4.68l2.2 -2.31c0.29,-0.32 0.35,-0.48 0.67,-0.8 0.72,-0.73 4.02,-4.55 4.61,-4.55 0.61,0 1.54,1.05 2.2,1.22 0,-1.22 0.37,-3.68 0.48,-5.02 0.06,-0.68 0.13,-1.03 0.13,-1.7l-6.35 1.84z"/>
   <path class="fil2" d="M44.1 56.54l3.91 0c0.59,0 0.84,-0.43 1.22,-0.73 0.71,-0.55 2.62,-2.53 3.05,-3.18l-12.46 0c0.44,0.65 3.36,3.91 4.28,3.91z"/>
   <polygon class="fil2" points="63.64,5.73 59.73,5.73 59.73,7.69 69.5,7.69 69.5,5.73 65.6,5.73 65.6,1.82 63.64,1.82 "/>
   <path class="fil2" d="M40.19 55.93c-0.2,-0.3 -0.43,-0.49 -0.7,-0.76l-2.11 -2.54 -5.37 0 0.81 0.53c1.12,0.56 1.7,0.93 2.97,1.43 1.01,0.4 3.35,1.25 4.4,1.34z"/>
   <path class="fil2" d="M51.92 55.93c1.54,-0.13 6.84,-2.13 8.18,-3.3l-5.37 0c-0.54,0.8 -0.85,1.06 -1.37,1.7 -0.45,0.56 -1.11,1.1 -1.44,1.6z"/>
  </g>
 </g>
</svg>
