<?xml version="1.0" encoding="UTF-8"?>
<!DOCTYPE svg PUBLIC "-//W3C//DTD SVG 1.1//EN" "http://www.w3.org/Graphics/SVG/1.1/DTD/svg11.dtd">
<!-- Creator: CorelDRAW 2019 (64-Bit) -->
<svg xmlns="http://www.w3.org/2000/svg" xml:space="preserve" width="300px" height="180px" version="1.1" style="shape-rendering:geometricPrecision; text-rendering:geometricPrecision; image-rendering:optimizeQuality; fill-rule:evenodd; clip-rule:evenodd"
viewBox="0 0 22.15 13.29"
 xmlns:xlink="http://www.w3.org/1999/xlink">
 <defs>
  <style type="text/css">
   <![CDATA[
    .fil0 {fill:none}
    .fil6 {fill:#0043A3}
    .fil5 {fill:#006EF5}
    .fil9 {fill:#009CA0}
    .fil8 {fill:#00D4D1}
    .fil2 {fill:#FF6900}
    .fil1 {fill:#FFA700}
    .fil4 {fill:#FFEE93}
    .fil7 {fill:#FFF4AA}
    .fil3 {fill:white}
   ]]>
  </style>
 </defs>
 <g id="Layer_x0020_1">
  <metadata id="CorelCorpID_0Corel-Layer"/>
  <rect class="fil0" width="22.15" height="13.29"/>
  <g id="keyboard.svg">
   <circle class="fil1" cx="11.07" cy="6.64" r="5.98"/>
   <path class="fil2" d="M17.06 6.64c0,-0.05 0,-0.11 -0.01,-0.17l-5.8 -5.8 0 0c-0.02,-0.01 -0.04,-0.01 -0.05,-0.01 -0.04,0 -0.08,0 -0.13,0 -0.04,0 -0.08,0 -0.12,0 -0.02,0 -0.03,0 -0.05,0.01l0 0 0 1.06c0,0.08 -0.08,0.16 -0.16,0.16l-0.8 0c-0.29,0 -0.52,0.23 -0.52,0.51l0 0.01c0,0.13 0.05,0.25 0.12,0.34l1.36 1.35 0 0.69 -0.96 0 0 0.57 -2.82 0c-0.24,0 -0.43,0.19 -0.43,0.42l0 3.36c0,0.11 0.05,0.21 0.12,0.29l3.05 3.07c0.39,0.08 0.8,0.13 1.21,0.13 3.31,0 5.99,-2.68 5.99,-5.99z"/>
   <path class="fil3" d="M10.74 1.89l-0.8 0c-0.29,0 -0.52,0.23 -0.52,0.51l0 0.01c0,0.29 0.23,0.52 0.52,0.52l2.46 0c0.09,0 0.16,0.07 0.16,0.16 0,0.09 -0.07,0.16 -0.16,0.16l-0.99 0c-0.28,0 -0.51,0.24 -0.51,0.52l0 1.06 0.35 0 0 -1.06c0,-0.09 0.07,-0.16 0.16,-0.16l0.99 0c0.29,0 0.52,-0.23 0.52,-0.52 0,-0.28 -0.23,-0.51 -0.52,-0.51l-2.46 0c-0.09,0 -0.17,-0.08 -0.17,-0.17l0 -0.01c0,-0.09 0.08,-0.16 0.17,-0.16l0.8 0c0.28,0 0.51,-0.23 0.51,-0.51l0 -1.06c-0.06,-0.01 -0.12,-0.01 -0.18,-0.01 -0.06,0 -0.11,0 -0.17,0.01l0 1.06c0,0.08 -0.08,0.16 -0.16,0.16z"/>
   <g>
    <path class="fil4" d="M11.07 2.12l0 -1.46c0.06,0 0.12,0 0.18,0.01l0 1.06c0,0.15 -0.07,0.29 -0.18,0.39z"/>
    <path class="fil4" d="M12.92 3.09c0,0.29 -0.23,0.52 -0.52,0.52l-0.99 0c-0.09,0 -0.16,0.07 -0.16,0.16l0 1.06 -0.18 0 0 -1.45c0.1,-0.08 0.21,-0.13 0.34,-0.13l0.99 0c0.09,0 0.16,-0.07 0.16,-0.16 0,-0.09 -0.07,-0.16 -0.16,-0.16l-1.33 0 0 -0.35 1.33 0c0.29,0 0.52,0.23 0.52,0.51z"/>
   </g>
   <rect class="fil5" x="9.94" y="4.79" width="2.28" height="0.64"/>
   <rect class="fil6" x="11.07" y="4.79" width="1.14" height="0.64"/>
   <path class="fil3" d="M15.03 9.57l-7.91 0c-0.24,0 -0.43,-0.2 -0.43,-0.43l0 -3.36c0,-0.23 0.19,-0.42 0.43,-0.42l7.91 0c0.23,0 0.43,0.19 0.43,0.42l0 3.36c0,0.23 -0.2,0.43 -0.43,0.43z"/>
   <path class="fil7" d="M15.46 5.78l0 3.36c0,0.23 -0.2,0.43 -0.43,0.43l-3.96 0 0 -4.21 3.96 0c0.23,0 0.43,0.19 0.43,0.42z"/>
   <g>
    <rect class="fil8" x="7.28" y="5.95" width="0.76" height="0.76"/>
    <rect class="fil8" x="8.42" y="5.95" width="0.76" height="0.76"/>
    <rect class="fil8" x="9.55" y="5.95" width="0.76" height="0.76"/>
    <rect class="fil8" x="10.69" y="5.95" width="0.76" height="0.76"/>
   </g>
   <g>
    <rect class="fil9" x="11.83" y="5.95" width="0.76" height="0.76"/>
    <rect class="fil9" x="12.97" y="5.95" width="0.76" height="0.76"/>
    <rect class="fil9" x="14.11" y="5.95" width="0.76" height="0.76"/>
   </g>
   <g>
    <rect class="fil8" x="7.28" y="8.14" width="0.76" height="0.76"/>
    <rect class="fil8" x="8.42" y="8.14" width="0.76" height="0.76"/>
    <rect class="fil8" x="9.55" y="8.14" width="3.04" height="0.76"/>
   </g>
   <g>
    <rect class="fil9" x="12.97" y="8.14" width="0.76" height="0.76"/>
    <rect class="fil9" x="14.11" y="8.14" width="0.76" height="0.76"/>
   </g>
   <g>
    <rect class="fil8" x="7.85" y="7.05" width="0.76" height="0.76"/>
    <rect class="fil8" x="8.98" y="7.05" width="0.76" height="0.76"/>
    <rect class="fil8" x="10.12" y="7.05" width="0.76" height="0.76"/>
   </g>
   <g>
    <rect class="fil9" x="11.26" y="7.05" width="0.76" height="0.76"/>
    <rect class="fil9" x="12.4" y="7.05" width="0.76" height="0.76"/>
    <rect class="fil9" x="13.54" y="7.05" width="0.76" height="0.76"/>
    <rect class="fil9" x="11.07" y="5.95" width="0.38" height="0.76"/>
    <rect class="fil9" x="11.07" y="8.14" width="1.52" height="0.76"/>
   </g>
   <g>
   </g>
   <g>
   </g>
   <g>
   </g>
   <g>
   </g>
   <g>
   </g>
   <g>
   </g>
   <g>
   </g>
   <g>
   </g>
   <g>
   </g>
   <g>
   </g>
   <g>
   </g>
   <g>
   </g>
   <g>
   </g>
   <g>
   </g>
   <g>
   </g>
  </g>
 </g>
</svg>
