<?xml version="1.0" encoding="UTF-8"?>
<!DOCTYPE svg PUBLIC "-//W3C//DTD SVG 1.1//EN" "http://www.w3.org/Graphics/SVG/1.1/DTD/svg11.dtd">
<!-- Creator: CorelDRAW 2019 (64-Bit) -->
<svg xmlns="http://www.w3.org/2000/svg" xml:space="preserve" width="550px" height="350px" version="1.1" style="shape-rendering:geometricPrecision; text-rendering:geometricPrecision; image-rendering:optimizeQuality; fill-rule:evenodd; clip-rule:evenodd"
viewBox="0 0 312.65 198.96"
 xmlns:xlink="http://www.w3.org/1999/xlink"
 enable-background="new 0 0 512 512">
 <defs>
  <style type="text/css">
   <![CDATA[
    .fil0 {fill:none}
    .fil4 {fill:black}
    .fil2 {fill:#98A1B3}
    .fil1 {fill:#F9F9F9}
    .fil3 {fill:#FFBF9E}
   ]]>
  </style>
 </defs>
 <g id="Layer_x0020_1">
  <metadata id="CorelCorpID_0Corel-Layer"/>
  <rect class="fil0" width="312.65" height="198.96"/>
 </g>
 <g id="Layer_x0020_1_0">
  <metadata id="CorelCorpID_1Corel-Layer"/>
  <g id="keyborad.svg">
   <g id="XMLID_1190_">
    <path id="XMLID_2518_" class="fil1" d="M236.04 49.4l-159.42 0c-3.9,0 -7.06,3.16 -7.06,7.05l0 66.31c0,3.89 3.16,7.05 7.06,7.05l159.42 0c3.89,0 7.05,-3.16 7.05,-7.05l0 -66.31c0,-3.89 -3.16,-7.05 -7.05,-7.05l0 0z"/>
    <g id="XMLID_3077_">
     <g id="XMLID_2588_">
      <polygon id="XMLID_2597_" class="fil2" points="147.86,66.33 164.79,66.33 164.79,81.85 147.86,81.85 "/>
      <polygon id="XMLID_2596_" class="fil2" points="178.9,66.33 195.83,66.33 195.83,81.85 178.9,81.85 "/>
      <polygon id="XMLID_2595_" class="fil2" points="209.94,66.33 226.87,66.33 226.87,81.85 209.94,81.85 "/>
      <polygon id="XMLID_2594_" class="fil2" points="126.12,97.36 147.86,97.36 147.86,112.88 126.12,112.88 "/>
      <polygon id="XMLID_2593_" class="fil2" points="164.79,97.36 186.53,97.36 186.53,112.88 164.79,112.88 "/>
      <polygon id="XMLID_2592_" class="fil2" points="133.75,81.85 116.82,81.85 116.82,66.33 133.75,66.33 "/>
      <polygon id="XMLID_2591_" class="fil2" points="102.72,81.85 85.79,81.85 85.79,66.33 102.72,66.33 "/>
     </g>
    </g>
    <path id="XMLID_32_" class="fil3" d="M236.07 110c-3.91,0 -7.07,3.16 -7.07,7.07l0 -16.05c0,-3.9 -3.17,-7.07 -7.07,-7.07 -3.91,0 -7.08,3.17 -7.08,7.07l0 -12.1c0,-3.91 -3.16,-7.07 -7.07,-7.07 -3.9,0 -7.07,3.16 -7.07,7.07l0 12.1c0,-3.9 -3.16,-7.07 -7.07,-7.07 -3.9,0 -7.07,3.17 -7.07,7.07l0 53.93 -3.96 -16.18c-0.91,-3.69 -4.53,-6.05 -8.28,-5.39 -3.98,0.7 -6.61,4.54 -5.83,8.51l4.24 21.5c0.98,4.99 3.42,9.57 7,13.17l9.63 9.69 38.64 0 7.64 -7.69c4.8,-4.82 7.48,-11.34 7.48,-18.13l0 -43.36c0.01,-3.91 -3.16,-7.07 -7.07,-7.07l0.01 0z"/>
    <path id="XMLID_33_" class="fil3" d="M138.41 133.38c-3.75,-0.66 -7.37,1.7 -8.28,5.39l-3.96 16.18 0 -53.93c0,-3.9 -3.17,-7.07 -7.07,-7.07 -3.91,0 -7.07,3.17 -7.07,7.07l0 -12.1c0,-3.91 -3.17,-7.07 -7.07,-7.07 -3.91,0 -7.07,3.16 -7.07,7.07l0 12.1c0,-3.9 -3.17,-7.07 -7.07,-7.07 -3.91,0 -7.07,3.17 -7.07,7.07l0 16.05c0,-3.91 -3.17,-7.07 -7.07,-7.07 -3.91,0 -7.07,3.16 -7.07,7.07l0 43.36c0,6.79 2.69,13.31 7.48,18.13l7.64 7.69 38.64 0 9.63 -9.69c3.58,-3.6 6.02,-8.18 7,-13.17l4.24 -21.5c0.78,-3.97 -1.85,-7.81 -5.83,-8.51l0 0z"/>
    <g id="XMLID_29_">
     <path id="XMLID_73_" class="fil4" d="M236.04 45.87l-24.34 0c-1.95,0 -3.53,1.58 -3.53,3.53 0,1.95 1.58,3.52 3.53,3.52l24.34 0c1.94,0 3.52,1.59 3.52,3.53l0 50.63c-1.1,-0.39 -2.3,-0.61 -3.54,-0.61 -1.24,0 -2.43,0.22 -3.54,0.61l0 -6.06c0,-5.84 -4.76,-10.6 -10.6,-10.6 -1.24,0 -2.43,0.22 -3.54,0.61l0 -2.11c0,-1.25 -0.22,-2.44 -0.61,-3.55l9.14 0c1.94,0 3.52,-1.58 3.52,-3.52l0 -15.52c0,-1.95 -1.58,-3.53 -3.52,-3.53l-16.93 0c-1.95,0 -3.53,1.58 -3.53,3.53l0 12.08c-2.9,0.36 -5.44,1.9 -7.12,4.12 0.04,-0.22 0.07,-0.45 0.07,-0.68l0 -15.52c0,-1.95 -1.58,-3.53 -3.53,-3.53l-16.93 0c-1.95,0 -3.53,1.58 -3.53,3.53l0 15.52c0,1.94 1.58,3.52 3.53,3.52l16.93 0c0.86,0 1.64,-0.3 2.26,-0.81 -0.61,1.33 -0.95,2.8 -0.95,4.36l0 2.11c-1.11,-0.39 -2.3,-0.61 -3.54,-0.61 -3.07,0 -5.84,1.32 -7.78,3.42l-21.03 0c-1.95,0 -3.53,1.58 -3.53,3.52l0 15.52c0,1.95 1.58,3.53 3.53,3.53l18.21 0 0 9.88 -53.35 0 0 -9.88 18.21 0c1.95,0 3.53,-1.58 3.53,-3.53l0 -15.51c0,-1.95 -1.58,-3.53 -3.53,-3.53l-21.02 0c-1.94,-2.1 -4.71,-3.42 -7.79,-3.42 -1.24,0 -2.43,0.22 -3.54,0.61l0 -2.11c0,-1.56 -0.34,-3.03 -0.94,-4.36 0.61,0.51 1.4,0.81 2.25,0.81l16.93 0c1.95,0 3.53,-1.58 3.53,-3.52l0 -15.52c0,-1.95 -1.58,-3.53 -3.53,-3.53l-16.93 0c-1.94,0 -3.52,1.58 -3.52,3.53l0 15.52c0,0.23 0.02,0.46 0.07,0.68 -1.69,-2.22 -4.23,-3.76 -7.13,-4.12l0 -12.08c0,-1.95 -1.58,-3.53 -3.52,-3.53l-16.93 0c-1.95,0 -3.53,1.58 -3.53,3.53l0 15.52c0,1.94 1.58,3.52 3.53,3.52l9.14 0c-0.4,1.11 -0.61,2.3 -0.61,3.55l0 2.11c-1.11,-0.39 -2.31,-0.61 -3.55,-0.61 -5.84,0 -10.59,4.76 -10.59,10.6l0 6.06c-1.11,-0.39 -2.31,-0.61 -3.55,-0.61 -1.24,0 -2.43,0.22 -3.54,0.61l0 -50.63c0,-1.94 1.58,-3.53 3.53,-3.53l103.34 0c1.95,0 3.52,-1.57 3.52,-3.52 0,-1.95 -1.57,-3.53 -3.52,-3.53l-20.11 0 0 -3.53c0,-7.39 -6.01,-13.4 -13.4,-13.4l-14.81 0c-3.5,0 -6.35,-2.85 -6.35,-6.35 0,-3.5 2.85,-6.35 6.35,-6.35l24.69 0c1.94,0 3.52,-1.58 3.52,-3.52 0,-1.95 -1.58,-3.53 -3.52,-3.53l-24.69 0c-7.39,0 -13.4,6.01 -13.4,13.4 0,7.39 6.01,13.4 13.4,13.4l14.81 0c3.5,0 6.35,2.85 6.35,6.35l0 3.53 -76.18 0c-5.84,0 -10.58,4.75 -10.58,10.58l0 103.98c0,7.78 3.02,15.1 8.5,20.62l7.64 7.68c0.69,0.69 1.6,1.04 2.5,1.04 0.9,0 1.8,-0.34 2.49,-1.02 1.38,-1.38 1.39,-3.61 0.02,-4.99l-7.64 -7.68c-4.17,-4.19 -6.46,-9.75 -6.46,-15.65l0 -43.36c0,-1.95 1.59,-3.54 3.54,-3.54 1.96,0 3.55,1.59 3.55,3.54l0 21.77c0,1.94 1.57,3.52 3.52,3.52 1.95,0 3.53,-1.58 3.53,-3.52l0 -37.82c0,-1.95 1.59,-3.54 3.54,-3.54 1.96,0 3.55,1.59 3.55,3.54l0 37.82c0,1.94 1.57,3.52 3.52,3.52 1.95,0 3.53,-1.58 3.53,-3.52l0 -49.92c0,-1.96 1.59,-3.55 3.54,-3.55 1.96,0 3.55,1.59 3.55,3.55l0 49.92c0,1.94 1.57,3.52 3.52,3.52 1.95,0 3.53,-1.58 3.53,-3.52l0 -37.82c0,-1.95 1.59,-3.54 3.54,-3.54 1.96,0 3.55,1.59 3.55,3.54l0 53.93c0,1.79 1.33,3.29 3.1,3.5 1.77,0.22 3.42,-0.92 3.85,-2.66l3.96 -16.18c0.47,-1.88 2.33,-3.09 4.24,-2.76 0.99,0.18 1.84,0.73 2.41,1.55 0.56,0.83 0.77,1.83 0.58,2.81l-4.24 21.5c-0.85,4.32 -2.94,8.24 -6.04,11.36l-9.64 9.69c-1.37,1.38 -1.36,3.61 0.02,4.99 0.69,0.68 1.58,1.02 2.48,1.02 0.91,0 1.82,-0.35 2.5,-1.04l9.64 -9.69c4.09,-4.11 6.84,-9.28 7.96,-14.96l4.24 -21.5c0.56,-2.86 -0.04,-5.76 -1.68,-8.16 -0.26,-0.38 -0.55,-0.74 -0.85,-1.08l22.39 0c-0.3,0.34 -0.58,0.7 -0.84,1.08 -1.65,2.4 -2.25,5.3 -1.68,8.16l4.24 21.5c1.12,5.68 3.87,10.85 7.95,14.96l9.64 9.69c0.69,0.69 1.59,1.04 2.5,1.04 0.9,0 1.8,-0.34 2.49,-1.02 1.38,-1.38 1.38,-3.61 0.01,-4.99l-9.64 -9.69c-3.1,-3.12 -5.18,-7.05 -6.03,-11.36l-4.24 -21.5c-0.2,-0.98 0.01,-1.98 0.57,-2.81 0.57,-0.82 1.43,-1.37 2.41,-1.55 1.91,-0.33 3.78,0.88 4.24,2.76l3.96 16.18c0.43,1.74 2.08,2.88 3.85,2.66 1.77,-0.21 3.11,-1.71 3.11,-3.5l0 -53.93c0,-1.95 1.59,-3.54 3.54,-3.54 1.95,0 3.54,1.59 3.54,3.54l0 37.82c0,1.94 1.58,3.52 3.53,3.52 1.95,0 3.53,-1.58 3.53,-3.52l0 -49.92c0,-1.96 1.59,-3.55 3.54,-3.55 1.95,0 3.54,1.59 3.54,3.55l0 49.92c0,1.94 1.58,3.52 3.53,3.52 1.95,0 3.53,-1.58 3.53,-3.52l0 -37.82c0,-1.95 1.59,-3.54 3.54,-3.54 1.95,0 3.54,1.59 3.54,3.54l0 37.82c0,1.94 1.58,3.52 3.53,3.52 1.95,0 3.53,-1.58 3.53,-3.52l0 -21.77c0,-1.95 1.59,-3.54 3.54,-3.54 1.95,0 3.54,1.59 3.54,3.54l0 43.36c0,5.9 -2.29,11.46 -6.45,15.65l-7.64 7.68c-1.38,1.38 -1.37,3.61 0.01,4.99 0.69,0.68 1.59,1.02 2.49,1.02 0.9,0 1.81,-0.35 2.5,-1.04l7.64 -7.68c5.49,-5.52 8.51,-12.84 8.51,-20.62l0 -103.98c0,-5.83 -4.75,-10.58 -10.58,-10.58l0 0zm-43.74 32.45l-9.87 0 0 -8.47 9.87 0 0 8.47zm-71.95 -8.47l9.88 0 0 8.47 -9.88 0 0 -8.47zm-31.04 0l9.88 0 0 8.47 -9.88 0 0 -8.47zm79.01 39.51l0 -8.47 14.68 0 0 0.13 0 8.34 -14.68 0zm-38.67 -8.47l14.68 0 0 8.47 -14.68 0 0 -8.34 0 -0.13zm83.81 -31.04l9.88 0 0 8.47 -9.88 0 0 -8.47z"/>
     <path id="XMLID_1133_" class="fil4" d="M147.86 62.8c-1.95,0 -3.53,1.58 -3.53,3.53l0 15.52c0,1.94 1.58,3.52 3.53,3.52l16.93 0c1.95,0 3.53,-1.58 3.53,-3.52l0 -15.52c0,-1.95 -1.58,-3.53 -3.53,-3.53l-16.93 0zm13.4 15.52l-9.87 0 0 -8.47 9.87 0 0 8.47z"/>
     <path id="XMLID_1664_" class="fil4" d="M195.83 52.92c0.93,0 1.84,-0.37 2.49,-1.03 0.66,-0.66 1.04,-1.57 1.04,-2.49 0,-0.93 -0.38,-1.84 -1.04,-2.5 -0.65,-0.65 -1.56,-1.03 -2.49,-1.03 -0.93,0 -1.84,0.38 -2.49,1.03 -0.66,0.66 -1.04,1.57 -1.04,2.5 0,0.92 0.38,1.83 1.04,2.49 0.65,0.66 1.56,1.03 2.49,1.03z"/>
    </g>
   </g>
  </g>
 </g>
</svg>
