<?xml version="1.0" encoding="UTF-8"?>
<!DOCTYPE svg PUBLIC "-//W3C//DTD SVG 1.1//EN" "http://www.w3.org/Graphics/SVG/1.1/DTD/svg11.dtd">
<!-- Creator: CorelDRAW 2019 (64-Bit) -->
<svg xmlns="http://www.w3.org/2000/svg" xml:space="preserve" width="1.4695in" height="0.0896772in" version="1.1" style="shape-rendering:geometricPrecision; text-rendering:geometricPrecision; image-rendering:optimizeQuality; fill-rule:evenodd; clip-rule:evenodd"
viewBox="0 0 167.95 10.25"
 xmlns:xlink="http://www.w3.org/1999/xlink">
 <defs>
  <style type="text/css">
   <![CDATA[
    .str0 {stroke:#06544F;stroke-width:0.79;stroke-miterlimit:2.61313}
    .str1 {stroke:#06544F;stroke-width:0.79;stroke-miterlimit:2.61313;stroke-dasharray:1.587502 2.381253}
    .fil1 {fill:none}
    .fil0 {fill:#06544F}
   ]]>
  </style>
 </defs>
 <g id="Layer_x0020_1">
  <metadata id="CorelCorpID_0Corel-Layer"/>
  <g id="_2494060210592">
   <path class="fil0" d="M84.61 7.76c1.07,0.37 1.24,1.25 0.67,1.57 -0.38,0.21 -0.86,-0.05 -0.89,-0.41 -0.01,-0.21 0.12,-0.35 0.33,-0.34 0.34,0.01 0.2,0.24 0.24,0.46 0.37,0.05 0.31,-0.52 -0.05,-0.65 -0.4,-0.15 -0.55,0.12 -0.74,0.3 0.02,0.3 0.01,0.44 0.18,0.66 0.37,0.47 1.4,0.37 1.48,-0.5 0.05,-0.54 -0.35,-0.85 -0.63,-1.04 -0.4,-0.27 -0.7,-0.35 -1.04,-0.66 0.09,-0.26 0.3,-0.37 0.24,-0.81 -0.04,-0.27 -0.22,-0.58 -0.43,-0.63 -0.39,0.22 -0.45,0.78 -0.27,1.21 0.33,-0.26 -0.1,-0.62 0.32,-0.93 0.41,0.74 -0.06,1.18 -0.76,1.57 -0.51,0.28 -1.37,0.71 -1.04,1.55 0.12,0.31 0.38,0.54 0.83,0.52 1.01,-0.04 0.98,-1.4 0.13,-1.26 -0.19,0.03 -0.34,0.17 -0.38,0.32 -0.04,0.14 -0.06,0.41 0.22,0.37 0.04,-0.17 -0.12,-0.5 0.29,-0.46 0.24,0.03 0.34,0.28 0.22,0.51 -0.44,0.84 -2,-0.23 -0.59,-1.13 0.18,-0.11 0.35,-0.19 0.55,-0.3 0.22,-0.13 0.34,-0.23 0.52,-0.34 0.1,0.08 0.18,0.15 0.31,0.24 0.08,0.05 0.27,0.14 0.31,0.19z"/>
   <path class="fil0" d="M87.27 3.4c-0.18,0.25 -0.34,0.57 -0.02,0.87 0.22,0.2 0.86,0.09 0.65,-0.23 -0.2,-0.06 -0.1,0.05 -0.31,0.13 -0.5,-0.09 -0.33,-0.81 0.27,-0.6 0.37,0.13 0.55,0.64 0.25,0.99 -0.62,0.71 -1.6,-0.4 -2.23,-0.53 0.02,-0.25 0.06,-0.42 0.05,-0.69 -0.01,-0.48 -0.11,-1.47 0.66,-1.54 0.42,-0.04 0.74,0.32 0.66,0.74 -0.1,0.5 -0.75,0.52 -0.67,-0.06 0.2,-0.14 0.28,-0.03 0.27,-0.26 -0.24,-0.16 -0.5,0.11 -0.51,0.35 -0.02,0.36 0.2,0.46 0.39,0.56 1.12,0.11 0.94,-1.67 -0.17,-1.55 -1.14,0.12 -0.8,1.68 -0.91,2.4 -0.34,-0.01 -0.62,0 -0.85,0.19 -0.15,0.12 -0.38,0.42 -0.34,0.71 0.56,0.15 1.02,-0.01 1.2,-0.42 -0.35,-0.03 -0.24,0.02 -0.45,0.16 -0.13,0.09 -0.32,0.09 -0.51,0.09 0.19,-0.58 0.79,-0.62 1.37,-0.36 0.48,0.21 0.76,0.58 1.35,0.66 0.6,0.09 1.13,-0.36 1.05,-0.97 -0.04,-0.28 -0.22,-0.5 -0.4,-0.61 -0.34,-0.2 -0.52,-0.08 -0.82,-0.03z"/>
   <path class="fil0" d="M84.18 1.18c-0.04,0.44 0.16,0.78 0.63,0.71 0.41,-0.06 0.57,-0.66 0.2,-0.7 -0.13,0.17 0.01,0.11 -0.05,0.37 -0.53,0.36 -0.74,-0.33 -0.33,-0.6 0.43,-0.28 0.93,-0.01 0.98,0.45 0.06,0.66 -0.76,0.96 -1.18,1.2 -0.17,0.1 -0.33,0.25 -0.48,0.31l-0.09 -0.14c-0.09,-0.02 -0.54,-0.29 -0.7,-0.38 -0.24,-0.13 -0.47,-0.27 -0.61,-0.44 -0.44,-0.54 -0.02,-1.31 0.65,-1.08 0.58,0.2 0.41,0.94 -0.06,0.76 -0.21,-0.08 -0.13,-0.2 -0.13,-0.33 -0,-0.37 -0.47,0.04 -0.14,0.41 0.22,0.25 0.52,0.18 0.77,0.02 0.04,-0.05 0.08,-0.1 0.11,-0.17 0.37,-0.97 -1.43,-1.43 -1.6,-0.24 -0.11,0.76 0.63,1.13 1.15,1.39 0.21,0.11 0.36,0.24 0.53,0.33 -0.07,0.29 -0.29,0.4 -0.25,0.82 0.03,0.28 0.21,0.58 0.39,0.66 0.37,-0.07 0.59,-0.81 0.31,-1.2 -0.27,0.23 0.06,0.47 -0.28,0.91 -0.4,-0.33 -0.15,-0.94 0.31,-1.3 0.53,-0.41 1.56,-0.66 1.53,-1.51 -0.03,-0.85 -1.18,-1.23 -1.65,-0.27z"/>
   <path class="fil0" d="M79.86 6.83c0.49,0.14 1.07,0.12 1.02,-0.5 -0.04,-0.64 -0.98,-0.58 -0.85,-0.16 0.21,0.12 0.13,-0.01 0.28,-0.08 0.3,-0.14 0.56,0.48 0.09,0.6 -0.46,0.12 -0.89,-0.44 -0.65,-0.88 0.21,-0.39 0.73,-0.43 1.17,-0.21 0.19,0.1 0.38,0.22 0.53,0.32 0.09,0.06 0.16,0.11 0.27,0.16 0.05,0.02 0.09,0.04 0.14,0.06 0.06,0.03 0.02,0 0.08,0.04 0.09,0.05 0.03,0.01 0.07,0.05 0.09,0.03 0.05,-0.07 0.01,0.31 -0.01,0.12 -0.01,0.25 -0.01,0.37 0.01,0.27 0.03,0.54 -0.01,0.81 -0.07,0.41 -0.38,0.82 -0.88,0.69 -0.37,-0.1 -0.64,-0.67 -0.28,-1 0.19,-0.18 0.47,-0.07 0.52,0.14 0.11,0.39 -0.29,0.14 -0.28,0.48 0.21,0.11 0.42,-0.05 0.49,-0.24 0.09,-0.25 -0.08,-0.44 -0.12,-0.58 -0.19,-0.07 -0.36,-0.18 -0.61,-0.08 -0.16,0.07 -0.28,0.24 -0.34,0.43 -0.32,0.51 0.52,1.51 1.31,0.93 0.7,-0.51 0.27,-1.4 0.49,-2.22 0.4,-0.03 0.97,-0.04 1.16,-0.67 0.01,-0.04 0.02,-0.05 0.02,-0.09l-0.03 -0.13c-0.1,-0.13 -0.94,-0.19 -1.17,0.39 0.47,0.05 0.26,-0.25 0.94,-0.25 -0.12,0.49 -0.68,0.6 -1.2,0.43 -0.45,-0.15 -0.72,-0.45 -1.16,-0.62 -0.55,-0.22 -0.99,-0.11 -1.26,0.26 -0.49,0.67 0.23,1.22 0.24,1.24z"/>
   <path class="fil0" d="M80.56 2.91c0.17,0.05 0.2,0.21 0.46,0.24 0.81,0.07 0.7,-1.22 0.09,-0.94 -0.1,0.33 0.34,0.06 0.26,0.45 -0.1,0.51 -0.87,0.23 -0.66,-0.42 0.2,-0.63 1.14,-0.61 1.29,0.26 0.05,0.27 0.02,0.53 0.01,0.81 -0.01,0.28 0.04,0.48 0.04,0.73 -0.46,0.13 -0.69,0.35 -1.05,0.55 -1.33,0.73 -1.71,-0.73 -0.94,-1.01 0.61,-0.22 0.81,0.53 0.27,0.59 -0.12,-0.02 -0.08,-0.13 -0.23,-0.12 -0.1,0 -0.03,-0.01 -0.09,0.04 -0.1,0.31 0.57,0.48 0.79,0.04 0.21,-0.42 -0.08,-0.74 -0.46,-0.81 -1.03,-0 -1.21,1.25 -0.4,1.62 0.79,0.36 1.52,-0.49 2.17,-0.68 0.2,0.19 0.15,0.37 0.47,0.56 0.24,0.14 0.63,0.16 0.88,0.04 0.05,-0.37 -0.34,-0.87 -0.91,-0.87 0.06,0.29 0.13,0.2 0.36,0.32 0.14,0.07 0.25,0.22 0.31,0.41 -1.42,0.06 -0.78,-1.76 -1.09,-2.53 -0.15,-0.37 -0.64,-0.78 -1.2,-0.52 -0.73,0.35 -0.4,1.1 -0.39,1.26z"/>
   <path class="fil0" d="M86.4 7.39c-0.14,0.39 0.05,0.78 0.46,0.65 0,-0.3 -0.08,-0.1 -0.25,-0.27 -0.12,-0.25 0.09,-0.53 0.39,-0.43 0.19,0.06 0.31,0.36 0.25,0.62 -0.14,0.57 -0.85,0.6 -1.15,0.18 -0.28,-0.4 -0.14,-1.35 -0.22,-1.94 0.67,-0.16 1.75,-1.31 2.31,-0.43 0.28,0.44 -0.14,1.01 -0.61,0.92 -0.21,-0.04 -0.36,-0.28 -0.23,-0.5 0.04,-0.07 0.14,-0.15 0.27,-0.12 0.19,0.05 0.07,0.11 0.21,0.12 0.3,0.02 -0.1,-0.59 -0.54,-0.25 -0.24,0.18 -0.29,0.53 -0.09,0.78 0.39,0.48 1.23,0.08 1.3,-0.55 0.07,-0.65 -0.55,-1.08 -1.19,-0.91 -0.59,0.16 -0.95,0.62 -1.49,0.72 -0.18,-0.23 -0.18,-0.38 -0.46,-0.55 -0.45,-0.27 -1.33,-0.17 -0.63,0.55 0.16,0.17 0.34,0.27 0.66,0.28 -0.11,-0.44 -0.5,-0.15 -0.66,-0.72 0.78,-0.05 0.98,0.57 0.99,1.21 0,0.7 -0.09,1.41 0.44,1.75 0.6,0.38 1.24,0.01 1.33,-0.55 0.12,-0.74 -0.66,-1.2 -1.09,-0.56z"/>
   <path class="fil0" d="M87.78 7.45c0.01,-0.16 0.02,-0.15 0.12,-0.22 0.15,0.03 0.25,0.16 0.27,0.32 -0.2,0 -0.28,0.02 -0.39,-0.1zm0.66 0.23c-0.02,-0.34 -0.46,-0.92 -0.78,-0.51 -0.4,0.52 0.43,0.72 0.78,0.51z"/>
   <path class="fil0" d="M79.76 2.69c0.23,-0.01 0.29,-0.03 0.41,0.11 -0.01,0.13 -0.03,0.14 -0.14,0.21 -0.2,-0.06 -0.18,-0.13 -0.28,-0.32zm-0.25 -0.11c0.03,0.34 0.47,0.9 0.79,0.48 0.41,-0.54 -0.58,-0.73 -0.79,-0.48z"/>
   <path class="fil0" d="M81.19 3.71c0,-0.16 0.01,-0.16 0.09,-0.25 0.18,0 0.28,0.14 0.31,0.32l-0.4 -0.07zm-0.2 -0.02c0.03,0.22 0.29,0.27 0.53,0.27 0.36,0 0.41,-0.06 0.24,-0.36 -0.36,-0.68 -0.83,-0.26 -0.77,0.09z"/>
   <path class="fil0" d="M86.63 6.8c-0.14,-0.04 -0.22,-0.16 -0.27,-0.31 0.22,-0.01 0.28,-0.01 0.42,0.08 -0.01,0.15 -0.03,0.17 -0.14,0.23zm-0.46 -0.49l-0.03 0.07c-0.05,0.3 0.42,0.87 0.73,0.5 0.26,-0.3 0.08,-0.73 -0.71,-0.57z"/>
   <path class="fil0" d="M83.99 7.88c0.44,0.58 -0.4,0.55 -0.08,0.08 0,-0.01 0.01,-0.02 0.02,-0.02 0,-0.01 0.02,-0.02 0.02,-0.02l0.04 -0.04zm-0.12 0.62c0.27,0.01 0.34,-0.08 0.48,-0.2 -0.06,-0.3 -0.13,-0.59 -0.36,-0.71 -0.16,0.06 -0.26,0.24 -0.33,0.43 -0.09,0.3 0.01,0.4 0.21,0.48z"/>
   <path class="fil0" d="M84 9.97c-0.01,-0.01 -0.02,-0.03 -0.02,-0.02 -0.01,0.01 -0.13,-0.15 -0.14,-0.26 -0.02,-0.19 0.1,-0.17 0.26,-0.14 0.06,0.17 -0.02,0.29 -0.1,0.42zm-0.01 0.28c0.26,-0.14 0.61,-0.9 0,-0.92 -0.61,-0.01 -0.31,0.78 0,0.92z"/>
   <path class="fil0" d="M79.77 7.56c0.06,-0.19 0.11,-0.32 0.35,-0.3l0.06 0.2c-0.12,0.13 -0.2,0.11 -0.41,0.1zm0.05 -0.44c-0.11,0.15 -0.29,0.28 -0.29,0.57 0.14,0.1 0.41,0.09 0.59,0.05 0.24,-0.06 0.28,-0.18 0.25,-0.45 -0.11,-0.12 -0.21,-0.38 -0.55,-0.16z"/>
   <path class="fil0" d="M81.22 6.54c0.13,-0.07 0.2,-0.06 0.38,-0.06 -0.11,0.34 -0.37,0.42 -0.4,0.19 -0.02,-0.13 0.02,-0.11 0.03,-0.13zm0.5 0.22c0.01,-0.15 0.02,-0.07 0.08,-0.22 0.04,-0.09 0.04,-0.15 0.04,-0.23 -0.22,-0.04 -0.6,-0.08 -0.77,0.08 -0.22,0.21 -0.03,0.5 0.16,0.59 0.34,0.05 0.27,-0.11 0.48,-0.23z"/>
   <path class="fil0" d="M84.09 1.97c0.06,0.18 -0.03,0.28 -0.09,0.41 -0.12,-0.1 -0.2,-0.25 -0.14,-0.41 0.13,-0.05 0.09,-0.05 0.23,-0zm-0.43 -0.13c-0.05,0.42 0.06,0.51 0.24,0.82l0.18 -0.02c0.06,-0.15 0.29,-0.43 0.23,-0.66 -0.08,-0.33 -0.42,-0.23 -0.65,-0.13z"/>
   <path class="fil0" d="M87.81 2.97c-0.1,-0.3 0.09,-0.3 0.37,-0.29 -0.07,0.21 -0.15,0.36 -0.37,0.29zm-0.01 -0.44c-0.23,0.09 -0.32,0.24 -0.18,0.47 0.33,0.56 0.82,-0.19 0.8,-0.4 -0.02,-0.19 -0.47,-0.14 -0.62,-0.08z"/>
   <path class="fil0" d="M84.01 0.27c0.04,0.11 0.26,0.48 -0.05,0.45 -0.22,-0.02 -0.1,-0.28 -0.06,-0.34 0.09,-0.15 0.04,-0.06 0.12,-0.11zm-0.06 -0.27c-0.26,0.15 -0.59,0.99 0.07,0.91 0.52,-0.06 0.25,-0.81 -0.07,-0.91z"/>
   <path class="fil0" d="M86.37 3.75c0.02,-0.14 0.14,-0.3 0.3,-0.32 0.11,0.09 0.12,0.11 0.09,0.29l-0.39 0.03zm0.52 -0.41c-0.11,-0.01 -0.03,-0.05 -0.18,-0.09 -0.31,-0.07 -0.62,0.37 -0.59,0.63 0.16,0.1 0.45,0.1 0.64,0.02 0.25,-0.11 0.21,-0.32 0.13,-0.56z"/>
   <path class="fil0" d="M81.63 9.36c0.18,-0.06 0.43,-0.53 0.17,-0.5 -0.1,0.01 -0.14,0.14 -0.2,0.23 -0.08,0.15 -0.11,0.17 0.03,0.27z"/>
   <path class="fil0" d="M79.14 5.26l0.2 0.02 0.12 -0c0.18,0 0.2,0.01 0.2,-0.17 -0.15,-0.1 -0.58,-0.15 -0.52,0.16z"/>
   <path class="fil0" d="M88.29 5.01l0.01 0.15c0.12,0.05 0.13,0.04 0.27,0.04 0.02,0 0.13,-0 0.15,-0 0.01,-0 0.02,-0 0.03,-0.01 0.01,-0 0.02,-0.01 0.03,-0.01l0.04 -0.03c0.07,-0.31 -0.51,-0.16 -0.52,-0.14z"/>
   <path class="fil0" d="M86.43 9.31c0.13,-0.17 -0.12,-0.51 -0.23,-0.49 -0.17,0.03 -0.07,0.18 -0.02,0.28 0.09,0.15 0.06,0.21 0.25,0.21z"/>
   <path class="fil0" d="M86.08 1.37c0.28,0.04 0.34,-0.37 0.32,-0.46 -0.22,-0.01 -0.18,0.03 -0.26,0.18 -0.07,0.13 -0.13,0.14 -0.06,0.29z"/>
   <path class="fil0" d="M81.77 1.43c0.11,-0.11 0.09,-0.12 -0,-0.28 -0.07,-0.13 -0.09,-0.25 -0.28,-0.2 -0.04,0.18 0.12,0.45 0.29,0.48z"/>
  </g>
  <g id="_2494078879600">
   <line class="fil1 str0" x1="-0" y1="6.15" x2="72.39" y2= "6.15" />
   <line class="fil1 str1" x1="-0" y1="4.1" x2="72.39" y2= "4.1" />
  </g>
  <g id="_2494078879536">
   <line class="fil1 str0" x1="95.57" y1="6.15" x2="167.95" y2= "6.15" />
   <line class="fil1 str1" x1="95.57" y1="4.1" x2="167.95" y2= "4.1" />
  </g>
 </g>
</svg>
