<?xml version="1.0" encoding="UTF-8"?>
<!DOCTYPE svg PUBLIC "-//W3C//DTD SVG 1.1//EN" "http://www.w3.org/Graphics/SVG/1.1/DTD/svg11.dtd">
<!-- Creator: CorelDRAW 2019 (64-Bit) -->
<svg xmlns="http://www.w3.org/2000/svg" xml:space="preserve" width="300px" height="180px" version="1.1" style="shape-rendering:geometricPrecision; text-rendering:geometricPrecision; image-rendering:optimizeQuality; fill-rule:evenodd; clip-rule:evenodd"
viewBox="0 0 26.54 15.92"
 xmlns:xlink="http://www.w3.org/1999/xlink">
 <defs>
  <style type="text/css">
   <![CDATA[
    .fil0 {fill:none}
    .fil3 {fill:#32B1CC}
    .fil1 {fill:#87CEE9}
    .fil2 {fill:#E6F1FD}
   ]]>
  </style>
 </defs>
 <g id="Layer_x0020_1">
  <metadata id="CorelCorpID_0Corel-Layer"/>
  <rect class="fil0" width="26.54" height="15.92"/>
  <g id="liquid.svg">
   <path class="fil1" d="M19.08 9.48c0,0.15 0,0.31 -0.02,0.46 -0.05,0.62 -0.2,1.23 -0.44,1.81 -0.91,2.14 -3.02,3.54 -5.35,3.54 -2.33,0 -4.44,-1.4 -5.35,-3.54 -0.25,-0.58 -0.39,-1.19 -0.44,-1.81 -0.02,-0.15 -0.02,-0.31 -0.02,-0.46 0,-0.27 0.02,-0.53 0.07,-0.79 0.65,-3.85 5.74,-8.06 5.74,-8.06 0,0 5.09,4.21 5.74,8.06 0.05,0.26 0.07,0.52 0.07,0.79l0 0z"/>
   <path class="fil2" d="M19.08 9.48c0,0.15 0,0.31 -0.02,0.46 -0.1,0.03 -0.2,0.04 -0.3,0.04 -0.01,0 -0.02,0 -0.02,0 -0.92,0 -0.92,-0.76 -1.83,-0.76 -0.91,0 -0.91,0.76 -1.82,0.76 -0.91,0 -0.91,-0.76 -1.82,-0.76 -0.92,0 -0.92,0.76 -1.83,0.76 -0.91,0 -0.91,-0.76 -1.82,-0.76 -0.91,0 -0.91,0.76 -1.82,0.76 -0.01,0 -0.02,0 -0.02,0 -0.1,0 -0.2,-0.01 -0.3,-0.04 -0.02,-0.15 -0.02,-0.31 -0.02,-0.46 0,-0.27 0.02,-0.53 0.07,-0.79 0.08,0.02 0.18,0.03 0.27,0.03 0,0 0,0 0,0 0.91,0 0.91,-0.76 1.82,-0.76 0.91,0 0.91,0.76 1.82,0.76 0.91,0 0.91,-0.76 1.83,-0.76 0.91,0 0.91,0.76 1.82,0.76 0.91,0 0.91,-0.76 1.82,-0.76 0.91,0 0.91,0.76 1.83,0.76 0,0 0,0 0,0 0.09,0 0.18,-0.01 0.27,-0.03 0.05,0.26 0.07,0.52 0.07,0.79l0 0z"/>
   <path class="fil3" d="M19.06 9.94c-0.05,0.62 -0.2,1.23 -0.44,1.81 -0.8,-0.07 -0.84,-0.76 -1.71,-0.76 -0.91,0 -0.91,0.76 -1.82,0.76 -0.91,0 -0.91,-0.76 -1.82,-0.76 -0.92,0 -0.92,0.76 -1.83,0.76 -0.91,0 -0.91,-0.76 -1.82,-0.76 -0.87,0 -0.91,0.69 -1.7,0.76 -0.25,-0.58 -0.39,-1.19 -0.44,-1.81 0.1,0.03 0.2,0.04 0.3,0.04 0,0 0.01,0 0.02,0 0.91,0 0.91,-0.76 1.82,-0.76 0.91,0 0.91,0.76 1.82,0.76 0.91,0 0.91,-0.76 1.83,-0.76 0.91,0 0.91,0.76 1.82,0.76 0.91,0 0.91,-0.76 1.82,-0.76 0.91,0 0.91,0.76 1.83,0.76 0,0 0.01,0 0.02,0 0.1,0 0.2,-0.01 0.3,-0.04l0 0z"/>
   <g>
    <path class="fil2" d="M13.27 14.53c-1.73,-0.02 -3.34,-0.92 -4.26,-2.39l0.43 -0.27c0.83,1.32 2.27,2.13 3.83,2.16l0 0.5z"/>
    <polygon class="fil2" points="13.77,14.03 14.28,14.03 14.28,14.53 13.77,14.53 "/>
    <path class="fil2" d="M13.52 4.74c-0.03,0.53 -0.47,0.95 -1.01,0.95 -0.53,0 -0.98,-0.42 -1.01,-0.95 0,-0.52 1.01,-1.58 1.01,-1.58 0,0 1.01,1.06 1.01,1.58l0 0z"/>
    <path class="fil2" d="M15.54 6.23c0,0.42 -0.34,0.76 -0.75,0.76 -0.42,0 -0.76,-0.34 -0.76,-0.76 0,-0.4 0.76,-1.3 0.76,-1.3 0,0 0.75,0.9 0.75,1.3z"/>
    <path class="fil2" d="M17.09 7.07c-1.48,-2.71 -3.96,-4.96 -3.99,-4.98l0.34 -0.38c0.1,0.09 2.58,2.33 4.09,5.12l-0.44 0.24z"/>
    <polygon class="fil2" points="10.24,5.43 10.74,5.43 10.74,5.94 10.24,5.94 "/>
    <polygon class="fil2" points="11.25,6.45 11.75,6.45 11.75,6.95 11.25,6.95 "/>
   </g>
  </g>
 </g>
</svg>
