<?xml version="1.0" encoding="UTF-8"?>
<!DOCTYPE svg PUBLIC "-//W3C//DTD SVG 1.1//EN" "http://www.w3.org/Graphics/SVG/1.1/DTD/svg11.dtd">
<!-- Creator: CorelDRAW 2019 (64-Bit) -->
<svg xmlns="http://www.w3.org/2000/svg" xml:space="preserve" width="300px" height="180px" version="1.1" style="shape-rendering:geometricPrecision; text-rendering:geometricPrecision; image-rendering:optimizeQuality; fill-rule:evenodd; clip-rule:evenodd"
viewBox="0 0 33.17 19.9"
 xmlns:xlink="http://www.w3.org/1999/xlink"
 enable-background="new 0 0 512 512">
 <defs>
  <style type="text/css">
   <![CDATA[
    .fil0 {fill:none}
    .fil4 {fill:#313A6B}
    .fil3 {fill:#4D5788}
    .fil2 {fill:#C7CDDE}
    .fil1 {fill:#DFE5F2}
    .fil6 {fill:#E9BC3E}
    .fil5 {fill:#F3D652}
   ]]>
  </style>
 </defs>
 <g id="Layer_x0020_1">
  <metadata id="CorelCorpID_0Corel-Layer"/>
  <rect class="fil0" width="33.17" height="19.9"/>
  <g id="memory.svg">
   <g>
    <g>
     <path class="fil1" d="M12.4 1.02c-0.29,0 -0.53,0.24 -0.53,0.52l0 2.83c0,0.29 0.24,0.52 0.53,0.52 0.29,0 0.52,-0.23 0.52,-0.52l0 -2.83c0,-0.28 -0.23,-0.52 -0.52,-0.52z"/>
     <path class="fil1" d="M15.19 1.02c-0.29,0 -0.52,0.24 -0.52,0.52l0 2.83c0,0.29 0.23,0.52 0.52,0.52 0.29,0 0.52,-0.23 0.52,-0.52l0 -2.83c0,-0.28 -0.23,-0.52 -0.52,-0.52z"/>
     <path class="fil1" d="M15.19 15.01c-0.29,0 -0.52,0.23 -0.52,0.52l0 2.83c0,0.29 0.23,0.52 0.52,0.52 0.29,0 0.52,-0.23 0.52,-0.52l0 -2.83c0,-0.29 -0.23,-0.52 -0.52,-0.52z"/>
     <path class="fil1" d="M12.4 15.01c-0.29,0 -0.53,0.23 -0.53,0.52l0 2.83c0,0.29 0.24,0.52 0.53,0.52 0.29,0 0.52,-0.23 0.52,-0.52l0 -2.83c0,-0.29 -0.23,-0.52 -0.52,-0.52z"/>
     <path class="fil1" d="M11 5.24l-2.82 0c-0.29,0 -0.53,0.24 -0.53,0.52 0,0.29 0.24,0.53 0.53,0.53l2.82 0c0.29,0 0.53,-0.24 0.53,-0.53 0,-0.28 -0.24,-0.52 -0.53,-0.52l0 0z"/>
     <path class="fil1" d="M11 8.03l-2.82 0c-0.29,0 -0.53,0.24 -0.53,0.53 0,0.28 0.24,0.52 0.53,0.52l2.82 0c0.29,0 0.53,-0.24 0.53,-0.52 0,-0.29 -0.24,-0.53 -0.53,-0.53l0 0z"/>
     <path class="fil1" d="M11 10.82l-2.82 0c-0.29,0 -0.53,0.24 -0.53,0.53 0,0.28 0.24,0.52 0.53,0.52l2.82 0c0.29,0 0.53,-0.24 0.53,-0.52 0,-0.29 -0.24,-0.53 -0.53,-0.53l0 0z"/>
     <path class="fil1" d="M11 13.61l-2.82 0c-0.29,0 -0.53,0.24 -0.53,0.53 0,0.28 0.24,0.52 0.53,0.52l2.82 0c0.29,0 0.53,-0.24 0.53,-0.52 0,-0.29 -0.24,-0.53 -0.53,-0.53l0 0z"/>
    </g>
    <path class="fil2" d="M17.98 1.02c-0.29,0 -0.52,0.24 -0.52,0.52l0 2.83c0,0.29 0.23,0.52 0.52,0.52 0.29,0 0.52,-0.23 0.52,-0.52l0 -2.83c0,-0.28 -0.23,-0.52 -0.52,-0.52z"/>
    <path class="fil2" d="M20.77 1.02c-0.29,0 -0.52,0.24 -0.52,0.52l0 2.83c0,0.29 0.23,0.52 0.52,0.52 0.29,0 0.52,-0.23 0.52,-0.52l0 -2.83c0,-0.28 -0.23,-0.52 -0.52,-0.52z"/>
    <path class="fil2" d="M24.99 5.24l-2.83 0c-0.28,0 -0.52,0.24 -0.52,0.52 0,0.29 0.24,0.53 0.52,0.53l2.83 0c0.29,0 0.52,-0.24 0.52,-0.53 0,-0.28 -0.23,-0.52 -0.52,-0.52l0 0z"/>
    <path class="fil2" d="M24.99 8.03l-2.83 0c-0.28,0 -0.52,0.24 -0.52,0.53 0,0.28 0.24,0.52 0.52,0.52l2.83 0c0.29,0 0.52,-0.24 0.52,-0.52 0,-0.29 -0.23,-0.53 -0.52,-0.53l0 0z"/>
    <path class="fil2" d="M24.99 10.82l-2.83 0c-0.28,0 -0.52,0.24 -0.52,0.53 0,0.28 0.24,0.52 0.52,0.52l2.83 0c0.29,0 0.52,-0.24 0.52,-0.52 0,-0.29 -0.23,-0.53 -0.52,-0.53l0 0z"/>
    <path class="fil2" d="M24.99 13.61l-2.83 0c-0.28,0 -0.52,0.24 -0.52,0.53 0,0.28 0.24,0.52 0.52,0.52l2.83 0c0.29,0 0.52,-0.24 0.52,-0.52 0,-0.29 -0.23,-0.53 -0.52,-0.53l0 0z"/>
    <path class="fil2" d="M20.77 15.01c-0.29,0 -0.52,0.23 -0.52,0.52l0 2.83c0,0.29 0.23,0.52 0.52,0.52 0.29,0 0.52,-0.23 0.52,-0.52l0 -2.83c0,-0.29 -0.23,-0.52 -0.52,-0.52z"/>
    <path class="fil2" d="M17.98 15.01c-0.29,0 -0.52,0.23 -0.52,0.52l0 2.83c0,0.29 0.23,0.52 0.52,0.52 0.29,0 0.52,-0.23 0.52,-0.52l0 -2.83c0,-0.29 -0.23,-0.52 -0.52,-0.52z"/>
    <path class="fil3" d="M22.69 4.89l0 10.12c0,0.58 -0.47,1.04 -1.05,1.04l-10.11 0c-0.58,0 -1.05,-0.46 -1.05,-1.04l0 -10.12c0,-0.57 0.47,-1.04 1.05,-1.04l10.11 0c0.58,0 1.05,0.47 1.05,1.04z"/>
    <path class="fil4" d="M22.69 4.89l0 10.12c0,0.58 -0.47,1.04 -1.05,1.04l-5.06 0 0 -12.2 5.06 0c0.58,0 1.05,0.47 1.05,1.04z"/>
    <path class="fil5" d="M19.9 8.21l0 3.48c0,0.14 -0.06,0.28 -0.16,0.37l-1.04 1.05c-0.1,0.1 -0.23,0.15 -0.37,0.15l-3.49 0c-0.14,0 -0.27,-0.05 -0.37,-0.15l-1.05 -1.05c-0.09,-0.09 -0.15,-0.23 -0.15,-0.37l0 -3.48c0,-0.14 0.06,-0.28 0.15,-0.37l1.05 -1.05c0.1,-0.1 0.23,-0.15 0.37,-0.15l3.49 0c0.14,0 0.27,0.05 0.37,0.15l1.04 1.05c0.1,0.09 0.16,0.23 0.16,0.37z"/>
    <path class="fil6" d="M19.9 8.21l0 3.48c0,0.14 -0.06,0.28 -0.16,0.37l-1.04 1.05c-0.1,0.1 -0.23,0.15 -0.37,0.15l-1.75 0 0 -6.62 1.75 0c0.14,0 0.27,0.05 0.37,0.15l1.04 1.05c0.1,0.09 0.16,0.23 0.16,0.37z"/>
   </g>
  </g>
 </g>
</svg>
