<?xml version="1.0" encoding="UTF-8"?>
<!DOCTYPE svg PUBLIC "-//W3C//DTD SVG 1.1//EN" "http://www.w3.org/Graphics/SVG/1.1/DTD/svg11.dtd">
<!-- Creator: CorelDRAW 2019 (64-Bit) -->
<svg xmlns="http://www.w3.org/2000/svg" xml:space="preserve" width="300px" height="180px" version="1.1" style="shape-rendering:geometricPrecision; text-rendering:geometricPrecision; image-rendering:optimizeQuality; fill-rule:evenodd; clip-rule:evenodd"
viewBox="0 0 44.82 26.89"
 xmlns:xlink="http://www.w3.org/1999/xlink">
 <defs>
  <style type="text/css">
   <![CDATA[
    .fil0 {fill:none}
    .fil6 {fill:#5E5F62}
    .fil1 {fill:#71C285}
    .fil9 {fill:#A5A5A4}
    .fil4 {fill:#B19046}
    .fil2 {fill:#CC4B4C}
    .fil3 {fill:#E4C05C}
    .fil7 {fill:#E57E25}
    .fil5 {fill:#ECF0F1}
    .fil8 {fill:#F29C1F}
   ]]>
  </style>
 </defs>
 <g id="Layer_x0020_1">
  <metadata id="CorelCorpID_0Corel-Layer"/>
  <rect class="fil0" width="44.82" height="26.89"/>
  <g id="motherboard.svg">
   <g>
    <path class="fil1" d="M33 2.01l1.27 0c0.23,0 0.42,0.19 0.42,0.43l0 22.86c0,0.24 -0.19,0.42 -0.42,0.42l-23.71 0c-0.24,0 -0.43,-0.18 -0.43,-0.42l0 -22.86c0,-0.24 0.19,-0.43 0.43,-0.43l22.44 0z"/>
    <path class="fil2" d="M22.83 1.17l6.78 0 0 2.54c0,0.23 -0.19,0.42 -0.43,0.42l-5.92 0c-0.24,0 -0.43,-0.19 -0.43,-0.42l0 -2.54 0 0z"/>
    <g>
     <path class="fil3" d="M31.3 1.17l1.7 0 0 1.69c0,0.24 -0.19,0.42 -0.43,0.42l-0.85 0c-0.23,0 -0.42,-0.18 -0.42,-0.42l0 -1.69 0 0z"/>
     <path class="fil3" d="M19.45 1.17l1.69 0 0 1.69c0,0.24 -0.19,0.42 -0.42,0.42l-0.85 0c-0.23,0 -0.42,-0.18 -0.42,-0.42l0 -1.69 0 0z"/>
    </g>
    <path class="fil4" d="M16.91 5.83c-0.24,0 -0.43,-0.19 -0.43,-0.43l0 -1.69c0,-0.24 0.19,-0.43 0.43,-0.43 0.23,0 0.42,0.19 0.42,0.43l0 1.69c0,0.24 -0.19,0.43 -0.42,0.43z"/>
    <g>
     <path class="fil5" d="M14.37 4.13c-0.18,0 -0.33,-0.1 -0.4,-0.26 -0.06,-0.16 -0.03,-0.34 0.1,-0.46 0.12,-0.12 0.3,-0.16 0.46,-0.1 0.16,0.07 0.26,0.23 0.26,0.4 0,0.11 -0.04,0.22 -0.12,0.3 -0.08,0.08 -0.19,0.12 -0.3,0.12z"/>
     <path class="fil5" d="M11.83 4.13c-0.18,0 -0.33,-0.1 -0.4,-0.26 -0.06,-0.16 -0.03,-0.34 0.09,-0.46 0.17,-0.16 0.44,-0.16 0.61,0 0.12,0.12 0.15,0.3 0.09,0.46 -0.07,0.16 -0.22,0.26 -0.39,0.26z"/>
    </g>
    <g>
     <path class="fil3" d="M12.25 7.1l0.85 0c0.23,0 0.42,0.18 0.42,0.42l0 7.62c0,0.23 -0.19,0.42 -0.42,0.42l-0.85 0c-0.23,0 -0.42,-0.19 -0.42,-0.42l0 -7.62c0,-0.24 0.19,-0.42 0.42,-0.42z"/>
     <path class="fil3" d="M15.64 7.1l0.84 0c0.24,0 0.43,0.18 0.43,0.42l0 7.62c0,0.23 -0.19,0.42 -0.43,0.42l-0.84 0c-0.24,0 -0.43,-0.19 -0.43,-0.42l0 -7.62c0,-0.24 0.19,-0.42 0.43,-0.42z"/>
    </g>
    <g>
     <circle class="fil6" cx="12.67" cy="18.1" r="0.85"/>
     <path class="fil6" d="M13.94 21.07l1.7 0c0.23,0 0.42,0.19 0.42,0.42l0 1.69c0,0.24 -0.19,0.43 -0.42,0.43l-1.7 0c-0.23,0 -0.42,-0.19 -0.42,-0.43l0 -1.69c0,-0.23 0.19,-0.42 0.42,-0.42z"/>
    </g>
    <path class="fil4" d="M15.64 17.26l0.84 0c0.24,0 0.43,0.19 0.43,0.42l0 0.85c0,0.23 -0.19,0.42 -0.43,0.42l-0.84 0c-0.24,0 -0.43,-0.19 -0.43,-0.42l0 -0.85c0,-0.23 0.19,-0.42 0.43,-0.42z"/>
    <rect class="fil7" x="21.14" y="6.67" width="1.69" height="4.23"/>
    <g>
     <path class="fil8" d="M19.45 6.67l1.69 0 0 4.24 -1.27 0c-0.23,0 -0.42,-0.19 -0.42,-0.43l0 -3.81 0 0z"/>
     <path class="fil8" d="M24.53 6.67l0 3.81c0,0.24 -0.19,0.43 -0.43,0.43l-1.27 0 0 -4.24 1.7 0z"/>
     <path class="fil8" d="M34.69 15.14l0 1.69 -1.69 0 0 2.12c-0.01,0.23 -0.19,0.42 -0.43,0.42l-7.62 0c-0.23,0 -0.42,-0.19 -0.42,-0.42l0 -5.93c0,-0.23 0.19,-0.42 0.42,-0.42l7.62 0c0.24,0 0.42,0.19 0.43,0.42l0 2.12 1.69 0z"/>
    </g>
    <g>
     <path class="fil6" d="M26.22 14.72c-0.11,-0.01 -0.22,-0.05 -0.3,-0.13 -0.02,-0.02 -0.03,-0.04 -0.05,-0.06 -0.02,-0.02 -0.03,-0.05 -0.04,-0.08 -0.01,-0.02 -0.02,-0.05 -0.02,-0.07 -0.01,-0.03 -0.01,-0.06 -0.01,-0.09 0,-0.23 0.19,-0.42 0.42,-0.42 0.23,0 0.42,0.19 0.42,0.42 0,0.03 0,0.06 0,0.09 -0.01,0.02 -0.02,0.05 -0.03,0.07 -0.01,0.03 -0.02,0.06 -0.04,0.08 -0.01,0.02 -0.03,0.04 -0.05,0.06 -0.08,0.08 -0.19,0.12 -0.3,0.13z"/>
     <path class="fil6" d="M26.22 18.1c-0.05,0 -0.11,-0.01 -0.16,-0.03 -0.05,-0.02 -0.1,-0.05 -0.14,-0.09 -0.16,-0.17 -0.16,-0.43 0,-0.6 0.04,-0.04 0.09,-0.07 0.14,-0.09 0.08,-0.03 0.16,-0.04 0.25,-0.02 0.02,0 0.05,0.01 0.07,0.02 0.03,0.01 0.05,0.02 0.08,0.04 0.02,0.02 0.04,0.03 0.06,0.05 0.17,0.17 0.17,0.43 0,0.6 -0.02,0.02 -0.04,0.03 -0.06,0.05 -0.03,0.02 -0.05,0.03 -0.08,0.04 -0.02,0.01 -0.05,0.02 -0.07,0.02 -0.03,0.01 -0.06,0.01 -0.09,0.01z"/>
     <path class="fil6" d="M31.3 14.72c-0.05,0 -0.11,-0.02 -0.16,-0.04 -0.05,-0.02 -0.1,-0.05 -0.14,-0.09 -0.02,-0.02 -0.03,-0.04 -0.05,-0.06 -0.02,-0.02 -0.03,-0.05 -0.04,-0.08 -0.01,-0.02 -0.02,-0.05 -0.02,-0.07 -0.01,-0.03 -0.01,-0.06 -0.01,-0.09 0,-0.11 0.04,-0.22 0.12,-0.3 0.04,-0.04 0.09,-0.07 0.14,-0.09 0.16,-0.06 0.34,-0.03 0.46,0.09 0.08,0.08 0.12,0.19 0.12,0.3 0,0.03 0,0.06 0,0.09 -0.01,0.02 -0.02,0.05 -0.03,0.07 -0.01,0.03 -0.02,0.06 -0.04,0.08 -0.01,0.02 -0.03,0.04 -0.05,0.06 -0.08,0.08 -0.19,0.12 -0.3,0.13z"/>
     <path class="fil6" d="M31.3 18.1c-0.17,0 -0.32,-0.1 -0.39,-0.26 -0.07,-0.16 -0.03,-0.34 0.09,-0.46 0.1,-0.1 0.24,-0.14 0.38,-0.11 0.03,0 0.06,0.01 0.08,0.02 0.03,0.01 0.06,0.02 0.08,0.04 0.02,0.02 0.04,0.03 0.06,0.05 0.17,0.17 0.17,0.43 0,0.6 -0.02,0.02 -0.04,0.03 -0.06,0.05 -0.02,0.02 -0.05,0.03 -0.08,0.04 -0.02,0.01 -0.05,0.02 -0.08,0.02 -0.02,0.01 -0.05,0.01 -0.08,0.01z"/>
    </g>
    <path class="fil2" d="M28.76 17.26c-0.23,0 -0.42,-0.19 -0.42,-0.43l0 -1.69c0,-0.23 0.19,-0.42 0.42,-0.42 0.24,0 0.42,0.19 0.42,0.42l0 1.69c0,0.24 -0.18,0.43 -0.42,0.43z"/>
    <g>
     <path class="fil5" d="M27.07 16.41l-0.85 0c-0.23,0 -0.42,-0.19 -0.42,-0.42 0,-0.24 0.19,-0.43 0.42,-0.43l0.85 0c0.23,0 0.42,0.19 0.42,0.43 0,0.23 -0.19,0.42 -0.42,0.42z"/>
     <path class="fil5" d="M31.3 16.41l-0.85 0c-0.23,0 -0.42,-0.19 -0.42,-0.42 0,-0.24 0.19,-0.43 0.42,-0.43l0.85 0c0.24,0 0.42,0.19 0.42,0.43 0,0.23 -0.18,0.42 -0.42,0.42z"/>
    </g>
    <rect class="fil3" x="27.07" y="7.52" width="5.08" height="2.54"/>
    <path class="fil6" d="M19.02 12.6l3.39 0c0.23,0 0.42,0.19 0.42,0.42l0 5.93c0,0.23 -0.19,0.42 -0.42,0.42l-3.39 0c-0.23,0 -0.42,-0.19 -0.42,-0.42l0 -5.93c0,-0.23 0.19,-0.42 0.42,-0.42z"/>
    <g>
     <path class="fil9" d="M20.72 14.72c-0.12,-0.01 -0.22,-0.05 -0.3,-0.13 -0.02,-0.02 -0.04,-0.04 -0.05,-0.06 -0.02,-0.02 -0.03,-0.05 -0.04,-0.08 -0.02,-0.02 -0.02,-0.05 -0.03,-0.07 0,-0.03 -0.01,-0.06 -0.01,-0.09 0,-0.11 0.05,-0.22 0.13,-0.3 0.1,-0.1 0.24,-0.14 0.38,-0.11 0.03,0 0.05,0.01 0.08,0.02 0.02,0.01 0.05,0.03 0.07,0.04 0.03,0.02 0.05,0.03 0.07,0.05 0.07,0.08 0.12,0.19 0.12,0.3 0,0.03 0,0.06 -0.01,0.09 0,0.02 -0.01,0.05 -0.02,0.07 -0.01,0.03 -0.03,0.06 -0.04,0.08 -0.02,0.02 -0.04,0.04 -0.05,0.06 -0.02,0.02 -0.04,0.04 -0.07,0.05 -0.02,0.02 -0.05,0.03 -0.07,0.04 -0.03,0.01 -0.05,0.02 -0.08,0.03 -0.03,0 -0.05,0.01 -0.08,0.01z"/>
     <path class="fil9" d="M20.72 16.41c-0.06,0 -0.11,-0.01 -0.16,-0.03 -0.06,-0.03 -0.1,-0.06 -0.14,-0.09 -0.02,-0.02 -0.04,-0.05 -0.05,-0.07 -0.02,-0.02 -0.03,-0.05 -0.04,-0.07 -0.02,-0.03 -0.02,-0.05 -0.03,-0.08 0,-0.03 -0.01,-0.06 -0.01,-0.08 0,-0.06 0.02,-0.11 0.04,-0.16 0.04,-0.11 0.12,-0.19 0.23,-0.23 0.07,-0.04 0.16,-0.05 0.24,-0.03 0.03,0.01 0.05,0.01 0.08,0.03 0.02,0.01 0.05,0.02 0.07,0.04 0.03,0.01 0.05,0.03 0.07,0.05 0.03,0.04 0.06,0.08 0.09,0.14 0.02,0.05 0.03,0.1 0.03,0.16 0,0.02 0,0.05 -0.01,0.08 0,0.03 -0.01,0.05 -0.02,0.08 -0.01,0.02 -0.03,0.05 -0.04,0.07 -0.02,0.02 -0.04,0.05 -0.05,0.07 -0.02,0.01 -0.04,0.03 -0.07,0.05 -0.02,0.01 -0.05,0.03 -0.07,0.04 -0.03,0.01 -0.05,0.02 -0.08,0.02 -0.03,0.01 -0.05,0.01 -0.08,0.01z"/>
     <path class="fil9" d="M20.72 18.1c-0.06,0 -0.11,-0.01 -0.16,-0.03 -0.06,-0.02 -0.1,-0.05 -0.14,-0.09 -0.17,-0.17 -0.17,-0.43 0,-0.6 0.04,-0.04 0.08,-0.07 0.14,-0.09 0.07,-0.03 0.16,-0.04 0.24,-0.02 0.03,0 0.05,0.01 0.08,0.02 0.02,0.01 0.05,0.02 0.07,0.04 0.03,0.02 0.05,0.03 0.07,0.05 0.16,0.17 0.16,0.43 0,0.6 -0.02,0.02 -0.04,0.03 -0.07,0.05 -0.02,0.02 -0.05,0.03 -0.07,0.04 -0.03,0.01 -0.05,0.02 -0.08,0.02 -0.03,0.01 -0.05,0.01 -0.08,0.01z"/>
    </g>
    <path class="fil6" d="M18.18 21.07l14.39 0c0.24,0 0.43,0.19 0.43,0.42l0 1.69c0,0.24 -0.19,0.43 -0.43,0.43l-14.39 0c-0.24,0 -0.43,-0.19 -0.43,-0.43l0 -1.69c0,-0.23 0.19,-0.42 0.43,-0.42z"/>
    <path class="fil5" d="M11.83 24.45c-0.18,0 -0.33,-0.1 -0.4,-0.26 -0.06,-0.16 -0.03,-0.34 0.09,-0.46 0.04,-0.04 0.09,-0.07 0.14,-0.09 0.11,-0.04 0.22,-0.04 0.33,0 0.05,0.02 0.1,0.05 0.14,0.09 0.07,0.08 0.12,0.19 0.12,0.3 0,0.06 -0.01,0.11 -0.04,0.16 -0.02,0.05 -0.05,0.1 -0.08,0.14 -0.09,0.08 -0.19,0.12 -0.3,0.12z"/>
    <g>
     <path class="fil3" d="M19.87 22.76l0 0.85 -0.85 0 0 -0.85c0,-0.23 0.19,-0.42 0.43,-0.42 0.23,0 0.42,0.19 0.42,0.42z"/>
     <path class="fil3" d="M21.56 22.76l0 0.85 -0.84 0 0 -0.85c0,-0.23 0.19,-0.42 0.42,-0.42 0.23,0 0.42,0.19 0.42,0.42z"/>
     <path class="fil3" d="M23.26 22.76l0 0.85 -0.85 0 0 -0.85c0,-0.23 0.19,-0.42 0.42,-0.42 0.24,0 0.43,0.19 0.43,0.42z"/>
     <path class="fil3" d="M24.95 22.76l0 0.85 -0.85 0 0 -0.85c0,-0.23 0.19,-0.42 0.43,-0.42 0.23,0 0.42,0.19 0.42,0.42z"/>
     <path class="fil3" d="M26.64 22.76l0 0.85 -0.84 0 0 -0.85c0,-0.23 0.19,-0.42 0.42,-0.42 0.23,0 0.42,0.19 0.42,0.42z"/>
     <path class="fil3" d="M28.34 22.76l0 0.85 -0.85 0 0 -0.85c0,-0.23 0.19,-0.42 0.42,-0.42 0.24,0 0.43,0.19 0.43,0.42z"/>
     <path class="fil3" d="M30.03 22.76l0 0.85 -0.85 0 0 -0.85c0,-0.23 0.19,-0.42 0.43,-0.42 0.23,0 0.42,0.19 0.42,0.42z"/>
     <path class="fil3" d="M31.72 22.76l0 0.85 -0.84 0 0 -0.85c0,-0.23 0.19,-0.42 0.42,-0.42 0.24,0 0.42,0.19 0.42,0.42z"/>
     <path class="fil3" d="M16.06 1.17l1.69 0 0 2.54c0,0.23 -0.19,0.42 -0.42,0.42l-0.85 0c-0.23,0 -0.42,-0.19 -0.42,-0.42l0 -2.54 0 0z"/>
    </g>
    <g>
     <circle class="fil5" cx="19.45" cy="6.67" r="0.85"/>
     <circle class="fil5" cx="21.14" cy="6.67" r="0.85"/>
     <circle class="fil5" cx="22.83" cy="6.67" r="0.85"/>
     <circle class="fil5" cx="24.53" cy="6.67" r="0.85"/>
     <circle class="fil5" cx="27.07" cy="10.06" r="0.85"/>
     <circle class="fil5" cx="28.76" cy="10.06" r="0.85"/>
     <circle class="fil5" cx="30.45" cy="10.06" r="0.85"/>
     <circle class="fil5" cx="32.15" cy="10.06" r="0.85"/>
    </g>
   </g>
   <g>
   </g>
   <g>
   </g>
   <g>
   </g>
   <g>
   </g>
   <g>
   </g>
   <g>
   </g>
   <g>
   </g>
   <g>
   </g>
   <g>
   </g>
   <g>
   </g>
   <g>
   </g>
   <g>
   </g>
   <g>
   </g>
   <g>
   </g>
   <g>
   </g>
  </g>
 </g>
</svg>
