<?xml version="1.0" encoding="UTF-8"?>
<!DOCTYPE svg PUBLIC "-//W3C//DTD SVG 1.1//EN" "http://www.w3.org/Graphics/SVG/1.1/DTD/svg11.dtd">
<!-- Creator: CorelDRAW 2019 (64-Bit) -->
<svg xmlns="http://www.w3.org/2000/svg" xml:space="preserve" width="300px" height="180px" version="1.1" style="shape-rendering:geometricPrecision; text-rendering:geometricPrecision; image-rendering:optimizeQuality; fill-rule:evenodd; clip-rule:evenodd"
viewBox="0 0 67.66 40.6"
 xmlns:xlink="http://www.w3.org/1999/xlink">
 <defs>
  <style type="text/css">
   <![CDATA[
    .fil0 {fill:none}
    .fil2 {fill:#54596E}
    .fil5 {fill:#9AF43B}
    .fil1 {fill:#FF927D}
    .fil3 {fill:#FFB3A4}
    .fil4 {fill:#FFD578}
   ]]>
  </style>
 </defs>
 <g id="Layer_x0020_1">
  <metadata id="CorelCorpID_0Corel-Layer"/>
  <rect class="fil0" width="67.66" height="40.6"/>
  <g id="physical.svg">
   <g>
    <path class="fil1" d="M51.05 10.87l-34.44 0c-0.9,0 -1.63,0.73 -1.63,1.64l0 24.62 37.7 0 0 -24.62c0,-0.91 -0.73,-1.64 -1.63,-1.64l0 0zm0 0l0 0 0 0z"/>
   </g>
   <path class="fil2" d="M51.05 10.87l0 -0.67 -34.44 0c-1.27,0 -2.3,1.03 -2.3,2.31l0 24.62c0,0.18 0.07,0.35 0.19,0.47 0.13,0.13 0.3,0.2 0.48,0.2l37.7 0c0.18,0 0.35,-0.07 0.48,-0.2 0.12,-0.12 0.19,-0.29 0.19,-0.47l0 -24.62c0,-1.28 -1.03,-2.31 -2.3,-2.31l0 1.35c0.53,0 0.96,0.43 0.96,0.96l0 23.95 -36.36 0 0 -23.95c0,-0.53 0.43,-0.96 0.96,-0.96l34.44 0 0 -0.68zm0 0z"/>
   <path class="fil3" d="M19.69 12.89c-0.17,0 -0.34,0.07 -0.47,0.2l-2.02 2.02c-0.27,0.26 -0.27,0.69 0,0.95 0.13,0.13 0.3,0.2 0.47,0.2 0.18,0 0.35,-0.07 0.48,-0.2l2.02 -2.02c0.26,-0.26 0.26,-0.69 0,-0.95 -0.13,-0.13 -0.3,-0.2 -0.48,-0.2z"/>
   <g>
    <path class="fil3" d="M23.73 12.89c-0.17,0 -0.34,0.07 -0.47,0.2l-5.73 5.72c-0.26,0.27 -0.26,0.69 0,0.95 0.14,0.14 0.31,0.2 0.48,0.2 0.17,0 0.34,-0.06 0.48,-0.2l5.72 -5.72c0.26,-0.26 0.26,-0.69 0,-0.95 -0.13,-0.13 -0.31,-0.2 -0.48,-0.2l0 0zm0 0l0 0 0 0z"/>
   </g>
   <g>
    <path class="fil2" d="M37.87 35.78l0 1.35 -8.08 0 0 -1.35 -16.83 0 0.67 2.7 40.4 0 0.67 -2.7 -16.83 0zm0 0z"/>
    <path class="fil2" d="M39.41 20.77l2.02 2.02c0.27,0.27 0.69,0.27 0.96,0 0.26,-0.26 0.26,-0.69 0,-0.95l-2.02 -2.02c-0.27,-0.26 -0.69,-0.26 -0.96,0 -0.26,0.27 -0.26,0.69 0,0.95z"/>
    <path class="fil2" d="M40.37 22.79l2.02 -2.02c0.26,-0.26 0.26,-0.68 0,-0.95 -0.27,-0.26 -0.69,-0.26 -0.96,0l-2.02 2.02c-0.26,0.26 -0.26,0.69 0,0.95 0.27,0.27 0.69,0.27 0.96,0z"/>
    <path class="fil2" d="M24.6 20.77l2.02 2.02c0.27,0.27 0.69,0.27 0.95,0 0.27,-0.26 0.27,-0.69 0,-0.95l-2.02 -2.02c-0.26,-0.26 -0.68,-0.26 -0.95,0 -0.26,0.27 -0.26,0.69 0,0.95z"/>
    <path class="fil2" d="M25.55 22.79l2.02 -2.02c0.27,-0.26 0.27,-0.68 0,-0.95 -0.26,-0.26 -0.68,-0.26 -0.95,0l-2.02 2.02c-0.26,0.26 -0.26,0.69 0,0.95 0.27,0.27 0.69,0.27 0.95,0z"/>
    <path class="fil2" d="M37.87 29.72l-8.75 0 0.67 -2.12c0.67,-1.65 1.66,-2.59 3.7,-2.59 2.05,0 3.03,0.94 3.71,2.59l0.67 2.12zm0 0z"/>
    <path class="fil2" d="M37.87 29.72l0 -0.67 -7.83 0 0.39 -1.24 -0.64 -0.21 0.62 0.26c0.32,-0.77 0.67,-1.29 1.12,-1.63 0.46,-0.34 1.04,-0.54 1.96,-0.55 0.93,0.01 1.51,0.21 1.96,0.55 0.46,0.34 0.81,0.86 1.12,1.63l0.63 -0.26 -0.65 0.21 0.68 2.12 0.64 -0.21 0 -0.67 0 0.67 0.64 -0.2 -0.67 -2.12 -0.02 -0.05c-0.36,-0.89 -0.83,-1.66 -1.56,-2.2 -0.71,-0.55 -1.64,-0.82 -2.77,-0.81 -1.12,-0.01 -2.05,0.26 -2.77,0.81 -0.72,0.54 -1.19,1.31 -1.55,2.2l-0.02 0.05 -0.67 2.12c-0.07,0.2 -0.03,0.43 0.09,0.6 0.13,0.17 0.33,0.28 0.55,0.28l8.75 0c0.21,0 0.42,-0.11 0.54,-0.28 0.13,-0.17 0.17,-0.4 0.1,-0.6l-0.64 0.2zm0 0z"/>
   </g>
   <path class="fil4" d="M23.19 4.55l2.02 2.69c0.17,0.21 0.44,0.31 0.71,0.25l2.23 -0.56 1.08 1.62c0.21,0.31 0.63,0.4 0.93,0.19 0.31,-0.21 0.4,-0.62 0.19,-0.93l-1.35 -2.02c-0.15,-0.24 -0.44,-0.35 -0.72,-0.28l-2.26 0.56 -1.75 -2.33c-0.22,-0.3 -0.64,-0.36 -0.94,-0.14 -0.3,0.23 -0.36,0.65 -0.14,0.95l0 0zm0 0z"/>
   <path class="fil4" d="M37.67 8.66l1.87 -1.87 3.83 -0.64c0.19,-0.03 0.36,-0.15 0.46,-0.32 0.1,-0.16 0.13,-0.37 0.06,-0.56l-0.67 -2.02c-0.12,-0.35 -0.5,-0.54 -0.85,-0.42 -0.35,0.12 -0.54,0.5 -0.43,0.85l0.43 1.27 -3.26 0.55c-0.14,0.02 -0.27,0.08 -0.37,0.18l-2.02 2.02c-0.26,0.27 -0.26,0.69 0,0.96 0.26,0.26 0.69,0.26 0.95,0zm0 0z"/>
   <path class="fil4" d="M34.47 7.97l-1.16 -3.49 2.17 -1.08c0.33,-0.17 0.47,-0.57 0.3,-0.91 -0.17,-0.33 -0.57,-0.46 -0.9,-0.3l-2.7 1.35c-0.3,0.15 -0.44,0.5 -0.33,0.81l1.34 4.04c0.12,0.36 0.5,0.55 0.85,0.43 0.36,-0.12 0.55,-0.5 0.43,-0.85l0 0zm0 0z"/>
   <path class="fil5" d="M35.18 29.05l-3.37 0 0 3.03c0,0.93 0.75,1.68 1.68,1.68 0.13,0 0.25,-0.01 0.37,-0.04 0.14,0.79 0.82,1.39 1.65,1.39 0.93,0 1.69,-0.75 1.69,-1.68l0 -4.38 -2.02 0zm0 0z"/>
   <path class="fil2" d="M35.18 29.05l0 -0.67 -3.37 0c-0.18,0 -0.35,0.07 -0.47,0.19 -0.13,0.13 -0.2,0.3 -0.2,0.48l0 3.03c0,1.3 1.05,2.36 2.35,2.36 0.19,0 0.36,-0.03 0.52,-0.06l-0.15 -0.66 -0.66 0.12c0.19,1.1 1.15,1.94 2.31,1.94 1.31,0 2.36,-1.05 2.36,-2.35l0 -4.38c0,-0.18 -0.07,-0.35 -0.2,-0.48 -0.12,-0.12 -0.3,-0.19 -0.47,-0.19l-2.02 0 0 1.34 1.34 0 0 3.71c0,0.55 -0.45,1 -1.01,1.01 -0.49,0 -0.9,-0.36 -0.99,-0.84 -0.03,-0.18 -0.13,-0.34 -0.29,-0.44 -0.15,-0.1 -0.34,-0.14 -0.52,-0.1 -0.08,0.02 -0.15,0.03 -0.22,0.03 -0.55,0 -1,-0.45 -1.01,-1.01l0 -2.36 1.35 0 1.35 0 0 -0.67zm0 0z"/>
   <path class="fil2" d="M33.16 31.74l0 2.02c0,0.37 0.3,0.68 0.67,0.68 0.37,0 0.67,-0.31 0.67,-0.68l0 -2.02c0,-0.37 -0.3,-0.67 -0.67,-0.67 -0.37,0 -0.67,0.3 -0.67,0.67z"/>
  </g>
 </g>
</svg>
