<?xml version="1.0" encoding="UTF-8"?>
<!DOCTYPE svg PUBLIC "-//W3C//DTD SVG 1.1//EN" "http://www.w3.org/Graphics/SVG/1.1/DTD/svg11.dtd">
<!-- Creator: CorelDRAW 2019 (64-Bit) -->
<svg xmlns="http://www.w3.org/2000/svg" xml:space="preserve" width="300px" height="180px" version="1.1" style="shape-rendering:geometricPrecision; text-rendering:geometricPrecision; image-rendering:optimizeQuality; fill-rule:evenodd; clip-rule:evenodd"
viewBox="0 0 132.75 79.65"
 xmlns:xlink="http://www.w3.org/1999/xlink"
 enable-background="new 0 0 512.023 512.023">
 <defs>
  <style type="text/css">
   <![CDATA[
    .fil0 {fill:none}
    .fil4 {fill:#44454E}
    .fil3 {fill:#595965}
    .fil8 {fill:#63AC7D}
    .fil7 {fill:#79CB9C}
    .fil6 {fill:#D2D2FC}
    .fil2 {fill:#EBB15D}
    .fil5 {fill:#EDEBFD}
    .fil1 {fill:#F1CC76}
   ]]>
  </style>
 </defs>
 <g id="Layer_x0020_1">
  <metadata id="CorelCorpID_0Corel-Layer"/>
  <rect class="fil0" width="132.75" height="79.65"/>
  <g id="power.svg">
   <g>
    <path class="fil1" d="M65.81 3.83c-2.17,0 -3.94,1.77 -3.94,3.94l0 11.81c0,0.62 0.51,1.13 1.13,1.13l5.62 -0.01c0.62,0 1.13,-0.5 1.13,-1.12l0 -11.81c0,-2.17 -1.77,-3.94 -3.94,-3.94l0 0z"/>
    <path class="fil1" d="M87.18 3.83c-2.17,0 -3.94,1.77 -3.94,3.94l0 11.81c0,0.62 0.51,1.13 1.13,1.13l5.62 -0.01c0.62,0 1.13,-0.5 1.13,-1.12l0 -11.81c0,-2.17 -1.77,-3.94 -3.94,-3.94l0 0z"/>
    <path class="fil2" d="M91.12 7.77l0 11.81c0,0.62 -0.51,1.13 -1.13,1.13l-3.37 -0.01c0.62,0 1.12,-0.5 1.12,-1.12l0 -11.81c0,-1.57 -0.92,-2.92 -2.25,-3.56 2.59,-1.23 5.63,0.66 5.63,3.56l0 0z"/>
    <path class="fil2" d="M69.75 7.77l0 11.81c0,0.62 -0.51,1.13 -1.13,1.13l-3.37 -0.01c0.62,0 1.12,-0.5 1.12,-1.12l0 -11.81c0,-1.57 -0.92,-2.92 -2.25,-3.56 2.59,-1.23 5.63,0.66 5.63,3.56l0 0z"/>
    <path class="fil3" d="M78.74 60.07l-4.49 0c-0.63,0 -1.13,0.5 -1.13,1.13l0 4.78c0,1.7 -1.39,3.09 -3.09,3.09l-19.68 0c-1.71,0 -3.1,-1.39 -3.1,-3.09l0 -10.97c0,-0.62 -0.5,-1.13 -1.12,-1.13l-4.5 0c-0.62,0 -1.13,0.51 -1.13,1.13l0 11.25c0,5.27 4.29,9.56 9.56,9.56l20.25 0c5.27,0 9.56,-4.29 9.56,-9.56l0 -5.06c0,-0.63 -0.5,-1.13 -1.13,-1.13l0 0z"/>
    <path class="fil4" d="M50.35 69.07l-2.25 0c-1.71,0 -3.1,-1.39 -3.1,-3.09l0 -10.97c0,-0.62 -0.5,-1.13 -1.12,-1.13l2.25 0c0.62,0 1.12,0.51 1.12,1.13l0 10.97c0,1.7 1.39,3.09 3.1,3.09l0 0z"/>
    <path class="fil4" d="M79.87 61.2l0 5.06c0,5.27 -4.29,9.56 -9.56,9.56l-2.25 0c5.27,0 9.56,-4.29 9.56,-9.56l0 -5.06c0,-0.63 -0.5,-1.13 -1.12,-1.13l2.24 0c0.63,0 1.13,0.5 1.13,1.13l0 0z"/>
    <circle class="fil1" cx="43.88" cy="51.07" r="5.62"/>
    <path class="fil2" d="M49.5 51.07c0,4.07 -4.19,6.77 -7.87,5.16 4.49,-1.97 4.49,-8.35 0,-10.31 3.68,-1.61 7.87,1.08 7.87,5.15z"/>
    <path class="fil5" d="M82.12 52.2l-11.25 0c-0.62,0 -1.12,0.5 -1.12,1.12l0 4.5c0,2.48 2.02,4.5 4.5,4.5l4.49 0c2.49,0 4.5,-2.02 4.5,-4.5l0 -4.5c0,-0.62 -0.5,-1.12 -1.12,-1.12z"/>
    <path class="fil6" d="M83.24 53.32l0 4.5c0,2.48 -2.01,4.5 -4.5,4.5l-4.49 0c2.48,0 4.49,-2.02 4.49,-4.5l0 -4.5c0,-0.62 -0.5,-1.12 -1.12,-1.12l4.5 0c0.62,0 1.12,0.5 1.12,1.12l0 0z"/>
    <path class="fil5" d="M91.12 24.08l-29.25 0c-0.62,0 -1.12,0.5 -1.12,1.12l0 14.63c0,8.68 7.06,15.74 15.75,15.74 8.68,0 15.74,-7.06 15.74,-15.74l0 -14.63c0,-0.62 -0.5,-1.12 -1.12,-1.12z"/>
    <path class="fil6" d="M92.24 25.2l0 14.63c0,9.57 -8.53,16.96 -17.99,15.58 7.62,-1.09 13.49,-7.67 13.49,-15.58l0 -14.63c0,-0.62 -0.5,-1.12 -1.12,-1.12l4.5 0c0.62,0 1.12,0.5 1.12,1.12z"/>
    <path class="fil7" d="M82.68 36.45l-4.5 0 0 -6.75c0,-1.16 -1.55,-1.55 -2.11,-0.54l-6.75 12.38c-0.41,0.74 0.14,1.66 0.99,1.66l4.5 0 0 6.75c0,1.16 1.56,1.55 2.11,0.54l6.75 -12.38c0.41,-0.74 -0.14,-1.66 -0.99,-1.66z"/>
    <path class="fil8" d="M78.18 36.45l-3.37 0 0 -4.97 1.26 -2.32c0.56,-1.01 2.11,-0.62 2.11,0.54l0 6.75z"/>
    <path class="fil8" d="M83.67 38.11l-6.75 12.38c-0.55,1.02 -2.11,0.62 -2.11,-0.54l0 -1.78 5.48 -10.06c0.41,-0.74 -0.13,-1.66 -0.98,-1.66l3.37 0c0.85,0 1.4,0.92 0.99,1.66l0 0z"/>
    <path class="fil5" d="M90.55 18.46l-28.11 0c-2.17,0 -3.94,1.76 -3.94,3.93 0,2.17 1.77,3.94 3.94,3.94l28.11 0c2.17,0 3.94,-1.77 3.94,-3.94 0,-2.17 -1.76,-3.93 -3.94,-3.93z"/>
    <path class="fil6" d="M94.49 22.39c0,2.17 -1.76,3.94 -3.94,3.94l-5.62 0c2.17,0 3.94,-1.77 3.94,-3.94 0,-2.17 -1.77,-3.93 -3.94,-3.93l5.62 0c2.18,0 3.94,1.76 3.94,3.93z"/>
   </g>
  </g>
 </g>
</svg>
