<?xml version="1.0" encoding="UTF-8"?>
<!DOCTYPE svg PUBLIC "-//W3C//DTD SVG 1.1//EN" "http://www.w3.org/Graphics/SVG/1.1/DTD/svg11.dtd">
<!-- Creator: CorelDRAW 2019 (64-Bit) -->
<svg xmlns="http://www.w3.org/2000/svg" xml:space="preserve" width="550px" height="350px" version="1.1" style="shape-rendering:geometricPrecision; text-rendering:geometricPrecision; image-rendering:optimizeQuality; fill-rule:evenodd; clip-rule:evenodd"
viewBox="0 0 124.61 79.3"
 xmlns:xlink="http://www.w3.org/1999/xlink">
 <defs>
  <style type="text/css">
   <![CDATA[
    .fil0 {fill:none}
    .fil2 {fill:#4C8056}
    .fil3 {fill:#5E5F62}
    .fil1 {fill:#71C285}
    .fil5 {fill:#A5A5A4}
    .fil6 {fill:#B19046}
    .fil7 {fill:#E4C05C}
    .fil4 {fill:#ECF0F1}
   ]]>
  </style>
 </defs>
 <g id="Layer_x0020_1">
  <metadata id="CorelCorpID_0Corel-Layer"/>
  <rect class="fil0" width="124.61" height="79.3"/>
 </g>
 <g id="Layer_x0020_1_0">
  <metadata id="CorelCorpID_1Corel-Layer"/>
  <g id="ram.svg">
   <g>
    <path class="fil1" d="M80.97 14.2c0.94,0.94 2.45,0.94 3.39,0l3.39 3.4c-0.93,0.93 -0.93,2.45 0,3.39 0.94,0.94 2.46,0.94 3.4,0l5.93 5.94 -47.5 47.5 -5.93 -5.94c0.93,-0.94 0.93,-2.46 0,-3.39 -0.94,-0.94 -2.46,-0.94 -3.4,0l-3.39 -3.4c0.94,-0.93 0.94,-2.45 0,-3.39 -0.94,-0.94 -2.46,-0.94 -3.39,0l-5.94 -5.94 47.5 -47.5 5.94 5.94c-0.94,0.94 -0.94,2.45 0,3.39z"/>
    <g>
     <path class="fil2" d="M34.32 53.58c-0.32,-0.01 -0.63,-0.13 -0.85,-0.36 -0.23,-0.22 -0.35,-0.53 -0.35,-0.84 0,-0.32 0.12,-0.63 0.35,-0.86 0.22,-0.22 0.53,-0.35 0.84,-0.35 0.32,0 0.63,0.13 0.85,0.35 0.12,0.11 0.21,0.24 0.26,0.39 0.06,0.15 0.1,0.31 0.1,0.47 0,0.15 -0.03,0.31 -0.1,0.45 -0.05,0.15 -0.14,0.28 -0.26,0.39 -0.22,0.22 -0.52,0.35 -0.84,0.36z"/>
     <path class="fil2" d="M75.03 12.86c-0.32,0 -0.62,-0.13 -0.85,-0.36 -0.22,-0.22 -0.35,-0.52 -0.35,-0.84 0,-0.32 0.13,-0.62 0.35,-0.85 0.48,-0.45 1.22,-0.45 1.69,0 0.23,0.23 0.36,0.53 0.36,0.85 -0.01,0.66 -0.54,1.19 -1.2,1.2l0 0z"/>
    </g>
    <g>
     <path class="fil3" d="M39.4 52.37l2.54 -2.54c0.47,-0.47 1.23,-0.47 1.7,0l6.79 6.79c0.46,0.46 0.46,1.22 0,1.69l-2.55 2.55c-0.47,0.46 -1.23,0.46 -1.69,0l-6.79 -6.79c-0.47,-0.47 -0.47,-1.23 0,-1.7z"/>
     <path class="fil3" d="M47.04 44.74l2.55 -2.54c0.47,-0.47 1.23,-0.47 1.69,0l6.79 6.78c0.47,0.47 0.47,1.23 0,1.7l-2.54 2.54c-0.47,0.47 -1.23,0.47 -1.7,0l-6.79 -6.78c-0.46,-0.47 -0.46,-1.23 0,-1.7z"/>
     <path class="fil3" d="M54.67 37.11l2.55 -2.55c0.47,-0.47 1.23,-0.47 1.69,0l6.79 6.79c0.47,0.47 0.47,1.23 0,1.69l-2.55 2.55c-0.46,0.47 -1.22,0.47 -1.69,0l-6.79 -6.79c-0.47,-0.47 -0.47,-1.23 0,-1.69z"/>
    </g>
    <path class="fil4" d="M83.51 25.23l-1.69 1.69 -1.7 1.71 -1.69 1.69 -1.71 1.7 -1.69 1.69 -4.24 4.25c-0.23,0.22 -0.53,0.35 -0.85,0.35 -0.32,0 -0.62,-0.13 -0.84,-0.35l-6.79 -6.79c-0.47,-0.47 -0.47,-1.23 0,-1.7l12.72 -12.72c0.23,-0.22 0.53,-0.35 0.85,-0.35 0.32,0 0.62,0.13 0.84,0.35l6.79 6.78c0.47,0.47 0.47,1.23 0,1.7z"/>
    <g>
     <path class="fil3" d="M81.82 26.92l-1.7 1.71 -1.69 -1.71c-0.23,-0.22 -0.36,-0.52 -0.36,-0.84 0,-0.32 0.13,-0.63 0.36,-0.85 0.22,-0.22 0.53,-0.35 0.84,-0.35 0.32,0 0.63,0.13 0.85,0.35l1.7 1.69z"/>
     <path class="fil3" d="M78.43 30.32l-1.71 1.7 -1.69 -1.7c-0.3,-0.3 -0.42,-0.75 -0.31,-1.16 0.11,-0.41 0.44,-0.73 0.85,-0.84 0.41,-0.11 0.85,0 1.15,0.31l1.71 1.69z"/>
     <path class="fil3" d="M75.03 33.71l-1.7 1.71 -1.69 -1.71c-0.3,-0.3 -0.42,-0.74 -0.31,-1.15 0.11,-0.42 0.43,-0.74 0.84,-0.85 0.42,-0.11 0.86,0.01 1.16,0.31l1.7 1.69z"/>
    </g>
    <g>
     <path class="fil5" d="M69.09 30.67c-0.48,0 -0.92,-0.29 -1.11,-0.74 -0.18,-0.45 -0.08,-0.96 0.26,-1.31l3.4 -3.39c0.3,-0.3 0.74,-0.42 1.16,-0.31 0.41,0.11 0.73,0.43 0.84,0.85 0.11,0.41 0,0.85 -0.31,1.16l-3.39 3.39c-0.22,0.22 -0.53,0.35 -0.85,0.35z"/>
     <path class="fil5" d="M75.87 23.89c-0.48,0 -0.92,-0.3 -1.11,-0.75 -0.18,-0.45 -0.07,-0.96 0.27,-1.3 0.47,-0.46 1.22,-0.46 1.69,0 0.12,0.11 0.21,0.24 0.27,0.38 0.06,0.15 0.08,0.31 0.08,0.47 0,0.32 -0.12,0.62 -0.35,0.85 -0.23,0.22 -0.53,0.34 -0.85,0.35z"/>
    </g>
    <rect class="fil6" transform="matrix(-0.0217068 0.0217068 -0.0217068 -0.0217068 52.9715 71.03)" width="156.3" height="156.3"/>
    <rect class="fil7" transform="matrix(-0.0217068 0.0217068 -0.0217068 -0.0217068 93.6846 30.3156)" width="1875.53" height="156.3"/>
    <rect class="fil6" transform="matrix(-0.0217068 0.0217068 -0.0217068 -0.0217068 97.0779 26.9253)" width="156.26" height="156.26"/>
   </g>
   <g>
   </g>
   <g>
   </g>
   <g>
   </g>
   <g>
   </g>
   <g>
   </g>
   <g>
   </g>
   <g>
   </g>
   <g>
   </g>
   <g>
   </g>
   <g>
   </g>
   <g>
   </g>
   <g>
   </g>
   <g>
   </g>
   <g>
   </g>
   <g>
   </g>
  </g>
 </g>
</svg>
