<?xml version="1.0" encoding="UTF-8"?>
<!DOCTYPE svg PUBLIC "-//W3C//DTD SVG 1.1//EN" "http://www.w3.org/Graphics/SVG/1.1/DTD/svg11.dtd">
<!-- Creator: CorelDRAW 2019 (64-Bit) -->
<svg xmlns="http://www.w3.org/2000/svg" xml:space="preserve" width="300px" height="180px" version="1.1" style="shape-rendering:geometricPrecision; text-rendering:geometricPrecision; image-rendering:optimizeQuality; fill-rule:evenodd; clip-rule:evenodd"
viewBox="0 0 5810.58 3486.35"
 xmlns:xlink="http://www.w3.org/1999/xlink">
 <defs>
  <style type="text/css">
   <![CDATA[
    .fil0 {fill:none}
    .fil1 {fill:url(#id0)}
   ]]>
  </style>
  <linearGradient id="id0" gradientUnits="userSpaceOnUse" x1="2905.29" y1="213.12" x2="2905.29" y2="3273.23">
   <stop offset="0" style="stop-opacity:1; stop-color:#2AF598"/>
   <stop offset="1" style="stop-opacity:1; stop-color:#009EFD"/>
  </linearGradient>
 </defs>
 <g id="Layer_x0020_1">
  <metadata id="CorelCorpID_0Corel-Layer"/>
  <rect class="fil0" x="-0.02" y="0.01" width="5810.58" height="3486.33"/>
  <path id="reinstall.svg" class="fil1" d="M3088.35 2795.1l-366.11 0 -91.1 -342.42c-70.3,-20.33 -138.08,-48.54 -202.61,-84.32l-304.14 175.1 -258.46 -258.46 175.12 -304.14c-35.8,-64.53 -64.01,-132.29 -84.35,-202.62l-342.39 -91.07 0 -366.13 342.39 -91.07c20.34,-70.32 48.55,-138.11 84.35,-202.64l-175.12 -304.12 258.46 -258.45 304.16 175.09c64.53,-35.8 132.29,-63.98 202.59,-84.32l91.1 -342.41 366.11 0 91.09 342.41c70.3,20.34 138.06,48.52 202.59,84.32l304.17 -175.09 258.45 258.45 -175.11 304.14c35.8,64.54 64,132.3 84.34,202.64l342.39 91.05 0 366.13 -342.39 91.07c-20.34,70.33 -48.54,138.06 -84.34,202.6l175.11 304.14 -258.47 258.48 -304.15 -175.1c-64.53,35.78 -132.29,63.99 -202.63,84.32l-91.05 342.42zm-654.29 -705.78l61.49 40.35c79.34,52.09 165.88,88.1 257.23,107.02l72.28 14.96 80.23 301.58 80.23 -301.58 72.29 -14.96c91.34,-18.92 177.88,-54.93 257.22,-107.02l61.49 -40.35 268.66 154.66 -154.67 -268.66 40.36 -61.49c52.09,-79.33 88.09,-165.85 106.99,-257.2l14.98 -72.31 301.56 -80.23 -301.56 -80.2 -14.98 -72.31c-18.9,-91.35 -54.9,-177.89 -106.97,-257.22l-40.38 -61.49 154.67 -268.66 -268.66 154.69 -61.49 -40.4c-79.34,-52.09 -165.85,-88.05 -257.22,-106.97l-72.29 -14.96 -80.23 -301.58 -80.23 301.58 -72.28 14.96c-91.37,18.92 -177.89,54.9 -257.23,106.99l-61.49 40.38 -268.66 -154.69 154.67 268.66 -40.38 61.49c-52.09,79.33 -88.07,165.87 -106.97,257.22l-14.98 72.31 -301.56 80.2 301.56 80.23 14.98 72.31c18.9,91.35 54.91,177.87 107,257.2l40.35 61.49 -154.67 268.66 268.66 -154.66zm1642.68 -494.06l0.07 0 -0.07 0zm358.61 1319.37l0 -460.23 -239.08 0.02 0 460.21c0,65.9 -53.62,119.52 -119.53,119.52l-2342.9 0c-65.9,0 -119.53,-53.62 -119.53,-119.52l0 -460.23 -239.08 0.02 0 460.21c0,197.74 160.87,358.6 358.61,358.6l2342.9 0c197.75,0 358.61,-160.86 358.61,-358.6zm-1403.83 -1887.94l-239.05 0 0 715.75 239.05 0 0 -715.75zm311.67 555.23l-169.06 -169.06 -268.11 268.11 -268.11 -268.11 -169.05 169.06 437.16 437.14 437.17 -437.14zm0 0z"/>
 </g>
</svg>
