<?xml version="1.0" encoding="UTF-8"?>
<!DOCTYPE svg PUBLIC "-//W3C//DTD SVG 1.1//EN" "http://www.w3.org/Graphics/SVG/1.1/DTD/svg11.dtd">
<!-- Creator: CorelDRAW 2019 (64-Bit) -->
<svg xmlns="http://www.w3.org/2000/svg" xml:space="preserve" width="300px" height="180px" version="1.1" style="shape-rendering:geometricPrecision; text-rendering:geometricPrecision; image-rendering:optimizeQuality; fill-rule:evenodd; clip-rule:evenodd"
viewBox="0 0 142.78 85.67"
 xmlns:xlink="http://www.w3.org/1999/xlink"
 enable-background="new 0 0 482.056 482.056">
 <defs>
  <style type="text/css">
   <![CDATA[
    .fil0 {fill:none}
    .fil2 {fill:#575B6D}
    .fil1 {fill:#62667C}
    .fil3 {fill:#69B0EE}
    .fil4 {fill:#828A9E}
    .fil5 {fill:#EEEFEE;fill-opacity:0.501961}
   ]]>
  </style>
 </defs>
 <g id="Layer_x0020_1">
  <metadata id="CorelCorpID_0Corel-Layer"/>
  <rect class="fil0" width="142.78" height="85.67"/>
  <g id="screen.svg">
   <g>
    <polygon class="fil1" points="86.24,77.4 56.55,77.4 60.8,64.29 81.99,64.29 "/>
    <path class="fil2" d="M88.33 76.27l-33.86 0c-1.41,0 -2.55,1.14 -2.55,2.55l0 1.34 38.95 0 0 -1.34c0,-1.41 -1.14,-2.55 -2.54,-2.55z"/>
    <path class="fil2" d="M115.81 9.07l0 56.59c0.01,1.87 -1.5,3.39 -3.37,3.4 0,0 -0.01,0 -0.01,0l-82.07 0c-1.87,0 -3.39,-1.52 -3.39,-3.39 0,0 0,-0.01 0,-0.01l0 -56.59c-0.01,-1.97 1.58,-3.56 3.55,-3.56l0 0 78.17 0c1.97,0 3.56,1.58 3.56,3.55l3.56 0.01z"/>
    <polygon class="fil3" points="30.64,9.39 112.14,9.39 112.14,56.76 30.64,56.76 "/>
    <circle class="fil4" transform="matrix(0.107809 -0.0446871 0.0446871 0.107809 71.4196 62.9002)" r="19.34"/>
    <g>
     <polygon class="fil5" points="47.99,56.76 44.97,56.76 71.41,9.39 74.43,9.39 "/>
     <polygon class="fil5" points="67.13,56.76 57.53,56.76 83.97,9.39 93.58,9.39 "/>
    </g>
   </g>
  </g>
 </g>
</svg>
