<?xml version="1.0" encoding="UTF-8"?>
<!DOCTYPE svg PUBLIC "-//W3C//DTD SVG 1.1//EN" "http://www.w3.org/Graphics/SVG/1.1/DTD/svg11.dtd">
<!-- Creator: CorelDRAW 2019 (64-Bit) -->
<svg xmlns="http://www.w3.org/2000/svg" xml:space="preserve" width="404px" height="256px" version="1.1" style="shape-rendering:geometricPrecision; text-rendering:geometricPrecision; image-rendering:optimizeQuality; fill-rule:evenodd; clip-rule:evenodd"
viewBox="0 0 235.86 149.46"
 xmlns:xlink="http://www.w3.org/1999/xlink">
 <defs>
  <style type="text/css">
   <![CDATA[
    .fil0 {fill:none}
    .fil2 {fill:#00AA63;fill-rule:nonzero}
    .fil1 {fill:#00DD80;fill-rule:nonzero}
    .fil6 {fill:#6FA5AA;fill-rule:nonzero}
    .fil5 {fill:#B4D2D7;fill-rule:nonzero}
    .fil4 {fill:#E1EBF0;fill-rule:nonzero}
    .fil3 {fill:white;fill-rule:nonzero}
   ]]>
  </style>
 </defs>
 <g id="Layer_x0020_1">
  <metadata id="CorelCorpID_0Corel-Layer"/>
  <rect class="fil0" width="235.86" height="149.46"/>
  <g id="secure.svg">
   <g id="surface1">
    <path class="fil1" d="M169.62 97.51c-3.65,9.88 -9.17,18.48 -16.4,25.55 -8.24,8.04 -19.02,14.43 -32.06,18.99 -0.42,0.15 -0.87,0.27 -1.32,0.36 -0.59,0.12 -1.19,0.18 -1.79,0.19l-0.12 0c-0.64,0 -1.28,-0.06 -1.91,-0.19 -0.45,-0.09 -0.89,-0.21 -1.31,-0.36 -13.05,-4.55 -23.85,-10.94 -32.1,-18.98 -7.24,-7.07 -12.75,-15.66 -16.4,-25.55 -6.62,-17.97 -6.25,-37.78 -5.94,-53.7l0 -0.24c0.06,-1.31 0.1,-2.69 0.13,-4.22 0.11,-7.48 6.06,-13.68 13.54,-14.09 15.61,-0.87 27.68,-5.96 38,-16.02l0.09 -0.08c1.71,-1.57 3.87,-2.34 6.02,-2.31 2.07,0.03 4.13,0.79 5.78,2.31l0.09 0.08c10.32,10.06 22.39,15.15 38,16.02 7.49,0.41 13.44,6.61 13.55,14.09 0.02,1.54 0.06,2.91 0.12,4.22l0 0.1c0.31,15.95 0.68,35.79 -5.97,53.83zm0 0z"/>
    <path class="fil2" d="M169.62 97.51c-3.65,9.88 -9.17,18.48 -16.4,25.55 -8.24,8.04 -19.02,14.43 -32.06,18.99 -0.42,0.15 -0.87,0.27 -1.32,0.36 -0.59,0.12 -1.19,0.18 -1.79,0.19l0 -135.74c2.07,0.03 4.13,0.79 5.78,2.31l0.09 0.08c10.32,10.06 22.39,15.15 38,16.02 7.49,0.41 13.44,6.61 13.55,14.09 0.02,1.54 0.06,2.91 0.12,4.22l0 0.1c0.31,15.95 0.68,35.79 -5.97,53.83zm0 0z"/>
    <path class="fil3" d="M151.76 74.73c0,18.61 -15.11,33.76 -33.71,33.83l-0.12 0c-18.65,0 -33.83,-15.18 -33.83,-33.83 0,-18.65 15.18,-33.83 33.83,-33.83l0.12 0c18.6,0.07 33.71,15.22 33.71,33.83zm0 0z"/>
    <path class="fil4" d="M151.76 74.73c0,18.61 -15.11,33.76 -33.71,33.83l0 -67.66c18.6,0.07 33.71,15.22 33.71,33.83zm0 0z"/>
    <path class="fil5" d="M133.28 69.86l-15.23 15.24 -3.29 3.29c-0.78,0.78 -1.8,1.16 -2.82,1.16 -1.02,0 -2.04,-0.38 -2.82,-1.16l-7.08 -7.08c-1.55,-1.56 -1.55,-4.08 0,-5.64 1.56,-1.55 4.08,-1.55 5.63,0l4.27 4.27 15.71 -15.71c1.56,-1.56 4.08,-1.56 5.63,0 1.56,1.55 1.56,4.07 0,5.63zm0 0z"/>
    <path class="fil6" d="M133.28 69.86l-15.23 15.24 0 -11.27 9.6 -9.6c1.56,-1.56 4.08,-1.56 5.63,0 1.56,1.55 1.56,4.07 0,5.63zm0 0z"/>
   </g>
  </g>
 </g>
</svg>
