<?xml version="1.0" encoding="UTF-8"?>
<!DOCTYPE svg PUBLIC "-//W3C//DTD SVG 1.1//EN" "http://www.w3.org/Graphics/SVG/1.1/DTD/svg11.dtd">
<!-- Creator: CorelDRAW 2019 (64-Bit) -->
<svg xmlns="http://www.w3.org/2000/svg" xml:space="preserve" width="300px" height="180px" version="1.1" style="shape-rendering:geometricPrecision; text-rendering:geometricPrecision; image-rendering:optimizeQuality; fill-rule:evenodd; clip-rule:evenodd"
viewBox="0 0 44.95 26.97"
 xmlns:xlink="http://www.w3.org/1999/xlink">
 <defs>
  <style type="text/css">
   <![CDATA[
    .fil39 {fill:none}
    .fil32 {fill:#113C67}
    .fil31 {fill:#15447C}
    .fil21 {fill:#163561}
    .fil30 {fill:#1D3154}
    .fil29 {fill:#204480}
    .fil17 {fill:#204D84}
    .fil13 {fill:#233862}
    .fil11 {fill:#294E95}
    .fil12 {fill:#2A4F96}
    .fil27 {fill:#2D3A64}
    .fil23 {fill:#5888DD}
    .fil18 {fill:#5F7CF2}
    .fil28 {fill:#6385DB}
    .fil7 {fill:#7399F0}
    .fil15 {fill:#7598EA}
    .fil20 {fill:#7AA0EB}
    .fil16 {fill:#90AFF4}
    .fil9 {fill:#93B5F4}
    .fil25 {fill:#A8D2A0}
    .fil37 {fill:#ACC1FE}
    .fil6 {fill:#AEC3FE}
    .fil22 {fill:#B6453D}
    .fil8 {fill:#BACDFE}
    .fil19 {fill:#CCDFFC}
    .fil14 {fill:#D5A6A1}
    .fil5 {fill:#DBE8FE}
    .fil0 {fill:#E5ECFE}
    .fil2 {fill:#E6EEFF}
    .fil33 {fill:#E7F1F8}
    .fil4 {fill:#E9F3FA}
    .fil1 {fill:#EAF2F9}
    .fil24 {fill:#ED7D2B}
    .fil35 {fill:#ED9457}
    .fil3 {fill:#F67D48}
    .fil10 {fill:#F99746}
    .fil36 {fill:#F9A669}
    .fil34 {fill:#FDB07B}
    .fil26 {fill:#FEB27E}
    .fil38 {fill:#FEFEFE}
   ]]>
  </style>
   <clipPath id="id0">
    <path d="M0 0l44.95 0 0 26.97 -44.95 0 0 -26.97z"/>
   </clipPath>
 </defs>
 <g id="Layer_x0020_1">
  <metadata id="CorelCorpID_0Corel-Layer"/>
  <polygon class="fil0" points="0,0 44.95,0 44.95,26.97 0,26.97 "/>
  <g style="clip-path:url(#id0)">
   <g id="_2013778240528">
    <g>
     <path id="1" class="fil1" d="M-4.6 34.51l1.69 0c0.18,-0.24 0.85,-0.18 1.18,-0.23 -0.09,-0.11 -0.64,-0.47 -0.82,-0.58 -0.18,-0.13 -0.24,-0.17 -0.38,-0.31 -0.43,-0.45 0.32,-0.96 0.87,-0.12 0.14,0.22 0.37,0.7 0.43,0.99l0.21 -0.03c-0.09,-0.39 -0.4,-1.09 -0.59,-1.38 -0.14,-0.22 -0.87,-1.1 -0.13,-1.16 -0.02,-0.04 -0.03,-0.03 0,-0.07 0.66,-0.03 3.53,0.06 3.87,-0.01l-0.01 0.12c-0.01,-0.45 0.18,-2.21 0.37,-2.51l0.15 -0.98c0.1,-1.02 0.04,-2.35 -0.01,-3.37 -0.06,-0.13 -0.13,-0.09 -0.17,-0.32 -0.1,-0.69 0.1,-2.72 0.2,-3.38 0.09,-0.63 0.37,-2.26 0.85,-2.75 0.13,-0.13 0.16,-0.13 0.31,-0.22 0.01,-0.12 0.11,-0.25 0.18,-0.3l0.01 -0.32c-0.44,-0.24 -0.84,-0.94 -0.88,-1.47 -0.04,-0.54 0.99,-0.81 1.53,-0.81l0 -0.07c0.23,0 0.59,0.06 0.76,-0.02l-1.05 -4.41 0.42 -0.13c0.29,-0.01 2.39,0.03 2.46,-0.02 -0.08,-0.16 -0.13,-0.16 -0.17,-0.42 -0.04,-0.19 -0.04,-0.38 -0.02,-0.57 0.02,-0.37 0.12,-0.67 0.2,-0.99 -0.26,0 -0.53,-0.01 -0.79,-0.06 -0.27,-0.06 -0.4,-0.12 -0.42,-0.42 -0.05,-0.56 0.24,-1.25 0.23,-1.45 -0.31,-0.42 -0.3,-0.91 0,-1.35 0.29,-0.41 0.75,-0.62 0.93,-0.85 0.29,-0.38 0.07,-0.65 0.5,-1.29 0.12,-0.18 0.26,-0.35 0.47,-0.44 0.27,-0.14 0.5,0 0.75,-0.06 0.21,-0.1 1.06,-0.04 1.37,-0.04 0.47,0 0.95,0 1.43,0 0.33,0 2.69,-0.04 2.79,0.02 0.09,-0.15 0.12,-1.18 0.23,-1.37l0.16 -0.01c0.14,0.27 0.23,2.85 0.37,3.37 0.23,-0.1 0.53,-0.3 0.76,-0.42 0.2,-0.11 0.65,-0.48 0.82,-0.17 0.1,-0.09 0.09,-0.05 0.36,-0.05 0.28,0 2.69,-0.04 2.8,0.03 0.2,-0.4 0.71,-0.82 1.11,-1.02 0.5,-0.26 1.17,-0.38 1.81,-0.28 0.52,0.08 1.11,0.35 1.46,0.68 0.56,0.54 0.54,0.71 0.93,1.22 0.13,-0.07 0.21,-0.15 0.34,-0.25 0.86,-0.63 1.78,-0.96 2.83,-1.22 0.87,-0.13 1.53,-0.19 2.46,-0.07 1.53,0.21 3.33,1.1 4.34,2.29 0.1,0.12 0.2,0.21 0.31,0.35 0.05,0.06 0.09,0.12 0.14,0.19l0.14 0.19c0.12,0.13 0.31,0.47 0.41,0.64 0.06,0.1 0.32,0.65 0.37,0.7 0.04,-0.07 0.02,-0.02 0.04,-0.09 1.63,0 3.26,0 4.89,0 0.34,0 1.41,-0.06 1.6,0.04 0.63,-2.18 0.39,-4.4 -0.57,-6.22 -0.31,-0.57 -0.88,-1.49 -1.34,-1.93l-0.72 -0.69c-1.55,-1.5 -4.52,-3.01 -6.6,-3.7 -1.82,-0.59 -4.23,-1.16 -6.34,-1.15l-1.16 2.64c0.99,0.13 2.17,-0.28 2.22,0.36 0.01,0.24 -0.4,0.66 -0.62,0.93 -0.49,0.62 -1.25,1.68 -1.73,2.36 -0.13,0.18 -1.2,1.68 -1.37,1.71 -0.18,0.02 -0.24,-0.14 -0.19,-0.28l0.68 -1.87c0.09,-0.25 0.18,-0.5 0.27,-0.75 0.09,-0.24 0.22,-0.53 0.27,-0.77 -0.38,0.03 -0.79,0.09 -1.17,0.14 -0.24,0.03 -0.97,0.17 -1.11,0.05 -0.21,-0.19 0.13,-0.52 0.34,-0.81 0.19,-0.24 0.38,-0.49 0.56,-0.74l2.21 -2.97c-1.08,-0.11 -3.36,0.33 -4.43,0.67 -1.3,0.41 -2.45,0.99 -3.38,1.68l-0.7 0.57c-0.67,0.54 -0.99,1.09 -2.02,1.77 -1.08,0.73 -2.16,1.15 -3.74,1.32 -2.95,0.33 -6.2,-0.39 -9.37,0.68 -2.45,0.84 -3.95,2.18 -5.52,3.96 -3.58,4.07 1.83,8.4 0.82,12.26 -0.24,0.93 -0.69,1.4 -1.21,1.95 -0.1,0.12 -0.21,0.21 -0.31,0.33 -0.19,0.22 -0.39,0.43 -0.59,0.67 -0.75,0.95 -1.37,1.82 -1.96,3.09 -1.24,2.63 -1.35,5.69 -0.36,8.43 0.23,0.65 0.48,1.19 0.77,1.76 0.14,0.28 0.29,0.53 0.46,0.8l0.51 0.78z"/>
     <path class="fil2" d="M23.26 20.94c2.76,-0.34 3.19,3.42 0.53,3.76 -2.79,0.35 -3.24,-3.42 -0.53,-3.76zm-7.84 -3.58c0.11,0.29 0.57,0.68 0.7,1.83 0.08,0.75 -0.09,1.52 -0.39,2.1 -0.31,0.61 -0.68,1 -1.17,1.36 -0.62,0.46 -1.1,0.54 -1.81,0.68 -0.28,0.63 -0.55,1.24 -0.83,1.87 -0.36,0.79 0.13,1.51 0.69,1.75 0.5,0.21 1.82,-0.01 2.43,-0.06l7.5 -0.63c1.66,-0.14 3.35,-0.33 5.01,-0.42 -0.05,-0.43 -0.07,-0.62 0.02,-1.05 0.06,-0.31 0.17,-0.62 0.23,-0.92l-0.5 -0.01 -0.75 -1.77c-0.1,-0.07 -0.1,-0.03 -0.16,-0.15 -0.04,-0.1 -0.03,-0.16 -0.03,-0.27l-0.16 -0.41 0.77 -0.01c0.16,-0.4 0.32,-0.83 0.49,-1.23 0.12,-0.29 0.15,-0.34 0.43,-0.46 0.17,-0.08 0.48,-0.17 0.7,-0.14 0.06,-0.04 0.04,-0.02 0.1,-0.07 -1.33,-0.02 -0.9,-0.68 -0.85,-0.99 0.04,-0.26 -0.04,-0.35 -0.06,-0.58 -0.07,-0.59 0.18,-1.15 0.73,-1.3l0.57 -0.12c0.03,-0.09 0,-0.05 0.14,-0.06l1.44 -0.04c-0.01,-0.09 -0.03,-0.1 -0.1,-0.19l-0.93 -1.39c-0.35,-0.53 -0.68,-1.03 -1.04,-1.56l-1.96 -2.94c-0.05,-0.09 -0.08,-0.15 -0.13,-0.17l-2.08 0c-0.02,0.17 0.05,0.05 -0.08,0.1l0.39 9.07 -3.05 0.25 -1.3 -10.37 3.78 -0.32c0.05,-0.04 0.08,-0.05 0.17,-0.05 0.21,-0.01 1.15,-0.01 1.22,0.01l0.01 -0.1c-0.02,-0.11 -1.18,-1.8 -1.35,-2.05 -0.23,-0.35 -0.45,-0.68 -0.68,-1.02 -0.23,-0.35 -0.43,-0.73 -0.76,-0.94 -0.39,-0.25 -0.9,-0.27 -1.33,-0.05 -0.41,0.21 -0.51,0.5 -0.73,0.98 -0.36,0.79 -0.69,1.58 -1.06,2.37 -0.36,0.77 -0.71,1.57 -1.05,2.36 -0.35,0.79 -0.72,1.58 -1.06,2.37 -0.68,1.59 -1.44,3.15 -2.12,4.74z"/>
     <path class="fil1" d="M36.27 7.53c0,0.1 0.25,0.73 0.3,0.93 0.09,0.32 0.13,0.7 0.22,1.01 -0.01,0.29 0.11,1.36 0.01,1.58 -0.03,1.55 -0.98,3.4 -2.03,4.46 -0.05,0.05 -0.08,0.07 -0.13,0.11 -0.12,0.11 -0.05,0.08 -0.26,0.26l-0.54 0.46c-0.01,0 -0.02,0.01 -0.03,0.01l-0.04 0.03c-0.19,0.11 -0.6,0.39 -0.75,0.45 0.07,0.16 0.27,0.43 0.39,0.59 0.14,0.22 0.26,0.41 0.4,0.61 0.22,0.33 2.35,3.47 2.42,3.66 0.17,-0.08 2.83,-0.05 3.2,-0.03 -0.14,-0.35 -0.22,-0.59 -0.3,-1 -0.06,-0.4 -0.11,-0.8 -0.13,-1.21 -0.66,0.14 -0.36,-0.61 -0.29,-1 -0.08,-0.06 -0.07,-0.16 -0.02,-0.26 0.02,-0.04 0.11,-0.2 0.14,-0.22l0.02 -0.24c-0.27,-0.09 -1.28,-0.06 -1.64,-0.08l-0.04 0.04c-0.25,-0.13 -0.08,-0.4 0,-0.64l0.6 -1.68c0.03,-0.07 0.21,-0.24 0.24,-0.07 0.31,0.27 0.6,0.51 1,0.78 0.19,0.12 0.36,0.23 0.56,0.35 0.12,0.06 0.48,0.24 0.57,0.33 0.09,0 0.51,0.16 0.61,0.22 0.17,0.09 0.19,0.31 0.15,0.5 -0.02,0.09 -0.01,0.09 -0.06,0.14 -0.02,0.15 -0.19,0.27 -0.38,0.29 -0.17,0.02 -0.42,-0.05 -0.6,-0.07l-0.41 -0.05 -0.1 0.49 0.02 0.1c0.01,0.03 0.01,0.01 0.02,0.07l-0.04 0.44 0.1 0.02c0.08,0.36 0.56,1.56 0.77,1.72 0.3,-0.06 1.29,-1.5 2.05,-1.55l0 -0.33 0.01 -0.22 0.01 -0.14c-0.42,-0.06 -0.53,-0.09 -0.51,-0.55 0.02,-0.25 0.1,-0.64 0.18,-0.87l-0.12 -0.03 -0.1 -0.02c-0.54,-1.25 1.57,-0.71 1.88,-0.5 0.03,0.01 0.06,0.04 0.09,0.05 0.3,0.14 0.03,0.16 0.23,0.28 -0.1,0.05 -0.05,0 -0.06,0.15 -0.01,0.19 -0.12,0.43 -0.2,0.59 -0.16,0.33 -0.22,0.38 -0.49,0.56 -0.1,0.28 0,0.65 0.05,0.94 0.3,0.04 0.59,0.17 0.85,0.31 0.1,0.05 0.03,0.03 0.12,0.04 0.13,0.02 0.03,-0.02 0.29,-0.02 0.11,0 0.22,0 0.33,0l4.82 0c-0.48,-0.96 -1.46,-2.06 -2.24,-2.82 -0.4,-0.39 -1.56,-1.49 -1.97,-1.82 -0.57,-0.47 -1.72,-1.65 -2.22,-2.21 -0.26,-0.3 -0.58,-0.76 -0.78,-1.11 -0.94,-1.67 -0.09,-2.38 0.36,-3.88 -0.19,-0.1 -1.26,-0.04 -1.6,-0.04 -1.63,0 -3.26,0 -4.89,0 -0.02,0.07 0,0.02 -0.04,0.09z"/>
     <path class="fil1" d="M44.21 19.34c0.07,0.1 0.2,0.18 0.27,0.28 0.24,0.33 0.4,0.75 0.5,1.15 0.15,0.59 0.3,1.15 0.45,1.72 0.23,0.87 0.26,0.98 0.11,1.91l-0.33 1.74c-0.04,0.07 0.01,0.02 -0.05,0.06 0.1,0.44 0.09,0.47 -0.06,0.87 -0.07,0.18 -0.06,0.16 -0.13,0.2 -0.09,-0.14 -0.04,-0.35 -0.13,-0.51l-0.03 0.22c-0.1,-0.05 -0.09,-0.08 -0.13,-0.19 -0.08,-0.25 0.03,-0.33 0.1,-0.67 -0.13,-0.15 -0.09,-0.57 -0.1,-0.8 -0.02,-0.29 -0.03,-0.57 -0.04,-0.85 -0.02,-0.7 0.09,-0.74 -0.28,-1.29 -0.06,-0.08 -0.04,-0.1 -0.11,-0.06 0.01,0.15 -0.08,0.7 -0.09,0.91 -0.01,0.28 0.04,0.75 0,0.97 0.04,0.06 0.04,0.22 0.03,0.32 -0.02,0.14 -0.05,0.14 -0.13,0.22 0.21,0.84 0.03,0.76 0.46,1.94 0.1,0.29 0.23,0.58 0.37,0.83 0.09,0.15 0.17,0.23 0.25,0.36 0.33,0.56 0.57,1.67 0.7,2.33l0.25 1.57c0.02,0.2 0.08,0.35 -0.01,0.5 0.12,0.16 0.47,0.41 0.2,0.71 -0.43,0.46 -0.21,0.6 -0.44,0.68 0.09,0.13 -0.11,-0.03 0.05,0.03 0.13,0.05 3.46,0.02 3.61,0.02l0.52 -0.76c1.25,-1.93 1.99,-4.41 1.93,-6.78 -0.07,-2.74 -0.93,-5.4 -2.3,-7.65l-4.82 0c-0.11,0 -0.22,0 -0.33,0 -0.26,0 -0.16,0.04 -0.29,0.02z"/>
     <path class="fil3" d="M19.62 4.11c-0.16,0.23 -0.29,0.54 -0.41,0.81l-2.57 5.75 -0.38 0.85 -0.75 1.68 -1.36 3.08c0.26,0.14 0.52,0.31 0.71,0.48 0.11,0.1 0.18,0.19 0.28,0.29l0.28 0.31c0.68,-1.59 1.44,-3.15 2.12,-4.74 0.34,-0.79 0.71,-1.58 1.06,-2.37 0.34,-0.79 0.69,-1.59 1.05,-2.36 0.37,-0.79 0.7,-1.58 1.06,-2.37 0.22,-0.48 0.32,-0.77 0.73,-0.98 0.43,-0.22 0.94,-0.2 1.33,0.05 0.33,0.21 0.53,0.59 0.76,0.94 0.23,0.34 0.45,0.67 0.68,1.02 0.17,0.25 1.33,1.94 1.35,2.05 0.15,0.12 0.92,1.36 0.94,1.41 0.05,0.02 0.08,0.08 0.13,0.17l1.96 2.94c0.36,0.53 0.69,1.03 1.04,1.56l0.93 1.39c0.07,0.09 0.09,0.1 0.1,0.19 0.1,0.06 1.67,2.46 1.88,2.77 0.62,0.94 1.23,1.85 1.86,2.79 0.31,0.46 0.63,0.93 0.93,1.4 0.37,0.57 0.25,1.27 -0.16,1.67 -0.44,0.44 -1.11,0.4 -1.85,0.46 -0.71,0.06 -1.43,0.13 -2.13,0.18l0.07 1.61 3.44 -0.3c0.71,-0.18 0.97,-0.26 1.45,-0.66 0.87,-0.73 1.26,-1.98 0.88,-3.14 -0.15,-0.43 -0.34,-0.7 -0.58,-1.05l-0.16 -0.25c-0.05,-0.06 -0.01,-0.03 -0.06,-0.05 -0.07,-0.19 -2.2,-3.33 -2.42,-3.66 -0.14,-0.2 -0.26,-0.39 -0.4,-0.61 -0.12,-0.16 -0.32,-0.43 -0.39,-0.59l-1.68 -2.53 -2.43 -3.63 -2.66 -3.99c-0.1,-0.09 -0.55,-0.8 -0.67,-0.98 -0.22,-0.33 -0.47,-0.66 -0.65,-0.99 -0.39,-0.51 -0.37,-0.68 -0.93,-1.22 -0.35,-0.33 -0.94,-0.6 -1.46,-0.68 -0.64,-0.1 -1.31,0.02 -1.81,0.28 -0.4,0.2 -0.91,0.62 -1.11,1.02z"/>
     <path class="fil4" d="M34.7 26.84l0.9 3.44 -0.05 0.02c-0.2,0.08 -0.49,0.31 -0.65,0.37 -0.12,0.03 -2.15,0.01 -2.52,0.01 -0.21,0 -0.44,-0.04 -0.44,0.06 0.03,0.35 0.12,0.71 0.15,1.09 0.04,0.36 0.02,0.87 0.07,1.18 0.05,0.02 0.23,0.23 0.28,0.31 0.24,0.37 -0.15,0.5 -0.28,0.77 -0.07,0.15 -0.07,0.26 -0.15,0.41l3.25 0c-0.05,-0.17 0.07,-0.27 0.2,-0.33 0.15,-0.06 0.33,-0.01 0.49,0.01 0.04,-0.64 0.27,-2.67 1.12,-2.25 0.4,0.2 -0.2,0.91 -0.33,1.11 -0.12,0.19 -0.46,0.96 -0.49,1.21l0.18 0.03c0.15,-0.47 0.58,-1.62 1.21,-1.27 0.17,0.09 0.14,0.29 0.03,0.43 -0.15,0.19 -0.91,0.68 -1.14,0.84 0.25,0.16 0.88,-0.06 1.09,0.23l2.58 -0.01c0.1,-0.25 0.33,-0.2 0.59,-0.3 0.11,-0.04 0.21,-0.09 0.29,-0.16 0.09,-0.08 0.11,-0.11 0.18,-0.2 -0.25,-1.37 -0.24,-3 -0.32,-4.42 -0.04,-0.61 -0.36,-4.16 -0.19,-4.45l-0.02 -0.21c-0.13,-0.57 0.16,-2.88 0.16,-2.9 -0.01,-0.06 0,-0.02 -0.02,-0.06l-0.79 0.15c-0.42,0.11 -0.48,-0.07 -0.65,-0.29 -0.37,-0.02 -3.03,-0.05 -3.2,0.03 0.05,0.02 0.01,-0.01 0.06,0.05l0.16 0.25c0.24,0.35 0.43,0.62 0.58,1.05 0.38,1.16 -0.01,2.41 -0.88,3.14 -0.48,0.4 -0.74,0.48 -1.45,0.66z"/>
     <path class="fil4" d="M7.2 24.91l-1.76 1.68c-0.2,0.21 -0.05,0.15 -0.13,0.32 0.01,0.48 -0.11,1.26 -0.16,1.74 -0.15,1.24 -0.3,2.15 -0.38,3.43l-0.05 1.78c0.15,0.09 0.27,0.22 0.53,0.31 0.26,0.1 0.49,0.06 0.55,0.34l10.86 0 -0.09 -0.06c-0.04,-0.02 -0.04,-0.02 -0.08,-0.06 -0.05,-0.04 -0.09,-0.09 -0.12,-0.15 -0.19,-0.34 -0.05,-1.07 -0.01,-1.5 0.05,-0.66 0.15,-1.4 0.17,-2.06l-7.79 0c-0.09,-0.07 -0.34,-1.26 -0.38,-1.46 -0.12,-0.48 -0.24,-0.98 -0.35,-1.46 -0.07,-0.32 -0.63,-2.84 -0.72,-2.9l-0.09 0.05z"/>
     <path class="fil5" d="M29.76 3.98c0.26,-0.11 0.51,0.11 0.77,0.16 0.37,0.06 0.43,0.07 0.71,0.25 0.18,0.11 0.39,0.31 0.23,0.61 -0.22,0.39 -0.35,0.09 -0.63,0.33 -0.44,0.39 -0.77,0.85 -1,0.08 -0.08,-0.26 -0.12,-0.51 -0.21,-0.76 -0.09,-0.23 -0.12,-0.57 0.13,-0.67zm-1.66 -0.74c0.14,0.17 0.25,0.13 0.4,0.37 0.1,0.15 0.15,0.35 0.23,0.51 0.22,0.42 0.52,0.41 0.21,0.99 -0.24,0.45 -0.37,0.73 0.21,0.91 0.21,0.06 0.63,0.19 0.73,0.39 0.3,0.56 -0.81,0.05 -1.11,0.01 -0.51,-0.08 -0.62,0.23 -0.79,0.59 -0.42,0.91 -0.96,-0.21 -1.73,-0.33l2.66 3.99 1.47 0 0.96 3.63 1.68 2.53c0.15,-0.06 0.56,-0.34 0.75,-0.45l0.04 -0.03c0.01,0 0.02,-0.01 0.03,-0.01 -0.49,0.05 -1.51,-0.61 -0.24,-1.62 0.64,-0.5 0.8,-0.36 0,-0.9 -0.21,-0.15 -0.36,-0.27 -0.51,-0.46 -0.42,-0.55 0.24,-1.11 0.14,-1.53 -0.16,-0.23 -2.16,0.08 -1.98,-1.24 0.03,-0.26 0.21,-0.36 0.33,-0.47 0.2,-0.2 0.16,-0.3 0.14,-0.63 -0.03,-0.55 0.56,-0.6 1.03,-0.51 0.27,0.06 0.4,0.13 0.71,0.04 0.23,-0.07 0.37,-0.15 0.65,-0.14 1.29,0.03 0.72,1.23 1.7,1.55 1.06,0.35 0.63,0.28 0.91,0.49 0.07,0.06 0.07,0.02 0.08,0.13 0.1,-0.22 -0.02,-1.29 -0.01,-1.58 -0.9,0.1 -0.77,-0.94 -1.55,-0.93 -0.54,0 -0.51,-0.09 -0.63,-0.57 -0.25,-1.01 -1.04,-0.68 -1.48,-0.96 -0.17,-0.11 -0.08,-0.31 0.01,-0.42 0.27,-0.3 0.65,-0.13 0.99,-0.25 0.19,-0.07 0.18,-0.17 0.34,-0.26 0.34,-0.19 0.71,0.05 1.02,0.11l-0.14 -0.19c-0.05,-0.07 -0.09,-0.13 -0.14,-0.19 -0.11,-0.14 -0.21,-0.23 -0.31,-0.35 -1.01,-1.19 -2.81,-2.08 -4.34,-2.29 -0.93,-0.12 -1.59,-0.06 -2.46,0.07z"/>
     <path class="fil6" d="M8.37 23.81c-0.1,0.11 -0.17,0.18 -0.28,0.28 -0.1,0.09 -0.21,0.16 -0.26,0.28 -0.04,0.23 1.29,5.11 1.44,5.87l18.81 0 0.01 -0.03 -0.35 -2.77c-1.68,0.11 -3.37,0.27 -5.05,0.42l-7.55 0.64c-0.69,0.06 -1.9,0.23 -2.54,0.11 -1.33,-0.23 -2.51,-1.44 -2.41,-3.02l0 0.14 -1.15 0 -0.49 -1.98 -0.18 0.06z"/>
     <path class="fil1" d="M8.53 2.75c0.18,0.12 0.25,0.03 0.48,0.51 0.27,0.57 0.58,1.76 0.25,2.29l0.22 1.21 0.07 -0.19 2.76 0.01 -0.82 2.06 -0.1 0c0.06,0.08 0.1,0.12 0.18,0.22 0.07,0.07 0.13,0.15 0.19,0.24l0.67 1.04c0.08,0.12 0.24,0.44 0.32,0.52l3.89 0.01 2.57 -5.75c0.12,-0.27 0.25,-0.58 0.41,-0.81 -0.11,-0.07 -2.52,-0.03 -2.8,-0.03 -0.27,0 -0.26,-0.04 -0.36,0.05 0.03,0.01 0.04,0.02 0.06,0.08 0.03,0.13 -0.02,0.25 -0.04,0.38 -0.22,1.24 -0.3,2.66 -0.51,3.99 -0.02,0.12 -0.05,0.35 -0.22,0.28 -0.14,-0.06 -0.19,-0.72 -0.23,-0.91 -0.1,-0.64 -0.22,-1.29 -0.31,-1.93 -0.11,0.05 -0.95,0.69 -1.08,0.78 -0.07,0.05 -0.22,0.17 -0.28,0.19 -0.39,0.09 -0.17,-0.65 -0.12,-1.03 0.05,-0.41 0.43,-3.06 0.39,-3.23 -0.1,-0.06 -2.46,-0.02 -2.79,-0.02 -0.48,0 -0.96,0 -1.43,0 -0.31,0 -1.16,-0.06 -1.37,0.04z"/>
     <polygon class="fil3" points="24.34,10.11 24.29,8.74 24.16,8.74 20.38,9.06 21.68,19.43 24.73,19.18 "/>
     <path class="fil3" d="M10.19 25.59c-0.1,1.58 1.08,2.79 2.41,3.02 0.64,0.12 1.85,-0.05 2.54,-0.11l7.55 -0.64c1.68,-0.15 3.37,-0.31 5.05,-0.42l-0.19 -1.6c-1.66,0.09 -3.35,0.28 -5.01,0.42l-7.5 0.63c-0.61,0.05 -1.93,0.27 -2.43,0.06 -0.56,-0.24 -1.05,-0.96 -0.69,-1.75 0.28,-0.63 0.55,-1.24 0.83,-1.87 -0.34,0.01 -0.59,0.02 -0.92,-0.03 -0.3,-0.04 -0.49,-0.12 -0.76,-0.18 -0.03,0.14 -0.18,0.45 -0.25,0.59 -0.09,0.2 -0.17,0.37 -0.26,0.57 -0.19,0.42 -0.33,0.77 -0.37,1.31z"/>
     <path class="fil7" d="M10.61 13.2l-0.07 0.15 -0.09 0.01c-0.08,0.48 -0.39,1 -0.09,1.46 0.06,0.1 0.16,0.21 0.16,0.35 -0.39,0.05 -0.64,-0.47 -0.97,-0.77 -0.16,-0.15 -0.42,-0.43 -0.04,-0.54 0.05,-0.06 0.11,-0.06 0.18,-0.09 0.19,-0.08 0.27,-0.36 0.29,-0.54l-0.05 -0.03 -4.04 0 1.71 6.81 0.74 -0.22c0.06,-0.09 0.06,-0.15 0.14,-0.25 0.07,-0.09 0.1,-0.16 0.16,-0.26 0.12,-1.41 0.94,-2.38 1.8,-2.9 0.49,-0.3 1.11,-0.51 1.79,-0.54 0.61,-0.03 1.49,0.15 1.92,0.44l1.36 -3.08 -1.23 -0.02c0.09,0.15 0.25,0.14 0.42,0.2 0.13,0 0.29,0.01 0.38,0.08 -0.13,0.25 -0.53,0.24 -0.84,0.24 -0.36,-0.01 -0.76,0.29 -0.72,-0.22 0,-0.13 0.01,-0.22 -0.06,-0.31 -0.12,0.08 -2.47,0.02 -2.85,0.03z"/>
     <path class="fil7" d="M39.22 18.91c0,0.11 -0.02,0.22 -0.05,0.33 -0.04,0.13 -0.08,0.15 -0.17,0.21 0.02,0.41 0.07,0.81 0.13,1.21 0.08,0.41 0.16,0.65 0.3,1 0.17,0.22 0.23,0.4 0.65,0.29 0.1,-0.09 0.36,-0.09 0.58,-0.29 0.05,-0.04 0.32,-0.4 0.34,-0.45 0,0.17 -0.06,0.48 -0.13,0.59 0.02,0.04 0.01,0 0.02,0.06 0,0.02 -0.29,2.33 -0.16,2.9 0.1,0.06 0.15,0.11 0.23,0.18 0.05,0.03 0.06,0.04 0.11,0.08 0.06,0.04 0.06,0.03 0.08,0.08 0.2,0.08 0.39,0.22 0.62,0.32 0.22,0.08 0.45,0.16 0.7,0.2 0.46,0.09 1.22,0.18 1.59,-0.08 0.08,-0.08 0.11,-0.08 0.13,-0.22 0.01,-0.1 0.01,-0.26 -0.03,-0.32 -0.03,0.07 -0.01,0.06 -0.15,-0.21 -0.38,-0.74 -0.48,-1.83 -0.49,-2.66 0.09,0.06 0.34,0.37 0.41,0.47 0.14,0.18 0.33,0.36 0.32,0.52 0.07,-0.04 0.05,-0.02 0.11,0.06 0.37,0.55 0.26,0.59 0.28,1.29 0.01,0.28 0.02,0.56 0.04,0.85 0.01,0.23 -0.03,0.65 0.1,0.8 0.1,0.08 0.21,0.11 0.38,0.08 0.06,-0.04 0.01,0.01 0.05,-0.06l0.33 -1.74c0.15,-0.93 0.12,-1.04 -0.11,-1.91 -0.15,-0.57 -0.3,-1.13 -0.45,-1.72 -0.1,-0.4 -0.26,-0.82 -0.5,-1.15 -0.07,-0.1 -0.2,-0.18 -0.27,-0.28 -0.09,-0.01 -0.02,0.01 -0.12,-0.04 -0.26,-0.14 -0.55,-0.27 -0.85,-0.31 -0.04,0.17 -0.28,0.22 -0.45,0.24 -0.11,0.01 -0.21,0 -0.31,-0.02 -0.25,-0.06 -0.19,-0.08 -0.21,-0.13 -0.76,0.05 -1.75,1.49 -2.05,1.55 -0.21,-0.16 -0.69,-1.36 -0.77,-1.72l-0.1 -0.02 -0.13 0.02z"/>
     <path class="fil1" d="M22.09 30.82l0.01 0.06 -0.16 1.68c-0.02,0.28 -0.11,0.89 -0.08,1.14 0.03,0.31 0.37,0.51 0.7,0.53l0.97 0.01 0.04 0 0 0.27 3.95 0c0.14,0 0.14,0.01 0.23,-0.06 0.05,-0.19 0.43,-0.2 0.62,-0.27 0.11,-0.05 0.22,-0.11 0.3,-0.18 0.12,-0.09 0.1,-0.13 0.19,-0.24 -0.02,-0.1 0,-0.05 -0.05,-0.11 -0.03,-0.02 -0.12,-0.07 -0.19,-0.17 -0.12,-0.16 -0.2,-0.96 -0.23,-1.18 -0.07,-0.54 -0.16,-1.1 -0.22,-1.62l-5.99 0c-0.13,0.06 -0.01,0.05 -0.09,0.14z"/>
     <path class="fil2" d="M29.08 16.36c0.47,-0.03 0.76,0.3 0.95,0.51 0.39,0.43 1.02,1.4 0.7,2.04 -0.15,0.29 -0.58,0.47 -1.04,0.42 0.11,0.04 0.21,-0.01 0.29,0.06 0.47,-0.08 0.94,0.38 1.17,0.7 0.28,0.4 0.74,1.38 0.88,1.9 0.09,0.32 0.1,0.52 -0.16,0.68 -0.39,0.22 -0.99,0.32 -1.5,0.34l0.01 0.14c0.17,0.19 0.45,0.72 0.58,1.01 0.08,0.2 0.15,0.39 0.17,0.61 0.03,0.22 0.02,0.58 0.06,0.76 0.7,-0.05 1.42,-0.12 2.13,-0.18 0.74,-0.06 1.41,-0.02 1.85,-0.46 0.41,-0.4 0.53,-1.1 0.16,-1.67 -0.3,-0.47 -0.62,-0.94 -0.93,-1.4 -0.63,-0.94 -1.24,-1.85 -1.86,-2.79 -0.21,-0.31 -1.78,-2.71 -1.88,-2.77l-1.44 0.04c-0.14,0.01 -0.11,-0.03 -0.14,0.06z"/>
     <path class="fil8" d="M33.84 16.34l0.54 -0.46c0.21,-0.18 0.14,-0.15 0.26,-0.26 0.05,-0.04 0.08,-0.06 0.13,-0.11 1.05,-1.06 2,-2.91 2.03,-4.46 -0.01,-0.11 -0.01,-0.07 -0.08,-0.13 -0.28,-0.21 0.15,-0.14 -0.91,-0.49 -0.98,-0.32 -0.41,-1.52 -1.7,-1.55 -0.28,-0.01 -0.42,0.07 -0.65,0.14 -0.31,0.09 -0.44,0.02 -0.71,-0.04 -0.47,-0.09 -1.06,-0.04 -1.03,0.51 0.02,0.33 0.06,0.43 -0.14,0.63 -0.12,0.11 -0.3,0.21 -0.33,0.47 -0.18,1.32 1.82,1.01 1.98,1.24 0.1,0.42 -0.56,0.98 -0.14,1.53 0.15,0.19 0.3,0.31 0.51,0.46 0.8,0.54 0.64,0.4 0,0.9 -1.27,1.01 -0.25,1.67 0.24,1.62z"/>
     <path class="fil9" d="M11.21 22.84l2.8 -6.29c-0.26,-0.2 -0.96,-0.38 -1.37,-0.41 -1.49,-0.1 -2.77,0.7 -3.41,2.03 -0.44,0.93 -0.38,2.07 0.07,2.97 0.39,0.79 1,1.34 1.91,1.7z"/>
     <path class="fil10" d="M2.23 24.87c0.09,0.04 0.14,0.08 0.24,0.13 0.09,0.04 0.17,0.06 0.25,0.09 0.56,0.09 0.87,0.17 1.48,0.11 0.22,-0.01 0.48,-0.06 0.68,-0.12 0.26,-0.08 0.34,-0.15 0.53,-0.25 0.04,-0.1 0.05,-0.85 0,-0.94 -0.03,0.1 -0.02,0.1 -0.01,0.21 -0.26,-0.22 -0.56,-0.41 -0.84,-0.7 -0.26,-0.27 -0.47,-0.55 -0.71,-0.89 -0.32,-0.46 -0.85,-1.62 -0.82,-2.36 0.15,0.31 0.14,0.43 0.4,0.86 0.27,0.45 0.77,1.11 1.12,1.46 0.24,0.25 0.49,0.3 0.81,0.48 0,0.09 -0.01,0.23 0.01,0.31l0.04 0.08 -0.01 -0.37c0.24,0.07 0.55,0.21 0.81,0.3 0.26,0.09 0.54,0.17 0.8,0.26 0.17,0.04 0.58,0.23 0.72,0.15 0.05,-0.08 0.14,-0.18 0.09,-0.33 -0.07,-0.14 -0.26,-0.19 -0.36,-0.32 -0.08,-0.03 -0.63,-0.41 -0.69,-0.48 -0.18,-0.09 -0.32,-0.22 -0.48,-0.33 -0.49,-0.33 -0.71,-0.36 -0.85,-0.71 -0.09,-0.23 -0.16,-0.37 -0.13,-0.64 -0.09,-0.53 0,-0.81 -0.17,-1.46 -0.03,-0.14 -0.02,-0.13 0.01,-0.17 -0.09,-0.09 -0.1,-0.2 -0.15,-0.35 -0.02,-0.06 -0.03,-0.12 -0.06,-0.19 -0.03,-0.1 -0.02,-0.11 -0.09,-0.16 -0.07,0.04 -0.91,-0.18 -1.11,-0.23 -0.22,-0.05 -0.29,-0.02 -0.32,-0.11 -0.15,0.09 -0.18,0.09 -0.31,0.22 -0.48,0.49 -0.76,2.12 -0.85,2.75 -0.1,0.66 -0.3,2.69 -0.2,3.38 0.04,0.23 0.11,0.19 0.17,0.32z"/>
     <path class="fil11" d="M29.36 23.32c0.02,0.17 0.19,0.39 0.18,0.53l-1.26 0.01c-0.1,0.94 -0.08,0.81 0.28,1.52 0.19,0.39 0.37,0.92 0.5,1.36 0.19,0.66 0.42,1.6 0.51,2.3 0.05,0.32 0.14,0.47 0.2,0.75l0.19 0.44 0.02 0.04c0.01,0 0.01,0.01 0.02,0.02l0.17 0.39c0.21,0.37 0.68,1.48 0.95,2 0.13,0.25 0.17,0.51 0.47,0.55l0 0.12c0.06,-0.08 0.05,0.11 0.05,-0.12 0.1,-0.02 0.2,-0.04 0.3,-0.08 0.13,-0.06 0.12,-0.13 0.22,-0.14 -0.05,-0.31 -0.03,-0.82 -0.07,-1.18 -0.03,-0.38 -0.12,-0.74 -0.15,-1.09l-0.11 -0.49c-0.07,-0.16 -0.14,-0.54 -0.19,-0.72 -0.07,-0.24 -0.15,-0.48 -0.21,-0.73 -0.12,-0.46 -0.15,-1.17 -0.17,-1.66l-0.07 -1.61c-0.04,-0.18 -0.03,-0.54 -0.06,-0.76 -0.02,-0.22 -0.09,-0.41 -0.17,-0.61 -0.13,-0.29 -0.41,-0.82 -0.58,-1.01l-1.02 0.17z"/>
     <path class="fil3" d="M26.43 -6.21l-2.21 2.97c-0.18,0.25 -0.37,0.5 -0.56,0.74 -0.21,0.29 -0.55,0.62 -0.34,0.81 0.14,0.12 0.87,-0.02 1.11,-0.05 0.38,-0.05 0.79,-0.11 1.17,-0.14 -0.05,0.24 -0.18,0.53 -0.27,0.77 -0.09,0.25 -0.18,0.5 -0.27,0.75l-0.68 1.87c-0.05,0.14 0.01,0.3 0.19,0.28 0.17,-0.03 1.24,-1.53 1.37,-1.71 0.48,-0.68 1.24,-1.74 1.73,-2.36 0.22,-0.27 0.63,-0.69 0.62,-0.93 -0.05,-0.64 -1.23,-0.23 -2.22,-0.36l1.16 -2.64c0.09,-0.29 0.6,-1.22 0.58,-1.43 -0.19,-0.24 -0.3,0 -0.41,0.14 -0.11,0.14 -0.22,0.29 -0.33,0.44l-0.64 0.85z"/>
     <path class="fil11" d="M2.72 25.09c0.06,0.43 0.21,0.92 0.3,1.37 0.09,0.47 0.17,0.95 0.24,1.44 0.15,1.18 -0.04,1.67 0.05,2.81 0.03,0.38 0.01,0.19 -0.02,0.37 0.09,0.05 0.06,0.14 0.08,0.33 0.1,0.91 0.25,1.57 0.37,2.41 0.09,0.03 0.07,0.01 0.15,0.07 0.11,-0.07 0.29,0.06 0.63,-0.03 0.17,-0.05 0.1,-0.04 0.16,-0.02 0.01,0 0.03,0.02 0.04,0.02l0.05 -1.78c0.08,-1.28 0.23,-2.19 0.38,-3.43 0.05,-0.48 0.17,-1.26 0.16,-1.74l0 -0.18c-0.16,0.08 -0.18,0.24 -0.42,0.25 -0.08,-0.05 -0.18,-0.15 -0.23,-0.23 0.01,-0.23 0.28,-0.4 0.39,-0.5 0.5,-0.45 0.24,-0.28 0.34,-0.51l0.02 -0.91c-0.19,0.1 -0.27,0.17 -0.53,0.25 -0.2,0.06 -0.46,0.11 -0.68,0.12 -0.61,0.06 -0.92,-0.02 -1.48,-0.11z"/>
     <path class="fil12" d="M42.7 28.74c0.05,-0.06 0.03,-0.22 0.04,-0.32 0.09,0.09 0.57,1.09 0.66,1.28 0.41,0.85 1.37,2.5 1.91,3.39 0.06,0.11 0.1,0.25 0.22,0.28 0.02,-0.02 0.51,-0.28 0.55,-0.3 0.09,-0.15 0.03,-0.3 0.01,-0.5l-0.25 -1.57c-0.13,-0.66 -0.37,-1.77 -0.7,-2.33 -0.08,-0.13 -0.16,-0.21 -0.25,-0.36 -0.14,-0.25 -0.27,-0.54 -0.37,-0.83 -0.43,-1.18 -0.25,-1.1 -0.46,-1.94 -0.37,0.26 -1.13,0.17 -1.59,0.08 -0.25,-0.04 -0.48,-0.12 -0.7,-0.2 -0.23,-0.1 -0.42,-0.24 -0.62,-0.32 0.14,0.31 0.3,0.61 0.44,0.91l1.06 2.18c0.14,0.28 -0.02,0.29 0.05,0.55z"/>
     <path class="fil11" d="M6.86 8.67c-0.08,0.32 -0.18,0.62 -0.2,0.99 -0.02,0.19 -0.02,0.38 0.02,0.57 0.04,0.26 0.09,0.26 0.17,0.42 0.33,0.12 1.88,0.07 2.29,-0.01 0.51,-0.1 1.28,-0.49 1.33,-0.46 0.31,-0.31 0.43,-0.06 0.56,0.24 0.05,0.13 0.1,0.26 0.16,0.39 0.1,0.23 0.17,0.21 0.15,0.35l0.07 -0.02c0.05,0.11 0.24,0.26 0.32,0.37l0.81 0.75c0.14,0.13 0.67,0.66 0.83,0.7 0.26,0 0.27,-0.02 0.48,-0.1 0.05,-0.1 -0.03,-0.21 -0.1,-0.33 -0.06,-0.12 -0.12,-0.22 -0.18,-0.34 -0.1,-0.2 -0.28,-0.49 -0.35,-0.69l-0.47 -0.84c-0.08,-0.08 -0.24,-0.4 -0.32,-0.52l-0.67 -1.04c-0.06,-0.09 -0.12,-0.17 -0.19,-0.24 -0.08,-0.1 -0.12,-0.14 -0.18,-0.22 -0.6,-0.01 -1.2,0 -1.8,0 -0.27,0 -1.59,0.06 -1.72,-0.03l-1.01 0.06z"/>
     <path class="fil13" d="M27.55 25.84l0.19 1.6 0.35 2.77 0.08 0.47c0.06,0.52 0.15,1.08 0.22,1.62 0.03,0.22 0.11,1.02 0.23,1.18 0.07,0.1 0.16,0.15 0.19,0.17 0.05,0.06 0.03,0.01 0.05,0.11 0.01,-0.01 0.04,-0.02 0.04,-0.02 0.01,-0.01 0.02,-0.01 0.02,-0.01 0.01,0 0.02,-0.01 0.02,-0.01 0,0 0.08,0.01 0.09,0.01 0.18,0.01 0.43,-0.08 0.49,-0.15 0,0.07 -0.01,0.15 0.05,0.23 -0.01,-0.49 0.06,-1.06 0.09,-1.56 0.03,-0.52 0.07,-1.05 0.08,-1.57l0.02 -0.42 0.01 -0.47c-0.06,-0.28 -0.15,-0.43 -0.2,-0.75 -0.09,-0.7 -0.32,-1.64 -0.51,-2.3 -0.13,-0.44 -0.31,-0.97 -0.5,-1.36 -0.36,-0.71 -0.38,-0.58 -0.28,-1.52l-0.48 0.01c-0.06,0.3 -0.17,0.61 -0.23,0.92 -0.09,0.43 -0.07,0.62 -0.02,1.05z"/>
     <path class="fil3" d="M23.26 20.94c-2.71,0.34 -2.26,4.11 0.53,3.76 2.66,-0.34 2.23,-4.1 -0.53,-3.76z"/>
     <path class="fil6" d="M4.39 10.67l2.35 9.46c0.28,0.06 0.59,-0.06 0.86,-0.12l-1.71 -6.81 -0.42 -1.69 4.66 0 0.19 -0.84c-0.19,0 -1.09,0.03 -1.18,-0.03 -0.41,0.08 -1.96,0.13 -2.29,0.01 -0.07,0.05 -2.17,0.01 -2.46,0.02z"/>
     <path class="fil6" d="M31.26 27.14c0.02,0.49 0.05,1.2 0.17,1.66 0.06,0.25 0.14,0.49 0.21,0.73 0.05,0.18 0.12,0.56 0.19,0.72 0.2,0.02 2.99,0.01 3.49,0 0.23,0 0.18,0.01 0.23,0.05l0.05 -0.02 -0.9 -3.44 -3.44 0.3z"/>
     <path class="fil10" d="M29.5 22.45c0.22,-0.1 0.43,-0.27 0.56,-0.41 0.31,-0.33 0.24,-0.54 0.35,-0.66 0.1,0.14 0.36,0.34 0.4,0.56 -0.13,0.14 -1.06,0.48 -1.31,0.51zm-0.91 -3.03c-0.22,-0.03 -0.53,0.06 -0.7,0.14 -0.28,0.12 -0.31,0.17 -0.43,0.46 -0.17,0.4 -0.33,0.83 -0.49,1.23l1.48 -0.02c0.16,0.26 0.3,0.81 0.46,1.06 -0.04,0.09 0.03,0.01 -0.04,0.04 0.17,0.11 0.21,0.04 0.31,0.24 -0.1,0.15 -0.12,0.16 -0.17,0.36l0.19 0.02c0.38,0.06 0.78,0.08 1.17,0.06 0.51,-0.02 1.11,-0.12 1.5,-0.34 0.26,-0.16 0.25,-0.36 0.16,-0.68 -0.14,-0.52 -0.6,-1.5 -0.88,-1.9 -0.23,-0.32 -0.7,-0.78 -1.17,-0.7 -0.09,0.03 -0.17,0.01 -0.27,-0.01l-0.24 0.15c-0.56,0.15 -0.71,-0.1 -0.88,-0.11z"/>
     <path class="fil13" d="M41.93 34.48c-0.16,0.07 -0.63,0.03 -0.86,0.03 -0.27,0 -0.6,0.01 -0.87,-0.01l-2.58 0.01 -2.36 -0.01 -3.25 0 -0.92 0.01 -1.18 0c-0.06,0 -0.14,0 -0.2,0 -0.2,0 -0.14,-0.02 -0.16,-0.06 -0.12,0.09 -0.23,0.06 -0.44,0.06l-1.36 0 0 -0.06c-0.09,0.07 -0.09,0.06 -0.23,0.06l-3.95 0 -5.68 0 -1.23 0 -10.86 0 -1.81 0.01c-0.15,-0.02 -0.26,0.01 -0.37,-0.05 -0.1,0.09 -0.73,0.04 -0.9,0.04 -0.23,0 -0.73,0.05 -0.88,-0.04l-0.13 0.04c-0.04,0 -0.1,0 -0.14,0 -0.09,0 -0.19,0 -0.28,0l-1.65 0 -2.55 0 -1.69 0c-0.21,0 -1.93,-0.02 -1.99,0.01 -0.06,0.02 -0.09,0.09 -0.04,0.15 0.06,0.06 0.62,0.03 0.72,0.03l57.51 0c0.11,-0.03 0.19,-0.2 -0.14,-0.19 -0.65,0 -1.31,-0.01 -1.96,0 -0.15,0 -3.48,0.03 -3.61,-0.02 -0.16,-0.06 0.04,0.1 -0.05,-0.03l-0.73 0.05 -0.02 -0.11c0,0 -0.01,0.01 -0.01,0.01l-0.08 0.1 -3.02 -0.01c-0.07,-0.02 -0.01,0.01 -0.05,-0.02z"/>
     <path class="fil1" d="M42.7 28.74c0.04,0.22 0,0.62 -0.01,0.86 -0.04,1.24 -0.14,2.22 -0.39,3.41 -0.04,0.17 -0.08,0.35 -0.12,0.52 -0.09,0.41 -0.05,0.33 -0.2,0.42l-0.03 0.35 -0.02 0.18c0.04,0.03 -0.02,0 0.05,0.02l3.02 0.01 0.08 -0.1c0,0 0.01,-0.01 0.01,-0.01 0.01,-0.02 0,-0.03 0.09,-0.08 0.06,-0.02 0.07,-0.01 0.13,-0.05 0.07,-0.05 0.12,-0.11 0.16,-0.2 0.09,-0.25 0,-0.45 0.06,-0.7 -0.12,-0.03 -0.16,-0.17 -0.22,-0.28 -0.54,-0.89 -1.5,-2.54 -1.91,-3.39 -0.09,-0.19 -0.57,-1.19 -0.66,-1.28 -0.01,0.1 0.01,0.26 -0.04,0.32z"/>
     <path class="fil8" d="M24.93 4.71c0.18,0.33 0.43,0.66 0.65,0.99 0.12,0.18 0.57,0.89 0.67,0.98 0.77,0.12 1.31,1.24 1.73,0.33 0.17,-0.36 0.28,-0.67 0.79,-0.59 0.3,0.04 1.41,0.55 1.11,-0.01 -0.1,-0.2 -0.52,-0.33 -0.73,-0.39 -0.58,-0.18 -0.45,-0.46 -0.21,-0.91 0.31,-0.58 0.01,-0.57 -0.21,-0.99 -0.08,-0.16 -0.13,-0.36 -0.23,-0.51 -0.15,-0.24 -0.26,-0.2 -0.4,-0.37 -1.05,0.26 -1.97,0.59 -2.83,1.22 -0.13,0.1 -0.21,0.18 -0.34,0.25z"/>
     <path class="fil14" d="M11.21 22.84c0.6,0.2 1.03,0.25 1.7,0.17 0.04,-0.21 2.34,-5.27 2.37,-5.3 -0.15,-0.24 -0.37,-0.5 -0.55,-0.66 -0.14,-0.12 -0.51,-0.43 -0.72,-0.5l-2.8 6.29z"/>
     <path class="fil10" d="M5.88 6.74c0.01,0.2 -0.28,0.89 -0.23,1.45 0.02,0.3 0.15,0.36 0.42,0.42 0.26,0.05 0.53,0.06 0.79,0.06l1.01 -0.06c0.05,-0.11 0.29,-0.06 0.4,-0.06 0.15,0 0.3,0 0.44,0 0.09,-0.02 0.03,0.03 0.07,-0.05 -0.18,-0.05 -0.08,-0.15 -0.36,-0.09 -0.21,0.05 -0.21,0.07 -0.45,0.07 -0.01,-0.29 -0.03,-0.21 0.03,-0.29 -0.14,-0.01 -0.04,-0.03 -0.28,-0.1 -0.3,-0.1 -0.61,-0.14 -0.91,-0.22l-0.3 -0.08 0.17 -0.33c0.04,-0.06 0.02,-0.04 0.09,-0.07 0.02,-0.14 0.17,-0.35 0.26,-0.47 0.08,0.39 0.01,0.67 0.33,0.87 0.17,0.1 0.7,0.29 0.8,0.38 0.48,-0.06 0.34,0 0.7,0.13l0.62 -1.54 -0.22 -1.21c-0.09,-0.08 -0.06,-0.1 -0.17,-0.18 -0.07,-0.04 -0.14,-0.08 -0.21,-0.11 -0.14,-0.06 -0.35,-0.14 -0.52,-0.15 -0.13,0.14 -0.19,0.19 -0.44,0.11 -0.16,-0.05 -0.29,-0.12 -0.42,-0.19 -1.08,0.04 -1.24,0.68 -1.55,1.58l-0.07 0.13z"/>
     <path class="fil15" d="M8.74 30.68l7.79 0c-0.02,0.66 -0.12,1.4 -0.17,2.06 -0.04,0.43 -0.18,1.16 0.01,1.5 0.03,0.06 0.07,0.11 0.12,0.15 0.04,0.04 0.04,0.04 0.08,0.06l0.09 0.06 1.23 0 0 -0.26c-0.22,0 -0.77,0.02 -0.93,-0.05 -0.25,-0.11 -0.3,-0.34 -0.34,-0.66l0.12 -1.27c0.03,-0.4 -0.01,-0.24 0.1,-0.33 -0.07,0 -0.04,0 -0.07,-0.02l0.1 -1.24 5.2 0 0.02 0.14c0.08,-0.09 -0.04,-0.08 0.09,-0.14l5.99 0 -0.08 -0.47 -0.01 0.03c-0.09,0.08 -1,0.03 -1.2,0.03l-17.31 0c-0.35,0 -0.27,-0.04 -0.5,0.14 -0.08,0.06 -0.28,0.18 -0.33,0.27z"/>
     <path class="fil12" d="M41.26 33.84c0.2,-0.05 0.09,0.14 0.69,0.1l0 0.36 0.03 -0.35c0.15,-0.09 0.11,-0.01 0.2,-0.42 0.04,-0.17 0.08,-0.35 0.12,-0.52 0.25,-1.19 0.35,-2.17 0.39,-3.41 -0.12,-0.06 -1.72,-2.84 -1.86,-3.08 -0.19,-0.32 -0.01,-1.29 -0.08,-1.55 -0.17,0.29 0.15,3.84 0.19,4.45 0.08,1.42 0.07,3.05 0.32,4.42z"/>
     <path class="fil6" d="M14.12 2.73c0.04,0.17 -0.34,2.82 -0.39,3.23 -0.05,0.38 -0.27,1.12 0.12,1.03 0.06,-0.02 0.21,-0.14 0.28,-0.19 0.13,-0.09 0.97,-0.73 1.08,-0.78 0.09,0.64 0.21,1.29 0.31,1.93 0.04,0.19 0.09,0.85 0.23,0.91 0.17,0.07 0.2,-0.16 0.22,-0.28 0.21,-1.33 0.29,-2.75 0.51,-3.99 0.02,-0.13 0.07,-0.25 0.04,-0.38 -0.02,-0.06 -0.03,-0.07 -0.06,-0.08 -0.17,-0.31 -0.62,0.06 -0.82,0.17 -0.23,0.12 -0.53,0.32 -0.76,0.42 -0.14,-0.52 -0.23,-3.1 -0.37,-3.37l-0.16 0.01c-0.11,0.19 -0.14,1.22 -0.23,1.37z"/>
     <path class="fil16" d="M16.84 31.94c-0.11,0.09 -0.07,-0.07 -0.1,0.33l-0.12 1.27 5.32 -0.98 0.16 -1.68 -5.26 1.06z"/>
     <path class="fil1" d="M-2.14 31.69c0.77,-0.13 0.98,1.74 1.03,2.44 0.16,0.05 0.36,-0.07 0.55,0.03 0.14,0.07 0.24,0.16 0.2,0.35l1.65 0c0.09,0 0.19,0 0.28,0 0.04,0 0.1,0 0.14,0l0.13 -0.04c-0.07,-0.15 -0.13,-0.4 -0.1,-0.57l-0.06 -0.09c-0.09,-0.18 0.02,-1.92 0.04,-2.08l0.01 -0.12c-0.34,0.07 -3.21,-0.02 -3.87,0.01 -0.03,0.04 -0.02,0.03 0,0.07z"/>
     <path class="fil17" d="M12.91 23.01c-0.67,0.08 -1.1,0.03 -1.7,-0.17 -0.91,-0.36 -1.52,-0.91 -1.91,-1.7 -0.45,-0.9 -0.51,-2.04 -0.07,-2.97 0.64,-1.33 1.92,-2.13 3.41,-2.03 0.41,0.03 1.11,0.21 1.37,0.41 0.21,0.07 0.58,0.38 0.72,0.5 0.18,0.16 0.4,0.42 0.55,0.66 0.66,1.02 0.76,2.29 0.17,3.47 -0.24,0.49 -0.62,0.9 -1.01,1.18 -0.45,0.34 -0.86,0.51 -1.53,0.65zm-4.27 -3.73c0.1,0.03 0.1,0.02 0.07,0.17 -0.02,0.07 -0.05,0.13 -0.06,0.2 -0.02,0.16 0,0.27 0.01,0.42 0.21,1.35 0.79,1.77 0.86,1.99 -0.18,0.12 -1,0.95 -1.11,1.01l-0.08 0.26 0.45 0 0.02 0.08c0.22,-0.18 0.35,-0.33 0.53,-0.5l0.54 -0.5 0.57 0.39c0.2,0.12 0.45,0.2 0.63,0.32 0.27,0.06 0.46,0.14 0.76,0.18 0.33,0.05 0.58,0.04 0.92,0.03 0.71,-0.14 1.19,-0.22 1.81,-0.68 0.49,-0.36 0.86,-0.75 1.17,-1.36 0.3,-0.58 0.47,-1.35 0.39,-2.1 -0.13,-1.15 -0.59,-1.54 -0.7,-1.83l-0.28 -0.31c-0.1,-0.1 -0.17,-0.19 -0.28,-0.29 -0.19,-0.17 -0.45,-0.34 -0.71,-0.48 -0.43,-0.29 -1.31,-0.47 -1.92,-0.44 -0.68,0.03 -1.3,0.24 -1.79,0.54 -0.86,0.52 -1.68,1.49 -1.8,2.9z"/>
     <path class="fil18" d="M7.94 12.1c0.33,-0.13 0.5,0.21 0.35,0.35 -0.13,0.11 -0.47,-0.03 -0.35,-0.35zm-1.48 0.19c-0.08,-0.32 0.37,-0.28 0.43,-0.01 0.06,0.3 -0.36,0.25 -0.43,0.01zm0.73 -0.2c0.26,-0.08 0.44,0.08 0.38,0.35 -0.28,0.13 -0.48,-0.08 -0.38,-0.35zm-1.3 1.11l4.04 0c-0.05,-0.28 0.16,-1.33 0.2,-1.69l-4.66 0 0.42 1.69z"/>
     <path class="fil19" d="M12.91 23.01c0.67,-0.14 1.08,-0.31 1.53,-0.65 0.39,-0.28 0.77,-0.69 1.01,-1.18 0.59,-1.18 0.49,-2.45 -0.17,-3.47 -0.03,0.03 -2.33,5.09 -2.37,5.3z"/>
     <path class="fil20" d="M16.62 33.54c0.04,0.32 0.09,0.55 0.34,0.66 0.16,0.07 0.71,0.05 0.93,0.05 0.68,-0.06 4.43,0.07 4.67,-0.02 -0.33,-0.02 -0.67,-0.22 -0.7,-0.53 -0.03,-0.25 0.06,-0.86 0.08,-1.14l-5.32 0.98z"/>
     <path class="fil13" d="M10.76 7.49c0.07,0.14 -0.06,0.31 -0.2,0.23 -0.1,-0.06 -0.03,-0.29 0.2,-0.23zm-1.28 -0.73l-0.62 1.54 -0.08 0.2c-0.04,0.08 0.02,0.03 -0.07,0.05 -0.14,0 -0.29,0 -0.44,0 -0.11,0 -0.35,-0.05 -0.4,0.06 0.13,0.09 1.45,0.03 1.72,0.03 0.6,0 1.2,-0.01 1.8,0l0.1 0 0.82 -2.06 -2.76 -0.01 -0.07 0.19z"/>
     <path class="fil8" d="M36.79 9.47c-0.09,-0.31 -0.13,-0.69 -0.22,-1.01 -0.05,-0.2 -0.3,-0.83 -0.3,-0.93 -0.05,-0.05 -0.31,-0.6 -0.37,-0.7 -0.1,-0.17 -0.29,-0.51 -0.41,-0.64 -0.31,-0.06 -0.68,-0.3 -1.02,-0.11 -0.16,0.09 -0.15,0.19 -0.34,0.26 -0.34,0.12 -0.72,-0.05 -0.99,0.25 -0.09,0.11 -0.18,0.31 -0.01,0.42 0.44,0.28 1.23,-0.05 1.48,0.96 0.12,0.48 0.09,0.57 0.63,0.57 0.78,-0.01 0.65,1.03 1.55,0.93z"/>
     <path class="fil13" d="M2.09 29.22c-0.03,0.32 0.6,1.99 0.79,2.51 0.07,0.21 0.09,0.29 0.15,0.35 0.05,-0.18 0.26,-0.87 0.26,-1 0.03,-0.18 0.05,0.01 0.02,-0.37 -0.09,-1.14 0.1,-1.63 -0.05,-2.81 -0.07,-0.49 -0.15,-0.97 -0.24,-1.44 -0.09,-0.45 -0.24,-0.94 -0.3,-1.37 -0.08,-0.03 -0.16,-0.05 -0.25,-0.09 -0.1,-0.05 -0.15,-0.09 -0.24,-0.13 0.05,1.02 0.11,2.35 0.01,3.37l-0.15 0.98z"/>
     <path class="fil21" d="M28.69 19.35l0.01 -0.2c0,-0.03 0.01,-0.1 0,-0.12 -0.02,-0.13 0.03,-0.05 -0.04,-0.09 -0.24,-0.01 -0.4,-0.49 -0.47,-0.75 -0.1,-0.37 -0.04,-0.7 0.23,-0.95 0.09,0.05 0.2,0.28 0.43,0.48 0.27,0.24 0.34,0.15 0.71,0.22 0.09,0.61 -0.04,0.34 -0.01,0.7 0.01,0.17 0.06,0.57 0.14,0.69 0.46,0.05 0.89,-0.13 1.04,-0.42 0.32,-0.64 -0.31,-1.61 -0.7,-2.04 -0.19,-0.21 -0.48,-0.54 -0.95,-0.51l-0.57 0.12c-0.55,0.15 -0.8,0.71 -0.73,1.3 0.02,0.23 0.1,0.32 0.06,0.58 -0.05,0.31 -0.48,0.97 0.85,0.99z"/>
     <path class="fil22" d="M26.97 21.25l-0.77 0.01 0.16 0.41c0.13,-0.03 0.11,-0.07 0.26,-0.04 0.04,0.26 -0.04,0.25 -0.07,0.46l0.75 1.77 0.5 0.01 0.48 -0.01 1.26 -0.01c0.01,-0.14 -0.16,-0.36 -0.18,-0.53 -0.07,-0.09 -0.13,-0.25 -0.16,-0.37l-0.19 -0.02c-0.22,0.05 -0.37,0.11 -0.58,0 -0.13,-0.07 -0.32,-0.22 -0.31,-0.38 0.22,-0.03 0.46,0.05 0.63,-0.06 -0.03,-0.09 -0.09,-0.13 -0.1,-0.24l0.22 0.08c0.07,-0.03 0,0.05 0.04,-0.04 -0.16,-0.25 -0.3,-0.8 -0.46,-1.06l-1.48 0.02z"/>
     <path class="fil1" d="M29.57 33.81c0.01,0.16 0.03,0.5 -0.02,0.64 0.02,0.04 -0.04,0.06 0.16,0.06 0.06,0 0.14,0 0.2,0l1.18 0c0.09,-0.24 0.29,-0.04 0.44,-0.4 0.09,-0.23 0.04,-0.5 0.06,-0.76l0 -0.12c-0.3,-0.04 -0.34,-0.3 -0.47,-0.55 -0.27,-0.52 -0.74,-1.63 -0.95,-2l-0.43 0c-0.01,0.52 -0.05,1.05 -0.08,1.57 -0.03,0.5 -0.1,1.07 -0.09,1.56z"/>
     <path class="fil7" d="M8.8 23.41c-0.02,0.22 -0.09,0.25 -0.25,0.34l0.49 1.98 1.15 0 0 -0.14c0.04,-0.54 0.18,-0.89 0.37,-1.31 0.09,-0.2 0.17,-0.37 0.26,-0.57 0.07,-0.14 0.22,-0.45 0.25,-0.59 -0.18,-0.12 -0.43,-0.2 -0.63,-0.32l-0.57 -0.39 -0.54 0.5c-0.18,0.17 -0.31,0.32 -0.53,0.5z"/>
     <path class="fil16" d="M5.02 15.21l1.1 4.67c0.2,0.09 0.39,0.2 0.62,0.25l-2.35 -9.46 -0.42 0.13 1.05 4.41z"/>
     <path class="fil13" d="M5.88 6.74l0.07 -0.13c0.31,-0.9 0.47,-1.54 1.55,-1.58 0.27,-0.35 0.16,-0.75 0.21,-1.02 0.31,-0.04 0.35,0 0.62,-0.13 0.15,-0.08 0.35,-0.23 0.47,-0.28 0.11,0.24 0.18,0.46 0.08,0.78 -0.06,0.21 -0.17,0.51 -0.37,0.51l-0.11 -0.01 -0.03 0.13 -0.01 0.1c0.17,0.01 0.38,0.09 0.52,0.15 0.07,0.03 0.14,0.07 0.21,0.11 0.11,0.08 0.08,0.1 0.17,0.18 0.33,-0.53 0.02,-1.72 -0.25,-2.29 -0.23,-0.48 -0.3,-0.39 -0.48,-0.51 -0.25,0.06 -0.48,-0.08 -0.75,0.06 -0.21,0.09 -0.35,0.26 -0.47,0.44 -0.43,0.64 -0.21,0.91 -0.5,1.29 -0.18,0.23 -0.64,0.44 -0.93,0.85 -0.3,0.44 -0.31,0.93 0,1.35z"/>
     <path class="fil16" d="M7.29 24.86c0.09,0.06 0.65,2.58 0.72,2.9 0.11,0.48 0.23,0.98 0.35,1.46 0.04,0.2 0.29,1.39 0.38,1.46 0.05,-0.09 0.25,-0.21 0.33,-0.27 0.23,-0.18 0.15,-0.14 0.5,-0.14l17.31 0c0.2,0 1.11,0.05 1.2,-0.03l-18.81 0c-0.15,-0.76 -1.48,-5.64 -1.44,-5.87 -0.13,0.06 -0.44,0.36 -0.54,0.49z"/>
     <path class="fil11" d="M1.72 31.73c-0.02,0.16 -0.13,1.9 -0.04,2.08l0.06 0.09 0.02 -0.07c0.34,0.1 0.5,0.05 0.83,0.02 0.13,-0.06 0.11,-0.29 0.14,-0.42 0.02,-0.15 0.05,-0.31 0.09,-0.45 0.06,-0.3 0.15,-0.61 0.21,-0.9 -0.06,-0.06 -0.08,-0.14 -0.15,-0.35 -0.19,-0.52 -0.82,-2.19 -0.79,-2.51 -0.19,0.3 -0.38,2.06 -0.37,2.51z"/>
     <path class="fil23" d="M16.84 31.94l5.26 -1.06 -0.01 -0.06 -0.02 -0.14 -5.2 0 -0.1 1.24c0.03,0.02 0,0.02 0.07,0.02z"/>
     <path class="fil18" d="M13.85 12.86c0.07,0.1 0.09,0.12 0.18,0.19 0.03,0.03 0.07,0.06 0.11,0.08 0.08,0.05 0.06,0.04 0.14,0.05l1.23 0.02 0.75 -1.68 -3.04 -0.02c0.07,0.2 0.25,0.49 0.35,0.69 0.06,0.12 0.12,0.22 0.18,0.34 0.07,0.12 0.15,0.23 0.1,0.33z"/>
     <path class="fil6" d="M37.22 17.64c0.79,-0.16 1.91,-0.4 2.75,-0.24l0.17 -0.64c-0.09,-0.09 -0.45,-0.27 -0.57,-0.33 -0.2,-0.12 -0.37,-0.23 -0.56,-0.35 -0.4,-0.27 -0.69,-0.51 -1,-0.78l-0.79 2.34z"/>
     <path class="fil24" d="M5.31 20.87c0.43,0.2 0.59,0.28 1.15,0.34 0.22,0.01 0.33,0.01 0.55,-0.03 0.25,-0.1 0.6,-0.22 0.79,-0.39 0.14,-0.09 0.29,-0.2 0.4,-0.3 0.12,-0.09 0.31,-0.19 0.31,-0.36 -0.02,-0.14 -0.06,-0.27 -0.17,-0.34l-0.74 0.22c-0.27,0.06 -0.58,0.18 -0.86,0.12 -0.23,-0.05 -0.42,-0.16 -0.62,-0.25 -0.06,-0.05 -0.18,-0.11 -0.25,-0.15l-0.72 -0.49c-0.03,0.04 -0.04,0.03 -0.01,0.17 0.17,0.65 0.08,0.93 0.17,1.46z"/>
     <path class="fil13" d="M40.75 24.97c0.07,0.26 -0.11,1.23 0.08,1.55 0.14,0.24 1.74,3.02 1.86,3.08 0.01,-0.24 0.05,-0.64 0.01,-0.86 -0.07,-0.26 0.09,-0.27 -0.05,-0.55l-1.06 -2.18c-0.14,-0.3 -0.3,-0.6 -0.44,-0.91 -0.02,-0.05 -0.02,-0.04 -0.08,-0.08 -0.05,-0.04 -0.06,-0.05 -0.11,-0.08 -0.08,-0.07 -0.13,-0.12 -0.23,-0.18l0.02 0.21z"/>
     <path class="fil21" d="M3.61 17.58c0.34,0.05 0.5,-0.24 0.54,-0.51l0.02 -0.26c0.06,-0.17 0.24,-0.05 0.4,-0.06 0.12,-0.23 0.15,-0.49 0.18,-0.79 0.07,-0.15 0.2,-0.32 0.05,-0.49 -0.1,-0.12 -0.34,-0.16 -0.54,-0.17 -0.54,0 -1.57,0.27 -1.53,0.81 0.04,0.53 0.44,1.23 0.88,1.47z"/>
     <path class="fil25" d="M-2.91 34.51l2.55 0c0.04,-0.19 -0.06,-0.28 -0.2,-0.35 -0.19,-0.1 -0.39,0.02 -0.55,-0.03 -0.05,-0.7 -0.26,-2.57 -1.03,-2.44 -0.74,0.06 -0.01,0.94 0.13,1.16 0.19,0.29 0.5,0.99 0.59,1.38l-0.21 0.03c-0.06,-0.29 -0.29,-0.77 -0.43,-0.99 -0.55,-0.84 -1.3,-0.33 -0.87,0.12 0.14,0.14 0.2,0.18 0.38,0.31 0.18,0.11 0.73,0.47 0.82,0.58 -0.33,0.05 -1,-0.01 -1.18,0.23z"/>
     <path class="fil1" d="M5.41 23.34c0,0.18 0.04,0.39 0,0.55 0.05,0.09 0.04,0.84 0,0.94l-0.02 0.91 0 0.18 1.49 -1.37c0.05,-0.11 0.25,-0.18 0.27,-0.3 0.02,-0.13 -0.11,-0.55 -0.14,-0.72 -0.26,-0.09 -0.54,-0.17 -0.8,-0.26 -0.26,-0.09 -0.57,-0.23 -0.81,-0.3l0.01 0.37z"/>
     <polygon class="fil6" points="13.22,11.5 16.26,11.52 16.64,10.67 12.75,10.66 "/>
     <path class="fil18" d="M11.17 11.7l-0.56 1.5c0.38,-0.01 2.73,0.05 2.85,-0.03l-0.09 -0.21c-0.16,-0.04 -0.69,-0.57 -0.83,-0.7l-0.81 -0.75 -0.49 0 -0.07 0.19z"/>
     <path class="fil1" d="M4.26 15.3c0.2,0.01 0.44,0.05 0.54,0.17 0.15,0.17 0.02,0.34 -0.05,0.49 0.03,0.03 0.02,0.02 0.05,0.05 0.1,0.16 0.18,0.73 0.2,0.9 0.06,0.71 -0.07,0.7 -0.41,0.78l-0.01 0.1c0.07,0.11 0.02,0.35 0.04,0.49 0.07,0.01 0.11,0.05 0.15,0.1 0.05,0.06 0.07,0.09 0.08,0.16 0.07,0.05 0.06,0.06 0.09,0.16 0.03,0.07 0.04,0.13 0.06,0.19 0.05,0.15 0.06,0.26 0.15,0.35l0.72 0.49c0.07,0.04 0.19,0.1 0.25,0.15l-1.1 -4.67c-0.17,0.08 -0.53,0.02 -0.76,0.02l0 0.07z"/>
     <path class="fil25" d="M35.26 34.5l2.36 0.01c-0.21,-0.29 -0.84,-0.07 -1.09,-0.23 0.23,-0.16 0.99,-0.65 1.14,-0.84 0.11,-0.14 0.14,-0.34 -0.03,-0.43 -0.63,-0.35 -1.06,0.8 -1.21,1.27l-0.18 -0.03c0.03,-0.25 0.37,-1.02 0.49,-1.21 0.13,-0.2 0.73,-0.91 0.33,-1.11 -0.85,-0.42 -1.08,1.61 -1.12,2.25 -0.16,-0.02 -0.34,-0.07 -0.49,-0.01 -0.13,0.06 -0.25,0.16 -0.2,0.33z"/>
     <polygon class="fil6" points="31.34,14.3 30.38,10.67 28.91,10.67 "/>
     <path class="fil7" d="M8.51 20.13c0,0.17 -0.19,0.27 -0.31,0.36 -0.11,0.1 -0.26,0.21 -0.4,0.3l0.58 2.28 0.03 0c0.11,-0.06 0.93,-0.89 1.11,-1.01 -0.07,-0.22 -0.65,-0.64 -0.86,-1.99l-0.15 0.06z"/>
     <path class="fil8" d="M29.76 3.98c-0.25,0.1 -0.22,0.44 -0.13,0.67 0.09,0.25 0.13,0.5 0.21,0.76 0.23,0.77 0.56,0.31 1,-0.08 0.28,-0.24 0.41,0.06 0.63,-0.33 0.16,-0.3 -0.05,-0.5 -0.23,-0.61 -0.28,-0.18 -0.34,-0.19 -0.71,-0.25 -0.26,-0.05 -0.51,-0.27 -0.77,-0.16z"/>
     <path class="fil2" d="M24.16 8.74l0.13 0 0.05 1.37c0.13,-0.05 0.06,0.07 0.08,-0.1l2.08 0c-0.02,-0.05 -0.79,-1.29 -0.94,-1.41l-0.01 0.1c-0.07,-0.02 -1.01,-0.02 -1.22,-0.01 -0.09,0 -0.12,0.01 -0.17,0.05z"/>
     <path class="fil26" d="M41.84 16.94l0.12 0.03c-0.08,0.23 -0.16,0.62 -0.18,0.87 -0.02,0.46 0.09,0.49 0.51,0.55l-0.01 0.14 0.05 -0.13c0.35,0.03 0.44,0.01 0.7,-0.11 -0.1,0.08 -0.16,0.18 -0.31,0.28 -0.12,0.08 -0.27,0.15 -0.45,0.18l0 0.33c0.02,0.05 -0.04,0.07 0.21,0.13 0.1,0.02 0.2,0.03 0.31,0.02 0.17,-0.02 0.41,-0.07 0.45,-0.24 -0.05,-0.29 -0.15,-0.66 -0.05,-0.94 -0.2,-0.34 0.02,-0.31 -0.04,-0.62 -0.33,-0.04 -0.19,0.32 -0.37,-0.23 -0.15,-0.45 -0.49,-0.23 -0.94,-0.26z"/>
     <path class="fil27" d="M41.84 16.94c0.45,0.03 0.79,-0.19 0.94,0.26 0.18,0.55 0.04,0.19 0.37,0.23 0.06,0.31 -0.16,0.28 0.04,0.62 0.27,-0.18 0.33,-0.23 0.49,-0.56 0.08,-0.16 0.19,-0.4 0.2,-0.59 0.01,-0.15 -0.04,-0.1 0.06,-0.15 -0.2,-0.12 0.07,-0.14 -0.23,-0.28 -0.03,-0.01 -0.06,-0.04 -0.09,-0.05 -0.31,-0.21 -2.42,-0.75 -1.88,0.5l0.1 0.02z"/>
     <path class="fil26" d="M28.66 18.94l0.39 -0.11c0.11,-0.04 0.22,-0.1 0.3,-0.15 -0.32,0.49 -0.52,0.29 -0.65,0.47l-0.01 0.2c-0.06,0.05 -0.04,0.03 -0.1,0.07 0.17,0.01 0.32,0.26 0.88,0.11l0.24 -0.15c0.1,0.02 0.18,0.04 0.27,0.01 -0.08,-0.07 -0.18,-0.02 -0.29,-0.06 -0.08,-0.12 -0.13,-0.52 -0.14,-0.69 -0.03,-0.36 0.1,-0.09 0.01,-0.7 -0.37,-0.07 -0.44,0.02 -0.71,-0.22 -0.23,-0.2 -0.34,-0.43 -0.43,-0.48 -0.27,0.25 -0.33,0.58 -0.23,0.95 0.07,0.26 0.23,0.74 0.47,0.75z"/>
     <path class="fil12" d="M10.32 10.67l-0.19 0.84c-0.04,0.36 -0.25,1.41 -0.2,1.69l0.05 0.03c0.19,0.06 0.22,0.12 0.47,0.13l0.09 -0.01 0.07 -0.15 0.56 -1.5 -0.08 -0.08c-0.02,-0.03 -0.03,-0.06 -0.05,-0.09 -0.13,-0.25 -0.62,-1.01 -0.62,-1.16 -0.05,0.07 -0.07,0.2 -0.1,0.3z"/>
     <path class="fil1" d="M3.03 32.08c-0.06,0.29 -0.15,0.6 -0.21,0.9 -0.04,0.14 -0.07,0.3 -0.09,0.45 -0.03,0.13 -0.01,0.36 -0.14,0.42 0.1,0.09 0.09,0.1 0.22,0.18 0.08,0.05 0.17,0.1 0.27,0.14 0.21,0.08 0.54,0.08 0.54,0.3 0.11,0.06 0.22,0.03 0.37,0.05 -0.05,-0.2 -0.13,-0.41 -0.1,-0.63 -0.08,-0.06 -0.06,-0.04 -0.15,-0.07 -0.12,-0.84 -0.27,-1.5 -0.37,-2.41 -0.02,-0.19 0.01,-0.28 -0.08,-0.33 0,0.13 -0.21,0.82 -0.26,1z"/>
     <path class="fil24" d="M5.41 23.89c0.04,-0.16 0,-0.37 0,-0.55l-0.04 -0.08c-0.02,-0.08 -0.01,-0.22 -0.01,-0.31 -0.32,-0.18 -0.57,-0.23 -0.81,-0.48 -0.35,-0.35 -0.85,-1.01 -1.12,-1.46 -0.26,-0.43 -0.25,-0.55 -0.4,-0.86 -0.03,0.74 0.5,1.9 0.82,2.36 0.24,0.34 0.45,0.62 0.71,0.89 0.28,0.29 0.58,0.48 0.84,0.7 -0.01,-0.11 -0.02,-0.11 0.01,-0.21z"/>
     <path class="fil6" d="M7.01 21.18l0.45 1.85c0.1,0.13 0.29,0.18 0.36,0.32 0.09,-0.02 0.22,-0.08 0.31,-0.12 0.11,-0.05 0.16,-0.12 0.25,-0.16l-0.58 -2.28c-0.19,0.17 -0.54,0.29 -0.79,0.39z"/>
     <path class="fil7" d="M5.39 25.74c-0.1,0.23 0.16,0.06 -0.34,0.51 -0.11,0.1 -0.38,0.27 -0.39,0.5 0.05,0.08 0.15,0.18 0.23,0.23 0.24,-0.01 0.26,-0.17 0.42,-0.25l0 0.18c0.08,-0.17 -0.07,-0.11 0.13,-0.32l1.76 -1.68 -0.32 -0.36 -1.49 1.37 0 -0.18z"/>
     <path class="fil6" d="M17.89 34.25l0 0.26 5.68 0 0 -0.27 -0.04 0 -0.97 -0.01c-0.24,0.09 -3.99,-0.04 -4.67,0.02z"/>
     <path class="fil15" d="M31.94 30.74c0,-0.1 0.23,-0.06 0.44,-0.06 0.37,0 2.4,0.02 2.52,-0.01 0.16,-0.06 0.45,-0.29 0.65,-0.37 -0.05,-0.04 0,-0.05 -0.23,-0.05 -0.5,0.01 -3.29,0.02 -3.49,0l0.11 0.49z"/>
     <path class="fil26" d="M7.5 5.03c0.13,0.07 0.26,0.14 0.42,0.19 0.25,0.08 0.31,0.03 0.44,-0.11l0.01 -0.1c-0.26,-0.03 -0.46,-0.2 -0.54,-0.39 0.1,0.06 0.19,0.13 0.3,0.17 0.13,0.05 0.32,0.06 0.38,0.1 0.2,0 0.31,-0.3 0.37,-0.51 0.1,-0.32 0.03,-0.54 -0.08,-0.78 -0.12,0.05 -0.32,0.2 -0.47,0.28 -0.27,0.13 -0.31,0.09 -0.62,0.13 -0.05,0.27 0.06,0.67 -0.21,1.02z"/>
     <path class="fil26" d="M3.61 17.58l-0.01 0.32c0.19,-0.01 0.89,0.27 1.02,0.38 -0.02,-0.14 0.03,-0.38 -0.04,-0.49l-0.02 0.26c-0.3,-0.16 -0.46,-0.19 -0.73,-0.39 0.33,0.04 0.4,0.07 0.76,0.03 0.34,-0.08 0.47,-0.07 0.41,-0.78 -0.02,-0.17 -0.1,-0.74 -0.2,-0.9 -0.03,-0.03 -0.02,-0.02 -0.05,-0.05 -0.03,0.3 -0.06,0.56 -0.18,0.79 -0.16,0.01 -0.34,-0.11 -0.4,0.06l-0.02 0.26c-0.04,0.27 -0.2,0.56 -0.54,0.51z"/>
     <path class="fil28" d="M44.16 25c0.04,-0.22 -0.01,-0.69 0,-0.97 0.01,-0.21 0.1,-0.76 0.09,-0.91 0.01,-0.16 -0.18,-0.34 -0.32,-0.52 -0.07,-0.1 -0.32,-0.41 -0.41,-0.47 0.01,0.83 0.11,1.92 0.49,2.66 0.14,0.27 0.12,0.28 0.15,0.21z"/>
     <path class="fil1" d="M6.77 22.55l-0.31 -1.34c-0.56,-0.06 -0.72,-0.14 -1.15,-0.34 -0.03,0.27 0.04,0.41 0.13,0.64 0.14,0.35 0.36,0.38 0.85,0.71 0.16,0.11 0.3,0.24 0.48,0.33z"/>
     <path class="fil29" d="M31.59 33.35c-0.02,0.26 0.03,0.53 -0.06,0.76 -0.15,0.36 -0.35,0.16 -0.44,0.4l0.92 -0.01c0.08,-0.15 0.08,-0.26 0.15,-0.41 0.13,-0.27 0.52,-0.4 0.28,-0.77 -0.05,-0.08 -0.23,-0.29 -0.28,-0.31 -0.1,0.01 -0.09,0.08 -0.22,0.14 -0.1,0.04 -0.2,0.06 -0.3,0.08 0,0.23 0.01,0.04 -0.05,0.12z"/>
     <path class="fil30" d="M28.86 33.76c-0.09,0.11 -0.07,0.15 -0.19,0.24 -0.08,0.07 -0.19,0.13 -0.3,0.18 -0.19,0.07 -0.57,0.08 -0.62,0.27l0 0.06 1.36 0c0.21,0 0.32,0.03 0.44,-0.06 0.05,-0.14 0.03,-0.48 0.02,-0.64 -0.06,-0.08 -0.05,-0.16 -0.05,-0.23 -0.06,0.07 -0.31,0.16 -0.49,0.15 -0.01,0 -0.09,-0.01 -0.09,-0.01 0,0 -0.01,0.01 -0.02,0.01 0,0 -0.01,0 -0.02,0.01 0,0 -0.03,0.01 -0.04,0.02z"/>
     <path class="fil30" d="M45.53 33.37c-0.06,0.25 0.03,0.45 -0.06,0.7 -0.04,0.09 -0.09,0.15 -0.16,0.2 -0.06,0.04 -0.07,0.03 -0.13,0.05 -0.09,0.05 -0.08,0.06 -0.09,0.08l0.02 0.11 0.73 -0.05c0.23,-0.08 0.01,-0.22 0.44,-0.68 0.27,-0.3 -0.08,-0.55 -0.2,-0.71 -0.04,0.02 -0.53,0.28 -0.55,0.3z"/>
     <path class="fil10" d="M38.83 17.97l-0.03 0.1c0.12,0.03 0.19,0.07 0.23,0.16 -0.02,0.15 -0.18,0.2 -0.32,0.22 -0.07,0.39 -0.37,1.14 0.29,1 0.09,-0.06 0.13,-0.08 0.17,-0.21 0.03,-0.11 0.05,-0.22 0.05,-0.33 0.04,-0.1 0.05,-0.19 0.06,-0.29l0.06 -0.31c0,-0.01 0.01,-0.02 0.01,-0.03l0.1 -0.49 -0.6 -0.06 -0.02 0.24z"/>
     <path class="fil16" d="M6.46 21.21l0.31 1.34c0.06,0.07 0.61,0.45 0.69,0.48l-0.45 -1.85c-0.22,0.04 -0.33,0.04 -0.55,0.03z"/>
     <path class="fil31" d="M3.89 33.89c-0.03,0.22 0.05,0.43 0.1,0.63l1.81 -0.01c-0.06,-0.28 -0.29,-0.24 -0.55,-0.34 -0.26,-0.09 -0.38,-0.22 -0.53,-0.31 -0.01,0 -0.03,-0.02 -0.04,-0.02 -0.06,-0.02 0.01,-0.03 -0.16,0.02 -0.34,0.09 -0.52,-0.04 -0.63,0.03z"/>
     <path class="fil32" d="M1.74 33.9c-0.03,0.17 0.03,0.42 0.1,0.57 0.15,0.09 0.65,0.04 0.88,0.04 0.17,0 0.8,0.05 0.9,-0.04 0,-0.22 -0.33,-0.22 -0.54,-0.3 -0.1,-0.04 -0.19,-0.09 -0.27,-0.14 -0.13,-0.08 -0.12,-0.09 -0.22,-0.18 -0.33,0.03 -0.49,0.08 -0.83,-0.02l-0.02 0.07z"/>
     <path class="fil30" d="M40.2 34.5c0.27,0.02 0.6,0.01 0.87,0.01 0.23,0 0.7,0.04 0.86,-0.03l0.02 -0.18 0 -0.36c-0.6,0.04 -0.49,-0.15 -0.69,-0.1 -0.07,0.09 -0.09,0.12 -0.18,0.2 -0.08,0.07 -0.18,0.12 -0.29,0.16 -0.26,0.1 -0.49,0.05 -0.59,0.3z"/>
     <path class="fil13" d="M10.47 10.18l-0.05 0.19c0,0.15 0.49,0.91 0.62,1.16 0.02,0.03 0.03,0.06 0.05,0.09l0.08 0.08 0.07 -0.19 0.1 -0.35c0.02,-0.14 -0.05,-0.12 -0.15,-0.35 -0.06,-0.13 -0.11,-0.26 -0.16,-0.39 -0.13,-0.3 -0.25,-0.55 -0.56,-0.24z"/>
     <path class="fil7" d="M37.22 17.64l-0.01 0.01c0.36,0.02 1.37,-0.01 1.64,0.08l0.6 0.06 0.41 0.05c0,-0.13 0.07,-0.31 0.11,-0.44 -0.84,-0.16 -1.96,0.08 -2.75,0.24z"/>
     <path class="fil26" d="M9.51 13.86c0.11,0.13 0.23,0.4 0.34,0.56 0.11,0.16 0.28,0.33 0.51,0.4 -0.3,-0.46 0.01,-0.98 0.09,-1.46 -0.25,-0.01 -0.28,-0.07 -0.47,-0.13 -0.02,0.18 -0.1,0.46 -0.29,0.54 -0.07,0.03 -0.13,0.03 -0.18,0.09z"/>
     <path class="fil17" d="M7.15 24.25c-0.02,0.12 -0.22,0.19 -0.27,0.3l0.32 0.36 0.09 -0.05c0.1,-0.13 0.41,-0.43 0.54,-0.49 0.05,-0.12 0.16,-0.19 0.26,-0.28 0.11,-0.1 0.18,-0.17 0.28,-0.28 -0.26,0.02 -0.38,-0.05 -0.6,-0.11 -0.11,0.08 -0.19,0.18 -0.29,0.27 -0.11,0.1 -0.21,0.19 -0.33,0.28z"/>
     <path class="fil10" d="M37.21 17.65l0.01 -0.01 0.79 -2.34c-0.03,-0.17 -0.21,0 -0.24,0.07l-0.6 1.68c-0.08,0.24 -0.25,0.51 0,0.64l0.04 -0.04z"/>
     <path class="fil10" d="M39.97 17.4c0.21,0 0.78,0.06 0.87,0.22 0.05,-0.05 0.04,-0.05 0.06,-0.14 0.04,-0.19 0.02,-0.41 -0.15,-0.5 -0.1,-0.06 -0.52,-0.22 -0.61,-0.22l-0.17 0.64z"/>
     <path class="fil26" d="M13.37 12.96l0.09 0.21c0.07,0.09 0.06,0.18 0.06,0.31 0.43,0.01 0.81,0.17 1.18,-0.1 -0.17,-0.06 -0.33,-0.05 -0.42,-0.2 -0.08,-0.01 -0.06,0 -0.14,-0.05 -0.04,-0.02 -0.08,-0.05 -0.11,-0.08 -0.09,-0.07 -0.11,-0.09 -0.18,-0.19 -0.21,0.08 -0.22,0.1 -0.48,0.1z"/>
     <path class="fil26" d="M7.82 23.35c0.05,0.15 -0.04,0.25 -0.09,0.33l0.04 0.02c0.22,0.06 0.34,0.13 0.6,0.11l0.18 -0.06c0.16,-0.09 0.23,-0.12 0.25,-0.34l-0.02 -0.08 -0.45 0 0.08 -0.26 -0.03 0c-0.09,0.04 -0.14,0.11 -0.25,0.16 -0.09,0.04 -0.22,0.1 -0.31,0.12z"/>
     <path class="fil24" d="M3.42 18.2c0.03,0.09 0.1,0.06 0.32,0.11 0.2,0.05 1.04,0.27 1.11,0.23 -0.01,-0.07 -0.03,-0.1 -0.08,-0.16 -0.04,-0.05 -0.08,-0.09 -0.15,-0.1 -0.13,-0.11 -0.83,-0.39 -1.02,-0.38 -0.07,0.05 -0.17,0.18 -0.18,0.3z"/>
     <path class="fil26" d="M29.01 22.93c0.05,-0.2 0.07,-0.21 0.17,-0.36 -0.1,-0.2 -0.14,-0.13 -0.31,-0.24l-0.22 -0.08c0.01,0.11 0.07,0.15 0.1,0.24 -0.17,0.11 -0.41,0.03 -0.63,0.06 -0.01,0.16 0.18,0.31 0.31,0.38 0.21,0.11 0.36,0.05 0.58,0z"/>
     <path class="fil24" d="M6.77 7.39l0.04 0.48c0.3,0.08 0.61,0.12 0.91,0.22 0.24,0.07 0.14,0.09 0.28,0.1l0.16 -0.02c-0.1,-0.09 -0.63,-0.28 -0.8,-0.38 -0.32,-0.2 -0.25,-0.48 -0.33,-0.87 -0.09,0.12 -0.24,0.33 -0.26,0.47z"/>
     <path class="fil26" d="M45.16 26.2c-0.17,0.03 -0.28,0 -0.38,-0.08 -0.07,0.34 -0.18,0.42 -0.1,0.67 0.04,0.11 0.03,0.14 0.13,0.19l0.03 -0.22c0.09,0.16 0.04,0.37 0.13,0.51 0.07,-0.04 0.06,-0.02 0.13,-0.2 0.15,-0.4 0.16,-0.43 0.06,-0.87z"/>
     <path class="fil13" d="M10.36 14.82c-0.23,-0.07 -0.4,-0.24 -0.51,-0.4 -0.11,-0.16 -0.23,-0.43 -0.34,-0.56 -0.38,0.11 -0.12,0.39 0.04,0.54 0.33,0.3 0.58,0.82 0.97,0.77 0,-0.14 -0.1,-0.25 -0.16,-0.35z"/>
     <path class="fil24" d="M29.5 22.45c0.25,-0.03 1.18,-0.37 1.31,-0.51 -0.04,-0.22 -0.3,-0.42 -0.4,-0.56 -0.11,0.12 -0.04,0.33 -0.35,0.66 -0.13,0.14 -0.34,0.31 -0.56,0.41z"/>
     <path class="fil24" d="M39.86 17.84c0.18,0.02 0.43,0.09 0.6,0.07 0.19,-0.02 0.36,-0.14 0.38,-0.29 -0.09,-0.16 -0.66,-0.22 -0.87,-0.22 -0.04,0.13 -0.11,0.31 -0.11,0.44z"/>
     <path class="fil13" d="M13.52 13.48c-0.04,0.51 0.36,0.21 0.72,0.22 0.31,0 0.71,0.01 0.84,-0.24 -0.09,-0.07 -0.25,-0.08 -0.38,-0.08 -0.37,0.27 -0.75,0.11 -1.18,0.1z"/>
     <path class="fil33" d="M9.14 10.64c0.09,0.06 0.99,0.03 1.18,0.03 0.03,-0.1 0.05,-0.23 0.1,-0.3l0.05 -0.19c-0.05,-0.03 -0.82,0.36 -1.33,0.46z"/>
     <path class="fil13" d="M29.36 23.32l1.02 -0.17 -0.01 -0.14c-0.39,0.02 -0.79,0 -1.17,-0.06 0.03,0.12 0.09,0.28 0.16,0.37z"/>
     <path class="fil16" d="M7.15 24.25c0.12,-0.09 0.22,-0.18 0.33,-0.28 0.1,-0.09 0.18,-0.19 0.29,-0.27l-0.04 -0.02c-0.14,0.08 -0.55,-0.11 -0.72,-0.15 0.03,0.17 0.16,0.59 0.14,0.72z"/>
     <path class="fil34" d="M8.16 8.17l-0.16 0.02c-0.06,0.08 -0.04,0 -0.03,0.29 0.24,0 0.24,-0.02 0.45,-0.07 0.28,-0.06 0.18,0.04 0.36,0.09l0.08 -0.2c-0.36,-0.13 -0.22,-0.19 -0.7,-0.13z"/>
     <path class="fil26" d="M8.34 19.79c0.11,0.07 0.15,0.2 0.17,0.34l0.15 -0.06c-0.01,-0.15 -0.03,-0.26 -0.01,-0.42 0.01,-0.07 0.04,-0.13 0.06,-0.2 0.03,-0.15 0.03,-0.14 -0.07,-0.17 -0.06,0.1 -0.09,0.17 -0.16,0.26 -0.08,0.1 -0.08,0.16 -0.14,0.25z"/>
     <path class="fil28" d="M40.08 21.95l0.79 -0.15c0.07,-0.11 0.13,-0.42 0.13,-0.59 -0.02,0.05 -0.29,0.41 -0.34,0.45 -0.22,0.2 -0.48,0.2 -0.58,0.29z"/>
     <path class="fil4" d="M6.46 12.29c0.07,0.24 0.49,0.29 0.43,-0.01 -0.06,-0.27 -0.51,-0.31 -0.43,0.01z"/>
     <path class="fil4" d="M7.94 12.1c-0.12,0.32 0.22,0.46 0.35,0.35 0.15,-0.14 -0.02,-0.48 -0.35,-0.35z"/>
     <path class="fil35" d="M42.28 18.53l-0.01 0.22c0.18,-0.03 0.33,-0.1 0.45,-0.18 0.15,-0.1 0.21,-0.2 0.31,-0.28 -0.26,0.12 -0.35,0.14 -0.7,0.11l-0.05 0.13z"/>
     <path class="fil4" d="M7.19 12.09c-0.1,0.27 0.1,0.48 0.38,0.35 0.06,-0.27 -0.12,-0.43 -0.38,-0.35z"/>
     <path class="fil15" d="M29.76 30.26l-0.02 0.42 0.43 0 -0.17 -0.39c-0.01,-0.01 -0.01,-0.02 -0.02,-0.02l-0.02 -0.04c-0.07,0.04 -0.1,0.03 -0.2,0.03z"/>
     <path class="fil36" d="M4.58 17.79l0.01 -0.1c-0.36,0.04 -0.43,0.01 -0.76,-0.03 0.27,0.2 0.43,0.23 0.73,0.39l0.02 -0.26z"/>
     <path class="fil26" d="M38.71 18.45c0.14,-0.02 0.3,-0.07 0.32,-0.22 -0.04,-0.09 -0.11,-0.13 -0.23,-0.16l0.03 -0.1c-0.03,0.02 -0.12,0.18 -0.14,0.22 -0.05,0.1 -0.06,0.2 0.02,0.26z"/>
     <path class="fil37" d="M11.34 11.16l-0.1 0.35 0.49 0c-0.08,-0.11 -0.27,-0.26 -0.32,-0.37l-0.07 0.02z"/>
     <path class="fil26" d="M26.36 21.67c0,0.11 -0.01,0.17 0.03,0.27 0.06,0.12 0.06,0.08 0.16,0.15 0.03,-0.21 0.11,-0.2 0.07,-0.46 -0.15,-0.03 -0.13,0.01 -0.26,0.04z"/>
     <path class="fil35" d="M28.66 18.94c0.07,0.04 0.02,-0.04 0.04,0.09 0.01,0.02 0,0.09 0,0.12 0.13,-0.18 0.33,0.02 0.65,-0.47 -0.08,0.05 -0.19,0.11 -0.3,0.15l-0.39 0.11z"/>
     <path class="fil1" d="M6.81 7.87l-0.04 -0.48c-0.07,0.03 -0.05,0.01 -0.09,0.07l-0.17 0.33 0.3 0.08z"/>
     <path class="fil35" d="M8.37 5.01l0.03 -0.13 0.11 0.01c-0.06,-0.04 -0.25,-0.05 -0.38,-0.1 -0.11,-0.04 -0.2,-0.11 -0.3,-0.17 0.08,0.19 0.28,0.36 0.54,0.39z"/>
     <path class="fil38" d="M10.76 7.49c-0.23,-0.06 -0.3,0.17 -0.2,0.23 0.14,0.08 0.27,-0.09 0.2,-0.23z"/>
     <path class="fil26" d="M39.22 18.91l0.13 -0.02 0.04 -0.44c-0.01,-0.06 -0.01,-0.04 -0.02,-0.07l-0.02 -0.1c0,0.01 -0.01,0.02 -0.01,0.03l-0.06 0.31c-0.01,0.1 -0.02,0.19 -0.06,0.29z"/>
     <path class="fil37" d="M29.76 30.26c0.1,0 0.13,0.01 0.2,-0.03l-0.19 -0.44 -0.01 0.47z"/>
    </g>
   </g>
  </g>
  <polygon class="fil39" points="0,0 44.95,0 44.95,26.97 0,26.97 "/>
 </g>
</svg>
