<?xml version="1.0" encoding="UTF-8"?>
<!DOCTYPE svg PUBLIC "-//W3C//DTD SVG 1.1//EN" "http://www.w3.org/Graphics/SVG/1.1/DTD/svg11.dtd">
<!-- Creator: CorelDRAW 2019 (64-Bit) -->
<svg xmlns="http://www.w3.org/2000/svg" xml:space="preserve" width="300px" height="180px" version="1.1" style="shape-rendering:geometricPrecision; text-rendering:geometricPrecision; image-rendering:optimizeQuality; fill-rule:evenodd; clip-rule:evenodd"
viewBox="0 0 45.26 27.15"
 xmlns:xlink="http://www.w3.org/1999/xlink">
 <defs>
  <style type="text/css">
   <![CDATA[
    .fil0 {fill:none}
    .fil6 {fill:#394D5C}
    .fil3 {fill:#55B56A}
    .fil4 {fill:#72EDC5}
    .fil5 {fill:#F4F4E6}
    .fil1 {fill:#F9BB4B}
    .fil2 {fill:#FCF05A}
   ]]>
  </style>
 </defs>
 <g id="Layer_x0020_1">
  <metadata id="CorelCorpID_0Corel-Layer"/>
  <rect class="fil0" width="45.26" height="27.15"/>
  <g id="ssd.svg">
   <g id="flat">
    <polygon class="fil1" points="20.98,1.63 22.63,1.63 22.63,4.1 20.98,4.1 "/>
    <polygon class="fil2" points="19.33,1.63 20.98,1.63 20.98,4.1 19.33,4.1 "/>
    <polygon class="fil1" points="17.69,1.63 19.33,1.63 19.33,4.1 17.69,4.1 "/>
    <polygon class="fil2" points="27.57,1.63 29.22,1.63 29.22,4.1 27.57,4.1 "/>
    <polygon class="fil1" points="25.92,1.63 27.57,1.63 27.57,4.1 25.92,4.1 "/>
    <polygon class="fil2" points="24.28,1.63 25.92,1.63 25.92,4.1 24.28,4.1 "/>
    <polygon class="fil2" points="16.04,1.63 17.69,1.63 17.69,4.1 16.04,4.1 "/>
    <polygon class="fil3" points="14.39,2.46 16.04,2.46 16.04,4.1 29.22,4.1 29.22,2.46 30.86,2.46 30.86,25.52 14.39,25.52 "/>
    <polygon class="fil4" points="16.04,4.1 16.86,4.1 16.86,5.34 16.04,5.34 "/>
    <polygon class="fil4" points="28.39,4.1 29.22,4.1 29.22,5.34 28.39,5.34 "/>
    <polygon class="fil4" points="21.8,4.1 22.63,4.1 22.63,5.34 21.8,5.34 "/>
    <polygon class="fil4" points="24.28,4.1 25.1,4.1 25.1,5.34 24.28,5.34 "/>
    <circle class="fil5" cx="16.86" cy="23.05" r="0.82"/>
    <circle class="fil5" cx="16.86" cy="7.4" r="0.82"/>
    <circle class="fil5" cx="28.39" cy="23.05" r="0.82"/>
    <circle class="fil5" cx="28.39" cy="7.4" r="0.82"/>
    <polygon class="fil6" points="16.04,9.87 29.22,9.87 29.22,20.58 16.04,20.58 "/>
    <g>
     <polygon class="fil1" points="17.27,17.7 18.1,17.7 18.1,19.34 17.27,19.34 "/>
     <polygon class="fil1" points="18.92,17.7 19.75,17.7 19.75,19.34 18.92,19.34 "/>
     <polygon class="fil1" points="20.57,17.7 21.39,17.7 21.39,19.34 20.57,19.34 "/>
     <polygon class="fil1" points="23.04,17.7 23.86,17.7 23.86,19.34 23.04,19.34 "/>
     <polygon class="fil1" points="24.69,17.7 25.51,17.7 25.51,19.34 24.69,19.34 "/>
    </g>
    <path class="fil2" d="M18.3 15.22l-1.03 0 0 -0.82 1.03 0c0.12,0 0.21,-0.09 0.21,-0.21l0 -0.41c0,-0.11 -0.09,-0.2 -0.21,-0.2 -0.56,0 -1.03,-0.46 -1.03,-1.03l0 -0.41c0,-0.57 0.47,-1.03 1.03,-1.03l1.03 0 0 0.82 -1.03 0c-0.11,0 -0.2,0.09 -0.2,0.21l0 0.41c0,0.11 0.09,0.2 0.2,0.2 0.57,0 1.03,0.46 1.03,1.03l0 0.41c0,0.57 -0.46,1.03 -1.03,1.03l0 0z"/>
    <path class="fil2" d="M21.19 15.22l-1.03 0 0 -0.82 1.03 0c0.11,0 0.2,-0.09 0.2,-0.21l0 -0.41c0,-0.11 -0.09,-0.2 -0.2,-0.2 -0.57,0 -1.03,-0.46 -1.03,-1.03l0 -0.41c0,-0.57 0.46,-1.03 1.03,-1.03l1.03 0 0 0.82 -1.03 0c-0.12,0 -0.21,0.09 -0.21,0.21l0 0.41c0,0.11 0.09,0.2 0.21,0.2 0.57,0 1.03,0.46 1.03,1.03l0 0.41c0,0.57 -0.46,1.03 -1.03,1.03l0 0z"/>
    <path class="fil2" d="M24.69 15.22l-1.24 0c-0.23,0 -0.41,-0.18 -0.41,-0.41l0 -3.29c0,-0.23 0.18,-0.41 0.41,-0.41l1.24 0c0.68,0 1.23,0.55 1.23,1.23l0 1.65c0,0.68 -0.55,1.23 -1.23,1.23l0 0zm0.41 -2.06l0.82 0c0.23,0.01 0.41,-0.18 0.41,-0.41l0 -1.64c0,-0.23 -0.18,-0.42 -0.41,-0.42l-0.82 0 0 2.47z"/>
    <polygon class="fil5" points="17.27,16.05 27.98,16.05 27.98,16.87 17.27,16.87 "/>
   </g>
  </g>
 </g>
</svg>
