<?xml version="1.0" encoding="UTF-8"?>
<!DOCTYPE svg PUBLIC "-//W3C//DTD SVG 1.1//EN" "http://www.w3.org/Graphics/SVG/1.1/DTD/svg11.dtd">
<!-- Creator: CorelDRAW 2019 (64-Bit) -->
<svg xmlns="http://www.w3.org/2000/svg" xml:space="preserve" width="550px" height="350px" version="1.1" style="shape-rendering:geometricPrecision; text-rendering:geometricPrecision; image-rendering:optimizeQuality; fill-rule:evenodd; clip-rule:evenodd"
viewBox="0 0 124.1 78.97"
 xmlns:xlink="http://www.w3.org/1999/xlink">
 <defs>
  <style type="text/css">
   <![CDATA[
    .fil0 {fill:none}
    .fil6 {fill:#26BFA6}
    .fil7 {fill:#293939}
    .fil2 {fill:#384949}
    .fil1 {fill:#4A696F}
    .fil5 {fill:#57D9AD}
    .fil4 {fill:#D9F2FF}
    .fil3 {fill:#E6FFFF}
   ]]>
  </style>
 </defs>
 <g id="Layer_x0020_1">
  <metadata id="CorelCorpID_0Corel-Layer"/>
  <rect class="fil0" width="124.1" height="78.97"/>
 </g>
 <g id="Layer_x0020_1_0">
  <metadata id="CorelCorpID_1Corel-Layer"/>
  <g id="fan.svg">
   <polygon class="fil1" points="25.45,2.89 98.65,2.89 98.65,76.09 25.45,76.09 "/>
   <path class="fil2" d="M62.05 2.89l36.6 0 0 73.2 -36.6 0 0 -73.2zm0 0z"/>
   <path class="fil3" d="M62.05 11.61c-15.35,0 -27.88,12.52 -27.88,27.88 0,15.35 12.53,27.88 27.88,27.88 15.36,0 27.88,-12.53 27.88,-27.88 0,-15.36 -12.52,-27.88 -27.88,-27.88zm0 0z"/>
   <path class="fil4" d="M89.93 39.49c0,15.35 -12.52,27.88 -27.88,27.88l0 -55.76c15.36,0 27.88,12.52 27.88,27.88l0 0zm0 0z"/>
   <path class="fil5" d="M38.46 39.49c0,-7.1 5.77,-12.87 12.87,-12.87 5.09,0 9.66,3 11.73,7.57l-4.19 5.3 -20.41 0zm0 0z"/>
   <path class="fil6" d="M72.77 52.35c-5.08,0 -9.66,-2.99 -11.73,-7.57l4.19 -5.29 20.41 0c0,7.09 -5.77,12.86 -12.87,12.86zm0 0z"/>
   <path class="fil6" d="M62.05 36.31l0 -20.41c7.1,0 12.87,5.77 12.87,12.86 0,5.1 -3,9.69 -7.58,11.75l-5.29 -4.2zm0 0z"/>
   <path class="fil5" d="M62.05 63.08c-7.09,0 -12.87,-5.78 -12.87,-12.87 0,-5.1 3,-9.68 7.58,-11.75l5.29 4.2 0 20.42zm0 0z"/>
   <path class="fil7" d="M85.64 11.61l4.29 0 0 4.29 -4.29 0 0 -4.29zm0 0z"/>
   <path class="fil2" d="M34.17 11.61l4.29 0 0 4.29 -4.29 0 0 -4.29zm0 0z"/>
   <path class="fil7" d="M85.64 63.08l4.29 0 0 4.29 -4.29 0 0 -4.29zm0 0z"/>
   <path class="fil2" d="M34.17 63.08l4.29 0 0 4.29 -4.29 0 0 -4.29zm0 0z"/>
   <path class="fil1" d="M62.05 33.05c-3.56,0 -6.43,2.88 -6.43,6.44 0,3.56 2.87,6.43 6.43,6.43 3.56,0 6.43,-2.87 6.43,-6.43 0,-3.56 -2.87,-6.44 -6.43,-6.44zm0 0z"/>
   <path class="fil2" d="M68.48 39.49c0,3.56 -2.87,6.43 -6.43,6.43l0 -12.87c3.56,0 6.43,2.88 6.43,6.44zm0 0z"/>
  </g>
 </g>
</svg>
