<?xml version="1.0" encoding="UTF-8"?>
<!DOCTYPE svg PUBLIC "-//W3C//DTD SVG 1.1//EN" "http://www.w3.org/Graphics/SVG/1.1/DTD/svg11.dtd">
<!-- Creator: CorelDRAW 2019 (64-Bit) -->
<svg xmlns="http://www.w3.org/2000/svg" xml:space="preserve" width="550px" height="350px" version="1.1" style="shape-rendering:geometricPrecision; text-rendering:geometricPrecision; image-rendering:optimizeQuality; fill-rule:evenodd; clip-rule:evenodd"
viewBox="0 0 78.42 49.9"
 xmlns:xlink="http://www.w3.org/1999/xlink"
 enable-background="new 0 0 426.703 426.703">
 <defs>
  <style type="text/css">
   <![CDATA[
    .fil0 {fill:none}
    .fil3 {fill:#525666}
    .fil1 {fill:#62667C}
    .fil2 {fill:#69B0EE}
    .fil4 {fill:#EEEFEE;fill-opacity:0.250980}
   ]]>
  </style>
 </defs>
 <g id="Layer_x0020_1">
  <metadata id="CorelCorpID_0Corel-Layer"/>
  <rect class="fil0" width="78.42" height="49.9"/>
 </g>
 <g id="Layer_x0020_1_0">
  <metadata id="CorelCorpID_1Corel-Layer"/>
  <g id="screen.svg">
   <g>
    <g>
     <path class="fil1" d="M69.21 5.58l0 36.19 -23.88 0 -0.99 3.86 -10.26 0 -0.99 -3.86 -23.89 0 0 -36.19c0.01,-1.67 1.36,-3.02 3.02,-3.02l53.98 0c1.66,0 3.01,1.34 3.01,3.01 0,0 0,0 0,0.01l0 0z"/>
     <polygon class="fil1" points="33.79,43.23 9.2,43.23 9.2,41.77 33.09,41.77 "/>
     <polygon class="fil1" points="69.21,41.77 69.21,43.23 44.63,43.23 45.33,41.77 "/>
    </g>
    <path class="fil2" d="M66.11 6.25l0 32.42 -53.8 0 0 -32.42c0,-0.33 0.26,-0.59 0.59,-0.59l52.62 0c0.33,0 0.59,0.26 0.59,0.59l0 0z"/>
    <path class="fil3" d="M74.2 42.75l0 0.96c0,2.01 -1.62,3.63 -3.63,3.63l-62.72 0c-2.01,0 -3.63,-1.62 -3.63,-3.63l0 -0.96c0,-0.54 0.43,-0.98 0.97,-0.98l27.9 0 0.99 2.09 10.26 0 0.99 -2.09 27.89 0c0.54,0 0.98,0.44 0.98,0.98l0 0z"/>
    <g>
     <polygon class="fil4" points="22.66,38.67 21.05,38.67 44.94,5.66 46.56,5.66 "/>
     <polygon class="fil4" points="33.47,38.67 27.02,38.67 50.92,5.66 57.37,5.66 "/>
    </g>
   </g>
  </g>
 </g>
</svg>
