<?xml version="1.0" encoding="UTF-8"?>
<!DOCTYPE svg PUBLIC "-//W3C//DTD SVG 1.1//EN" "http://www.w3.org/Graphics/SVG/1.1/DTD/svg11.dtd">
<!-- Creator: CorelDRAW 2019 (64-Bit) -->
<svg xmlns="http://www.w3.org/2000/svg" xml:space="preserve" width="404px" height="256px" version="1.1" style="shape-rendering:geometricPrecision; text-rendering:geometricPrecision; image-rendering:optimizeQuality; fill-rule:evenodd; clip-rule:evenodd"
viewBox="0 0 448.39 284.13"
 xmlns:xlink="http://www.w3.org/1999/xlink"
 enable-background="new 0 0 510.967 510.967">
 <defs>
  <style type="text/css">
   <![CDATA[
    .fil0 {fill:none}
    .fil6 {fill:black}
    .fil5 {fill:#99E6FC}
    .fil4 {fill:#FD8087}
    .fil3 {fill:#FFCEBF}
    .fil1 {fill:#FFDFCF}
    .fil2 {fill:#FFEEE6}
   ]]>
  </style>
 </defs>
 <g id="Layer_x0020_1">
  <metadata id="CorelCorpID_0Corel-Layer"/>
  <rect class="fil0" width="448.4" height="284.13"/>
  <g id="trust.svg">
   <g>
    <g>
     <path class="fil1" d="M309.72 159.57l0 4.77 1.43 20.89 -17.45 17.05c0,0 -82.89,-93.98 -81.61,-94.19 1.28,-0.22 34.18,-9.83 34.18,-9.83l63.45 61.31z"/>
     <g>
      <path class="fil2" d="M300.69 185.9l-63.61 -63.61 -43.56 -44.87c-2.98,-2.98 -6.56,-5.3 -10.5,-6.8l-14.81 -5.65 -9.76 -9.75 -15.26 -19.87 -68.03 68.21 20.98 22.22 20.87 20.88 0 13.48c0,4.88 1.94,9.57 5.4,13.02l24.3 22.9 62.75 48.22 16.42 16.42c5.17,5.17 13.54,5.17 18.7,0 2.58,-2.58 3.88,-5.96 3.88,-9.35 0,-3.38 -1.3,-6.77 -3.88,-9.35 2.58,2.58 5.97,3.87 9.35,3.87 3.4,0 6.77,-1.29 9.36,-3.87 5.16,-5.17 5.16,-13.54 0,-18.7 2.58,2.58 5.96,3.87 9.35,3.87 3.38,0 6.76,-1.29 9.35,-3.87 5.16,-5.17 5.16,-13.54 0,-18.71 5.16,5.17 13.54,5.17 18.7,0 2.58,-2.58 3.88,-5.96 3.88,-9.35 0,-3.38 -1.3,-6.76 -3.88,-9.35l0 0.01z"/>
      <g id="XMLID_442_">
       <g>
        <path class="fil1" d="M210 225.35c5.08,5.08 5.08,13.31 0,18.39l-13.89 13.89c-5.08,5.08 -13.32,5.08 -18.4,0l-0.31 -0.31c-5.07,-5.08 -5.07,-13.31 0,-18.39l12.34 -12.34 1.56 -1.55c5.08,-5.09 13.31,-5.09 18.39,0l0.31 0.31z"/>
        <path class="fil1" d="M189.74 208.21c5.08,5.07 5.08,13.31 0,18.38l-12.34 12.34c-2.53,2.54 -5.87,3.81 -9.19,3.81 -3.33,0 -6.66,-1.27 -9.2,-3.81 -5.08,-5.08 -5.08,-13.31 0,-18.39l12.34 -12.33c2.54,-2.55 5.87,-3.82 9.2,-3.82 3.32,0 6.65,1.27 9.19,3.82z"/>
        <path class="fil1" d="M177.14 184.03c5.07,5.07 5.07,13.3 0,18.38l-5.79 5.8 -12.34 12.33c-2.54,2.54 -5.86,3.81 -9.19,3.81 -3.33,0 -6.66,-1.27 -9.2,-3.81 -5.07,-5.08 -5.07,-13.31 0,-18.39l11.18 -11.18 6.95 -6.94c2.53,-2.54 5.86,-3.82 9.19,-3.82 3.33,0 6.66,1.28 9.2,3.82z"/>
        <path class="fil1" d="M151.8 172.58c5.08,5.08 5.08,13.32 0,18.39l-11.18 11.18c-2.54,2.53 -5.87,3.81 -9.19,3.81 -3.33,0 -6.66,-1.28 -9.2,-3.81 -5.08,-5.08 -5.08,-13.31 0,-18.39l11.18 -11.18c2.54,-2.54 5.87,-3.81 9.2,-3.81 3.33,0 6.65,1.27 9.19,3.81z"/>
       </g>
      </g>
      <g id="XMLID_438_">
       <g>
        <path class="fil3" d="M186.15 247.68l12.34 -12.33 1.56 -1.56c3.56,-3.56 8.67,-4.61 13.15,-3.18 -0.61,-1.92 -1.68,-3.74 -3.2,-5.26l-0.31 -0.31c-5.08,-5.08 -13.31,-5.08 -18.39,0l-1.56 1.56 -12.34 12.33c-5.07,5.08 -5.07,13.31 0,18.39l0.31 0.31c1.53,1.53 3.34,2.59 5.26,3.2 -1.42,-4.48 -0.37,-9.59 3.18,-13.15l0 0z"/>
        <path class="fil3" d="M167.77 229.29l12.33 -12.33c2.54,-2.55 5.87,-3.81 9.2,-3.81 1.25,0 2.5,0.17 3.71,0.53 -0.6,-2 -1.69,-3.89 -3.27,-5.47 -2.54,-2.55 -5.87,-3.82 -9.19,-3.82 -3.33,0 -6.66,1.27 -9.2,3.82l-12.34 12.33c-5.08,5.08 -5.08,13.31 0,18.39 1.59,1.59 3.48,2.68 5.49,3.27 -1.32,-4.42 -0.23,-9.42 3.27,-12.91z"/>
        <path class="fil3" d="M149.37 210.9l11.18 -11.18 6.95 -6.94c2.53,-2.54 5.86,-3.81 9.19,-3.81 1.26,0 2.51,0.18 3.72,0.54 -0.6,-2.01 -1.69,-3.9 -3.27,-5.48 -2.54,-2.54 -5.87,-3.81 -9.2,-3.81 -3.33,0 -6.66,1.27 -9.19,3.81l-6.95 6.94 -11.18 11.18c-5.07,5.08 -5.07,13.31 0,18.39 1.59,1.58 3.48,2.67 5.48,3.27 -1.31,-4.43 -0.22,-9.42 3.27,-12.91l0 0z"/>
        <path class="fil3" d="M130.98 192.51l11.18 -11.18c2.54,-2.53 5.87,-3.81 9.2,-3.81 1.25,0 2.5,0.18 3.7,0.54 -0.59,-2.01 -1.68,-3.89 -3.26,-5.48 -2.54,-2.53 -5.86,-3.81 -9.2,-3.81 -3.33,0 -6.65,1.28 -9.19,3.81l-11.18 11.18c-5.08,5.08 -5.08,13.31 0,18.39 1.58,1.58 3.47,2.67 5.48,3.27 -1.31,-4.43 -0.22,-9.41 3.27,-12.91l0 0z"/>
       </g>
      </g>
      <g id="XMLID_440_">
       <g>
        <path class="fil1" d="M312.28 60.17l61.25 61.89 -8.56 9.35 -53.82 53.82 -76.07 -70.67 -25.22 0 -16.32 13.41c-6.16,5.06 -15.16,4.62 -20.79,-1.02 -3.03,-3.02 -4.54,-6.99 -4.54,-10.95 0,-3.97 1.51,-7.93 4.54,-10.96l19.66 -19.66c1.7,-1.7 4.01,-2.66 6.42,-2.66l51.92 0c1.74,0 3.46,0.44 4.99,1.3l19.37 10.8c0.91,0.51 2.02,0.36 2.76,-0.36l19.29 -18.84 15.12 -15.45z"/>
       </g>
      </g>
      <g>
       <path class="fil3" d="M183.97 121.53c0,-3.96 1.52,-7.93 4.54,-10.96l13.72 -13.71c5.51,-5.51 12.99,-8.61 20.79,-8.61l40.31 0 -7.59 -4.23c-1.53,-0.85 -3.25,-1.3 -4.99,-1.3l-51.92 0c-2.41,0 -4.71,0.95 -6.41,2.65l-19.67 19.67c-3.03,3.03 -4.54,6.99 -4.54,10.96 0,3.96 1.51,7.93 4.54,10.95 3.91,3.92 9.45,5.32 14.54,4.12 -2.2,-2.79 -3.32,-6.17 -3.32,-9.54l0 0z"/>
      </g>
      <path class="fil4" d="M391.79 117.94l-16 15.99c-2.25,2.26 -5.9,2.3 -8.2,0.1l-68.51 -65.44c-2.38,-2.28 -2.43,-6.07 -0.1,-8.4l34.95 -34.95c2.87,-2.87 7.69,-2.25 9.75,1.26l49.07 83.92c1.43,2.44 1.03,5.52 -0.96,7.52l0 0z"/>
      <path class="fil5" d="M56.15 89.9c-1.61,1.58 -1.62,4.17 -0.03,5.77l23.71 23.71c3.59,3.58 9.41,3.58 13,0l66.07 -66.07c3.59,-3.59 3.59,-9.41 0,-13l-22.89 -22.9c-1.58,-1.57 -4.12,-1.58 -5.71,-0.03l-74.15 72.52z"/>
     </g>
    </g>
    <g>
     <path class="fil6" d="M333.81 155.25l-28.28 28.29c-0.37,-0.45 -0.76,-0.88 -1.18,-1.3l-36.53 -36.53c-2.02,-2.02 -5.29,-2.02 -7.31,0 -2.02,2.02 -2.02,5.29 0,7.31l36.52 36.53c3.15,3.14 3.15,8.25 0.01,11.39 -3.15,3.14 -8.25,3.14 -11.39,0l-20.3 -20.3c-2.02,-2.02 -5.3,-2.02 -7.32,0 -2.01,2.02 -2.01,5.29 0,7.31l20.3 20.3c0,0 0,0 0.01,0 1.52,1.52 2.35,3.55 2.35,5.7 0,2.15 -0.84,4.17 -2.36,5.69 -1.52,1.52 -3.54,2.36 -5.69,2.36 -2.15,0 -4.17,-0.84 -5.7,-2.36l-20.29 -20.3c-2.02,-2.02 -5.3,-2.02 -7.32,0 -2.02,2.02 -2.02,5.3 0,7.31l20.3 20.3c3.14,3.14 3.14,8.25 0,11.39 -1.52,1.53 -3.54,2.36 -5.69,2.36 -2.15,0 -4.18,-0.83 -5.7,-2.36l-20.3 -20.29c-2.02,-2.02 -5.29,-2.02 -7.31,0 -2.02,2.01 -2.02,5.29 0,7.31l20.3 20.3c3.14,3.14 3.14,8.24 0,11.39 -1.52,1.52 -3.54,2.35 -5.69,2.35 -2.16,0 -4.18,-0.83 -5.7,-2.35l-13.15 -13.16c4.19,-6.98 3.28,-16.19 -2.73,-22.2l-0.31 -0.31c-4.01,-4.01 -9.43,-5.75 -14.68,-5.22 -0.29,-4.39 -2.14,-8.47 -5.27,-11.61 -2.43,-2.43 -5.38,-4.03 -8.49,-4.79 0.79,-2.06 1.21,-4.27 1.21,-6.54 0,-4.86 -1.89,-9.42 -5.32,-12.85 -3.44,-3.44 -8,-5.33 -12.86,-5.33 -2.76,0 -5.43,0.62 -7.86,1.78 -0.81,-2.89 -2.35,-5.62 -4.62,-7.9 -7.09,-7.08 -18.62,-7.08 -25.71,0l-2.13 2.14 -1.56 -1.56c-2.5,-2.5 -3.87,-5.82 -3.87,-9.36l0 -13.48c0,-1.37 -0.55,-2.69 -1.52,-3.66l-22.07 -22.08 6.2 -6.2c2.02,-2.02 2.02,-5.3 0,-7.32 -2.01,-2.02 -5.29,-2.01 -7.31,0l-8.31 8.32c-1.57,1.57 -4.12,1.57 -5.69,0l-26.61 -26.61c-2.02,-2.02 -5.29,-2.02 -7.31,0 -2.02,2.02 -2.02,5.29 0,7.31l26.61 26.61c2.8,2.8 6.47,4.2 10.15,4.2 1.18,0 2.35,-0.16 3.5,-0.45l22.02 22.02 0 11.34c0,6.3 2.45,12.22 6.9,16.68l1.56 1.55 -1.73 1.73c-3.44,3.43 -5.33,8 -5.33,12.85 0,4.86 1.89,9.42 5.33,12.85 3.54,3.55 8.19,5.32 12.85,5.32 0.07,0 0.15,0 0.22,-0.01 0,0.08 0,0.16 0,0.23 0,4.86 1.89,9.42 5.32,12.86 3.43,3.43 8,5.32 12.85,5.32 0.08,0 0.15,-0.01 0.23,-0.01 -0.06,4.73 1.71,9.48 5.31,13.08 3.54,3.54 8.2,5.31 12.85,5.31 0.08,0 0.16,0 0.23,0 -0.06,4.73 1.71,9.48 5.31,13.08l0.31 0.31c3.44,3.43 8,5.32 12.85,5.32 4.86,0 9.42,-1.89 12.86,-5.32l9.69 -9.7 12.77 12.77c3.47,3.47 8.09,5.39 13.01,5.39 4.91,0 9.53,-1.92 13,-5.39 3.67,-3.67 5.46,-8.51 5.38,-13.32 0.1,0 0.21,0 0.32,0 4.91,0 9.53,-1.91 13.01,-5.38 3.66,-3.67 5.45,-8.52 5.37,-13.33 0.11,0 0.21,0 0.32,0 4.71,0 9.42,-1.79 13.01,-5.38 3.47,-3.47 5.39,-8.09 5.39,-13 0,-0.11 -0.01,-0.22 -0.01,-0.32 0.1,0 0.21,0 0.31,0 4.71,0 9.42,-1.79 13.01,-5.38 3.9,-3.9 5.67,-9.13 5.33,-14.24l31.45 -31.44c2.02,-2.02 2.02,-5.3 0,-7.32 -2.02,-2.02 -5.3,-2.02 -7.32,0l0 0zm-207.92 43.24c-1.48,-1.48 -2.3,-3.45 -2.3,-5.54 0,-2.09 0.82,-4.06 2.3,-5.54l11.17 -11.17c1.53,-1.53 3.54,-2.29 5.54,-2.29 2.01,0 4.01,0.76 5.54,2.29 3.06,3.05 3.06,8.02 0,11.08l-11.17 11.17c-3.06,3.06 -8.03,3.06 -11.08,0l0 0zm23.93 20.69c-2.09,0 -4.06,-0.82 -5.54,-2.3 -1.48,-1.48 -2.3,-3.44 -2.3,-5.54 0,-2.09 0.82,-4.05 2.3,-5.53l11.18 -11.18 6.94 -6.95c1.48,-1.48 3.45,-2.29 5.54,-2.29 2.1,0 4.06,0.81 5.54,2.29 1.48,1.48 2.3,3.45 2.3,5.54 0,2.09 -0.82,4.06 -2.3,5.54l-18.12 18.12c-1.48,1.48 -3.45,2.3 -5.54,2.3l0 0zm12.85 16.09c-3.06,-3.05 -3.06,-8.02 0,-11.07l12.33 -12.34c1.53,-1.53 3.54,-2.29 5.54,-2.29 2.01,0 4.02,0.76 5.54,2.29 1.48,1.48 2.3,3.45 2.3,5.54 0,2.09 -0.82,4.06 -2.29,5.54l-12.34 12.33c-3.06,3.06 -8.03,3.06 -11.08,0l0 0zm29.78 18.71c-1.48,1.48 -3.45,2.29 -5.54,2.29 -2.09,0 -4.06,-0.81 -5.54,-2.29l-0.31 -0.31c-3.05,-3.06 -3.05,-8.03 0,-11.08l12.34 -12.34c0,0 0,-0.01 0.01,-0.01l1.55 -1.55c1.52,-1.52 3.53,-2.29 5.54,-2.29 2,0 4.01,0.77 5.53,2.29l0.31 0.31c3.06,3.06 3.06,8.03 0,11.08l-13.89 13.9z"/>
     <path class="fil6" d="M398.83 110.9c-2.02,-2.02 -5.29,-2.02 -7.31,0l-19.38 19.38c-0.27,0.26 -0.71,0.27 -0.98,0.01l-68.51 -65.44c-0.14,-0.14 -0.21,-0.31 -0.21,-0.5 0,-0.2 0.07,-0.37 0.2,-0.5l40.63 -40.64c2.02,-2.02 2.02,-5.29 0,-7.31 -2.01,-2.02 -5.29,-2.02 -7.31,0l-40.63 40.63c-2.12,2.12 -3.27,4.94 -3.23,7.94 0.03,2.41 0.83,4.69 2.27,6.57l-18.59 18.23 -17.52 -9.77c-2.29,-1.28 -4.89,-1.95 -7.51,-1.95l-49.78 0 -3.79 -3.79c-3.52,-3.52 -7.66,-6.2 -12.31,-7.98l-13.78 -5.25 -6.37 -6.36c3.29,-5.52 2.58,-12.78 -2.16,-17.52l-20.75 -20.75c-2.02,-2.02 -5.29,-2.02 -7.31,0 -2.02,2.02 -2.02,5.3 0,7.31l20.74 20.75c1.57,1.57 1.57,4.12 0,5.69l-42.16 42.17c-2.02,2.02 -2.02,5.3 0,7.31 1,1.01 2.33,1.52 3.65,1.52 1.33,0 2.65,-0.51 3.66,-1.52l37.33 -37.33 6.83 6.83c0.52,0.51 1.14,0.91 1.82,1.18l14.81 5.64c3.2,1.22 6.05,3.05 8.49,5.44 -0.31,0.26 -0.62,0.54 -0.91,0.83l-19.67 19.67c-3.9,3.9 -6.05,9.09 -6.05,14.61 0,5.52 2.15,10.71 6.05,14.61 4.03,4.03 9.31,6.08 14.61,6.08 4.63,0 9.28,-1.56 13.13,-4.73l14.88 -12.23 15.5 0 17.71 17.71c1.01,1.01 2.34,1.52 3.66,1.52 1.32,0 2.65,-0.51 3.66,-1.52 2.02,-2.02 2.02,-5.29 0,-7.31l-12.8 -12.8c0.51,-0.8 0.81,-1.75 0.81,-2.77 0,-2.86 -2.31,-5.18 -5.17,-5.18l-25.23 0c-1.19,0 -2.35,0.42 -3.28,1.18l-16.31 13.41c-4.13,3.39 -10.08,3.1 -13.86,-0.67 -1.95,-1.95 -3.02,-4.54 -3.02,-7.3 0,-2.76 1.07,-5.35 3.02,-7.3l19.67 -19.67c0.74,-0.73 1.72,-1.14 2.76,-1.14l51.92 0c0.86,0 1.71,0.22 2.47,0.65l19.37 10.8c2.88,1.61 6.54,1.12 8.9,-1.19l20.26 -19.86 55.76 53.26 -8.12 8.12c-2.01,2.02 -2.01,5.3 0.01,7.31 1.01,1.01 2.33,1.52 3.65,1.52 1.32,0 2.65,-0.51 3.66,-1.52l8.35 -8.35c1.94,1.44 4.26,2.17 6.58,2.17 2.84,0 5.68,-1.07 7.81,-3.21l19.38 -19.38c2.02,-2.02 2.02,-5.29 0,-7.31l0 0z"/>
    </g>
   </g>
  </g>
 </g>
</svg>
