<?xml version="1.0" encoding="UTF-8"?>
<!DOCTYPE svg PUBLIC "-//W3C//DTD SVG 1.1//EN" "http://www.w3.org/Graphics/SVG/1.1/DTD/svg11.dtd">
<!-- Creator: CorelDRAW 2019 (64-Bit) -->
<svg xmlns="http://www.w3.org/2000/svg" xml:space="preserve" width="404px" height="256px" version="1.1" style="shape-rendering:geometricPrecision; text-rendering:geometricPrecision; image-rendering:optimizeQuality; fill-rule:evenodd; clip-rule:evenodd"
viewBox="0 0 102.52 64.97"
 xmlns:xlink="http://www.w3.org/1999/xlink">
 <defs>
  <style type="text/css">
   <![CDATA[
    .fil0 {fill:none}
    .fil6 {fill:#0D3954}
    .fil5 {fill:#1D608B}
    .fil2 {fill:#EA623C}
    .fil1 {fill:#F57F41}
    .fil4 {fill:#FFD23A}
    .fil3 {fill:#FFE07F}
   ]]>
  </style>
 </defs>
 <g id="Layer_x0020_1">
  <metadata id="CorelCorpID_0Corel-Layer"/>
  <rect class="fil0" width="102.52" height="64.97"/>
  <g id="two-year-warranty.svg">
   <path class="fil1" d="M33.16 37.26l-10.99 16.03 10.61 -1.98 1.98 10.61 10.44 -15.22 -12.04 -9.44zm0 0z"/>
   <path class="fil2" d="M69.36 37.26l-12.03 9.44 10.43 15.22 1.98 -10.61 10.61 1.98 -10.99 -16.03zm0 0z"/>
   <path class="fil3" d="M51.26 3.05c-13.07,0 -23.71,10.63 -23.71,23.71 0,13.07 10.64,23.71 23.71,23.71 13.07,0 23.71,-10.64 23.71,-23.71 0,-13.08 -10.64,-23.71 -23.71,-23.71zm0 0z"/>
   <path class="fil4" d="M51.26 3.05l0 47.42c13.07,0 23.71,-10.64 23.71,-23.71 0,-13.08 -10.64,-23.71 -23.71,-23.71zm0 0z"/>
   <path class="fil5" d="M47.03 36.87l-8.09 -8.09 2.45 -2.46 5.64 5.64 14.1 -14.09 2.45 2.45 -16.55 16.55zm0 0z"/>
   <path class="fil6" d="M51.26 32.66l12.32 -12.34 -2.45 -2.45 -9.87 9.87 0 4.92zm0 0z"/>
  </g>
 </g>
</svg>
