<?xml version="1.0" encoding="UTF-8"?>
<!DOCTYPE svg PUBLIC "-//W3C//DTD SVG 1.1//EN" "http://www.w3.org/Graphics/SVG/1.1/DTD/svg11.dtd">
<!-- Creator: CorelDRAW 2019 (64-Bit) -->
<svg xmlns="http://www.w3.org/2000/svg" xml:space="preserve" width="550px" height="350px" version="1.1" style="shape-rendering:geometricPrecision; text-rendering:geometricPrecision; image-rendering:optimizeQuality; fill-rule:evenodd; clip-rule:evenodd"
viewBox="0 0 125.65 79.96"
 xmlns:xlink="http://www.w3.org/1999/xlink">
 <defs>
  <style type="text/css">
   <![CDATA[
    .fil0 {fill:none}
    .fil6 {fill:#5A5A5A}
    .fil5 {fill:#838383}
    .fil4 {fill:#9AE7FD}
    .fil8 {fill:#9C9C9C}
    .fil7 {fill:#ACACAC}
    .fil3 {fill:#C9F0FF}
    .fil2 {fill:#CECECE}
    .fil1 {fill:#E7E7E7}
    .fil10 {fill:#FF435F}
    .fil9 {fill:#FF5770}
    .fil12 {fill:#FFB509}
    .fil11 {fill:#FFD86E}
   ]]>
  </style>
 </defs>
 <g id="Layer_x0020_1">
  <metadata id="CorelCorpID_0Corel-Layer"/>
  <rect class="fil0" width="125.65" height="79.96"/>
 </g>
 <g id="Layer_x0020_1_0">
  <metadata id="CorelCorpID_1Corel-Layer"/>
  <g id="update.svg">
   <path class="fil1" d="M92.36 66.34l-59.29 0 0 -39.52c0,-1.69 1.37,-3.05 3.05,-3.05l53.2 0c1.68,0 3.04,1.36 3.04,3.05l0 39.52zm0 0z"/>
   <path class="fil2" d="M92.36 26.82l0 39.52 -3.66 0 0 -39.52c0,-1.69 -1.36,-3.05 -3.05,-3.05l3.67 0c1.68,0 3.04,1.36 3.04,3.05zm0 0z"/>
   <path class="fil3" d="M87.02 66.34l-48.61 0 0 -36.64c0,-0.62 0.5,-1.12 1.12,-1.12l46.37 0c0.62,0 1.12,0.5 1.12,1.12l0 36.64zm0 0z"/>
   <path class="fil4" d="M87.02 29.7l0 36.64 -3.55 0 0 -36.64c0,-0.62 -0.5,-1.12 -1.12,-1.12l3.55 0c0.62,0 1.12,0.5 1.12,1.12zm0 0z"/>
   <path class="fil5" d="M92.98 73.72l-60.53 0c-1.83,0 -3.32,-1.48 -3.32,-3.31l0 -5.28c0,-0.44 0.37,-0.81 0.82,-0.81l65.54 0c0.45,0 0.81,0.37 0.81,0.81l0 5.28c0,1.83 -1.48,3.31 -3.32,3.31zm0 0z"/>
   <path class="fil6" d="M95.49 64.32c0.45,0 0.81,0.37 0.81,0.81l0 5.28c0,1.83 -1.48,3.31 -3.32,3.31l-3.03 0c1.83,0 3.32,-1.48 3.32,-3.31l0 -6.09 2.22 0zm0 0z"/>
   <path class="fil7" d="M64.89 64.32l-13.46 0 1.59 3.64c0.11,0.25 0.36,0.41 0.63,0.41l18.14 0c0.27,0 0.52,-0.16 0.62,-0.41l1.59 -3.64 -9.11 0zm0 0z"/>
   <path class="fil8" d="M74 64.32l-1.59 3.64c-0.11,0.25 -0.35,0.41 -0.62,0.41l-2.19 0c0.02,-0.04 0.04,-0.07 0.06,-0.11l1.72 -3.94 2.62 0zm0 0z"/>
   <path class="fil6" d="M43.28 33.87c-0.06,0 -0.13,-0.01 -0.2,-0.02 -0.06,-0.01 -0.13,-0.03 -0.19,-0.06 -0.06,-0.03 -0.12,-0.06 -0.17,-0.09 -0.06,-0.04 -0.11,-0.08 -0.16,-0.13 -0.04,-0.05 -0.08,-0.1 -0.12,-0.15 -0.04,-0.06 -0.07,-0.12 -0.1,-0.18 -0.02,-0.06 -0.04,-0.12 -0.05,-0.19 -0.02,-0.06 -0.02,-0.13 -0.02,-0.2 0,-0.06 0,-0.13 0.02,-0.2 0.01,-0.06 0.03,-0.12 0.05,-0.19 0.03,-0.06 0.06,-0.12 0.1,-0.17 0.04,-0.06 0.08,-0.11 0.12,-0.16 0.05,-0.04 0.1,-0.08 0.16,-0.12 0.05,-0.04 0.11,-0.07 0.17,-0.09 0.06,-0.03 0.13,-0.05 0.19,-0.06 0.13,-0.03 0.27,-0.03 0.4,0 0.06,0.01 0.13,0.03 0.19,0.06 0.06,0.02 0.12,0.05 0.17,0.09 0.06,0.04 0.11,0.08 0.16,0.12 0.05,0.05 0.09,0.1 0.12,0.16 0.04,0.05 0.07,0.11 0.1,0.17 0.02,0.07 0.04,0.13 0.06,0.19 0.01,0.07 0.02,0.14 0.02,0.2 0,0.07 -0.01,0.14 -0.02,0.2 -0.02,0.07 -0.04,0.13 -0.06,0.19 -0.03,0.06 -0.06,0.12 -0.1,0.18 -0.03,0.05 -0.07,0.1 -0.12,0.15 -0.05,0.05 -0.1,0.09 -0.16,0.13 -0.05,0.03 -0.11,0.06 -0.17,0.09 -0.06,0.03 -0.13,0.05 -0.19,0.06 -0.07,0.01 -0.13,0.02 -0.2,0.02zm0 0z"/>
   <path class="fil6" d="M46.81 33.87c-0.07,0 -0.13,-0.01 -0.2,-0.02 -0.06,-0.01 -0.13,-0.03 -0.19,-0.06 -0.06,-0.03 -0.12,-0.06 -0.17,-0.09 -0.06,-0.04 -0.11,-0.08 -0.16,-0.13 -0.04,-0.05 -0.09,-0.1 -0.12,-0.15 -0.04,-0.06 -0.07,-0.12 -0.1,-0.18 -0.02,-0.06 -0.04,-0.12 -0.06,-0.19 -0.01,-0.06 -0.01,-0.13 -0.01,-0.2 0,-0.06 0,-0.13 0.01,-0.2 0.02,-0.06 0.04,-0.12 0.06,-0.19 0.03,-0.06 0.06,-0.12 0.1,-0.17 0.03,-0.06 0.08,-0.11 0.12,-0.16 0.05,-0.04 0.1,-0.08 0.16,-0.12 0.05,-0.04 0.11,-0.07 0.17,-0.09 0.06,-0.03 0.13,-0.05 0.19,-0.06 0.13,-0.03 0.27,-0.03 0.4,0 0.06,0.01 0.13,0.03 0.19,0.06 0.06,0.02 0.12,0.05 0.17,0.09 0.06,0.04 0.11,0.08 0.16,0.12 0.05,0.05 0.09,0.1 0.12,0.16 0.04,0.05 0.07,0.11 0.1,0.17 0.02,0.07 0.04,0.13 0.06,0.19 0.01,0.07 0.02,0.14 0.02,0.2 0,0.07 -0.01,0.14 -0.02,0.2 -0.02,0.07 -0.04,0.13 -0.06,0.19 -0.03,0.06 -0.06,0.12 -0.1,0.18 -0.03,0.05 -0.07,0.1 -0.12,0.15 -0.05,0.05 -0.1,0.09 -0.16,0.13 -0.05,0.03 -0.11,0.06 -0.17,0.09 -0.06,0.03 -0.13,0.05 -0.19,0.06 -0.07,0.01 -0.13,0.02 -0.2,0.02zm0 0z"/>
   <path class="fil6" d="M50.34 33.87c-0.07,0 -0.13,-0.01 -0.2,-0.02 -0.06,-0.01 -0.13,-0.03 -0.19,-0.06 -0.06,-0.03 -0.12,-0.06 -0.17,-0.09 -0.06,-0.04 -0.11,-0.08 -0.16,-0.13 -0.05,-0.05 -0.09,-0.1 -0.12,-0.15 -0.04,-0.06 -0.07,-0.12 -0.1,-0.18 -0.02,-0.06 -0.04,-0.12 -0.06,-0.19 -0.01,-0.06 -0.02,-0.13 -0.02,-0.2 0,-0.06 0.01,-0.13 0.02,-0.2 0.02,-0.06 0.04,-0.12 0.06,-0.19 0.03,-0.06 0.06,-0.12 0.1,-0.17 0.03,-0.06 0.07,-0.11 0.12,-0.16 0.05,-0.04 0.1,-0.08 0.16,-0.12 0.05,-0.04 0.11,-0.07 0.17,-0.09 0.06,-0.03 0.13,-0.05 0.19,-0.06 0.13,-0.03 0.27,-0.03 0.4,0 0.06,0.01 0.13,0.03 0.19,0.06 0.06,0.02 0.12,0.05 0.17,0.09 0.06,0.04 0.11,0.08 0.16,0.12 0.04,0.05 0.09,0.1 0.12,0.16 0.04,0.05 0.07,0.11 0.1,0.17 0.02,0.07 0.04,0.13 0.05,0.19 0.02,0.07 0.02,0.14 0.02,0.2 0,0.07 0,0.14 -0.02,0.2 -0.01,0.07 -0.03,0.13 -0.05,0.19 -0.03,0.06 -0.06,0.12 -0.1,0.18 -0.03,0.05 -0.08,0.1 -0.12,0.15 -0.05,0.05 -0.1,0.09 -0.16,0.13 -0.05,0.03 -0.11,0.06 -0.17,0.09 -0.06,0.03 -0.13,0.05 -0.19,0.06 -0.07,0.01 -0.14,0.02 -0.2,0.02zm0 0z"/>
   <path class="fil6" d="M82.8 37.31l-40.16 0c-0.56,0 -1.01,-0.46 -1.01,-1.02 0,-0.56 0.45,-1.01 1.01,-1.01l40.16 0c0.56,0 1.01,0.45 1.01,1.01 0,0.56 -0.45,1.02 -1.01,1.02zm0 0z"/>
   <path class="fil9" d="M81.63 51.68l-37.83 0c-0.64,0 -1.16,-0.52 -1.16,-1.16l0 -9.31c0,-0.64 0.52,-1.16 1.16,-1.16l37.83 0c0.65,0 1.17,0.52 1.17,1.16l0 9.31c0,0.64 -0.52,1.16 -1.17,1.16zm0 0z"/>
   <path class="fil10" d="M81.63 51.68l-2.32 0 0 -11.63 2.32 0c0.65,0 1.17,0.52 1.17,1.16l0 9.31c0,0.64 -0.52,1.16 -1.17,1.16zm0 0z"/>
   <g>
    <path class="fil6" d="M57.6 56.61l-13.83 0c-0.56,0 -1.02,-0.46 -1.02,-1.02 0,-0.56 0.46,-1.01 1.02,-1.01l13.83 0c0.56,0 1.02,0.45 1.02,1.01 0,0.56 -0.46,1.02 -1.02,1.02l0 0zm0 0z"/>
    <path class="fil6" d="M67.08 56.61l-5.74 0c-0.56,0 -1.01,-0.46 -1.01,-1.02 0,-0.56 0.45,-1.01 1.01,-1.01l5.74 0c0.56,0 1.02,0.45 1.02,1.01 0,0.56 -0.46,1.02 -1.02,1.02l0 0zm0 0z"/>
    <path class="fil6" d="M81.67 56.61l-10.81 0c-0.56,0 -1.02,-0.46 -1.02,-1.02 0,-0.56 0.46,-1.01 1.02,-1.01l10.81 0c0.56,0 1.01,0.45 1.01,1.01 0,0.56 -0.45,1.02 -1.01,1.02l0 0zm0 0z"/>
    <path class="fil6" d="M50.72 60.79l-6.95 0c-0.56,0 -1.02,-0.46 -1.02,-1.02 0,-0.56 0.46,-1.01 1.02,-1.01l6.95 0c0.56,0 1.01,0.45 1.01,1.01 0,0.56 -0.45,1.02 -1.01,1.02zm0 0z"/>
    <path class="fil6" d="M70.86 60.79l-15.29 0c-0.56,0 -1.01,-0.46 -1.01,-1.02 0,-0.56 0.45,-1.01 1.01,-1.01l15.29 0c0.56,0 1.01,0.45 1.01,1.01 0,0.56 -0.45,1.02 -1.01,1.02zm0 0z"/>
    <path class="fil6" d="M81.67 60.79l-7.67 0c-0.56,0 -1.01,-0.46 -1.01,-1.02 0,-0.56 0.45,-1.01 1.01,-1.01l7.67 0c0.56,0 1.01,0.45 1.01,1.01 0,0.56 -0.45,1.02 -1.01,1.02zm0 0z"/>
   </g>
   <path class="fil11" d="M96.51 19.64c0,7.41 -6,13.41 -13.41,13.41 -7.4,0 -13.4,-6 -13.4,-13.41 0,-7.4 6,-13.41 13.4,-13.41 7.41,0 13.41,6.01 13.41,13.41zm0 0z"/>
   <path class="fil12" d="M96.51 19.64c0,7.41 -6,13.41 -13.41,13.41 -3.98,0 -7.57,-1.74 -10.02,-4.5 1.9,1.03 4.08,1.61 6.39,1.61 7.4,0 13.41,-6 13.41,-13.41 0,-3.41 -1.28,-6.53 -3.39,-8.9 4.18,2.27 7.02,6.7 7.02,11.79l0 0zm0 0z"/>
   <path class="fil6" d="M81.98 13.33l-0.69 0.51c-0.45,0.33 -0.54,0.97 -0.21,1.42 0.2,0.27 0.51,0.41 0.82,0.41 0.21,0 0.42,-0.06 0.6,-0.2l3.05 -2.26c0.25,-0.19 0.41,-0.49 0.41,-0.81 0,-0.31 -0.14,-0.61 -0.39,-0.81l-3.05 -2.36c-0.44,-0.34 -1.08,-0.26 -1.43,0.18 -0.34,0.45 -0.26,1.08 0.19,1.43l0.58 0.45c-4.18,0.74 -7.36,4.39 -7.36,8.78 0,1.41 0.34,2.82 0.98,4.07 0.18,0.35 0.54,0.55 0.91,0.55 0.15,0 0.31,-0.03 0.46,-0.11 0.5,-0.25 0.7,-0.87 0.44,-1.37 -0.5,-0.97 -0.76,-2.03 -0.76,-3.14 0,-3.31 2.34,-6.07 5.45,-6.74l0 0zm0 0z"/>
   <path class="fil6" d="M91.71 19.22c0,-1.42 -0.34,-2.83 -0.98,-4.08 -0.26,-0.5 -0.87,-0.69 -1.37,-0.44 -0.5,0.26 -0.7,0.87 -0.44,1.37 0.5,0.98 0.76,2.04 0.76,3.15 0,3.3 -2.34,6.07 -5.45,6.73l0.69 -0.5c0.45,-0.34 0.54,-0.97 0.21,-1.42 -0.34,-0.46 -0.97,-0.55 -1.42,-0.22l-3.05 2.27c-0.26,0.18 -0.41,0.48 -0.41,0.8 0,0.32 0.14,0.62 0.39,0.81l3.05 2.36c0.19,0.15 0.4,0.22 0.62,0.22 0.3,0 0.6,-0.14 0.8,-0.4 0.35,-0.44 0.27,-1.08 -0.18,-1.42l-0.58 -0.45c4.18,-0.74 7.36,-4.4 7.36,-8.78l0 0zm0 0z"/>
  </g>
 </g>
</svg>
