<?xml version="1.0" encoding="UTF-8"?>
<!DOCTYPE svg PUBLIC "-//W3C//DTD SVG 1.1//EN" "http://www.w3.org/Graphics/SVG/1.1/DTD/svg11.dtd">
<!-- Creator: CorelDRAW 2019 (64-Bit) -->
<svg xmlns="http://www.w3.org/2000/svg" xml:space="preserve" width="300px" height="180px" version="1.1" style="shape-rendering:geometricPrecision; text-rendering:geometricPrecision; image-rendering:optimizeQuality; fill-rule:evenodd; clip-rule:evenodd"
viewBox="0 0 68.51 41.11"
 xmlns:xlink="http://www.w3.org/1999/xlink"
 enable-background="new 0 0 511.88 511.88">
 <defs>
  <style type="text/css">
   <![CDATA[
    .fil0 {fill:none}
    .fil4 {fill:#102840}
    .fil3 {fill:#143D66}
    .fil5 {fill:#195D80}
    .fil2 {fill:#8CBCFF}
    .fil10 {fill:#912E60}
    .fil1 {fill:#9EE2F8}
    .fil9 {fill:#C43970}
    .fil7 {fill:#FABE2C}
    .fil6 {fill:#FED843}
    .fil8 {fill:#FF448E}
   ]]>
  </style>
 </defs>
 <g id="Layer_x0020_1">
  <metadata id="CorelCorpID_0Corel-Layer"/>
  <rect class="fil0" width="68.51" height="41.11"/>
  <g id="virus.svg">
   <g>
    <polygon class="fil1" points="17.01,11.41 51.5,11.41 51.5,33.58 17.01,33.58 "/>
    <polygon class="fil2" points="34.25,11.41 51.5,11.41 51.5,33.58 34.25,33.58 "/>
    <path class="fil3" d="M52.72 11.41l0 22.17c0,0.67 -0.54,1.22 -1.22,1.22l-34.49 0c-0.68,0 -1.23,-0.55 -1.23,-1.22l0 -22.17c0,-0.68 0.55,-1.23 1.23,-1.23l13.55 0c0.68,0 1.23,0.55 1.23,1.23 0,0.67 -0.55,1.22 -1.23,1.22l-12.32 0 0 20.43 32.03 -0.02 0 -20.41 -12.32 0c-0.68,0 -1.23,-0.55 -1.23,-1.22 0,-0.68 0.55,-1.23 1.23,-1.23l13.55 0c0.68,0 1.22,0.55 1.22,1.23z"/>
    <path class="fil4" d="M52.72 11.41l0 22.17c0,0.67 -0.54,1.22 -1.22,1.22l-17.25 0 0 -1.87 16.02 0.11 0 -20.41 -12.32 0c-0.68,0 -1.23,-0.55 -1.23,-1.22 0,-0.68 0.55,-1.23 1.23,-1.23l13.55 0c0.68,0 1.22,0.55 1.22,1.23z"/>
    <path class="fil5" d="M55.19 33.58c0,2.71 -2.21,4.92 -4.92,4.92l-32.03 0c-2.71,0 -4.92,-2.21 -4.92,-4.92 0,-0.68 0.55,-1.23 1.23,-1.23l39.41 0c0.68,0 1.23,0.55 1.23,1.23l0 0z"/>
    <path class="fil3" d="M55.19 33.58c0,2.71 -2.21,4.92 -4.92,4.92l-16.02 0 0 -6.15 19.71 0c0.68,0 1.23,0.55 1.23,1.23l0 0z"/>
    <path class="fil6" d="M28.71 24.95l-6.77 0c-0.68,0 -1.23,-0.55 -1.23,-1.23 0,-0.68 0.55,-1.23 1.23,-1.23l6.77 0c0.68,0 1.23,0.55 1.23,1.23 0,0.68 -0.55,1.23 -1.23,1.23z"/>
    <path class="fil6" d="M30.56 29.87l-8.62 0c-0.68,0 -1.23,-0.55 -1.23,-1.22 0,-0.68 0.55,-1.23 1.23,-1.23l8.62 0c0.68,0 1.23,0.55 1.23,1.23 0,0.67 -0.55,1.22 -1.23,1.22z"/>
    <path class="fil7" d="M46.57 24.95l-6.77 0c-0.68,0 -1.23,-0.55 -1.23,-1.23 0,-0.68 0.55,-1.23 1.23,-1.23l6.77 0c0.68,0 1.23,0.55 1.23,1.23 0,0.68 -0.55,1.23 -1.23,1.23z"/>
    <path class="fil7" d="M46.57 29.87l-8.62 0c-0.68,0 -1.23,-0.55 -1.23,-1.22 0,-0.68 0.55,-1.23 1.23,-1.23l8.62 0c0.68,0 1.23,0.55 1.23,1.23 0,0.67 -0.55,1.22 -1.23,1.22z"/>
    <path class="fil3" d="M35.95 8.05c-0.94,0 -1.54,-1.04 -1.05,-1.86l1.79 -2.99c0.35,-0.58 1.11,-0.77 1.69,-0.42 0.58,0.35 0.77,1.1 0.42,1.68l-1.8 2.99c-0.23,0.39 -0.63,0.6 -1.05,0.6z"/>
    <path class="fil5" d="M32.56 8.06c-0.42,0 -0.82,-0.22 -1.05,-0.6l-1.8 -2.99c-0.34,-0.58 -0.16,-1.33 0.43,-1.68 0.58,-0.35 1.33,-0.16 1.68,0.42l1.79 2.99c0.5,0.82 -0.11,1.86 -1.05,1.86z"/>
    <path class="fil3" d="M42.88 20.03c-0.45,0 -0.89,-0.25 -1.1,-0.68l-0.89 -1.79 -2.94 0c-0.68,0 -1.23,-0.54 -1.23,-1.22 0,-0.68 0.55,-1.23 1.23,-1.23l3.69 0c0.47,0 0.89,0.26 1.1,0.68l1.23 2.46c0.41,0.82 -0.19,1.78 -1.09,1.78z"/>
    <path class="fil3" d="M41.64 12.64l-3.69 0c-0.68,0 -1.23,-0.55 -1.23,-1.23 0,-0.68 0.55,-1.23 1.23,-1.23l2.94 0 0.89 -1.78c0.3,-0.61 1.04,-0.85 1.64,-0.55 0.61,0.3 0.86,1.04 0.55,1.65l-1.23 2.46c-0.21,0.42 -0.63,0.68 -1.1,0.68l0 0z"/>
    <path class="fil5" d="M25.63 20.03c-0.9,0 -1.5,-0.96 -1.09,-1.78l1.23 -2.46c0.21,-0.42 0.63,-0.68 1.09,-0.68l3.7 0c0.68,0 1.23,0.55 1.23,1.23 0,0.68 -0.55,1.22 -1.23,1.22l-2.94 0 -0.89 1.79c-0.21,0.43 -0.65,0.68 -1.1,0.68l0 0z"/>
    <path class="fil5" d="M30.56 12.64l-3.7 0c-0.46,0 -0.88,-0.26 -1.09,-0.68l-1.23 -2.46c-0.31,-0.61 -0.06,-1.35 0.54,-1.65 0.61,-0.3 1.35,-0.06 1.65,0.55l0.89 1.78 2.94 0c0.68,0 1.23,0.55 1.23,1.23 0,0.68 -0.55,1.23 -1.23,1.23l0 0z"/>
    <path class="fil8" d="M39.18 9.99l0 6.16c0,2.71 -2.21,4.92 -4.93,4.92 -2.71,0 -4.92,-2.21 -4.92,-4.92l0 -6.16c0,-2.71 2.21,-4.92 4.92,-4.92 2.72,0 4.93,2.21 4.93,4.92z"/>
    <path class="fil9" d="M39.18 9.99l0 6.16c0,2.71 -2.21,4.92 -4.93,4.92l0 -16c2.72,0 4.93,2.21 4.93,4.92z"/>
    <polygon class="fil9" points="29.33,10.18 39.18,10.18 39.18,12.64 29.33,12.64 "/>
    <polygon class="fil10" points="34.25,10.18 39.18,10.18 39.18,12.64 34.25,12.64 "/>
   </g>
  </g>
 </g>
</svg>
